<?xml version="1.0" encoding="UTF-8"?> <svg xmlns="http://www.w3.org/2000/svg" xmlns:xlink="http://www.w3.org/1999/xlink" version="1.1" viewBox="0 0 150 25"><defs><style> .cls-1 { fill: url(#linear-gradient-12); } .cls-1, .cls-2, .cls-3, .cls-4, .cls-5, .cls-6, .cls-7, .cls-8, .cls-9, .cls-10, .cls-11, .cls-12, .cls-13, .cls-14, .cls-15, .cls-16, .cls-17, .cls-18, .cls-19, .cls-20, .cls-21, .cls-22, .cls-23, .cls-24, .cls-25, .cls-26, .cls-27, .cls-28, .cls-29, .cls-30, .cls-31, .cls-32, .cls-33, .cls-34, .cls-35, .cls-36, .cls-37 { stroke-width: 0px; } .cls-2 { fill: url(#linear-gradient-17); } .cls-3 { mix-blend-mode: multiply; opacity: .1; } .cls-3, .cls-33 { fill: #fff; } .cls-4 { fill: url(#linear-gradient-19); } .cls-5 { fill: url(#linear-gradient); } .cls-6 { fill: url(#linear-gradient-21); } .cls-7 { fill: url(#linear-gradient-6); } .cls-8 { fill: #60c778; } .cls-38 { isolation: isolate; } .cls-9 { fill: url(#linear-gradient-15); } .cls-10 { fill: url(#linear-gradient-11); } .cls-11 { fill: #fbed7b; } .cls-12 { fill: url(#linear-gradient-5); } .cls-13 { fill: #28285b; } .cls-14 { fill: url(#linear-gradient-13); } .cls-15 { fill: url(#linear-gradient-23); } .cls-16 { fill: url(#linear-gradient-25); } .cls-17 { fill: url(#linear-gradient-16); } .cls-18 { fill: url(#linear-gradient-22); } .cls-19 { fill: url(#linear-gradient-20); } .cls-20 { fill: #54a1d8; } .cls-21 { fill: url(#linear-gradient-14); } .cls-22 { fill: url(#linear-gradient-2); } .cls-23 { fill: url(#linear-gradient-7); } .cls-24 { fill: url(#linear-gradient-3); } .cls-25 { fill: #4e7cbd; } .cls-26 { fill: url(#linear-gradient-9); } .cls-27 { fill: url(#linear-gradient-27); } .cls-28 { fill: url(#linear-gradient-8); } .cls-29 { fill: url(#linear-gradient-24); } .cls-30 { fill: url(#linear-gradient-26); } .cls-31 { fill: url(#linear-gradient-18); } .cls-32 { fill: #95ed88; } .cls-34 { fill: url(#linear-gradient-29); } .cls-35 { fill: url(#linear-gradient-28); } .cls-36 { fill: url(#linear-gradient-10); } .cls-37 { fill: url(#linear-gradient-4); } </style><linearGradient id="linear-gradient" x1="1183.2" y1="-1296.8" x2="2127.2" y2="-1296.8" gradientTransform="translate(0 26) scale(1 -1)" gradientUnits="userSpaceOnUse"><stop offset="0" stop-color="#a4f291"></stop><stop offset="1" stop-color="#60c778"></stop></linearGradient><linearGradient id="linear-gradient-2" x1="1183.1" y1="-1298.2" x2="2127.1" y2="-1298.2" gradientTransform="translate(0 26) scale(1 -1)" gradientUnits="userSpaceOnUse"><stop offset="0" stop-color="#a4f291"></stop><stop offset="1" stop-color="#60c778"></stop></linearGradient><linearGradient id="linear-gradient-3" x1="1183.1" y1="-1296.9" x2="2127.1" y2="-1296.9" gradientTransform="translate(0 26) scale(1 -1)" gradientUnits="userSpaceOnUse"><stop offset="0" stop-color="#a4f291"></stop><stop offset="1" stop-color="#60c778"></stop></linearGradient><linearGradient id="linear-gradient-4" x1="1183.1" y1="-1650.3" x2="2127.1" y2="-1650.3" gradientTransform="translate(0 26) scale(1 -1)" gradientUnits="userSpaceOnUse"><stop offset="0" stop-color="#a4f291"></stop><stop offset="1" stop-color="#60c778"></stop></linearGradient><linearGradient id="linear-gradient-5" x1="1183.1" y1="-1650.3" x2="2127.1" y2="-1650.3" gradientTransform="translate(0 26) scale(1 -1)" gradientUnits="userSpaceOnUse"><stop offset="0" stop-color="#a4f291"></stop><stop offset="1" stop-color="#60c778"></stop></linearGradient><linearGradient id="linear-gradient-6" x1="1183.1" y1="-1650.3" x2="2127.1" y2="-1650.3" gradientTransform="translate(0 26) scale(1 -1)" gradientUnits="userSpaceOnUse"><stop offset="0" stop-color="#a4f291"></stop><stop offset="1" stop-color="#60c778"></stop></linearGradient><linearGradient id="linear-gradient-7" x1="1183.1" y1="-1650.4" x2="2127.1" y2="-1650.4" gradientTransform="translate(0 26) scale(1 -1)" gradientUnits="userSpaceOnUse"><stop offset="0" stop-color="#a4f291"></stop><stop offset="1" stop-color="#60c778"></stop></linearGradient><linearGradient id="linear-gradient-8" x1="1183.1" y1="-1651.7" x2="2127.1" y2="-1651.7" gradientTransform="translate(0 26) scale(1 -1)" gradientUnits="userSpaceOnUse"><stop offset="0" stop-color="#a4f291"></stop><stop offset="1" stop-color="#60c778"></stop></linearGradient><linearGradient id="linear-gradient-9" x1="1183.1" y1="-1650.3" x2="2127.1" y2="-1650.3" gradientTransform="translate(0 26) scale(1 -1)" gradientUnits="userSpaceOnUse"><stop offset="0" stop-color="#a4f291"></stop><stop offset="1" stop-color="#60c778"></stop></linearGradient><linearGradient id="linear-gradient-10" x1="1183.1" y1="-1650.3" x2="2127.1" y2="-1650.3" gradientTransform="translate(0 26) scale(1 -1)" gradientUnits="userSpaceOnUse"><stop offset="0" stop-color="#a4f291"></stop><stop offset="1" stop-color="#60c778"></stop></linearGradient><linearGradient id="linear-gradient-11" x1="1183.1" y1="-1650.3" x2="2127.1" y2="-1650.3" gradientTransform="translate(0 26) scale(1 -1)" gradientUnits="userSpaceOnUse"><stop offset="0" stop-color="#a4f291"></stop><stop offset="1" stop-color="#60c778"></stop></linearGradient><linearGradient id="linear-gradient-12" x1="1183.1" y1="-1650.3" x2="2127.1" y2="-1650.3" gradientTransform="translate(0 26) scale(1 -1)" gradientUnits="userSpaceOnUse"><stop offset="0" stop-color="#a4f291"></stop><stop offset="1" stop-color="#60c778"></stop></linearGradient><linearGradient id="linear-gradient-13" x1="1183.1" y1="-1650.3" x2="2127.1" y2="-1650.3" gradientTransform="translate(0 26) scale(1 -1)" gradientUnits="userSpaceOnUse"><stop offset="0" stop-color="#a4f291"></stop><stop offset="1" stop-color="#60c778"></stop></linearGradient><linearGradient id="linear-gradient-14" x1="1198.1" y1="-1472.5" x2="2150" y2="-1472.5" gradientTransform="translate(0 26) scale(1 -1)" gradientUnits="userSpaceOnUse"><stop offset=".2" stop-color="#77bf75"></stop><stop offset="1" stop-color="#aeeb8f"></stop></linearGradient><linearGradient id="linear-gradient-15" x1="1198.2" y1="-1472.6" x2="2150.1" y2="-1472.6" gradientTransform="translate(0 26) scale(1 -1)" gradientUnits="userSpaceOnUse"><stop offset=".2" stop-color="#77bf75"></stop><stop offset="1" stop-color="#aeeb8f"></stop></linearGradient><linearGradient id="linear-gradient-16" x1="1198.2" y1="-1472.6" x2="2150.1" y2="-1472.6" gradientTransform="translate(0 26) scale(1 -1)" gradientUnits="userSpaceOnUse"><stop offset=".2" stop-color="#77bf75"></stop><stop offset="1" stop-color="#aeeb8f"></stop></linearGradient><linearGradient id="linear-gradient-17" x1="1198.2" y1="-1472.5" x2="2150.1" y2="-1472.5" gradientTransform="translate(0 26) scale(1 -1)" gradientUnits="userSpaceOnUse"><stop offset=".2" stop-color="#77bf75"></stop><stop offset="1" stop-color="#aeeb8f"></stop></linearGradient><linearGradient id="linear-gradient-18" x1="1198.2" y1="-1472.5" x2="2150.1" y2="-1472.5" gradientTransform="translate(0 26) scale(1 -1)" gradientUnits="userSpaceOnUse"><stop offset=".2" stop-color="#77bf75"></stop><stop offset="1" stop-color="#aeeb8f"></stop></linearGradient><linearGradient id="linear-gradient-19" x1="1198.2" y1="-1472.6" x2="2150.1" y2="-1472.6" gradientTransform="translate(0 26) scale(1 -1)" gradientUnits="userSpaceOnUse"><stop offset=".2" stop-color="#77bf75"></stop><stop offset="1" stop-color="#aeeb8f"></stop></linearGradient><linearGradient id="linear-gradient-20" x1="1198.2" y1="-1472.5" x2="2150.1" y2="-1472.5" gradientTransform="translate(0 26) scale(1 -1)" gradientUnits="userSpaceOnUse"><stop offset=".2" stop-color="#77bf75"></stop><stop offset="1" stop-color="#aeeb8f"></stop></linearGradient><linearGradient id="linear-gradient-21" x1="702.3" y1="-1596.8" x2="704.6" y2="-1327.3" gradientTransform="translate(0 26) scale(1 -1)" gradientUnits="userSpaceOnUse"><stop offset="0" stop-color="#60c778"></stop><stop offset="1" stop-color="#a4f291"></stop></linearGradient><linearGradient id="linear-gradient-22" x1="858.3" y1="-1627.5" x2="860.7" y2="-1344.8" gradientTransform="translate(0 26) scale(1 -1)" gradientUnits="userSpaceOnUse"><stop offset="0" stop-color="#60c778"></stop><stop offset="1" stop-color="#a4f291"></stop></linearGradient><linearGradient id="linear-gradient-23" x1="1198.1" y1="-1472.5" x2="2150" y2="-1472.5" gradientTransform="translate(0 26) scale(1 -1)" gradientUnits="userSpaceOnUse"><stop offset=".2" stop-color="#77bf75"></stop><stop offset="1" stop-color="#aeeb8f"></stop></linearGradient><linearGradient id="linear-gradient-24" x1="1198.2" y1="-1472.6" x2="2150.1" y2="-1472.6" gradientTransform="translate(0 26) scale(1 -1)" gradientUnits="userSpaceOnUse"><stop offset=".2" stop-color="#77bf75"></stop><stop offset="1" stop-color="#aeeb8f"></stop></linearGradient><linearGradient id="linear-gradient-25" x1="1198.2" y1="-1472.6" x2="2150.1" y2="-1472.6" gradientTransform="translate(0 26) scale(1 -1)" gradientUnits="userSpaceOnUse"><stop offset=".2" stop-color="#77bf75"></stop><stop offset="1" stop-color="#aeeb8f"></stop></linearGradient><linearGradient id="linear-gradient-26" x1="1198.2" y1="-1472.5" x2="2150.1" y2="-1472.5" gradientTransform="translate(0 26) scale(1 -1)" gradientUnits="userSpaceOnUse"><stop offset=".2" stop-color="#77bf75"></stop><stop offset="1" stop-color="#aeeb8f"></stop></linearGradient><linearGradient id="linear-gradient-27" x1="1198.2" y1="-1472.5" x2="2150.1" y2="-1472.5" gradientTransform="translate(0 26) scale(1 -1)" gradientUnits="userSpaceOnUse"><stop offset=".2" stop-color="#77bf75"></stop><stop offset="1" stop-color="#aeeb8f"></stop></linearGradient><linearGradient id="linear-gradient-28" x1="1198.2" y1="-1472.6" x2="2150.1" y2="-1472.6" gradientTransform="translate(0 26) scale(1 -1)" gradientUnits="userSpaceOnUse"><stop offset=".2" stop-color="#77bf75"></stop><stop offset="1" stop-color="#aeeb8f"></stop></linearGradient><linearGradient id="linear-gradient-29" x1="1198.2" y1="-1472.5" x2="2150.1" y2="-1472.5" gradientTransform="translate(0 26) scale(1 -1)" gradientUnits="userSpaceOnUse"><stop offset=".2" stop-color="#77bf75"></stop><stop offset="1" stop-color="#aeeb8f"></stop></linearGradient></defs><g class="cls-38"><g id="Layer_1" data-name="Layer 1"><g><g><g><g><path class="cls-5" d="M1286.9,1363h-55.5l-10.3,25.5h-37.9l58-131.4h36.6l58.2,131.4h-38.7l-10.3-25.5h0ZM1276,1335.6l-16.9-42-16.9,42h33.8Z"></path><path class="cls-22" d="M1358.7,1375.2c-10.8-10.6-16.2-25.7-16.2-45.2v-72.8h37.2v71.7c0,21,8.3,31.5,25,31.5s24.8-10.5,24.8-31.5v-71.7h36.6v72.8c0,19.5-5.4,34.6-16.2,45.2-10.8,10.6-26,16-45.5,16s-34.7-5.3-45.5-16h-.2Z"></path><path class="cls-24" d="M1506.3,1387.2c-10-2.6-18.1-6.1-24.4-10.5l12.2-27.4c5.9,3.9,12.7,7,20.5,9.4s15.4,3.6,22.9,3.6c14.3,0,21.4-3.6,21.4-10.7s-2-6.5-6.1-8.4c-4.1-1.8-10.6-3.7-19.6-5.7-9.9-2.1-18.1-4.4-24.8-6.8-6.6-2.4-12.3-6.3-17.1-11.7-4.8-5.4-7.1-12.6-7.1-21.8s2.2-15.2,6.6-21.7c4.4-6.4,10.9-11.5,19.6-15.3s19.4-5.6,32-5.6,17.1,1,25.5,2.9,15.8,4.8,22.1,8.5l-11.4,27.6c-12.5-6.8-24.6-10.1-36.4-10.1s-12.8,1.1-16.1,3.3c-3.4,2.2-5.1,5-5.1,8.5s2,6.1,6,7.9,10.4,3.6,19.3,5.4c10,2.1,18.3,4.4,24.9,6.8s12.3,6.3,17.1,11.6c4.8,5.3,7.2,12.5,7.2,21.7s-2.2,15-6.6,21.4-10.9,11.5-19.7,15.3c-8.8,3.8-19.4,5.7-31.9,5.7s-21-1.3-31-3.9h0Z"></path><path class="cls-37" d="M1227.3,1735.9c-10.9-5.8-19.5-13.9-25.8-24.3s-9.4-22.1-9.4-35.3,3.1-24.9,9.4-35.3,14.9-18.5,25.8-24.3,23.3-8.7,37.1-8.7,22.8,2.1,32.5,6.4c9.6,4.3,17.6,10.4,24,18.4l-23.6,21.4c-8.5-10.3-18.8-15.4-31-15.4s-13.5,1.6-19,4.7c-5.6,3.1-9.9,7.5-12.9,13.2-3.1,5.7-4.6,12.2-4.6,19.6s1.5,13.9,4.6,19.6,7.4,10.1,12.9,13.2c5.6,3.1,11.9,4.7,19,4.7,12.1,0,22.5-5.1,31-15.4l23.6,21.4c-6.4,8-14.4,14.1-24,18.4s-20.5,6.4-32.5,6.4-26.1-2.9-37.1-8.7h0Z"></path><path class="cls-12" d="M1363.4,1735.8c-11.1-5.9-19.8-14-26.1-24.4-6.3-10.4-9.5-22.1-9.5-35.1s3.2-24.7,9.5-35.1,15-18.5,26.1-24.4,23.6-8.8,37.4-8.8,26.4,2.9,37.4,8.8c11.1,5.9,19.8,14,26.1,24.4,6.3,10.4,9.5,22.1,9.5,35.1s-3.2,24.7-9.5,35.1-15,18.5-26.1,24.4-23.6,8.8-37.4,8.8-26.4-2.9-37.4-8.8ZM1418.8,1709.2c5.4-3.1,9.6-7.5,12.8-13.2,3.1-5.7,4.7-12.2,4.7-19.6s-1.6-13.9-4.7-19.6-7.4-10.1-12.8-13.2-11.4-4.7-18-4.7-12.6,1.6-18,4.7-9.6,7.5-12.8,13.2c-3.1,5.7-4.7,12.2-4.7,19.6s1.6,13.9,4.7,19.6,7.4,10.1,12.8,13.2,11.4,4.7,18,4.7,12.6-1.6,18-4.7Z"></path><path class="cls-7" d="M1618.3,1610.6v131.4h-30.6l-58-70v70h-36.4v-131.4h30.6l58,70v-70h36.4Z"></path><path class="cls-23" d="M1659.8,1740.7c-10-2.6-18.1-6.1-24.4-10.5l12.2-27.4c5.9,3.9,12.7,7,20.5,9.4s15.4,3.6,22.9,3.6c14.3,0,21.4-3.6,21.4-10.7s-2-6.5-6.1-8.4c-4.1-1.8-10.6-3.7-19.6-5.7-9.9-2.1-18.1-4.4-24.8-6.8-6.6-2.4-12.3-6.3-17.1-11.7-4.8-5.4-7.1-12.6-7.1-21.8s2.2-15.2,6.6-21.7c4.4-6.4,10.9-11.5,19.6-15.3s19.4-5.6,32-5.6,17.1,1,25.5,2.9,15.8,4.8,22.1,8.5l-11.4,27.6c-12.5-6.8-24.6-10.1-36.4-10.1s-12.8,1.1-16.1,3.3c-3.4,2.2-5.1,5-5.1,8.5s2,6.1,6,7.9,10.4,3.6,19.3,5.4c10,2.1,18.3,4.4,24.9,6.9,6.6,2.4,12.3,6.3,17.1,11.6,4.8,5.3,7.2,12.5,7.2,21.7s-2.2,15-6.6,21.4-10.9,11.5-19.7,15.3c-8.8,3.8-19.4,5.7-31.9,5.7s-21-1.3-31-3.9h0Z"></path><path class="cls-28" d="M1781.1,1728.7c-10.8-10.6-16.2-25.7-16.2-45.2v-72.8h37.2v71.7c0,21,8.3,31.5,25,31.5s24.8-10.5,24.8-31.5v-71.7h36.6v72.8c0,19.5-5.4,34.6-16.2,45.2-10.8,10.6-26,16-45.5,16s-34.7-5.3-45.5-16h-.2Z"></path><path class="cls-26" d="M1913.5,1610.6h37.2v101.9h62.7v29.5h-99.8v-131.4h0Z"></path><path class="cls-36" d="M2043.8,1640.1h-40.3v-29.5h117.7v29.5h-40.2v101.9h-37.2v-101.9h0Z"></path><path class="cls-10" d="M2216.4,1716.5h-55.5l-10.3,25.5h-37.9l58-131.4h36.6l58.2,131.4h-38.7l-10.3-25.5h-.1ZM2205.5,1689.1l-16.9-42-16.9,42h33.8,0Z"></path><path class="cls-1" d="M2400.9,1610.6v131.4h-30.6l-58-70v70h-36.4v-131.4h30.6l58,70v-70h36.4Z"></path><path class="cls-14" d="M2455.1,1640.1h-40.3v-29.5h117.7v29.5h-40.2v101.9h-37.2v-101.9Z"></path></g><g><path class="cls-33" d="M1286.9,1363h-55.5l-10.3,25.5h-37.9l58-131.4h36.6l58.2,131.4h-38.7l-10.3-25.5h0ZM1276,1335.6l-16.9-42-16.9,42h33.8Z"></path><path class="cls-33" d="M1358.7,1375.2c-10.8-10.6-16.2-25.7-16.2-45.2v-72.8h37.2v71.7c0,21,8.3,31.5,25,31.5s24.8-10.5,24.8-31.5v-71.7h36.6v72.8c0,19.5-5.4,34.6-16.2,45.2-10.8,10.6-26,16-45.5,16s-34.7-5.3-45.5-16h-.2Z"></path><path class="cls-33" d="M1506.3,1387.2c-10-2.6-18.1-6.1-24.4-10.5l12.2-27.4c5.9,3.9,12.7,7,20.5,9.4s15.4,3.6,22.9,3.6c14.3,0,21.4-3.6,21.4-10.7s-2-6.5-6.1-8.4c-4.1-1.8-10.6-3.7-19.6-5.7-9.9-2.1-18.1-4.4-24.8-6.8-6.6-2.4-12.3-6.3-17.1-11.7-4.8-5.4-7.1-12.6-7.1-21.8s2.2-15.2,6.6-21.7c4.4-6.4,10.9-11.5,19.6-15.3s19.4-5.6,32-5.6,17.1,1,25.5,2.9,15.8,4.8,22.1,8.5l-11.4,27.6c-12.5-6.8-24.6-10.1-36.4-10.1s-12.8,1.1-16.1,3.3c-3.4,2.2-5.1,5-5.1,8.5s2,6.1,6,7.9,10.4,3.6,19.3,5.4c10,2.1,18.3,4.4,24.9,6.8s12.3,6.3,17.1,11.6c4.8,5.3,7.2,12.5,7.2,21.7s-2.2,15-6.6,21.4-10.9,11.5-19.7,15.3c-8.8,3.8-19.4,5.7-31.9,5.7s-21-1.3-31-3.9h0Z"></path><path class="cls-33" d="M1227.3,1735.9c-10.9-5.8-19.5-13.9-25.8-24.3s-9.4-22.1-9.4-35.3,3.1-24.9,9.4-35.3,14.9-18.5,25.8-24.3,23.3-8.7,37.1-8.7,22.8,2.1,32.5,6.4c9.6,4.3,17.6,10.4,24,18.4l-23.6,21.4c-8.5-10.3-18.8-15.4-31-15.4s-13.5,1.6-19,4.7c-5.6,3.1-9.9,7.5-12.9,13.2-3.1,5.7-4.6,12.2-4.6,19.6s1.5,13.9,4.6,19.6,7.4,10.1,12.9,13.2c5.6,3.1,11.9,4.7,19,4.7,12.1,0,22.5-5.1,31-15.4l23.6,21.4c-6.4,8-14.4,14.1-24,18.4s-20.5,6.4-32.5,6.4-26.1-2.9-37.1-8.7h0Z"></path><path class="cls-33" d="M1363.4,1735.8c-11.1-5.9-19.8-14-26.1-24.4-6.3-10.4-9.5-22.1-9.5-35.1s3.2-24.7,9.5-35.1,15-18.5,26.1-24.4,23.6-8.8,37.4-8.8,26.4,2.9,37.4,8.8c11.1,5.9,19.8,14,26.1,24.4,6.3,10.4,9.5,22.1,9.5,35.1s-3.2,24.7-9.5,35.1-15,18.5-26.1,24.4-23.6,8.8-37.4,8.8-26.4-2.9-37.4-8.8ZM1418.8,1709.2c5.4-3.1,9.6-7.5,12.8-13.2,3.1-5.7,4.7-12.2,4.7-19.6s-1.6-13.9-4.7-19.6-7.4-10.1-12.8-13.2-11.4-4.7-18-4.7-12.6,1.6-18,4.7-9.6,7.5-12.8,13.2c-3.1,5.7-4.7,12.2-4.7,19.6s1.6,13.9,4.7,19.6,7.4,10.1,12.8,13.2,11.4,4.7,18,4.7,12.6-1.6,18-4.7Z"></path><path class="cls-33" d="M1618.3,1610.6v131.4h-30.6l-58-70v70h-36.4v-131.4h30.6l58,70v-70h36.4Z"></path><path class="cls-33" d="M1659.8,1740.7c-10-2.6-18.1-6.1-24.4-10.5l12.2-27.4c5.9,3.9,12.7,7,20.5,9.4s15.4,3.6,22.9,3.6c14.3,0,21.4-3.6,21.4-10.7s-2-6.5-6.1-8.4c-4.1-1.8-10.6-3.7-19.6-5.7-9.9-2.1-18.1-4.4-24.8-6.8-6.6-2.4-12.3-6.3-17.1-11.7-4.8-5.4-7.1-12.6-7.1-21.8s2.2-15.2,6.6-21.7c4.4-6.4,10.9-11.5,19.6-15.3s19.4-5.6,32-5.6,17.1,1,25.5,2.9,15.8,4.8,22.1,8.5l-11.4,27.6c-12.5-6.8-24.6-10.1-36.4-10.1s-12.8,1.1-16.1,3.3c-3.4,2.2-5.1,5-5.1,8.5s2,6.1,6,7.9,10.4,3.6,19.3,5.4c10,2.1,18.3,4.4,24.9,6.9,6.6,2.4,12.3,6.3,17.1,11.6,4.8,5.3,7.2,12.5,7.2,21.7s-2.2,15-6.6,21.4-10.9,11.5-19.7,15.3c-8.8,3.8-19.4,5.7-31.9,5.7s-21-1.3-31-3.9h0Z"></path><path class="cls-33" d="M1781.1,1728.7c-10.8-10.6-16.2-25.7-16.2-45.2v-72.8h37.2v71.7c0,21,8.3,31.5,25,31.5s24.8-10.5,24.8-31.5v-71.7h36.6v72.8c0,19.5-5.4,34.6-16.2,45.2-10.8,10.6-26,16-45.5,16s-34.7-5.3-45.5-16h-.2Z"></path><path class="cls-33" d="M1913.5,1610.6h37.2v101.9h62.7v29.5h-99.8v-131.4h0Z"></path><path class="cls-33" d="M2043.8,1640.1h-40.3v-29.5h117.7v29.5h-40.2v101.9h-37.2v-101.9h0Z"></path><path class="cls-33" d="M2216.4,1716.5h-55.5l-10.3,25.5h-37.9l58-131.4h36.6l58.2,131.4h-38.7l-10.3-25.5h-.1ZM2205.5,1689.1l-16.9-42-16.9,42h33.8,0Z"></path><path class="cls-33" d="M2400.9,1610.6v131.4h-30.6l-58-70v70h-36.4v-131.4h30.6l58,70v-70h36.4Z"></path><path class="cls-33" d="M2455.1,1640.1h-40.3v-29.5h117.7v29.5h-40.2v101.9h-37.2v-101.9Z"></path></g></g><path class="cls-33" d="M1088.1,1550h0Z"></path><g><path class="cls-21" d="M1303.6,1535.5v28.7h-105.5v-131.4h103v28.7h-66.2v22.1h58.4v27.8h-58.4v24h68.7Z"></path><path class="cls-9" d="M1449.2,1432.9v131.4h-30.6l-58-70v70h-36.4v-131.4h30.6l58,70v-70h36.4Z"></path><path class="cls-17" d="M1563.5,1495.8h32.8v54.4c-7.5,5.4-16.1,9.5-25.9,12.4s-19.5,4.3-29.3,4.3-26.1-2.9-37.2-8.7c-11-5.8-19.6-13.9-25.9-24.3s-9.4-22.1-9.4-35.3,3.1-24.9,9.4-35.3,14.9-18.5,26.1-24.3c11.1-5.8,23.7-8.7,37.7-8.7s23.3,2.1,33,6.2c9.8,4.1,17.9,10.1,24.4,17.8l-23.6,21.4c-8.9-9.8-19.5-14.6-31.9-14.6s-20.3,3.4-27.2,10.2c-6.9,6.8-10.3,15.9-10.3,27.3s1.6,13.7,4.7,19.4c3.1,5.7,7.5,10.1,13.1,13.3,5.6,3.2,12.1,4.8,19.3,4.8s13.8-1.4,20.1-4.3v-36h.1Z"></path><path class="cls-2" d="M1725.5,1535.5v28.7h-105.5v-131.4h103v28.7h-66.2v22.1h58.4v27.8h-58.4v24h68.7Z"></path><path class="cls-31" d="M1803.5,1529.3h-20.3v34.9h-37.2v-131.4h60.1c11.9,0,22.2,2,31,5.9s15.5,9.6,20.3,16.9,7.1,15.9,7.1,25.8-2.2,17.8-6.7,24.9c-4.4,7.1-10.8,12.6-19,16.6l28.3,41.3h-39.8l-23.8-34.9h0ZM1821.2,1467.2c-3.9-3.4-9.6-5.1-17.3-5.1h-20.6v38.5h20.6c7.6,0,13.4-1.7,17.3-5s5.8-8,5.8-14.2-1.9-10.9-5.8-14.3h0Z"></path><path class="cls-4" d="M1973,1495.8h32.8v54.4c-7.5,5.4-16.1,9.5-25.9,12.4s-19.5,4.3-29.3,4.3-26.2-2.9-37.2-8.7c-11-5.8-19.6-13.9-25.9-24.3s-9.4-22.1-9.4-35.3,3.1-24.9,9.4-35.3,14.9-18.5,26.1-24.3c11.1-5.8,23.7-8.7,37.7-8.7s23.3,2.1,33,6.2c9.8,4.1,17.9,10.1,24.4,17.8l-23.6,21.4c-8.9-9.8-19.5-14.6-31.9-14.6s-20.3,3.4-27.2,10.2c-6.9,6.8-10.3,15.9-10.3,27.3s1.6,13.7,4.7,19.4c3.1,5.7,7.5,10.1,13.1,13.3,5.6,3.2,12.1,4.8,19.3,4.8s13.8-1.4,20.1-4.3v-36h.1Z"></path><path class="cls-19" d="M2099.8,1517.1v47.1h-37.2v-47.7l-50.1-83.7h39.2l31.2,52.2,31.2-52.2h36l-50.3,84.3h0Z"></path></g><g><path class="cls-6" d="M730.3,1512.1h23.4l-41.3,110.8c-17.3-12.9-31.9-29.4-42.4-48.2-12.7-22.7-19.5-48.6-19.5-74.8s12.5-70.2,35.1-97.6c18.9-22.8,44-39.6,71.9-48.5l-46.9,130c-2.3,6.4-1.4,13.6,2.6,19.2,3.9,5.6,10.4,9,17.2,9h0Z"></path><path class="cls-18" d="M956.5,1500c0,40.9-15.9,79.3-44.8,108.2-28.9,28.9-67.4,44.8-108.2,44.8s-28.4-2-42-5.8l126.9-174.7c4.8-6.7,5.5-15.4,1.8-22.7-3.7-7.3-11.2-11.9-19.4-11.9h-26.1l41.2-66.9c20,12.8,36.9,30.2,49.1,50.7,14.1,23.6,21.5,50.7,21.5,78.3Z"></path><path class="cls-33" d="M883,1358.9l21.7-35.2c4.3-7.1-.7-16.1-9-16.1h-104.4c-4.6,0-8.7,2.9-10.2,7.2l-9.6,26.5-52.6,145.7c-2.9,7.9,3,16.3,11.5,16.3h30.9c2.6,0,4.3,2.5,3.4,4.9l-47.9,128.5-15.1,40.5c-4.6,12.2,11.9,21.1,19.6,10.5l26.1-35.9,134.1-184.5c6.2-8.6,0-20.6-10.5-20.6h-37.5c-1.9,0-3.1-2.1-2.1-3.7l51.8-84.1h-.2ZM822.6,1446.8h0c0,.2,0,.4,0,.6.2.6.4,1.2.7,1.8.4.8.8,1.5,1.4,2.1.2.2.4.5.7.7.3.3.6.6,1,.8.4.3.7.5,1.1.7.4.2.9.4,1.4.6.3,0,.6.2.9.3.6,0,1.3.2,2,.2h40c3.6.3,5.7,4.3,3.7,7.4,0,0-.2.2-.2.3l-135.6,186.6-24.2,33.3-.5.7c-2.4,3.3-7.6.5-6.2-3.3l.3-.8,14.2-38,49.1-131.7h0c0-.3.2-.6.3-.9.2-.6.3-1.1.3-1.7.5-5.3-3.4-10.2-8.9-10.8h-33.5c-3.3,0-5.6-3.3-4.5-6.3v-.3c0,0,53.9-149.1,53.9-149.1l8-22.2s0-.2,0-.2h0s0-.2,0-.2h0c0-.2.2-.3.3-.4s.2-.3.4-.4c0,0,.3-.2.4-.3.6-.4,1.2-.6,2-.6h103.3c2.6,0,4.2,2.9,2.8,5.1l-.3.5-21.1,34.4-52.2,84.9c0,0-.2.3-.2.4-.3.5-.5,1-.7,1.4s-.1.3,0,0c-.2.5-.3.9-.4,1.4v.2c-.2,1.1-.2,2.1,0,3.1v-.3Z"></path><path class="cls-11" d="M822.6,1443.6c-.2,1.1-.2,2.1,0,3.1h0c0,.2,0,.4,0,.6.2.6.4,1.2.7,1.8.4.8.8,1.5,1.4,2.1.2.2.4.5.7.7.3.3.6.6,1,.8.4.3.7.5,1.1.7.4.2.9.4,1.4.6.3,0,.6.2.9.3.6,0,1.3.2,2,.2h40c3.5.4,5.5,4.4,3.7,7.4,0,0-.2.2-.2.3l-135.6,186.6-24.2,33.3-.5.7c-2.4,3.3-7.6.5-6.2-3.3l.3-.8,14.2-38,49.1-131.7h0c0-.3.2-.6.3-.9.2-.6.3-1.1.3-1.7.5-5.3-3.4-10.3-8.9-10.8h-33.1c-3.5,0-5.9-3.4-4.7-6.7l53.8-149.1,8-22.1s0-.2,0-.3h0s0-.2,0-.2h0c0-.2.2-.3.3-.4s.2-.3.4-.4c0,0,.3-.2.4-.3.6-.4,1.2-.6,2-.6h102.8c2.8,0,4.6,3.1,3.1,5.5l-21.1,34.4-52.2,84.9h0c0,0,0,.3-.2.4-.3.5-.5,1-.7,1.4q-.1.3,0,0c-.2.5-.3.9-.4,1.4v.2h-.2Z"></path><g><path class="cls-32" d="M1098.8,1499.9c0,11.3-.6,22.4-1.9,33.4-.5,4.7-4.6,8.2-9.2,8.2s-1.2,0-1.9-.2c-4.7-1-7.9-5.4-7.4-10.2,1.2-10.2,1.8-20.7,1.8-31.2,0-107-61.7-200-151.4-245-36.9-18.5-78.5-29-122.6-29s-85.7,10.4-122.6,29c-62,31.1-110.6,85.1-134.7,150.8l25.5-11.9c5-2.3,10.9-.2,13.3,4.8,2.3,5,.2,10.9-4.8,13.3l-41,19.1c-3.1,1.5-6.7,1.9-10,1.2-3.5-.7-6.6-2.6-8.8-5.4h0c-.5-.8-1-1.5-1.4-2.3l-18-34.5c-2.5-4.9-1-11.1,3.8-13.8,4.9-2.7,11.1-.9,13.7,4.1l10.2,19.6c24.3-66.7,72.3-122.1,133.6-156.1,41.9-23.2,90.1-36.5,141.3-36.5s97.9,12.8,139.4,35.4c91.2,49.6,153.2,146.3,153.2,257.1h0Z"></path><path class="cls-8" d="M508.1,1500.1c0-11.3.6-22.4,1.9-33.4.5-4.7,4.6-8.1,9.2-8.1s1.2,0,1.9.2c4.7,1,7.9,5.4,7.4,10.2-1.2,10.2-1.8,20.7-1.8,31.2,0,151.1,122.9,274,274,274s218.8-75,257.3-179.8l-25.5,11.9c-5,2.3-10.9.2-13.3-4.8-2.3-5-.2-10.9,4.8-13.3l41-19.1c3.1-1.5,6.6-1.9,10-1.2,3.5.7,6.6,2.6,8.8,5.4h0c.5.7,1,1.4,1.4,2.2l18,34.5c2.5,4.9,1,11.1-3.8,13.8-4.9,2.7-11.1.9-13.7-4.1l-10.2-19.6c-40.9,112.3-148.7,192.6-275,192.6s-292.5-131.2-292.5-292.5h0Z"></path></g></g></g><g><path class="cls-15" d="M1303.6,1535.5v28.7h-105.5v-131.4h103v28.7h-66.2v22.1h58.4v27.8h-58.4v24h68.7Z"></path><path class="cls-29" d="M1449.2,1432.9v131.4h-30.6l-58-70v70h-36.4v-131.4h30.6l58,70v-70h36.4Z"></path><path class="cls-16" d="M1563.5,1495.8h32.8v54.4c-7.5,5.4-16.1,9.5-25.9,12.4s-19.5,4.3-29.3,4.3-26.1-2.9-37.2-8.7c-11-5.8-19.6-13.9-25.9-24.3s-9.4-22.1-9.4-35.3,3.1-24.9,9.4-35.3,14.9-18.5,26.1-24.3c11.1-5.8,23.7-8.7,37.7-8.7s23.3,2.1,33,6.2c9.8,4.1,17.9,10.1,24.4,17.8l-23.6,21.4c-8.9-9.8-19.5-14.6-31.9-14.6s-20.3,3.4-27.2,10.2c-6.9,6.8-10.3,15.9-10.3,27.3s1.6,13.7,4.7,19.4c3.1,5.7,7.5,10.1,13.1,13.3,5.6,3.2,12.1,4.8,19.3,4.8s13.8-1.4,20.1-4.3v-36h.1Z"></path><path class="cls-30" d="M1725.5,1535.5v28.7h-105.5v-131.4h103v28.7h-66.2v22.1h58.4v27.8h-58.4v24h68.7Z"></path><path class="cls-27" d="M1803.5,1529.3h-20.3v34.9h-37.2v-131.4h60.1c11.9,0,22.2,2,31,5.9s15.5,9.6,20.3,16.9,7.1,15.9,7.1,25.8-2.2,17.8-6.7,24.9c-4.4,7.1-10.8,12.6-19,16.6l28.3,41.3h-39.8l-23.8-34.9h0ZM1821.2,1467.2c-3.9-3.4-9.6-5.1-17.3-5.1h-20.6v38.5h20.6c7.6,0,13.4-1.7,17.3-5s5.8-8,5.8-14.2-1.9-10.9-5.8-14.3h0Z"></path><path class="cls-35" d="M1973,1495.8h32.8v54.4c-7.5,5.4-16.1,9.5-25.9,12.4s-19.5,4.3-29.3,4.3-26.2-2.9-37.2-8.7c-11-5.8-19.6-13.9-25.9-24.3s-9.4-22.1-9.4-35.3,3.1-24.9,9.4-35.3,14.9-18.5,26.1-24.3c11.1-5.8,23.7-8.7,37.7-8.7s23.3,2.1,33,6.2c9.8,4.1,17.9,10.1,24.4,17.8l-23.6,21.4c-8.9-9.8-19.5-14.6-31.9-14.6s-20.3,3.4-27.2,10.2c-6.9,6.8-10.3,15.9-10.3,27.3s1.6,13.7,4.7,19.4c3.1,5.7,7.5,10.1,13.1,13.3,5.6,3.2,12.1,4.8,19.3,4.8s13.8-1.4,20.1-4.3v-36h.1Z"></path><path class="cls-34" d="M2099.8,1517.1v47.1h-37.2v-47.7l-50.1-83.7h39.2l31.2,52.2,31.2-52.2h36l-50.3,84.3h0Z"></path></g></g><g><g><g><path class="cls-13" d="M1941.7,1595.6h-107.9l-55.5-121.4-33.3,47.3v-114.3l88.6-132.8h88.6l-81.1,117.6,100.7,203.7Z"></path><path class="cls-13" d="M2066.7,1274.4v321.2h-98.6v-321.2h98.6Z"></path><path class="cls-13" d="M2471.9,1274.4v321.2h-91.5v-229.7l-59.4,229.7h-62.6l-61.8-229.7v229.7h-73.9v-321.2h128.9l46.6,170.6,44.5-170.6h129.3Z"></path><path class="cls-13" d="M2626.5,1274.4v321.2h-98.6v-321.2h98.6Z"></path><path class="cls-20" d="M1678.3,1851.6c-8.1-1.7-15.7-4.3-22.8-7.8-7-3.5-13.7-7.8-19.8-13l16.5-20.3c7.2,6.2,15.1,10.9,23.8,14,8.6,3.1,18,4.7,28.2,4.7s24.3-2.5,31.8-7.6,11.3-12.2,11.3-21.5h0c0-6.7-1.7-11.9-5.1-15.8-3.4-3.9-7.8-6.7-13.2-8.6-5.4-1.8-12.4-3.6-21-5.1-.3,0-.5-.1-.8-.1s-.6,0-.8-.1l-1.9-.4c-12.7-2.2-22.9-4.6-30.9-7.3-7.9-2.7-14.7-7.7-20.3-14.9-5.6-7.2-8.4-17.5-8.4-30.8h0c0-11.8,2.6-21.8,7.9-30.1,5.2-8.3,12.9-14.6,22.9-18.9,10-4.3,22.1-6.5,36.2-6.5s13.4.7,19.9,2.2c6.5,1.5,13,3.7,19.3,6.5,6.4,2.9,12.6,6.6,18.8,11l-15.1,21c-7.2-5.3-14.3-9.2-21.5-11.9-7.1-2.6-14.3-4-21.5-4-12.9,0-22.9,2.6-30.1,7.7-7.1,5.1-10.7,12.4-10.7,21.9h0c0,6.6,1.8,11.7,5.5,15.4,3.7,3.7,8.3,6.5,13.8,8.2,5.5,1.8,13.1,3.6,22.9,5.5.3,0,.7.2,1,.2.3,0,.6,0,1,.2.4,0,.9.2,1.4.3.5,0,1,.2,1.4.3,11.4,2.3,21,5.1,28.6,8.3,7.7,3.2,14.1,8.4,19.2,15.5,5.1,7.1,7.7,16.9,7.7,29.3v.3c0,11.5-2.7,21.4-8.2,29.5-5.5,8.2-13.3,14.4-23.7,18.7-10.3,4.3-22.8,6.4-37.5,6.4s-17.7-.9-25.8-2.6Z"></path><path class="cls-20" d="M1791.6,1663.5h28.8l45.3,148,45.3-148h28.8l-61.5,188.8h-25.2l-61.5-188.8Z"></path><path class="cls-20" d="M1991.9,1845.5c-9.9-5.8-17.6-14-23.1-24.7-5.5-10.6-8.2-23-8.2-37v-51.8c0-14,2.7-26.4,8.2-37,5.5-10.6,13.1-18.9,23.1-24.7,9.9-5.8,21.4-8.8,34.5-8.8s20.8,2.3,29.8,7c9.1,4.6,16.7,11.2,22.8,19.7,6.1,8.5,10.2,18.3,12.4,29.5h-27.1c-1.6-5.9-4.4-11.2-8.2-15.8-3.9-4.6-8.4-8.2-13.6-10.7-5.2-2.5-10.6-3.8-16.1-3.8s-14.5,1.8-20.3,5.6c-5.8,3.7-10.3,8.9-13.5,15.6-3.2,6.7-4.8,14.5-4.8,23.4v51.8c0,8.8,1.6,16.6,4.8,23.4,3.2,6.7,7.7,12,13.5,15.6,5.8,3.7,12.6,5.5,20.3,5.5s11-1.2,16.2-3.5c5.1-2.3,9.6-5.8,13.5-10.4,3.9-4.6,6.6-10,8.2-16.4h27.1c-2.2,11.2-6.3,21-12.5,29.5-6.1,8.5-13.8,15-22.8,19.7-9.1,4.6-19,7-29.7,7s-24.6-2.9-34.5-8.7Z"></path><path class="cls-20" d="M2200.5,1663.5h26.5v188.8h-26.5v-188.8ZM2213.7,1827.1h108v25.2h-108v-25.2Z"></path><path class="cls-20" d="M2352.9,1663.5h26.5v188.8h-26.5v-188.8ZM2366.2,1827.1h108v25.2h-108v-25.2Z"></path><path class="cls-20" d="M2527.5,1845.5c-9.9-5.8-17.6-14-23.1-24.7-5.5-10.6-8.2-23-8.2-37v-51.8c0-14,2.7-26.4,8.2-37,5.5-10.6,13.1-18.9,23.1-24.7,9.9-5.8,21.4-8.8,34.5-8.8s20.8,2.3,29.8,7c9.1,4.6,16.7,11.2,22.8,19.7,6.1,8.5,10.2,18.3,12.4,29.5h-27.1c-1.6-5.9-4.4-11.2-8.2-15.8-3.9-4.6-8.4-8.2-13.6-10.7-5.2-2.5-10.6-3.8-16.1-3.8s-14.5,1.8-20.3,5.6c-5.8,3.7-10.3,8.9-13.5,15.6-3.2,6.7-4.8,14.5-4.8,23.4v51.8c0,8.8,1.6,16.6,4.8,23.4,3.2,6.7,7.7,12,13.5,15.6,5.8,3.7,12.6,5.5,20.3,5.5s11-1.2,16.2-3.5c5.1-2.3,9.6-5.8,13.5-10.4,3.9-4.6,6.6-10,8.2-16.4h27.1c-2.2,11.2-6.3,21-12.5,29.5-6.1,8.5-13.8,15-22.8,19.7-9.1,4.6-19,7-29.7,7s-24.6-2.9-34.5-8.7Z"></path></g><g><g><path class="cls-20" d="M373,1440.4c29-30.2,75.1-51.1,126.9-59.7,60.4-10,126.6,2.3,176,27,13.8,6.4,30.3,15.5,44.2,21.8,38.2,17.9,79.6,34.1,124.8,41.8,22.6,3.7,46.6,5.8,71.2,1.7-9.6,5.8-21.9,9.5-34.4,12.2-70.9,13-146-7.3-205.3-33.2-7.8-3.5-23.4-10.7-31-14.3-86.6-42.1-182.3-34.8-272.4,2.7h0Z"></path><path class="cls-20" d="M373,1524.7c29-30.2,75.1-51.1,126.9-59.7,60.4-10,126.6,2.3,176,27,13.8,6.4,30.3,15.5,44.2,21.8,38.2,17.9,79.6,34.1,124.8,41.8,22.6,3.7,46.6,5.8,71.2,1.7-9.6,5.8-21.9,9.5-34.4,12.2-70.9,13-146-7.3-205.3-33.2-7.8-3.5-23.4-10.7-31-14.3-86.6-42.1-182.3-34.8-272.4,2.7h0Z"></path><path class="cls-20" d="M373,1613.6c29-30.2,75.1-51.1,126.9-59.7,60.4-10,126.6,2.3,176,27,13.8,6.4,30.3,15.5,44.2,21.8,38.2,17.9,79.6,34.1,124.8,41.8,22.6,3.7,46.6,5.8,71.2,1.7-9.6,5.8-21.9,9.5-34.4,12.2-70.9,13-146-7.3-205.3-33.2-7.8-3.5-23.4-10.7-31-14.3-86.6-42.1-182.3-34.8-272.4,2.7h0Z"></path></g><path class="cls-25" d="M1545,1270.3h-531.1c-14.6,0-26.4,11.8-26.4,26.4v531.1c0,14.6,11.8,26.4,26.4,26.4h531.1c14.6,0,26.4-11.8,26.4-26.4v-531.1c0-14.6-11.8-26.4-26.4-26.4ZM1524.8,1791.7c0,8.7-7.1,15.7-15.8,15.7h-458.9c-8.8,0-15.8-7-15.8-15.7v-459c0-8.7,7-15.7,15.8-15.7h458.9c8.7,0,15.8,7,15.8,15.7v459Z"></path><path class="cls-25" d="M1410,1418.7h-261.1c-7.2,0-13,5.8-13,13v261.1c0,7.2,5.8,13,13,13h261.1c7.2,0,13-5.8,13-13v-261.1c0-7.2-5.8-13-13-13ZM1384.6,1660.6c0,3.7-3,6.7-6.8,6.7h-196.6c-3.8,0-6.8-3-6.8-6.7v-196.6c0-3.7,3-6.7,6.8-6.7h196.6c3.7,0,6.8,3,6.8,6.7v196.6Z"></path></g></g><g><polygon class="cls-13" points="1744.8 1283.9 1653.2 1361.9 1653.2 1595.6 1744.8 1595.6 1744.8 1283.9"></polygon><g><polygon class="cls-13" points="1745.2 1272.5 1653.2 1271.8 1657.7 1227.4 1745.2 1272.5"></polygon><polygon class="cls-13" points="1668.2 1209.4 1747.7 1265.7 1700.8 1171.7 1668.2 1209.4"></polygon><polygon class="cls-13" points="1752 1257.4 1717 1161.5 1768 1145.8 1752 1257.4"></polygon></g><polyline class="cls-13" points="1653.2 1287.9 1744.8 1278.1 1653.2 1340.5"></polyline></g></g><g><g><g><path class="cls-33" d="M43.9,8.2h0s-4.6,3.2-4.6,3.2v-1.7l2.6-2.1c.2,0,.4,0,.5.1.5,0,1,.2,1.5.5Z"></path><path class="cls-33" d="M47.3,8.1c-.3.1-.6.2-.8.3l-.4-.3-2.1-1.3v1.1c-.5-.2-1-.4-1.5-.5,0,0-.2,0-.2,0h.1c0,0,1.6-1.4,1.6-1.4l1.4.9h.1c0,0,.3.3.3.3h0c0,0,.8.5.8.5l.6.4Z"></path><path class="cls-33" d="M48.4,8.8v.8l-1.7-1c.3,0,.5-.2.8-.3l.9.5Z"></path><polygon class="cls-33" points="48.4 12.4 48.4 13.2 43.9 10.4 43.9 11.8 39.3 14.6 39.3 12.7 43.9 9.6 48.4 12.4"></polygon><polygon class="cls-33" points="48.4 16 48.4 16.7 43.9 14 43.9 15.5 39.3 18 39.3 15.8 43.9 13.2 48.4 16"></polygon><polygon class="cls-33" points="43.9 15.5 43.9 24.8 43.4 24.8 43.4 15.7 43.9 15.5"></polygon><polygon class="cls-33" points="38.6 19.5 38.6 24.8 43.9 24.8 43.9 16.7 38.6 19.5"></polygon><polygon class="cls-33" points="49 8.9 49 25 49.4 25 49.4 17.3 52.7 19.2 52.7 6 49 8.9"></polygon><polygon class="cls-33" points="52.7 20.1 43.9 15 43.9 15.4 52.7 20.5 52.7 20.1"></polygon><polygon class="cls-33" points="52.7 21.2 43.9 16.1 43.9 16.5 52.7 21.6 52.7 21.2"></polygon><polygon class="cls-33" points="52.7 22.3 43.9 17.2 43.9 17.6 52.7 22.7 52.7 22.3"></polygon><polygon class="cls-33" points="53.2 13 54.3 13.7 54.3 24.8 53.2 24.8 53.2 13"></polygon></g><rect class="cls-33" x="37.8" y="24.8" width="17.4" height=".2"></rect></g><g><g><polygon class="cls-33" points="61.9 16.6 60.2 10.6 58 10.6 58 19.5 59.5 19.5 59.5 13.3 61.2 18.5 62.6 18.5 64.3 13.2 64.3 19.5 65.8 19.5 65.8 10.6 63.6 10.6 61.9 16.6"></polygon><polygon class="cls-33" points="68.4 10.6 67.7 10.6 67.7 19.5 68.4 19.5 69.4 19.5 73.7 19.5 73.7 17.9 69.4 17.9 69.4 15.9 73 15.9 73 14.3 69.4 14.3 69.4 12.2 73.7 12.2 73.7 10.6 69.4 10.6 68.4 10.6"></polygon><path class="cls-33" d="M80.4,15.6c.4-.2.7-.5.9-.9s.3-.9.3-1.4-.1-1-.3-1.4c-.2-.4-.5-.7-.9-.9s-.8-.3-1.3-.3h-3.9v8.9h1.7v-3.6h1l2,3.6h2l-2.1-3.7c.2,0,.4-.1.6-.2ZM76.9,12.2h2.1c.3,0,.5,0,.6.3.2.2.2.4.2.8,0,.3,0,.6-.2.8-.2.2-.4.3-.6.3h-2.1v-2.1Z"></path><path class="cls-33" d="M85.1,12.6c.3-.3.6-.4,1.1-.4s.5,0,.7.2c.2.1.4.3.5.5.1.2.2.5.3.8h1.7c-.1-.7-.3-1.2-.6-1.7s-.6-.8-1.1-1c-.4-.2-.9-.4-1.5-.4s-1.3.1-1.7.4-.8.6-1.1,1.1c-.3.5-.4,1.1-.4,1.8v2.4c0,.7.1,1.3.4,1.8.3.5.6.9,1.1,1.1s1.1.4,1.7.4,1.1-.1,1.5-.4c.4-.2.8-.6,1.1-1s.5-1,.6-1.7h-1.7c0,.4-.3.8-.5,1-.3.2-.6.4-.9.4s-.8-.1-1.1-.4c-.3-.3-.4-.7-.4-1.2v-2.4c0-.5.1-.9.4-1.2Z"></path><polygon class="cls-33" points="94.7 10.6 93 14.4 91.3 10.6 89.6 10.6 92.2 16.1 92.2 19.5 93.9 19.5 93.9 16.1 96.5 10.6 94.7 10.6"></polygon></g><g><path class="cls-33" d="M59.5,25c-.3,0-.6,0-.8-.2s-.4-.3-.5-.6c-.1-.2-.2-.5-.2-.8v-1.2c0-.3,0-.6.2-.8.1-.2.3-.4.5-.6s.5-.2.8-.2.5,0,.7.2c.2.1.4.2.5.4.1.2.2.4.3.7h-.5c0-.2-.1-.3-.2-.4,0-.1-.2-.2-.3-.3s-.3,0-.4,0c-.3,0-.5.1-.7.3-.2.2-.3.5-.3.8v1.2c0,.3,0,.6.3.8.2.2.4.3.7.3s.4,0,.6-.2c.2-.1.3-.3.4-.6h.5c0,.2-.1.5-.3.7s-.3.3-.5.4c-.2.1-.4.2-.7.2Z"></path><path class="cls-33" d="M63.1,25c-.3,0-.6,0-.8-.2s-.4-.3-.5-.5c-.1-.2-.2-.5-.2-.8v-1.2c0-.3,0-.6.2-.8.1-.2.3-.4.5-.5s.5-.2.8-.2.6,0,.8.2c.2.1.4.3.5.5.1.2.2.5.2.8v1.2c0,.3,0,.6-.2.8-.1.2-.3.4-.5.5-.2.1-.5.2-.8.2ZM63.1,24.5c.3,0,.5,0,.7-.3s.3-.5.3-.8v-1.3c0-.3,0-.6-.3-.8-.2-.2-.4-.3-.7-.3s-.5,0-.7.3c-.2.2-.3.5-.3.8v1.3c0,.3,0,.6.3.8s.4.3.7.3Z"></path><path class="cls-33" d="M65.6,24.9v-4.3h.5l2.3,3.6h-.1v-3.6h.5v4.3h-.5l-2.3-3.6h.2v3.6h-.5Z"></path><path class="cls-33" d="M71.1,25c-.2,0-.4,0-.6,0-.2,0-.4,0-.5-.2-.2,0-.3-.2-.5-.3l.3-.4c.2.1.4.3.6.3s.4.1.7.1.6,0,.8-.2c.2-.1.3-.3.3-.6h0c0-.2,0-.3-.1-.4,0,0-.2-.2-.4-.2-.1,0-.3,0-.5-.1-.2,0-.3,0-.5-.1-.2,0-.3,0-.5-.2s-.3-.2-.3-.3c0-.1-.1-.3-.1-.6h0c0-.4.1-.7.4-.9.3-.2.6-.3,1.1-.3s.5,0,.7.1c.2,0,.4.2.6.3l-.3.4c-.2-.1-.3-.2-.5-.3s-.3,0-.5,0c-.3,0-.6,0-.7.2-.2.1-.3.3-.3.6h0c0,.2,0,.3.2.4.1,0,.2.2.4.2.2,0,.3,0,.5.1.2,0,.3,0,.5.1.2,0,.3.1.4.2.1,0,.2.2.3.3,0,.1.1.3.1.5h0c0,.4-.1.7-.4.9s-.7.3-1.2.3Z"></path><path class="cls-33" d="M72.9,21.1v-.5h3v.5h-3ZM74.2,24.9v-4h.5v4h-.5Z"></path><path class="cls-33" d="M76.5,24.9v-4.3h.5v4.3h-.5ZM76.8,23.1v-.5h1.5c.2,0,.4,0,.5-.2.1-.1.2-.3.2-.5,0-.2,0-.4-.2-.5-.1-.1-.3-.2-.5-.2h-1.5v-.5h1.4c.2,0,.5,0,.7.2.2.1.3.2.4.4.1.2.2.4.2.7s0,.5-.2.7c-.1.2-.2.3-.4.4s-.4.2-.7.2h-1.4ZM79.1,24.9l-1-1.9h.5c0-.1,1.1,1.9,1.1,1.9h-.6Z"></path><path class="cls-33" d="M81.8,25c-.5,0-.9-.1-1.1-.4-.3-.3-.4-.7-.4-1.2v-2.8h.5v2.8c0,.3,0,.6.3.8.2.2.4.3.7.3s.6,0,.7-.3.3-.4.3-.8v-2.8h.5v2.8c0,.5-.1.9-.4,1.2s-.6.4-1.1.4Z"></path><path class="cls-33" d="M85.6,25c-.3,0-.6,0-.8-.2-.2-.1-.4-.3-.5-.6-.1-.2-.2-.5-.2-.8v-1.2c0-.3,0-.6.2-.8s.3-.4.5-.6c.2-.1.5-.2.8-.2s.5,0,.7.2.4.2.5.4c.1.2.2.4.3.7h-.5c0-.2-.1-.3-.2-.4,0-.1-.2-.2-.3-.3-.1,0-.3,0-.4,0-.3,0-.5.1-.7.3-.2.2-.3.5-.3.8v1.2c0,.3,0,.6.3.8.2.2.4.3.7.3s.4,0,.6-.2.3-.3.4-.6h.5c0,.2-.1.5-.3.7s-.3.3-.5.4c-.2.1-.4.2-.7.2Z"></path><path class="cls-33" d="M87.4,21.1v-.5h3v.5h-3ZM88.6,24.9v-4h.5v4h-.5Z"></path><path class="cls-33" d="M91.5,20.6v4.3h-.5v-4.3h.5Z"></path><path class="cls-33" d="M94.1,25c-.3,0-.6,0-.8-.2s-.4-.3-.5-.5c-.1-.2-.2-.5-.2-.8v-1.2c0-.3,0-.6.2-.8.1-.2.3-.4.5-.5s.5-.2.8-.2.6,0,.8.2.4.3.5.5c.1.2.2.5.2.8v1.2c0,.3,0,.6-.2.8-.1.2-.3.4-.5.5s-.5.2-.8.2ZM94.1,24.5c.3,0,.5,0,.7-.3s.3-.5.3-.8v-1.3c0-.3,0-.6-.3-.8-.2-.2-.4-.3-.7-.3s-.5,0-.7.3c-.2.2-.3.5-.3.8v1.3c0,.3,0,.6.3.8s.4.3.7.3Z"></path><path class="cls-33" d="M96.5,24.9v-4.3h.5l2.3,3.6h-.1v-3.6h.5v4.3h-.5l-2.3-3.6h.2v3.6h-.5Z"></path><path class="cls-33" d="M102.9,20.6v4.3h-.5v-4.3h.5Z"></path><path class="cls-33" d="M104,24.9v-4.3h.5l2.3,3.6h-.1v-3.6h.5v4.3h-.5l-2.3-3.6h.2v3.6h-.5Z"></path><path class="cls-33" d="M109.6,25c-.3,0-.6,0-.8-.2-.2-.1-.4-.3-.5-.6-.1-.2-.2-.5-.2-.8v-1.2c0-.3,0-.6.2-.8s.3-.4.5-.6c.2-.1.5-.2.8-.2s.5,0,.7.2.4.2.5.4c.1.2.2.4.3.7h-.5c0-.2-.1-.3-.2-.4,0-.1-.2-.2-.3-.3-.1,0-.3,0-.4,0-.3,0-.5.1-.7.3-.2.2-.3.5-.3.8v1.2c0,.3,0,.6.3.8.2.2.4.3.7.3s.4,0,.6-.2.3-.3.4-.6h.5c0,.2-.1.5-.3.7s-.3.3-.5.4c-.2.1-.4.2-.7.2Z"></path><path class="cls-33" d="M111.7,24.9v-.6h.6v.6h-.6Z"></path></g></g><g><g><g><path class="cls-33" d="M45.2.1s.6-.3,1,0c.4.2.4.9.4.9l-1,1.2-1.1-.7.7-1.3Z"></path><path class="cls-33" d="M46.1.2c.3.2.4.6.4.9h0c0,0,0-.8-.4-1-.4-.2-1,0-1,0h0c.2,0,.7,0,.9,0Z"></path><path class="cls-33" d="M43.3,4.4h.2c0,.1,2-2.9,2-2.9v-.3c.1,0,0,0,0,0l-.2.2-2,3Z"></path><path class="cls-33" d="M42.8,5c-.2-.2-.3-.2-.2-.4.2-.2.5-.3.7-.1.2.2.3.5.1.7,0,.1-.1.1-.2.1,0,0-.2,0-.3-.1,0,0,0,0,0,0,0,0,0,0,0,0,0,0,0,0,0,0,0,0,0,0,0,0h0ZM42.7,5.1s0,0,.1,0c0,0,0,0,.1,0,.2.1.4.2.5,0,.2-.3.1-.6-.2-.8-.3-.2-.6-.1-.8.2-.2.2,0,.4.2.5h0Z"></path><rect class="cls-33" x="43.4" y="3.9" width=".2" height=".6" transform="translate(77.5 31.7) rotate(-146.5)"></rect><path class="cls-3" d="M43.5,5.2c0,.1-.1.1-.2.1,0,0-.2,0-.3-.1,0,0,0,0,0,0,0,0,0,0,0,0h0c0,0,0,.1.1.1.2.1.4.2.5,0,.2-.2.1-.6,0-.8l.3-.5,1.4-2.1.5.3.9-1.1s0,0,0,0h0c0,0,0-.8-.4-1l-2.9,4.4c.2.2.3.5.1.7Z"></path></g><g><path class="cls-33" d="M41.4,1s0-.7.4-.9c.4-.2,1,0,1,0l.7,1.4-1.1.7-.9-1.2Z"></path><path class="cls-33" d="M41.9.2c.3-.2.7,0,.9,0h0c0,0-.6-.4-1-.1-.4.2-.4.9-.4.9h0c0-.2.1-.6.4-.8Z"></path><path class="cls-33" d="M44.4,4.5h.2c0-.1-1.9-3.1-1.9-3.1l-.2-.2s0,0,0,0v.3c.1,0,2,3,2,3Z"></path><path class="cls-33" d="M44.8,5.2c-.2.1-.3.2-.4,0-.2-.2,0-.6.2-.7.2-.2.6,0,.7.2,0,.1,0,.2,0,.2,0,0-.1.1-.2.2,0,0,0,0,0,0,0,0,0,0,0,0,0,0,0,0,0,0,0,0,0,0,0,0h0ZM44.9,5.3s0,0,.1,0c0,0,0,0,.1,0,.2-.1.4-.3.2-.5-.2-.3-.5-.4-.8-.2-.3.2-.4.5-.2.8.1.2.3.2.5,0h0Z"></path><rect class="cls-33" x="44.3" y="4" width=".2" height=".6" transform="translate(84.2 -15.7) rotate(147.9)"></rect><path class="cls-3" d="M45.3,4.7c0,.1,0,.2,0,.2,0,0-.1.1-.2.2,0,0,0,0,0,0,0,0,0,0,0,0h0s0,0,.1,0c.2-.1.4-.3.2-.5-.2-.2-.5-.3-.7-.2l-.3-.5-1.3-2.1.5-.3-.6-1.3s0,0,0,0h0c0,0-.6-.4-1-.1l2.8,4.4c.2-.2.6,0,.7.2Z"></path></g></g><g><path class="cls-33" d="M48,7.1s0,0,0,0c0,.1-1.1.6-1.3.7,0,0,0,0,0,0,0,0-.3.3-.6.4,0,0-.1,0-.2,0-.3,0-1.4-.4-1.8-.5,0,0,0,0,0,0-.3,0-1.2-.2-1.6-.3-.2,0-.4,0-.4,0l-.9-.3s-.6-.3-.7-.6c0,0,0,0,0,0,0,0,0,0,0,0,0,0,0,0,0,0,0,0,0,0,0,0,0,0,0,0,0,0,0,0,0,0,0-.1h0c0-.3.1-.4.1-.4h0s0,0,0,0c0,0,0,0,.1,0,0,0,0,0,0,0,0,0,.2,0,.2,0h-.2c0,0,0-.1,0-.1,0,0,0,0,0,0,0,0,0,0,0,0,0,0,0,0,0,0,0-.2,0-1.1.4-1.9,0,0,0,0,0,0,0,0,0,0,0,0,.2-.4.5-.7.9-1,.3-.2.6-.3.9-.4,0,0,0,0,.1,0,0,0,0,0,0,0,0,0,0,0,0,0,0,0,0,0,.1,0,.4,0,.7,0,1.1,0,0,0,.2,0,.3,0,0,0,0,0,.1,0,0,0,0,0,0,0,0,0,0,0,0,0,0,0,0,0,0,0,0,0,0,0,0,0h0s0,0,0,0c0,0,0,0,0,0,0,0,0,0,0,0,0,0,0,0,0,0,.4.2.8.5,1.1.8h0c.5.6.8,1.3.9,1.6h0c0,.2,0,.3,0,.3v.3s0,0,0,0v.6q0,0,0,0h0s0,0,0,0h0s0,0,0,0c0,0,.8.8.8.9Z"></path><path class="cls-33" d="M48.3,7.1l-1-.9h0c0,0,0,.2,0,.3,0,0,0,.1,0,.2,0,0,.2.3.4.4-.2,0-.4-.2-.4-.4,0-.2,0-.4,0-.6h0c0-.1,0-.2,0-.3,0-.2,0-.4,0-.6,0,0,0,0,0,0,0,.5-.4.8-.9.8.6,0,.9-.4.9-1.1,0,0,0-.1,0-.2,0,0,0,0,0,0h0c-.1-.6-.5-1.2-.9-1.6h0c-.3-.3-.7-.6-1.1-.8,0,0,0,0,0,0,0,0,0,0,0,0,0,0,0,0,0,0,0,0,0,0,0,0h0s0,0,0,0c0,0,0,0,0,0,0,0,0,0,0,0,0,0,0,0,0,0,0,0,0,0-.1,0,0,0-.2,0-.3,0-.2,0-.4,0-.5,0,.2,0,.5,0,.7.2,0,0,0,0,0,0,0,0,0,0,0,0,0,0,0,0,0,0,0,0,.1,0,.2.1,0,0,.1,0,.1.1,0,0,.1.1.1.2-.2-.1-.3-.2-.5-.3,0,0,0,0,0,0,0,0,0,0,0,0,0,0,0,0,0,0-.4-.2-.8-.2-1.2-.2,0,0,0,0-.1,0,0,0,0,0,0,0,0,0,0,0,0,0,0,0,0,0-.1,0-.3,0-.6.2-.9.4.3-.1.6-.2.9-.1.1,0,.2,0,.4.1h0c0,0,.1,0,.2,0,0,0,.1,0,.2.2h0s0,0,.1.1c0,0,0,0,0,0h0s0,0,0,0h0c0,0-.1,0-.2-.1,0,0-.1,0-.2,0-.2,0-.4-.1-.7-.1h0c-.4,0-.8.2-1.2.5-.2.2-.3.3-.4.5,0,0,0,0,0,0,0,0,0,0,0,0-.3.5-.5,1.2-.4,1.9,0,0,0,0,0,0,0,0,0,0,0,0,0,0,0,0,0,0,0,0-.1,0-.1.1,0,0,0,0,0,0,0,0,0,.1,0,.2.1.5.7.8,1.5,1.1-.9-.2-1.5-.6-1.6-1,0,0,0-.2,0-.3h0c0,0-.1.2-.2.3,0,0,0,0,0,.1h0s0,0,0,0c0,0,0,0,0,0,0,0,0,0,0,0,0,0,0,0,0,0,0,0,0,0,0,0,.2.5.9.8,1.9,1,0,0,.2,0,.2,0,.5,0,1,.2,1.5.5.3.1.5.3.8.4.4.2.8.2,1.2.1.2,0,.3,0,.5-.1.3,0,.6-.2.8-.3.2,0,.5-.2.7-.3.2-.1.4-.2.4-.3,0-.1,0-.3-.2-.4ZM44.9,4.4s0,0,0,0h0c0,.2.2.3.2.5,0,0,0,0,0,0h0c.2.5.3,1.2.3,1.9,0,0,0,.1,0,.2.1,0,.2,0,.3,0,.3,0,.6,0,.8-.2-.2.1-.5.2-.7.2-.1,0-.2,0-.3,0,0,.2.3.4.5.7l-.7-.7c0-.1,0-.3,0-.4,0-.6-.2-1.2-.3-1.8,0,0,0,0,0,0h0c0-.2-.1-.4-.2-.6,0,0,0,0,0,0h0c0-.2-.2-.5-.3-.6.2.2.3.4.4.6Z"></path></g></g></g></g></g></svg> 