<?xml version="1.0" encoding="UTF-8"?> <svg xmlns="http://www.w3.org/2000/svg" id="Layer_1" data-name="Layer 1" version="1.1" viewBox="0 0 150 25"><defs><style> .cls-1 { fill: #fff; stroke-width: 0px; } </style></defs><g><path class="cls-1" d="M28.7,12.2c-.9.9-1.6,1.7-2.6,2.7s0,0,0,0c-1.6-1.7-3.8-3.6-5.8-5.7,0,0,0,0,0,0-.7.8-1.2,1.4-1.8,1.9-2.2,2.2-4.3,4.4-6.5,6.4-2.5,2.2-6.1,1.9-8.5-.6-2.1-2.1-2.1-6,0-8.3,1.5-1.6,3-3.1,4.6-4.6h5.3c.2,0,.3.3.2.4-.3.3-.7.6-1,1-1.8,1.8-3.6,3.6-5.4,5.5-1.2,1.2-1.3,2.3-.4,3.3.9.9,2.2.8,3.3-.4,3.2-3.2,6.4-6.3,9.5-9.5.2-.2.5-.3.7-.3s.5.1.7.3c2.6,2.7,5.2,5.2,7.8,7.8,0,0,0,0,0,0Z"></path><path class="cls-1" d="M22.4,18.8c-1.3-1.2-2.5-2.3-3.7-3.4s-.7-1.6,0-2.3.4-.4.6-.6c.6-.6,1.6-.6,2.2,0,1.2,1.2,2.4,2.4,3.6,3.6-.9.9-1.8,1.9-2.6,2.7Z"></path></g><path class="cls-1" d="M48.7,4.4h2.1v7.3c0,1.2-.3,2.3-.9,3.4-.6,1-1.5,1.8-2.5,2.4-1.1.6-2.2.9-3.5.9s-2.5-.3-3.5-.9c-1.1-.6-1.9-1.4-2.5-2.4-.6-1-.9-2.1-.9-3.4v-7.3h2.1v7.3c0,.9.2,1.7.7,2.4.4.7,1,1.3,1.8,1.7.7.4,1.6.6,2.5.6s1.7-.2,2.5-.6c.7-.4,1.3-1,1.8-1.7.4-.7.7-1.5.7-2.4v-7.3Z"></path><path class="cls-1" d="M59.2,4.4c1.3,0,2.5.3,3.5.9,1.1.6,1.9,1.4,2.5,2.4.6,1,.9,2.1.9,3.4v7.5h-2.1v-7.5c0-.9-.2-1.7-.7-2.4-.4-.7-1-1.3-1.8-1.7-.7-.4-1.6-.6-2.5-.6s-1.7.2-2.5.6c-.7.4-1.3,1-1.8,1.7-.4.7-.7,1.5-.7,2.4v7.5h-2.1v-7.5c0-1.2.3-2.3.9-3.4.6-1,1.5-1.8,2.5-2.4,1.1-.6,2.2-.9,3.5-.9Z"></path><path class="cls-1" d="M79.5,4.4c1.4,0,2.6.3,3.7,1,1.1.6,2,1.5,2.7,2.5.7,1.1,1,2.2,1,3.6,0,1.3-.3,2.5-1,3.6-.7,1.1-1.6,1.9-2.7,2.6-1.1.6-2.4,1-3.7,1s-2-.2-3-.6c-.9-.4-1.7-.9-2.4-1.6v8.6h-2.1V4.4h2.1v2.2c.7-.7,1.5-1.2,2.4-1.6.9-.4,1.9-.6,3-.6ZM79.5,16.5c1,0,1.9-.2,2.7-.7.8-.5,1.5-1.1,1.9-1.9.5-.8.7-1.6.7-2.6s-.2-1.8-.7-2.6c-.5-.8-1.1-1.4-1.9-1.9-.8-.5-1.7-.7-2.7-.7s-1.9.2-2.7.7c-.8.5-1.5,1.1-1.9,1.9-.5.8-.7,1.6-.7,2.6s.2,1.8.7,2.6c.5.8,1.1,1.4,1.9,1.9.8.5,1.7.7,2.7.7Z"></path><path class="cls-1" d="M95.2,4.4c1.4,0,2.6.3,3.7,1s2,1.5,2.7,2.6c.7,1.1,1,2.3,1,3.5s-.3,2.5-1,3.6-1.6,1.9-2.7,2.6-2.4,1-3.7,1-2.6-.3-3.7-1-2-1.5-2.7-2.6c-.7-1.1-1-2.3-1-3.6s.3-2.5,1-3.5c.7-1.1,1.6-1.9,2.7-2.6s2.4-1,3.7-1ZM95.2,16.6c1,0,1.9-.2,2.7-.7s1.5-1.1,1.9-1.8c.5-.8.7-1.6.7-2.6s-.2-1.8-.7-2.6c-.5-.8-1.1-1.4-1.9-1.8s-1.7-.7-2.7-.7-1.9.2-2.7.7-1.5,1.1-1.9,1.8c-.5.8-.7,1.6-.7,2.6s.2,1.8.7,2.6c.5.8,1.1,1.4,1.9,1.8s1.7.7,2.7.7Z"></path><path class="cls-1" d="M103.7,18.5V4.4h2.1v14.1h-2.1Z"></path><path class="cls-1" d="M114.5,4.4c1.3,0,2.5.3,3.5.9,1.1.6,1.9,1.4,2.5,2.4.6,1,.9,2.1.9,3.4v7.5h-2.1v-7.5c0-.9-.2-1.7-.7-2.4-.4-.7-1-1.3-1.8-1.7-.7-.4-1.6-.6-2.5-.6s-1.7.2-2.5.6-1.3,1-1.8,1.7c-.4.7-.7,1.5-.7,2.4v7.5h-2.1v-7.5c0-1.2.3-2.3.9-3.4.6-1,1.5-1.8,2.5-2.4s2.2-.9,3.5-.9Z"></path><path class="cls-1" d="M127.2,4.4h0s5.3,0,5.3,0v2h-5.3v12.2h-2.1V6.4h-5.4v-2h5.4s2.1,0,2.1,0Z"></path><path class="cls-1" d="M140.5,4.3h6.3v2s-6.3,0-6.3,0v2.5c.7-.3,1.4-.5,2.1-.5,1.5,0,2.9.4,3.9,1.4,1,1,1.6,2.2,1.6,3.6s-.5,2.6-1.6,3.6c-.5.5-1.1.9-1.8,1.1s-1.3.4-2,.4-1.3-.1-2-.4-1.8-1-2.4-1.5v-2.3c1.5,1.5,3,2,3.5,2.1.5.1,1.1.1,1.7,0,.6-.1,1-.4,1.5-.8.6-.6.9-1.4.9-2.2s-.3-1.6-.9-2.2c-.5-.4-1-.7-1.5-.8-.6-.1-1.1,0-1.7,0-.5.1-1,.4-1.4.7h0s-2,0-2,0v-6.9h2.1Z"></path><circle class="cls-1" cx="104.7" cy="1.2" r="1.2"></circle></svg> 