<?xml version="1.0" encoding="UTF-8"?> <svg xmlns="http://www.w3.org/2000/svg" xmlns:xlink="http://www.w3.org/1999/xlink" id="Layer_1" data-name="Layer 1" version="1.1" viewBox="0 0 150 25"><defs><style> .cls-1 { fill: url(#linear-gradient-12); } .cls-1, .cls-2, .cls-3, .cls-4, .cls-5, .cls-6, .cls-7, .cls-8, .cls-9, .cls-10, .cls-11, .cls-12, .cls-13, .cls-14, .cls-15, .cls-16, .cls-17, .cls-18, .cls-19, .cls-20, .cls-21, .cls-22, .cls-23, .cls-24, .cls-25, .cls-26, .cls-27, .cls-28, .cls-29, .cls-30, .cls-31, .cls-32, .cls-33 { stroke-width: 0px; } .cls-2 { fill: url(#linear-gradient-17); } .cls-3 { fill: url(#linear-gradient-19); } .cls-4 { fill: url(#linear-gradient); } .cls-5 { fill: url(#linear-gradient-21); } .cls-6 { fill: url(#linear-gradient-6); } .cls-7 { fill: #60c778; } .cls-8 { fill: url(#linear-gradient-15); } .cls-9 { fill: url(#linear-gradient-11); } .cls-10 { fill: #fbed7b; } .cls-11 { fill: url(#linear-gradient-5); } .cls-12 { fill: url(#linear-gradient-13); } .cls-13 { fill: url(#linear-gradient-23); } .cls-14 { fill: url(#linear-gradient-25); } .cls-15 { fill: url(#linear-gradient-16); } .cls-16 { fill: url(#linear-gradient-22); } .cls-17 { fill: url(#linear-gradient-20); } .cls-18 { fill: url(#linear-gradient-14); } .cls-19 { fill: url(#linear-gradient-2); } .cls-20 { fill: url(#linear-gradient-7); } .cls-21 { fill: url(#linear-gradient-3); } .cls-22 { fill: url(#linear-gradient-9); } .cls-23 { fill: url(#linear-gradient-27); } .cls-24 { fill: url(#linear-gradient-8); } .cls-25 { fill: url(#linear-gradient-24); } .cls-26 { fill: url(#linear-gradient-26); } .cls-27 { fill: url(#linear-gradient-18); } .cls-28 { fill: #95ed88; } .cls-29 { fill: #fff; } .cls-30 { fill: url(#linear-gradient-29); } .cls-31 { fill: url(#linear-gradient-28); } .cls-32 { fill: url(#linear-gradient-10); } .cls-33 { fill: url(#linear-gradient-4); } </style><linearGradient id="linear-gradient" x1="1183.2" y1="-1296.8" x2="2127.1" y2="-1296.8" gradientTransform="translate(0 26) scale(1 -1)" gradientUnits="userSpaceOnUse"><stop offset="0" stop-color="#a4f291"></stop><stop offset="1" stop-color="#60c778"></stop></linearGradient><linearGradient id="linear-gradient-2" x1="1183.2" y1="-1298.2" x2="2127.1" y2="-1298.2" gradientTransform="translate(0 26) scale(1 -1)" gradientUnits="userSpaceOnUse"><stop offset="0" stop-color="#a4f291"></stop><stop offset="1" stop-color="#60c778"></stop></linearGradient><linearGradient id="linear-gradient-3" x1="1183.2" y1="-1296.9" x2="2127.1" y2="-1296.9" gradientTransform="translate(0 26) scale(1 -1)" gradientUnits="userSpaceOnUse"><stop offset="0" stop-color="#a4f291"></stop><stop offset="1" stop-color="#60c778"></stop></linearGradient><linearGradient id="linear-gradient-4" x1="1183.2" y1="-1650.3" x2="2127.1" y2="-1650.3" gradientTransform="translate(0 26) scale(1 -1)" gradientUnits="userSpaceOnUse"><stop offset="0" stop-color="#a4f291"></stop><stop offset="1" stop-color="#60c778"></stop></linearGradient><linearGradient id="linear-gradient-5" x1="1183.2" y1="-1650.3" x2="2127.1" y2="-1650.3" gradientTransform="translate(0 26) scale(1 -1)" gradientUnits="userSpaceOnUse"><stop offset="0" stop-color="#a4f291"></stop><stop offset="1" stop-color="#60c778"></stop></linearGradient><linearGradient id="linear-gradient-6" x1="1183.2" y1="-1650.3" x2="2127.1" y2="-1650.3" gradientTransform="translate(0 26) scale(1 -1)" gradientUnits="userSpaceOnUse"><stop offset="0" stop-color="#a4f291"></stop><stop offset="1" stop-color="#60c778"></stop></linearGradient><linearGradient id="linear-gradient-7" x1="1183.2" y1="-1650.4" x2="2127.1" y2="-1650.4" gradientTransform="translate(0 26) scale(1 -1)" gradientUnits="userSpaceOnUse"><stop offset="0" stop-color="#a4f291"></stop><stop offset="1" stop-color="#60c778"></stop></linearGradient><linearGradient id="linear-gradient-8" x1="1183.2" y1="-1651.7" x2="2127.1" y2="-1651.7" gradientTransform="translate(0 26) scale(1 -1)" gradientUnits="userSpaceOnUse"><stop offset="0" stop-color="#a4f291"></stop><stop offset="1" stop-color="#60c778"></stop></linearGradient><linearGradient id="linear-gradient-9" x1="1183.2" y1="-1650.3" x2="2127.1" y2="-1650.3" gradientTransform="translate(0 26) scale(1 -1)" gradientUnits="userSpaceOnUse"><stop offset="0" stop-color="#a4f291"></stop><stop offset="1" stop-color="#60c778"></stop></linearGradient><linearGradient id="linear-gradient-10" x1="1183.2" y1="-1650.3" x2="2127.1" y2="-1650.3" gradientTransform="translate(0 26) scale(1 -1)" gradientUnits="userSpaceOnUse"><stop offset="0" stop-color="#a4f291"></stop><stop offset="1" stop-color="#60c778"></stop></linearGradient><linearGradient id="linear-gradient-11" x1="1183.2" y1="-1650.3" x2="2127.1" y2="-1650.3" gradientTransform="translate(0 26) scale(1 -1)" gradientUnits="userSpaceOnUse"><stop offset="0" stop-color="#a4f291"></stop><stop offset="1" stop-color="#60c778"></stop></linearGradient><linearGradient id="linear-gradient-12" x1="1183.2" y1="-1650.3" x2="2127.1" y2="-1650.3" gradientTransform="translate(0 26) scale(1 -1)" gradientUnits="userSpaceOnUse"><stop offset="0" stop-color="#a4f291"></stop><stop offset="1" stop-color="#60c778"></stop></linearGradient><linearGradient id="linear-gradient-13" x1="1183.2" y1="-1650.3" x2="2127.1" y2="-1650.3" gradientTransform="translate(0 26) scale(1 -1)" gradientUnits="userSpaceOnUse"><stop offset="0" stop-color="#a4f291"></stop><stop offset="1" stop-color="#60c778"></stop></linearGradient><linearGradient id="linear-gradient-14" x1="1198.1" y1="-1472.5" x2="2150.1" y2="-1472.5" gradientTransform="translate(0 26) scale(1 -1)" gradientUnits="userSpaceOnUse"><stop offset=".2" stop-color="#77bf75"></stop><stop offset="1" stop-color="#aeeb8f"></stop></linearGradient><linearGradient id="linear-gradient-15" x1="1198.2" y1="-1472.6" x2="2150.2" y2="-1472.6" gradientTransform="translate(0 26) scale(1 -1)" gradientUnits="userSpaceOnUse"><stop offset=".2" stop-color="#77bf75"></stop><stop offset="1" stop-color="#aeeb8f"></stop></linearGradient><linearGradient id="linear-gradient-16" x1="1198.2" y1="-1472.6" x2="2150.2" y2="-1472.6" gradientTransform="translate(0 26) scale(1 -1)" gradientUnits="userSpaceOnUse"><stop offset=".2" stop-color="#77bf75"></stop><stop offset="1" stop-color="#aeeb8f"></stop></linearGradient><linearGradient id="linear-gradient-17" x1="1198.2" y1="-1472.5" x2="2150.2" y2="-1472.5" gradientTransform="translate(0 26) scale(1 -1)" gradientUnits="userSpaceOnUse"><stop offset=".2" stop-color="#77bf75"></stop><stop offset="1" stop-color="#aeeb8f"></stop></linearGradient><linearGradient id="linear-gradient-18" x1="1198.2" y1="-1472.5" x2="2150.2" y2="-1472.5" gradientTransform="translate(0 26) scale(1 -1)" gradientUnits="userSpaceOnUse"><stop offset=".2" stop-color="#77bf75"></stop><stop offset="1" stop-color="#aeeb8f"></stop></linearGradient><linearGradient id="linear-gradient-19" x1="1198.2" y1="-1472.6" x2="2150.2" y2="-1472.6" gradientTransform="translate(0 26) scale(1 -1)" gradientUnits="userSpaceOnUse"><stop offset=".2" stop-color="#77bf75"></stop><stop offset="1" stop-color="#aeeb8f"></stop></linearGradient><linearGradient id="linear-gradient-20" x1="1198.2" y1="-1472.5" x2="2150.2" y2="-1472.5" gradientTransform="translate(0 26) scale(1 -1)" gradientUnits="userSpaceOnUse"><stop offset=".2" stop-color="#77bf75"></stop><stop offset="1" stop-color="#aeeb8f"></stop></linearGradient><linearGradient id="linear-gradient-21" x1="702.4" y1="-1596.8" x2="704.6" y2="-1327.4" gradientTransform="translate(0 26) scale(1 -1)" gradientUnits="userSpaceOnUse"><stop offset="0" stop-color="#60c778"></stop><stop offset="1" stop-color="#a4f291"></stop></linearGradient><linearGradient id="linear-gradient-22" x1="858.4" y1="-1627.5" x2="860.8" y2="-1344.8" gradientTransform="translate(0 26) scale(1 -1)" gradientUnits="userSpaceOnUse"><stop offset="0" stop-color="#60c778"></stop><stop offset="1" stop-color="#a4f291"></stop></linearGradient><linearGradient id="linear-gradient-23" x1="1198.1" y1="-1472.5" x2="2150.1" y2="-1472.5" gradientTransform="translate(0 26) scale(1 -1)" gradientUnits="userSpaceOnUse"><stop offset=".2" stop-color="#77bf75"></stop><stop offset="1" stop-color="#aeeb8f"></stop></linearGradient><linearGradient id="linear-gradient-24" x1="1198.2" y1="-1472.6" x2="2150.2" y2="-1472.6" gradientTransform="translate(0 26) scale(1 -1)" gradientUnits="userSpaceOnUse"><stop offset=".2" stop-color="#77bf75"></stop><stop offset="1" stop-color="#aeeb8f"></stop></linearGradient><linearGradient id="linear-gradient-25" x1="1198.2" y1="-1472.6" x2="2150.2" y2="-1472.6" gradientTransform="translate(0 26) scale(1 -1)" gradientUnits="userSpaceOnUse"><stop offset=".2" stop-color="#77bf75"></stop><stop offset="1" stop-color="#aeeb8f"></stop></linearGradient><linearGradient id="linear-gradient-26" x1="1198.2" y1="-1472.5" x2="2150.2" y2="-1472.5" gradientTransform="translate(0 26) scale(1 -1)" gradientUnits="userSpaceOnUse"><stop offset=".2" stop-color="#77bf75"></stop><stop offset="1" stop-color="#aeeb8f"></stop></linearGradient><linearGradient id="linear-gradient-27" x1="1198.2" y1="-1472.5" x2="2150.2" y2="-1472.5" gradientTransform="translate(0 26) scale(1 -1)" gradientUnits="userSpaceOnUse"><stop offset=".2" stop-color="#77bf75"></stop><stop offset="1" stop-color="#aeeb8f"></stop></linearGradient><linearGradient id="linear-gradient-28" x1="1198.2" y1="-1472.6" x2="2150.2" y2="-1472.6" gradientTransform="translate(0 26) scale(1 -1)" gradientUnits="userSpaceOnUse"><stop offset=".2" stop-color="#77bf75"></stop><stop offset="1" stop-color="#aeeb8f"></stop></linearGradient><linearGradient id="linear-gradient-29" x1="1198.2" y1="-1472.5" x2="2150.2" y2="-1472.5" gradientTransform="translate(0 26) scale(1 -1)" gradientUnits="userSpaceOnUse"><stop offset=".2" stop-color="#77bf75"></stop><stop offset="1" stop-color="#aeeb8f"></stop></linearGradient></defs><g><g><g><g><path class="cls-4" d="M1286.9,1363h-55.5l-10.3,25.5h-37.9l58-131.4h36.6l58.2,131.4h-38.7l-10.3-25.5h0ZM1276.1,1335.6l-16.9-42-16.9,42h33.8Z"></path><path class="cls-19" d="M1358.7,1375.2c-10.8-10.6-16.2-25.7-16.2-45.2v-72.8h37.2v71.7c0,21,8.3,31.5,25,31.5s24.8-10.5,24.8-31.5v-71.7h36.6v72.8c0,19.5-5.4,34.6-16.2,45.2-10.8,10.6-26,16-45.5,16s-34.7-5.3-45.5-16h-.2Z"></path><path class="cls-21" d="M1506.3,1387.2c-10-2.6-18.1-6.1-24.4-10.5l12.2-27.4c5.9,3.9,12.7,7,20.5,9.4s15.4,3.6,22.9,3.6c14.3,0,21.4-3.6,21.4-10.7s-2-6.5-6.1-8.4c-4.1-1.8-10.6-3.7-19.6-5.7-9.9-2.1-18.1-4.4-24.8-6.8-6.6-2.4-12.3-6.3-17.1-11.7-4.8-5.4-7.1-12.6-7.1-21.8s2.2-15.2,6.6-21.7c4.4-6.4,10.9-11.5,19.6-15.3s19.4-5.6,32-5.6,17.1,1,25.5,2.9,15.8,4.8,22.1,8.5l-11.4,27.6c-12.5-6.8-24.6-10.1-36.4-10.1s-12.8,1.1-16.1,3.3c-3.4,2.2-5.1,5-5.1,8.5s2,6.1,6,7.9,10.4,3.6,19.3,5.4c10,2.1,18.3,4.4,24.9,6.8s12.3,6.3,17.1,11.6c4.8,5.3,7.2,12.5,7.2,21.7s-2.2,15-6.6,21.4-10.9,11.5-19.7,15.3c-8.8,3.8-19.4,5.7-31.9,5.7s-21-1.3-31-3.9h0Z"></path><path class="cls-33" d="M1227.4,1735.9c-10.9-5.8-19.5-13.9-25.8-24.3s-9.4-22.1-9.4-35.3,3.1-24.9,9.4-35.3,14.9-18.5,25.8-24.3,23.3-8.7,37.1-8.7,22.8,2.1,32.5,6.4c9.6,4.3,17.6,10.4,24,18.4l-23.6,21.4c-8.5-10.3-18.8-15.4-31-15.4s-13.5,1.6-19,4.7c-5.6,3.1-9.9,7.5-12.9,13.2-3.1,5.7-4.6,12.2-4.6,19.6s1.5,13.9,4.6,19.6,7.4,10.1,12.9,13.2c5.6,3.1,11.9,4.7,19,4.7,12.1,0,22.5-5.1,31-15.4l23.6,21.4c-6.4,8-14.4,14.1-24,18.4s-20.5,6.4-32.5,6.4-26.1-2.9-37.1-8.7h0Z"></path><path class="cls-11" d="M1363.4,1735.8c-11.1-5.9-19.8-14-26.1-24.4-6.3-10.4-9.5-22.1-9.5-35.1s3.2-24.7,9.5-35.1,15-18.5,26.1-24.4,23.6-8.8,37.4-8.8,26.4,2.9,37.4,8.8c11.1,5.9,19.8,14,26.1,24.4,6.3,10.4,9.5,22.1,9.5,35.1s-3.2,24.7-9.5,35.1-15,18.5-26.1,24.4-23.6,8.8-37.4,8.8-26.4-2.9-37.4-8.8ZM1418.9,1709.2c5.4-3.1,9.6-7.5,12.8-13.2,3.1-5.7,4.7-12.2,4.7-19.6s-1.6-13.9-4.7-19.6-7.4-10.1-12.8-13.2-11.4-4.7-18-4.7-12.6,1.6-18,4.7-9.6,7.5-12.8,13.2c-3.1,5.7-4.7,12.2-4.7,19.6s1.6,13.9,4.7,19.6,7.4,10.1,12.8,13.2,11.4,4.7,18,4.7,12.6-1.6,18-4.7Z"></path><path class="cls-6" d="M1618.3,1610.6v131.4h-30.6l-58-70v70h-36.4v-131.4h30.6l58,70v-70h36.4Z"></path><path class="cls-20" d="M1659.8,1740.7c-10-2.6-18.1-6.1-24.4-10.5l12.2-27.4c5.9,3.9,12.7,7,20.5,9.4s15.4,3.6,22.9,3.6c14.3,0,21.4-3.6,21.4-10.7s-2-6.5-6.1-8.4c-4.1-1.8-10.6-3.7-19.6-5.7-9.9-2.1-18.1-4.4-24.8-6.8-6.6-2.4-12.3-6.3-17.1-11.7-4.8-5.4-7.1-12.6-7.1-21.8s2.2-15.2,6.6-21.7c4.4-6.4,10.9-11.5,19.6-15.3s19.4-5.6,32-5.6,17.1,1,25.5,2.9,15.8,4.8,22.1,8.5l-11.4,27.6c-12.5-6.8-24.6-10.1-36.4-10.1s-12.8,1.1-16.1,3.3c-3.4,2.2-5.1,5-5.1,8.5s2,6.1,6,7.9,10.4,3.6,19.3,5.4c10,2.1,18.3,4.4,24.9,6.9,6.6,2.4,12.3,6.3,17.1,11.6,4.8,5.3,7.2,12.5,7.2,21.7s-2.2,15-6.6,21.4-10.9,11.5-19.7,15.3c-8.8,3.8-19.4,5.7-31.9,5.7s-21-1.3-31-3.9h0Z"></path><path class="cls-24" d="M1781.1,1728.7c-10.8-10.6-16.2-25.7-16.2-45.2v-72.8h37.2v71.7c0,21,8.3,31.5,25,31.5s24.8-10.5,24.8-31.5v-71.7h36.6v72.8c0,19.5-5.4,34.6-16.2,45.2-10.8,10.6-26,16-45.5,16s-34.7-5.3-45.5-16h-.2Z"></path><path class="cls-22" d="M1913.5,1610.6h37.2v101.9h62.7v29.5h-99.8v-131.4h0Z"></path><path class="cls-32" d="M2043.8,1640.1h-40.3v-29.5h117.7v29.5h-40.2v101.9h-37.2v-101.9Z"></path><path class="cls-9" d="M2216.4,1716.5h-55.5l-10.3,25.5h-37.9l58-131.4h36.6l58.2,131.4h-38.7l-10.3-25.5h-.1ZM2205.5,1689.1l-16.9-42-16.9,42h33.8,0Z"></path><path class="cls-1" d="M2400.9,1610.6v131.4h-30.6l-58-70v70h-36.4v-131.4h30.6l58,70v-70h36.4Z"></path><path class="cls-12" d="M2455.1,1640.1h-40.3v-29.5h117.7v29.5h-40.2v101.9h-37.2v-101.9Z"></path></g><g><path class="cls-29" d="M1286.9,1363h-55.5l-10.3,25.5h-37.9l58-131.4h36.6l58.2,131.4h-38.7l-10.3-25.5h0ZM1276.1,1335.6l-16.9-42-16.9,42h33.8Z"></path><path class="cls-29" d="M1358.7,1375.2c-10.8-10.6-16.2-25.7-16.2-45.2v-72.8h37.2v71.7c0,21,8.3,31.5,25,31.5s24.8-10.5,24.8-31.5v-71.7h36.6v72.8c0,19.5-5.4,34.6-16.2,45.2-10.8,10.6-26,16-45.5,16s-34.7-5.3-45.5-16h-.2Z"></path><path class="cls-29" d="M1506.3,1387.2c-10-2.6-18.1-6.1-24.4-10.5l12.2-27.4c5.9,3.9,12.7,7,20.5,9.4s15.4,3.6,22.9,3.6c14.3,0,21.4-3.6,21.4-10.7s-2-6.5-6.1-8.4c-4.1-1.8-10.6-3.7-19.6-5.7-9.9-2.1-18.1-4.4-24.8-6.8-6.6-2.4-12.3-6.3-17.1-11.7-4.8-5.4-7.1-12.6-7.1-21.8s2.2-15.2,6.6-21.7c4.4-6.4,10.9-11.5,19.6-15.3s19.4-5.6,32-5.6,17.1,1,25.5,2.9,15.8,4.8,22.1,8.5l-11.4,27.6c-12.5-6.8-24.6-10.1-36.4-10.1s-12.8,1.1-16.1,3.3c-3.4,2.2-5.1,5-5.1,8.5s2,6.1,6,7.9,10.4,3.6,19.3,5.4c10,2.1,18.3,4.4,24.9,6.8s12.3,6.3,17.1,11.6c4.8,5.3,7.2,12.5,7.2,21.7s-2.2,15-6.6,21.4-10.9,11.5-19.7,15.3c-8.8,3.8-19.4,5.7-31.9,5.7s-21-1.3-31-3.9h0Z"></path><path class="cls-29" d="M1227.4,1735.9c-10.9-5.8-19.5-13.9-25.8-24.3s-9.4-22.1-9.4-35.3,3.1-24.9,9.4-35.3,14.9-18.5,25.8-24.3,23.3-8.7,37.1-8.7,22.8,2.1,32.5,6.4c9.6,4.3,17.6,10.4,24,18.4l-23.6,21.4c-8.5-10.3-18.8-15.4-31-15.4s-13.5,1.6-19,4.7c-5.6,3.1-9.9,7.5-12.9,13.2-3.1,5.7-4.6,12.2-4.6,19.6s1.5,13.9,4.6,19.6,7.4,10.1,12.9,13.2c5.6,3.1,11.9,4.7,19,4.7,12.1,0,22.5-5.1,31-15.4l23.6,21.4c-6.4,8-14.4,14.1-24,18.4s-20.5,6.4-32.5,6.4-26.1-2.9-37.1-8.7h0Z"></path><path class="cls-29" d="M1363.4,1735.8c-11.1-5.9-19.8-14-26.1-24.4-6.3-10.4-9.5-22.1-9.5-35.1s3.2-24.7,9.5-35.1,15-18.5,26.1-24.4,23.6-8.8,37.4-8.8,26.4,2.9,37.4,8.8c11.1,5.9,19.8,14,26.1,24.4,6.3,10.4,9.5,22.1,9.5,35.1s-3.2,24.7-9.5,35.1-15,18.5-26.1,24.4-23.6,8.8-37.4,8.8-26.4-2.9-37.4-8.8ZM1418.9,1709.2c5.4-3.1,9.6-7.5,12.8-13.2,3.1-5.7,4.7-12.2,4.7-19.6s-1.6-13.9-4.7-19.6-7.4-10.1-12.8-13.2-11.4-4.7-18-4.7-12.6,1.6-18,4.7-9.6,7.5-12.8,13.2c-3.1,5.7-4.7,12.2-4.7,19.6s1.6,13.9,4.7,19.6,7.4,10.1,12.8,13.2,11.4,4.7,18,4.7,12.6-1.6,18-4.7Z"></path><path class="cls-29" d="M1618.3,1610.6v131.4h-30.6l-58-70v70h-36.4v-131.4h30.6l58,70v-70h36.4Z"></path><path class="cls-29" d="M1659.8,1740.7c-10-2.6-18.1-6.1-24.4-10.5l12.2-27.4c5.9,3.9,12.7,7,20.5,9.4s15.4,3.6,22.9,3.6c14.3,0,21.4-3.6,21.4-10.7s-2-6.5-6.1-8.4c-4.1-1.8-10.6-3.7-19.6-5.7-9.9-2.1-18.1-4.4-24.8-6.8-6.6-2.4-12.3-6.3-17.1-11.7-4.8-5.4-7.1-12.6-7.1-21.8s2.2-15.2,6.6-21.7c4.4-6.4,10.9-11.5,19.6-15.3s19.4-5.6,32-5.6,17.1,1,25.5,2.9,15.8,4.8,22.1,8.5l-11.4,27.6c-12.5-6.8-24.6-10.1-36.4-10.1s-12.8,1.1-16.1,3.3c-3.4,2.2-5.1,5-5.1,8.5s2,6.1,6,7.9,10.4,3.6,19.3,5.4c10,2.1,18.3,4.4,24.9,6.9,6.6,2.4,12.3,6.3,17.1,11.6,4.8,5.3,7.2,12.5,7.2,21.7s-2.2,15-6.6,21.4-10.9,11.5-19.7,15.3c-8.8,3.8-19.4,5.7-31.9,5.7s-21-1.3-31-3.9h0Z"></path><path class="cls-29" d="M1781.1,1728.7c-10.8-10.6-16.2-25.7-16.2-45.2v-72.8h37.2v71.7c0,21,8.3,31.5,25,31.5s24.8-10.5,24.8-31.5v-71.7h36.6v72.8c0,19.5-5.4,34.6-16.2,45.2-10.8,10.6-26,16-45.5,16s-34.7-5.3-45.5-16h-.2Z"></path><path class="cls-29" d="M1913.5,1610.6h37.2v101.9h62.7v29.5h-99.8v-131.4h0Z"></path><path class="cls-29" d="M2043.8,1640.1h-40.3v-29.5h117.7v29.5h-40.2v101.9h-37.2v-101.9Z"></path><path class="cls-29" d="M2216.4,1716.5h-55.5l-10.3,25.5h-37.9l58-131.4h36.6l58.2,131.4h-38.7l-10.3-25.5h-.1ZM2205.5,1689.1l-16.9-42-16.9,42h33.8,0Z"></path><path class="cls-29" d="M2400.9,1610.6v131.4h-30.6l-58-70v70h-36.4v-131.4h30.6l58,70v-70h36.4Z"></path><path class="cls-29" d="M2455.1,1640.1h-40.3v-29.5h117.7v29.5h-40.2v101.9h-37.2v-101.9Z"></path></g></g><path class="cls-29" d="M1088.1,1550h0Z"></path><g><path class="cls-18" d="M1303.6,1535.5v28.7h-105.5v-131.4h103v28.7h-66.2v22.1h58.4v27.8h-58.4v24h68.7Z"></path><path class="cls-8" d="M1449.3,1432.9v131.4h-30.6l-58-70v70h-36.4v-131.4h30.6l58,70v-70h36.4Z"></path><path class="cls-15" d="M1563.5,1495.8h32.8v54.4c-7.5,5.4-16.1,9.5-25.9,12.4s-19.5,4.3-29.3,4.3-26.1-2.9-37.2-8.7c-11-5.8-19.6-13.9-25.9-24.3s-9.4-22.1-9.4-35.3,3.1-24.9,9.4-35.3,14.9-18.5,26.1-24.3c11.1-5.8,23.7-8.7,37.7-8.7s23.3,2.1,33,6.2c9.8,4.1,17.9,10.1,24.4,17.8l-23.6,21.4c-8.9-9.8-19.5-14.6-31.9-14.6s-20.3,3.4-27.2,10.2c-6.9,6.8-10.3,15.9-10.3,27.3s1.6,13.7,4.7,19.4c3.1,5.7,7.5,10.1,13.1,13.3,5.6,3.2,12.1,4.8,19.3,4.8s13.8-1.4,20.1-4.3v-36h.1Z"></path><path class="cls-2" d="M1725.5,1535.5v28.7h-105.5v-131.4h103v28.7h-66.2v22.1h58.4v27.8h-58.4v24h68.7Z"></path><path class="cls-27" d="M1803.6,1529.3h-20.3v34.9h-37.2v-131.4h60.1c11.9,0,22.2,2,31,5.9s15.5,9.6,20.3,16.9,7.1,15.9,7.1,25.8-2.2,17.8-6.7,24.9c-4.4,7.1-10.8,12.6-19,16.6l28.3,41.3h-39.8l-23.8-34.9h0ZM1821.2,1467.2c-3.9-3.4-9.6-5.1-17.3-5.1h-20.6v38.5h20.6c7.6,0,13.4-1.7,17.3-5s5.8-8,5.8-14.2-1.9-10.9-5.8-14.3h0Z"></path><path class="cls-3" d="M1973,1495.8h32.8v54.4c-7.5,5.4-16.1,9.5-25.9,12.4s-19.5,4.3-29.3,4.3-26.2-2.9-37.2-8.7c-11-5.8-19.6-13.9-25.9-24.3s-9.4-22.1-9.4-35.3,3.1-24.9,9.4-35.3,14.9-18.5,26.1-24.3c11.1-5.8,23.7-8.7,37.7-8.7s23.3,2.1,33,6.2c9.8,4.1,17.9,10.1,24.4,17.8l-23.6,21.4c-8.9-9.8-19.5-14.6-31.9-14.6s-20.3,3.4-27.2,10.2c-6.9,6.8-10.3,15.9-10.3,27.3s1.6,13.7,4.7,19.4c3.1,5.7,7.5,10.1,13.1,13.3,5.6,3.2,12.1,4.8,19.3,4.8s13.8-1.4,20.1-4.3v-36h.1Z"></path><path class="cls-17" d="M2099.9,1517.1v47.1h-37.2v-47.7l-50.1-83.7h39.2l31.2,52.2,31.2-52.2h36l-50.3,84.3h0Z"></path></g><g><path class="cls-5" d="M730.3,1512.1h23.4l-41.3,110.8c-17.3-12.9-31.9-29.4-42.4-48.2-12.7-22.7-19.5-48.6-19.5-74.8s12.5-70.2,35.1-97.6c18.9-22.8,44-39.6,71.9-48.5l-46.9,130c-2.3,6.4-1.4,13.6,2.6,19.2,3.9,5.6,10.4,9,17.2,9h0Z"></path><path class="cls-16" d="M956.6,1500c0,40.9-15.9,79.3-44.8,108.2-28.9,28.9-67.4,44.8-108.2,44.8s-28.4-2-42-5.8l126.9-174.7c4.8-6.7,5.5-15.4,1.8-22.7-3.7-7.3-11.2-11.9-19.4-11.9h-26.1l41.2-66.9c20,12.8,36.9,30.2,49.1,50.7,14.1,23.6,21.5,50.7,21.5,78.3Z"></path><path class="cls-29" d="M883,1358.9l21.7-35.2c4.3-7.1-.7-16.1-9-16.1h-104.4c-4.6,0-8.7,2.9-10.2,7.2l-9.6,26.5-52.6,145.7c-2.9,7.9,3,16.3,11.5,16.3h30.9c2.6,0,4.3,2.5,3.4,4.9l-47.9,128.5-15.1,40.5c-4.6,12.2,11.9,21.1,19.6,10.5l26.1-35.9,134.1-184.5c6.2-8.6,0-20.6-10.5-20.6h-37.5c-1.9,0-3.1-2.1-2.1-3.7l51.8-84.1h-.2ZM822.6,1446.8h0c0,.2,0,.4,0,.6.2.6.4,1.2.7,1.8.4.8.8,1.5,1.4,2.1.2.2.4.5.7.7.3.3.6.6,1,.8.4.3.7.5,1.1.7.4.2.9.4,1.4.6.3,0,.6.2.9.3.6,0,1.3.2,2,.2h40c3.6.3,5.7,4.3,3.7,7.4,0,0-.2.2-.2.3l-135.6,186.6-24.2,33.3-.5.7c-2.4,3.3-7.6.5-6.2-3.3l.3-.8,14.2-38,49.1-131.7h0c0-.3.2-.6.3-.9.2-.6.3-1.1.3-1.7.5-5.3-3.4-10.2-8.9-10.8h-33.5c-3.3,0-5.6-3.3-4.5-6.3v-.3c0,0,53.9-149.1,53.9-149.1l8-22.2s0-.2,0-.2h0s0-.2,0-.2h0c0-.2.2-.3.3-.4s.2-.3.4-.4c0,0,.3-.2.4-.3.6-.4,1.2-.6,2-.6h103.3c2.6,0,4.2,2.9,2.8,5.1l-.3.5-21.1,34.4-52.2,84.9c0,0-.2.3-.2.4-.3.5-.5,1-.7,1.4s-.1.3,0,0c-.2.5-.3.9-.4,1.4v.2c-.2,1.1-.2,2.1,0,3.1v-.3Z"></path><path class="cls-10" d="M822.6,1443.6c-.2,1.1-.2,2.1,0,3.1h0c0,.2,0,.4,0,.6.2.6.4,1.2.7,1.8.4.8.8,1.5,1.4,2.1.2.2.4.5.7.7.3.3.6.6,1,.8.4.3.7.5,1.1.7.4.2.9.4,1.4.6.3,0,.6.2.9.3.6,0,1.3.2,2,.2h40c3.5.4,5.5,4.4,3.7,7.4,0,0-.2.2-.2.3l-135.6,186.6-24.2,33.3-.5.7c-2.4,3.3-7.6.5-6.2-3.3l.3-.8,14.2-38,49.1-131.7h0c0-.3.2-.6.3-.9.2-.6.3-1.1.3-1.7.5-5.3-3.4-10.3-8.9-10.8h-33.1c-3.5,0-5.9-3.4-4.7-6.7l53.8-149.1,8-22.1s0-.2,0-.3h0s0-.2,0-.2h0c0-.2.2-.3.3-.4s.2-.3.4-.4c0,0,.3-.2.4-.3.6-.4,1.2-.6,2-.6h102.8c2.8,0,4.6,3.1,3.1,5.5l-21.1,34.4-52.2,84.9h0c0,0,0,.3-.2.4-.3.5-.5,1-.7,1.4q-.1.3,0,0c-.2.5-.3.9-.4,1.4v.2h-.2Z"></path><g><path class="cls-28" d="M1098.8,1499.9c0,11.3-.6,22.4-1.9,33.4-.5,4.7-4.6,8.2-9.2,8.2s-1.2,0-1.9-.2c-4.7-1-7.9-5.4-7.4-10.2,1.2-10.2,1.8-20.7,1.8-31.2,0-107-61.7-200-151.4-245-36.9-18.5-78.5-29-122.6-29s-85.7,10.4-122.6,29c-62,31.1-110.6,85.1-134.7,150.8l25.5-11.9c5-2.3,10.9-.2,13.3,4.8,2.3,5,.2,10.9-4.8,13.3l-41,19.1c-3.1,1.5-6.7,1.9-10,1.2-3.5-.7-6.6-2.6-8.8-5.4h0c-.5-.8-1-1.5-1.4-2.3l-18-34.5c-2.5-4.9-1-11.1,3.8-13.8,4.9-2.7,11.1-.9,13.7,4.1l10.2,19.6c24.3-66.7,72.3-122.1,133.6-156.1,41.9-23.2,90.1-36.5,141.3-36.5s97.9,12.8,139.4,35.4c91.2,49.6,153.2,146.3,153.2,257.1h0Z"></path><path class="cls-7" d="M508.1,1500.1c0-11.3.6-22.4,1.9-33.4.5-4.7,4.6-8.1,9.2-8.1s1.2,0,1.9.2c4.7,1,7.9,5.4,7.4,10.2-1.2,10.2-1.8,20.7-1.8,31.2,0,151.1,122.9,274,274,274s218.8-75,257.3-179.8l-25.5,11.9c-5,2.3-10.9.2-13.3-4.8-2.3-5-.2-10.9,4.8-13.3l41-19.1c3.1-1.5,6.6-1.9,10-1.2,3.5.7,6.6,2.6,8.8,5.4h0c.5.7,1,1.4,1.4,2.2l18,34.5c2.5,4.9,1,11.1-3.8,13.8-4.9,2.7-11.1.9-13.7-4.1l-10.2-19.6c-40.9,112.3-148.7,192.6-275,192.6s-292.5-131.2-292.5-292.5h0Z"></path></g></g></g><g><path class="cls-13" d="M1303.6,1535.5v28.7h-105.5v-131.4h103v28.7h-66.2v22.1h58.4v27.8h-58.4v24h68.7Z"></path><path class="cls-25" d="M1449.3,1432.9v131.4h-30.6l-58-70v70h-36.4v-131.4h30.6l58,70v-70h36.4Z"></path><path class="cls-14" d="M1563.5,1495.8h32.8v54.4c-7.5,5.4-16.1,9.5-25.9,12.4s-19.5,4.3-29.3,4.3-26.1-2.9-37.2-8.7c-11-5.8-19.6-13.9-25.9-24.3s-9.4-22.1-9.4-35.3,3.1-24.9,9.4-35.3,14.9-18.5,26.1-24.3c11.1-5.8,23.7-8.7,37.7-8.7s23.3,2.1,33,6.2c9.8,4.1,17.9,10.1,24.4,17.8l-23.6,21.4c-8.9-9.8-19.5-14.6-31.9-14.6s-20.3,3.4-27.2,10.2c-6.9,6.8-10.3,15.9-10.3,27.3s1.6,13.7,4.7,19.4c3.1,5.7,7.5,10.1,13.1,13.3,5.6,3.2,12.1,4.8,19.3,4.8s13.8-1.4,20.1-4.3v-36h.1Z"></path><path class="cls-26" d="M1725.5,1535.5v28.7h-105.5v-131.4h103v28.7h-66.2v22.1h58.4v27.8h-58.4v24h68.7Z"></path><path class="cls-23" d="M1803.6,1529.3h-20.3v34.9h-37.2v-131.4h60.1c11.9,0,22.2,2,31,5.9s15.5,9.6,20.3,16.9,7.1,15.9,7.1,25.8-2.2,17.8-6.7,24.9c-4.4,7.1-10.8,12.6-19,16.6l28.3,41.3h-39.8l-23.8-34.9h0ZM1821.2,1467.2c-3.9-3.4-9.6-5.1-17.3-5.1h-20.6v38.5h20.6c7.6,0,13.4-1.7,17.3-5s5.8-8,5.8-14.2-1.9-10.9-5.8-14.3h0Z"></path><path class="cls-31" d="M1973,1495.8h32.8v54.4c-7.5,5.4-16.1,9.5-25.9,12.4s-19.5,4.3-29.3,4.3-26.2-2.9-37.2-8.7c-11-5.8-19.6-13.9-25.9-24.3s-9.4-22.1-9.4-35.3,3.1-24.9,9.4-35.3,14.9-18.5,26.1-24.3c11.1-5.8,23.7-8.7,37.7-8.7s23.3,2.1,33,6.2c9.8,4.1,17.9,10.1,24.4,17.8l-23.6,21.4c-8.9-9.8-19.5-14.6-31.9-14.6s-20.3,3.4-27.2,10.2c-6.9,6.8-10.3,15.9-10.3,27.3s1.6,13.7,4.7,19.4c3.1,5.7,7.5,10.1,13.1,13.3,5.6,3.2,12.1,4.8,19.3,4.8s13.8-1.4,20.1-4.3v-36h.1Z"></path><path class="cls-30" d="M2099.9,1517.1v47.1h-37.2v-47.7l-50.1-83.7h39.2l31.2,52.2,31.2-52.2h36l-50.3,84.3h0Z"></path></g></g><g><path class="cls-29" d="M66.1,25s0,0,0,0c0,0,0-.1,0-.2.2-.3.4-.6.7-.9,0,0,.1,0,.2,0,0,0,0,.1,0,.2-.2.3-.5.6-.7.9,0,0,0,0-.1,0ZM65.5,24.2s0,0-.1,0c-.2-.3-.4-.6-.6-.9,0,0,0-.2,0-.2,0,0,.2,0,.2,0,.2.3.4.6.6.9,0,0,0,.2,0,.2,0,0,0,0,0,0ZM67.4,23.3s0,0,0,0c0,0,0-.1,0-.2.2-.3.5-.6.7-.9,0,0,.1,0,.2,0,0,0,0,.1,0,.2-.3.3-.5.6-.7.9,0,0,0,0-.1,0ZM64.3,22.4s0,0-.1,0c-.2-.3-.4-.6-.6-.9,0,0,0-.2,0-.2,0,0,.2,0,.2,0,.2.3.4.6.6.9,0,0,0,.2,0,.2,0,0,0,0,0,0ZM68.8,21.6s0,0,0,0c0,0,0-.1,0-.2l.7-.9c0,0,.1,0,.2,0,0,0,0,.1,0,.2l-.7.9s0,0-.1,0ZM63.1,20.6s0,0-.1,0c-.2-.3-.4-.6-.6-.9,0,0,0-.2,0-.2,0,0,.2,0,.2,0,.2.3.4.6.6.9,0,0,0,.2,0,.2,0,0,0,0,0,0ZM70.2,19.9s0,0,0,0c0,0,0-.1,0-.2.1-.2.3-.3.4-.5l.3-.4c0,0,.1,0,.2,0,0,0,0,.1,0,.2l-.3.4c-.1.2-.3.3-.4.5,0,0,0,0-.1,0ZM61.8,18.8s0,0-.1,0c-.2-.3-.4-.6-.6-.9,0,0,0-.2,0-.2,0,0,.2,0,.2,0,.2.3.4.6.6.9,0,0,0,.2,0,.2,0,0,0,0,0,0ZM71.6,18.3s0,0,0,0c0,0,0-.1,0-.2l.7-.9c0,0,.1,0,.2,0,0,0,0,.1,0,.2l-.7.9s0,0-.1,0ZM60.6,17s0,0-.1,0l-.6-.9c0,0,0-.2,0-.2,0,0,.2,0,.2,0l.6.9c0,0,0,.2,0,.2,0,0,0,0,0,0ZM73,16.6s0,0,0,0c0,0,0-.1,0-.2l.7-.9c0,0,.1,0,.2,0,0,0,0,.1,0,.2l-.7.9s0,0-.1,0ZM59.4,15.2s0,0-.1,0l-.6-.9c0,0,0-.2,0-.2,0,0,.2,0,.2,0l.6.9c0,0,0,.2,0,.2,0,0,0,0,0,0ZM74.3,14.9s0,0,0,0c0,0,0-.1,0-.2l.7-.9c0,0,.1,0,.2,0,0,0,0,.1,0,.2l-.7.9s0,0-.1,0ZM66.5,14s0,0,0,0c0,0,0-.1,0-.2l.7-.9c0,0,.1,0,.2,0,0,0,0,.1,0,.2l-.7.9s0,0-.1,0ZM66,13.5s0,0-.1,0l-.6-1c0,0,0-.2,0-.2,0,0,.2,0,.2,0l.6,1c0,0,0,.2,0,.2,0,0,0,0,0,0ZM58.2,13.4s0,0-.1,0l-.6-.9c0,0,0-.2,0-.2,0,0,.2,0,.2,0l.6.9c0,0,0,.2,0,.2,0,0,0,0,0,0ZM75.7,13.2s0,0,0,0c0,0,0-.1,0-.2h0c.2-.4.4-.6.6-.9,0,0,.1,0,.2,0,0,0,0,.1,0,.2-.2.3-.4.5-.6.8h0c0,.1,0,.2-.1.2ZM94.4,12.8h0c-.4,0-.8,0-1.2-.2,0,0-.1-.1,0-.2,0,0,.1-.1.2,0,.3.1.7.2,1.1.2,0,0,.1,0,.1.1,0,0,0,.1-.1.1ZM95.4,12.6c0,0-.1,0-.1,0,0,0,0-.2,0-.2.2,0,.4-.2.6-.3.1,0,.2-.1.4-.2,0,0,.2,0,.2,0,0,0,0,.2,0,.2-.1,0-.3.2-.4.2-.2.1-.4.2-.7.3,0,0,0,0,0,0ZM67.9,12.3s0,0,0,0c0,0,0-.1,0-.2l.7-.9c0,0,.1,0,.2,0,0,0,0,.1,0,.2l-.7.9s0,0-.1,0ZM92.4,12s0,0,0,0c-.3-.2-.6-.5-.8-.8,0,0,0-.1,0-.2,0,0,.1,0,.2,0,.2.3.5.6.8.8,0,0,0,.1,0,.2,0,0,0,0-.1,0ZM64.8,11.7s0,0-.1,0l-.6-1c0,0,0-.2,0-.2,0,0,.2,0,.2,0l.6,1c0,0,0,.2,0,.2,0,0,0,0,0,0ZM56.9,11.6s0,0-.1,0c-.2-.3-.4-.6-.6-.9,0,0,0-.2,0-.2,0,0,.2,0,.2,0,.2.3.4.6.6.9,0,0,0,.2,0,.2,0,0,0,0,0,0ZM77.1,11.5s0,0,0,0c0,0,0-.1,0-.2.3-.4.5-.6.7-.9,0,0,.1,0,.2,0,0,0,0,.1,0,.2-.2.2-.4.5-.7.9,0,0,0,0-.1,0ZM97.2,11.4s0,0,0,0c0,0,0-.1,0-.2.2-.3.3-.6.4-1,0,0,0-.1.2-.1,0,0,.1,0,.1.2,0,.4-.2.8-.4,1.1,0,0,0,0-.1,0ZM69.3,10.7s0,0,0,0c0,0,0-.1,0-.2l.2-.3c.2-.2.3-.4.5-.6,0,0,.1,0,.2,0,0,0,0,.1,0,.2-.2.2-.3.4-.5.6l-.2.3s0,0-.1,0ZM91,10.4s0,0-.1,0c-.3-.3-.5-.6-.8-.8,0,0,0-.1,0-.2s.1,0,.2,0c.3.2.5.5.8.8,0,0,0,.1,0,.2,0,0,0,0,0,0ZM78.5,9.9s0,0,0,0c0,0,0-.1,0-.2.3-.3.6-.6.8-.8,0,0,.1,0,.2,0s0,.1,0,.2c-.3.2-.5.5-.8.8,0,0,0,0-.1,0ZM63.6,9.9s0,0-.1,0l-.6-1c0,0,0-.2,0-.2,0,0,.2,0,.2,0l.6,1c0,0,0,.2,0,.2,0,0,0,0,0,0ZM55.7,9.8s0,0-.1,0c-.2-.3-.4-.6-.6-.9,0,0,0-.2,0-.2,0,0,.2,0,.2,0,.2.3.4.6.6.9,0,0,0,.2,0,.2,0,0,0,0,0,0ZM97.6,9.3c0,0-.1,0-.1-.1,0-.5-.2-.9-.2-1,0,0,0,0,0,0,0,0,0-.2,0-.2s.2,0,.2,0c0,0,0,0,0,0,0,0,.2.4.3,1.1,0,0,0,.1-.1.2,0,0,0,0,0,0ZM70.7,9s0,0,0,0c0,0,0-.1,0-.2.1-.2.3-.3.4-.5.1-.1.2-.3.3-.4,0,0,.1,0,.2,0,0,0,0,.1,0,.2,0,.1-.2.3-.3.4-.1.2-.3.3-.4.5,0,0,0,0-.1,0ZM89.4,8.9s0,0,0,0c-.3-.2-.6-.4-.9-.6,0,0,0-.1,0-.2,0,0,.1,0,.2,0,.3.2.7.4,1,.6,0,0,0,.1,0,.2,0,0,0,0-.1,0ZM80.2,8.5s0,0-.1,0c0,0,0-.2,0-.2.3-.2.7-.4,1-.6,0,0,.2,0,.2,0,0,0,0,.2,0,.2-.3.2-.6.3-1,.6,0,0,0,0,0,0ZM62.4,8.1s0,0-.1,0l-.6-1c0,0,0-.2,0-.2,0,0,.2,0,.2,0l.6,1c0,0,0,.2,0,.2,0,0,0,0,0,0ZM54.5,8s0,0-.1,0c-.2-.3-.4-.6-.6-.9,0,0,0-.2,0-.2,0,0,.2,0,.2,0,.2.3.4.6.6.9,0,0,0,.2,0,.2,0,0,0,0,0,0ZM87.5,7.9s0,0,0,0c-.3-.1-.7-.2-1.1-.3,0,0-.1,0-.1-.2,0,0,0-.1.2-.1.4,0,.8.2,1.1.3,0,0,.1.1,0,.2,0,0,0,0-.1,0ZM82.1,7.5c0,0-.1,0-.1-.1,0,0,0-.2,0-.2.4-.1.7-.2,1.1-.2,0,0,.1,0,.2.1,0,0,0,.1-.1.2-.4,0-.7.1-1.1.2,0,0,0,0,0,0ZM85.4,7.4s0,0,0,0c0,0-.1,0-.2,0-.3,0-.6,0-.9,0,0,0-.1,0-.1-.1,0,0,0-.1.1-.1s0,0,0,0c.3,0,.6,0,.9,0,0,0,.1,0,.2,0,0,0,.1,0,.1.2,0,0,0,.1-.1.1ZM96.8,7.3s0,0-.1,0c-.2-.3-.4-.6-.7-.9,0,0,0-.2,0-.2,0,0,.2,0,.2,0,.2.3.5.6.7.9,0,0,0,.2,0,.2,0,0,0,0,0,0ZM72,7.2s0,0,0,0c0,0,0-.1,0-.2.2-.3.5-.6.7-.9,0,0,.1,0,.2,0,0,0,0,.1,0,.2-.2.3-.5.6-.7.9,0,0,0,0-.1,0ZM61.2,6.2s0,0-.1,0l-.6-1c0,0,0-.2,0-.2,0,0,.2,0,.2,0l.6,1c0,0,0,.2,0,.2,0,0,0,0,0,0ZM53.3,6.2s0,0-.1,0c-.1-.2-.2-.3-.3-.5-.1-.2-.2-.3-.3-.5,0,0,0-.2,0-.2,0,0,.2,0,.2,0,0,.2.2.3.3.5.1.2.2.3.3.5,0,0,0,.2,0,.2,0,0,0,0,0,0ZM95.5,5.6s0,0-.1,0c-.2-.3-.5-.6-.8-.8,0,0,0-.1,0-.2,0,0,.1,0,.2,0,.3.3.5.5.8.8,0,0,0,.1,0,.2,0,0,0,0,0,0ZM73.4,5.6s0,0,0,0c0,0,0-.1,0-.2.3-.3.5-.6.8-.8,0,0,.1,0,.2,0,0,0,0,.1,0,.2-.3.3-.5.5-.8.8,0,0,0,0-.1,0ZM60,4.4s0,0-.1,0l-.6-1c0,0,0-.2,0-.2,0,0,.2,0,.2,0l.6,1c0,0,0,.2,0,.2,0,0,0,0,0,0ZM52.4,4.2c0,0-.1,0-.1-.1,0-.2,0-.4,0-.6,0-.2,0-.4,0-.6,0,0,0-.1.2-.1,0,0,.1,0,.1.2,0,.2,0,.4,0,.6,0,.2,0,.4,0,.5,0,0,0,.2-.1.2,0,0,0,0,0,0ZM75,4.1s0,0-.1,0c0,0,0-.1,0-.2.3-.2.6-.5.9-.7,0,0,.2,0,.2,0,0,0,0,.2,0,.2-.3.2-.6.5-.9.7,0,0,0,0,0,0ZM93.9,4.1s0,0,0,0c-.3-.2-.6-.5-.9-.7,0,0,0-.1,0-.2,0,0,.1,0,.2,0,.3.2.6.5.9.7,0,0,0,.1,0,.2,0,0,0,0-.1,0ZM92.2,2.8s0,0,0,0c-.3-.2-.6-.4-1-.6,0,0,0-.1,0-.2,0,0,.1,0,.2,0,.3.2.7.4,1,.6,0,0,0,.1,0,.2,0,0,0,0-.1,0ZM76.7,2.8s0,0-.1,0c0,0,0-.2,0-.2.3-.2.7-.4,1-.6,0,0,.2,0,.2,0,0,0,0,.2,0,.2-.3.2-.6.4-1,.6,0,0,0,0,0,0ZM58.8,2.6s0,0-.1,0l-.6-1c0,0,0-.2,0-.2,0,0,.2,0,.2,0l.6,1c0,0,0,.2,0,.2,0,0,0,0,0,0ZM52.7,2.1s0,0,0,0c0,0,0-.1,0-.2.2-.3.4-.6.7-.9,0,0,.1,0,.2,0,0,0,0,.1,0,.2-.3.3-.5.5-.7.8,0,0,0,0-.1,0ZM90.3,1.8s0,0,0,0c-.3-.2-.7-.3-1-.4,0,0-.1-.1,0-.2s.1-.1.2,0c.4.1.7.3,1.1.4,0,0,.1.1,0,.2,0,0,0,0-.1,0ZM78.6,1.7c0,0-.1,0-.1,0,0,0,0-.2,0-.2.3-.2.7-.3,1.1-.4,0,0,.2,0,.2,0,0,0,0,.2,0,.2-.3.1-.7.3-1,.4,0,0,0,0,0,0ZM88.2,1s0,0,0,0c-.4,0-.7-.2-1.1-.3,0,0-.1,0-.1-.2,0,0,0-.1.2-.1.4,0,.8.2,1.1.3,0,0,.1,0,0,.2,0,0,0,.1-.1.1ZM80.6,1c0,0-.1,0-.1-.1,0,0,0-.2,0-.2.4-.1.7-.2,1.1-.3,0,0,.2,0,.2.1,0,0,0,.2-.1.2-.4,0-.7.2-1.1.3,0,0,0,0,0,0ZM57.4.9s0,0,0,0h0s-.4-.3-1-.5c0,0-.1,0-.1-.2,0,0,0-.1.2-.1.7.2,1.1.5,1.1.5,0,0,0,.1,0,.2,0,0,0,0-.1,0ZM54.3.6c0,0-.1,0-.1,0,0,0,0-.2,0-.2.4-.2.7-.3,1.1-.4,0,0,.1,0,.2.1,0,0,0,.1-.1.2-.3,0-.7.1-1,.3,0,0,0,0,0,0ZM86.1.6s0,0,0,0c-.4,0-.7,0-1.1-.1,0,0-.1,0-.1-.2,0,0,0-.1.2-.1.4,0,.8,0,1.1.1,0,0,.1,0,.1.2,0,0,0,.1-.1.1ZM82.8.5c0,0-.1,0-.1-.1,0,0,0-.1.1-.2.4,0,.8,0,1.1,0,0,0,.1,0,.1.1,0,0,0,.1-.1.1-.4,0-.8,0-1.1,0,0,0,0,0,0,0Z"></path><path class="cls-29" d="M95.9,11.3c-.5.4-1,.5-1.6.5s-1.6-.4-2-1c0,0,0,0,0,0h0c0,0-.1-.2-.2-.3l-.8-1c-1.8-2-4.2-3.1-6.7-3.1s-3,.4-4.3,1.2c-1.5.9-2.7,2.3-4,3.9h0c-.7.9-1.4,1.8-2.1,2.7l-8,9.8-12.5-18.8c-.8-1.2-.5-2.8.7-3.6.4-.3.9-.4,1.4-.4.9,0,1.7.4,2.2,1.2l8.6,12.9,3.5-4.3c.7-.9,1.4-1.8,2.2-2.6,0,0,0,0,0,0h0c1.6-2,2.9-3.5,5.3-5,1.9-1.3,4.3-1.9,7-1.9,4,0,7.7,1.7,10.5,4.8h0c0,0,1,1.3,1,1.3h0s0,0,0,0c0,0,.1.2.2.3.9,1.1.7,2.8-.5,3.6Z"></path><path class="cls-29" d="M87.1,10.8v12.3c0,1.1-1.2,1.9-2.6,1.9s-2.6-.9-2.6-1.9v-12.3c0-1.1,1.2-1.9,2.6-1.9s2.6.9,2.6,1.9Z"></path></g></svg> 