<?xml version="1.0" encoding="UTF-8"?> <svg xmlns="http://www.w3.org/2000/svg" id="Layer_1" data-name="Layer 1" version="1.1" viewBox="0 0 164 163"><defs><style> .cls-1 { fill: #1c1c1c; } .cls-1, .cls-2 { stroke-width: 0px; } .cls-2 { fill: #7e67ee; } </style></defs><rect class="cls-1" x=".5" y="0" width="163" height="163" rx="24" ry="24"></rect><path class="cls-2" d="M112.5,81.5c0-16.8-13.7-30.5-30.5-30.5s-30.5,13.7-30.5,30.5c0,16.8,13.7,30.5,30.5,30.5,4.8,0,9.6-1.2,13.9-3.4,5.1,3.2,11.8,1.6,15-3.6,1-1.7,1.6-3.6,1.6-5.6,0-2.4-.8-4.7-2.2-6.5,1.5-3.6,2.2-7.6,2.2-11.5ZM82,106.8c-13.5,0-24.4-11.3-24.4-25.3s10.9-25.3,24.4-25.3,24.4,11.3,24.4,25.3c0,2.7-.4,5.3-1.2,7.9-1.1-.4-2.3-.6-3.5-.6-6,0-10.8,4.8-10.9,10.8,0,1.8.4,3.5,1.3,5-3.1,1.5-6.6,2.2-10.1,2.2ZM108.7,99.5c0,3.9-3.2,6.9-7,6.9,0,0,0,0,0,0-.6,0-1.2,0-1.8-.2-1.9-.5-3.6-1.8-4.5-3.6-.5-1-.8-2-.8-3.1,0-3.9,3.2-6.9,7-6.9,0,0,0,0,0,0,.7,0,1.4.1,2.1.3,2,.6,3.7,2.2,4.5,4.1.3.8.5,1.6.5,2.5Z"></path></svg> 