<?xml version="1.0" encoding="UTF-8"?> <svg xmlns="http://www.w3.org/2000/svg" width="164" height="163" viewBox="0 0 164 163" fill="none"><rect x="0.44043" width="162.957" height="162.958" rx="24" fill="#1C1C1C"></rect><g clip-path="url(#clip0_9177_18933)"><path d="M58.9414 106.965L53.8289 49.6216H110.008L104.889 106.956L81.8838 113.334L58.9414 106.965Z" fill="#264DE4"></path><path d="M100.509 103.307L104.883 54.3113H81.9197V108.46L100.509 103.307Z" fill="#2965F1"></path><path d="M65.5499 75.5782L66.1801 82.6111H81.9185V75.5782H65.5499ZM64.9226 68.3763H81.9185V61.3433H64.2832L64.9226 68.3763ZM81.9185 93.8436L81.8877 93.8518L74.055 91.7368L73.5544 86.1276H66.4942L67.4797 97.1705L81.8862 101.17L81.9185 101.161V93.8436Z" fill="#EBEBEB"></path><path d="M81.8948 75.5784V82.6113H90.5551L89.7388 91.7326L81.8948 93.8497V101.167L96.3128 97.1707L96.4185 95.9824L98.0711 77.4669L98.2428 75.5784L99.5125 61.3435H81.8948V68.3765H91.805L91.1648 75.5784H81.8948Z" fill="white"></path></g><defs><clipPath id="clip0_9177_18933"><rect width="63.7127" height="63.7127" fill="white" transform="translate(50.0632 49.6216)"></rect></clipPath></defs></svg> 