<?xml version="1.0" encoding="UTF-8"?> <svg xmlns="http://www.w3.org/2000/svg" id="Layer_1" data-name="Layer 1" version="1.1" viewBox="0 0 164 163"><defs><style> .cls-1 { fill: #1c1c1c; } .cls-1, .cls-2 { stroke-width: 0px; } .cls-2 { fill: #12a5d7; } </style></defs><rect class="cls-1" x=".5" y="0" width="163" height="163" rx="24" ry="24"></rect><g><g id="W"><path class="cls-2" d="M62.9,81.5c0,7.5,4.4,14.1,10.8,17.2l-9.1-24.9c-1,2.4-1.7,5-1.7,7.8Z"></path><path class="cls-2" d="M94.8,80.5c0-2.4-.9-3.9-1.5-5.2-1-1.5-1.9-2.9-1.9-4.4s1.3-3.4,3.2-3.4h.3c-3.3-3.1-7.9-5-12.8-5s-12.6,3.4-15.9,8.6h1.3c2,0,5.1-.3,5.1-.3,1,0,1.1,1.4.1,1.5,0,0-1,.1-2.2.1l7,20.6,4.2-12.5-3.2-8c-1,0-2-.1-2-.1-1,0-.9-1.7.1-1.5,0,0,3.2.3,5.1.3s5.1-.3,5.1-.3c1,0,1.1,1.4.1,1.5,0,0-1,.1-2.2.1l6.9,20.5,1.9-6.4c.8-2.7,1.4-4.6,1.4-6.2Z"></path><path class="cls-2" d="M82.4,83.2l-5.7,16.6c1.7.5,3.6.8,5.3.8s4.3-.4,6.4-1.1c0-.1-.1-.1-.1-.3l-5.8-16Z"></path><path class="cls-2" d="M98.8,72.3c.1.6.1,1.3.1,1.9,0,1.9-.4,4.1-1.4,6.9l-6,16.9c5.7-3.3,9.5-9.5,9.5-16.5s-.9-6.5-2.3-9.2Z"></path></g><path class="cls-2" d="M82,51c-16.9,0-30.5,13.6-30.5,30.5s13.6,30.5,30.5,30.5,30.5-13.6,30.5-30.5-13.6-30.5-30.5-30.5ZM82,105.6c-13.3,0-24.1-10.8-24.1-24.1s10.8-24.1,24.1-24.1,24.1,10.8,24.1,24.1-10.8,24.1-24.1,24.1Z"></path></g></svg> 