<?xml version="1.0" encoding="UTF-8"?> <svg xmlns="http://www.w3.org/2000/svg" id="Layer_1" data-name="Layer 1" version="1.1" viewBox="0 0 164 163"><defs><style> .cls-1 { fill: #5e8e3e; } .cls-1, .cls-2, .cls-3, .cls-4 { stroke-width: 0px; } .cls-2 { fill: #1c1c1c; } .cls-3 { fill: #95bf47; } .cls-4 { fill: #fff; } </style></defs><rect class="cls-2" x=".5" y="0" width="163" height="163" rx="24" ry="24"></rect><g><path class="cls-3" d="M102.2,62.7c0-.3-.3-.5-.5-.5-.2,0-4.6,0-4.6,0,0,0-3.6-3.5-4-3.9s-1.1-.3-1.3-.2c0,0-.7.2-1.8.6-.2-.6-.5-1.4-.9-2.1-1.3-2.5-3.2-3.8-5.5-3.8h0c-.2,0-.3,0-.5,0,0,0-.1-.2-.2-.2-1-1.1-2.3-1.6-3.8-1.5-3,0-5.9,2.2-8.3,6-1.7,2.7-3,6-3.3,8.6-3.4,1.1-5.8,1.8-5.8,1.8-1.7.5-1.8.6-2,2.2-.2,1.2-4.7,35.9-4.7,35.9l37.6,6.5,16.3-4s-6.6-44.9-6.7-45.2ZM69.6,65c1-4.7,5-11.9,9.6-12,.7,0,1.3.1,1.8.5-.8.4-1.6,1-2.3,1.8-1.9,2-3.3,5.1-3.9,8.2-1.8.6-3.5,1.1-5.1,1.6ZM83.2,60.8c-2,.6-4.1,1.3-6.3,1.9.6-2.3,1.8-4.6,3.2-6.1.5-.6,1.3-1.2,2.1-1.6.8,1.7,1,4.1,1,5.8ZM85.2,60.2c0-1.5-.2-3.6-.9-5.4,2.2.4,3.3,3,3.8,4.5-.9.3-1.8.6-2.9.9Z"></path><path class="cls-1" d="M101.7,62.2c-.2,0-4.6,0-4.6,0,0,0-3.6-3.5-4-3.9-.1-.1-.3-.2-.5-.2v54s16.3-4,16.3-4c0,0-6.6-44.9-6.7-45.2,0-.3-.3-.5-.5-.5Z"></path><path class="cls-4" d="M83.6,70.6l-1.9,7.1s-2.1-1-4.6-.8c-3.7.2-3.7,2.5-3.7,3.1.2,3.2,8.5,3.9,9,11.3.4,5.8-3.1,9.8-8.1,10.1-6,.4-9.3-3.2-9.3-3.2l1.3-5.4s3.3,2.5,6,2.3c1.7-.1,2.4-1.5,2.3-2.5-.3-4.1-7-3.9-7.5-10.7-.4-5.7,3.4-11.5,11.7-12,3.2-.2,4.8.6,4.8.6Z"></path></g></svg> 