<?xml version="1.0" encoding="UTF-8"?> <svg xmlns="http://www.w3.org/2000/svg" id="Layer_1" data-name="Layer 1" version="1.1" viewBox="0 0 154 25"><defs><style> .cls-1 { fill: #fff; stroke-width: 0px; } </style></defs><g><path class="cls-1" d="M32,19.9c-1.6-.6-4.2-1.1-7.3,0-.2,0-.4.1-.6.2,0-.4,0-2.8,0-4.4,0-3.6-1.9-4-3.9-3.6-2,.4-3,5.2-3,5.2,0,0,0-8.1,7-9.4s5.7,1,6.6,3.9c.8,2.7,1.2,7.1,1.3,8.1Z"></path><circle class="cls-1" cx="24.4" cy="3.3" r="3.3"></circle><path class="cls-1" d="M32.9,23.5c-3.9-1.6-24.5,4.9-22.8-1.3.9-3.2,10.6-.6,10.6-.6,0,0-6.9,4.6,1.9,1.7.2,0,.3-.1.5-.2,2.6-.9,6.7-1,8.1-.4,1,.4,1.7.9,1.7.9Z"></path><path class="cls-1" d="M35.3,7.4l-2.2,3.7-2-3.3,4.2-.3Z"></path></g><g><path class="cls-1" d="M46,19.4h-3.3l-.4.9c-.1.3-.2.5-.2.7s.1.4.3.6c.1,0,.4.1.9.2v.3h-3.1v-.3c.3,0,.6-.2.8-.4.2-.2.5-.7.8-1.4l3.3-7.4h.1l3.3,7.6c.3.7.6,1.2.8,1.4.2.1.4.2.7.2v.3h-4.5v-.3h.2c.4,0,.6,0,.8-.1,0,0,.1-.2.1-.3s0-.2,0-.3c0,0,0-.2-.2-.5l-.5-1.1ZM45.8,18.8l-1.4-3.2-1.4,3.2h2.8Z"></path><path class="cls-1" d="M56,20.3l.2.2c-.3.6-.7,1-1.1,1.3s-.9.4-1.4.4c-.8,0-1.5-.3-2-1-.5-.6-.8-1.4-.8-2.3s.2-1.6.7-2.3c.6-.8,1.3-1.2,2.3-1.2s1.2.2,1.6.5c.4.3.6.7.6,1.1s0,.5-.2.6c-.2.2-.4.2-.6.2s-.5,0-.7-.3c-.2-.2-.3-.5-.3-.9,0-.3,0-.5-.2-.6s-.2-.2-.4-.2c-.2,0-.4.1-.6.3-.2.3-.4.9-.4,1.6s0,1.2.3,1.7c.2.5.5,1,.8,1.2.2.2.5.3.9.3s.4,0,.6-.2c.2-.1.4-.3.7-.6Z"></path><path class="cls-1" d="M62.1,20.3l.2.2c-.3.6-.7,1-1.1,1.3s-.9.4-1.4.4c-.8,0-1.5-.3-2-1-.5-.6-.8-1.4-.8-2.3s.2-1.6.7-2.3c.6-.8,1.3-1.2,2.3-1.2s1.2.2,1.6.5c.4.3.6.7.6,1.1s0,.5-.2.6c-.2.2-.4.2-.6.2s-.5,0-.7-.3c-.2-.2-.3-.5-.3-.9,0-.3,0-.5-.2-.6s-.2-.2-.4-.2c-.2,0-.4.1-.6.3-.2.3-.4.9-.4,1.6s0,1.2.3,1.7c.2.5.5,1,.8,1.2.2.2.5.3.9.3s.4,0,.6-.2c.2-.1.4-.3.7-.6Z"></path><path class="cls-1" d="M66.1,15.4c.6,0,1.1.1,1.5.4.5.3.8.7,1.1,1.2.2.5.4,1.1.4,1.7,0,.9-.2,1.7-.7,2.3-.6.7-1.3,1.1-2.3,1.1s-1.7-.3-2.2-1c-.5-.7-.8-1.4-.8-2.3s.3-1.7.8-2.4c.5-.7,1.3-1,2.2-1ZM66.2,15.9c-.2,0-.4,0-.6.3-.2.2-.3.5-.3,1,0,.5,0,1.2,0,2.1s0,.9,0,1.4c0,.3.2.6.3.7.2.2.3.3.6.3s.4,0,.5-.2c.2-.2.3-.4.4-.6,0-.4.1-1.3.1-2.6s0-1.3-.1-1.6-.2-.5-.4-.6c-.1,0-.3-.1-.5-.1Z"></path><path class="cls-1" d="M76.2,15.6v5c0,.5,0,.8.1.9s.3.2.6.2v.2h-2.6v-.8c-.3.4-.6.6-.9.8s-.6.2-1,.2-.7-.1-1-.3c-.3-.2-.5-.5-.6-.8,0-.3-.1-.8-.1-1.5v-2.5c0-.5,0-.8-.1-.9,0-.1-.3-.2-.6-.2v-.3h2.6v4.3c0,.5,0,.7,0,.9,0,.1.1.2.2.3s.2.1.3.1.3,0,.4-.1c.2-.1.4-.4.7-.7v-3.4c0-.5,0-.8-.1-.9,0-.1-.3-.2-.6-.2v-.3h2.6Z"></path><path class="cls-1" d="M80.4,15.6v.8c.3-.4.6-.6.9-.8.3-.2.6-.2,1-.2s.8.1,1,.3c.3.2.5.5.5.9,0,.3.1.8.1,1.5v2.5c0,.5,0,.8.1.9,0,.1.3.2.6.2v.2h-3.2v-.2c.2,0,.4-.1.5-.3,0-.1.1-.4.1-.8v-2.8c0-.5,0-.8,0-1,0-.1-.1-.2-.2-.3,0,0-.2-.1-.3-.1-.4,0-.8.3-1.1.8v3.4c0,.5,0,.8.1.9,0,.1.3.2.5.2v.2h-3.2v-.2c.3,0,.5-.1.6-.3,0,0,.1-.4.1-.9v-3.6c0-.5,0-.8-.1-.9,0-.1-.3-.2-.6-.2v-.3h2.6Z"></path><path class="cls-1" d="M88.1,13.3v2.3h1.5v.7h-1.5v3.9c0,.4,0,.6,0,.7,0,.1,0,.2.2.3s.2,0,.2,0c.3,0,.6-.2.8-.7h.2c-.4,1-1,1.5-1.8,1.5s-.7-.1-1-.3c-.3-.2-.5-.5-.5-.8,0-.2,0-.6,0-1.3v-3.4h-.8v-.2c.6-.4,1.1-.8,1.5-1.3.4-.4.8-.9,1-1.5h.2Z"></path><path class="cls-1" d="M92.7,15.6v5c0,.4,0,.7.2.9.1.1.3.2.6.2v.2h-3.4v-.2c.3,0,.5,0,.6-.2,0-.1.1-.4.1-.8v-3.7c0-.4,0-.7-.2-.9-.1-.1-.3-.2-.6-.2v-.3h2.7ZM91.7,12.5c.3,0,.5.1.7.3.2.2.3.5.3.7s-.1.5-.3.7c-.2.2-.5.3-.7.3s-.5-.1-.7-.3c-.2-.2-.3-.5-.3-.7s.1-.5.3-.7c.2-.2.5-.3.7-.3Z"></path><path class="cls-1" d="M96.7,15.6v.8c.3-.4.6-.6.9-.8s.6-.2,1-.2.8.1,1,.3c.3.2.5.5.5.9,0,.3.1.8.1,1.5v2.5c0,.5,0,.8.1.9s.3.2.6.2v.2h-3.2v-.2c.2,0,.4-.1.5-.3,0-.1.1-.4.1-.8v-2.8c0-.5,0-.8,0-1s-.1-.2-.2-.3c0,0-.2-.1-.3-.1-.4,0-.8.3-1.1.8v3.4c0,.5,0,.8.1.9,0,.1.3.2.5.2v.2h-3.2v-.2c.3,0,.5-.1.6-.3,0,0,.1-.4.1-.9v-3.6c0-.5,0-.8-.1-.9,0-.1-.3-.2-.6-.2v-.3h2.6Z"></path><path class="cls-1" d="M105.9,15.7h2.1v.7h-1.2c.2.2.4.4.5.6.1.2.2.5.2.8,0,.5-.1.8-.4,1.2-.3.3-.6.6-1,.8-.4.2-.8.3-1.2.3s-.3,0-.8,0c-.2,0-.4,0-.5.2-.1.1-.2.3-.2.5s0,.3.2.4c.1.1.3.2.6.2h1.2c1,0,1.6,0,2,.3.5.3.8.7.8,1.3s-.1.7-.4,1c-.2.3-.5.5-.9.7-.6.2-1.3.3-2,.3s-1.1,0-1.6-.2c-.5-.1-.8-.3-1-.5-.2-.2-.3-.4-.3-.6s0-.4.2-.6c.2-.2.4-.3.9-.4-.6-.3-.9-.7-.9-1.2s.1-.6.4-.9.6-.6,1.1-.8c-.6-.2-1-.5-1.3-.9-.3-.4-.4-.8-.4-1.3s.3-1.2.8-1.6c.5-.5,1.2-.7,2-.7s.9,0,1.3.3ZM104.3,22.9c-.5,0-.8,0-.9.1-.3.1-.4.3-.4.6s.1.4.4.6.8.3,1.5.3,1.1,0,1.5-.3c.4-.2.5-.4.5-.7s0-.2-.1-.3c-.1-.1-.3-.2-.6-.3s-.9,0-2,0ZM104.7,15.9c-.3,0-.5.1-.7.4-.2.3-.3.8-.3,1.6s0,1.1.3,1.4c.2.3.4.4.6.4s.5-.1.7-.4c.2-.2.3-.7.3-1.5s-.1-1.4-.3-1.7c-.1-.2-.3-.3-.6-.3Z"></path><path class="cls-1" d="M114.9,18.8l2.5-6.1h3.8v.3h-.3c-.3,0-.5,0-.7.1-.1,0-.2.2-.3.3,0,.1,0,.4,0,.8v6.1c0,.5,0,.8,0,.9,0,.1.2.2.3.3.2,0,.4.1.6.1h.3v.3h-4.8v-.3h.3c.3,0,.5,0,.7-.1.1,0,.2-.2.3-.3,0-.1,0-.4,0-.9v-6.8l-3.5,8.4h-.2l-3.6-8.3v6.5c0,.5,0,.7,0,.8,0,.2.2.4.4.6.2.1.5.2.9.2v.3h-3.2v-.3h0c.2,0,.4,0,.6,0,.2,0,.3-.2.4-.3,0-.1.2-.3.2-.5,0,0,0-.3,0-.7v-5.8c0-.5,0-.8,0-.9,0-.1-.2-.2-.3-.3-.2,0-.4-.1-.6-.1h-.3v-.3h3.8l2.6,6.1Z"></path><path class="cls-1" d="M124.9,15.4c.6,0,1.1.1,1.5.4.5.3.8.7,1.1,1.2.2.5.4,1.1.4,1.7,0,.9-.2,1.7-.7,2.3-.6.7-1.3,1.1-2.3,1.1s-1.7-.3-2.2-1c-.5-.7-.8-1.4-.8-2.3s.3-1.7.8-2.4c.5-.7,1.3-1,2.2-1ZM124.9,15.9c-.2,0-.4,0-.6.3-.2.2-.3.5-.3,1,0,.5,0,1.2,0,2.1s0,.9,0,1.4c0,.3.2.6.3.7.2.2.3.3.6.3s.4,0,.5-.2c.2-.2.3-.4.4-.6,0-.4.1-1.3.1-2.6s0-1.3-.1-1.6-.2-.5-.4-.6c-.1,0-.3-.1-.5-.1Z"></path><path class="cls-1" d="M131.5,15.6v.8c.3-.4.6-.6.9-.8s.6-.2,1-.2.8.1,1,.3c.3.2.5.5.5.9,0,.3.1.8.1,1.5v2.5c0,.5,0,.8.1.9s.3.2.6.2v.2h-3.2v-.2c.2,0,.4-.1.5-.3,0-.1.1-.4.1-.8v-2.8c0-.5,0-.8,0-1s-.1-.2-.2-.3c0,0-.2-.1-.3-.1-.4,0-.8.3-1.1.8v3.4c0,.5,0,.8.1.9,0,.1.3.2.5.2v.2h-3.2v-.2c.3,0,.5-.1.6-.3,0,0,.1-.4.1-.9v-3.6c0-.5,0-.8-.1-.9,0-.1-.3-.2-.6-.2v-.3h2.6Z"></path><path class="cls-1" d="M139.2,12.8v6.1l1.5-1.4c.3-.3.5-.5.6-.6,0-.1.1-.3.1-.4s0-.2-.1-.3-.3-.1-.6-.2v-.3h2.8v.3c-.3,0-.5,0-.7.2-.2.1-.6.5-1.2,1l-.7.7,1.5,2.2c.6.9,1,1.4,1.1,1.5.2.2.3.2.6.3v.2h-3.3v-.2c.1,0,.3,0,.3,0s0-.1,0-.2c0-.1,0-.3-.3-.6l-1.3-1.8-.4.4v1.1c0,.5,0,.8.1.9,0,.1.3.2.6.2v.2h-3.3v-.2c.3,0,.5-.1.6-.3,0,0,.1-.4.1-.9v-6.5c0-.5,0-.8-.1-.9s-.3-.2-.6-.2v-.3h2.6Z"></path></g></svg> 