<?xml version="1.0" encoding="UTF-8"?> <svg xmlns="http://www.w3.org/2000/svg" id="Layer_1" data-name="Layer 1" version="1.1" viewBox="0 0 154 25"><defs><style> .cls-1 { opacity: .7; } .cls-1, .cls-2, .cls-3 { fill: #fff; stroke-width: 0px; } .cls-4 { opacity: .9; } .cls-2 { opacity: .1; } </style></defs><g><path class="cls-3" d="M49.3,8.9h-1.2L51.4.2h1.3l3.3,8.7h-1.2l-.8-2.4h-3.7l-.9,2.4ZM52,1.6l-1.4,3.9h2.9l-1.4-3.9h0Z"></path><path class="cls-3" d="M57.5.2v8.7h-1.1V.2h1.1Z"></path><path class="cls-3" d="M59.6.2v8.7h-1.1V.2h1.1Z"></path><path class="cls-3" d="M67,9.1c-1.3,0-2.4-.4-3.2-1.3-.9-.9-1.3-2-1.3-3.3s.4-2.4,1.3-3.2C64.6.4,65.7,0,67,0s2.4.5,3.2,1.4l-.8.8c-.6-.8-1.4-1.1-2.4-1.1s-1.8.3-2.4,1c-.6.6-1,1.5-1,2.5s.3,1.9,1,2.5c.6.7,1.5,1,2.4,1s1.9-.4,2.6-1.3l.8.8c-.4.5-.9.9-1.5,1.2-.6.3-1.2.4-1.9.4Z"></path><path class="cls-3" d="M72.5.9c0,.2,0,.4-.2.6-.2.2-.3.2-.6.2s-.4,0-.6-.2c-.2-.2-.2-.3-.2-.6s0-.4.2-.6.3-.2.6-.2.4,0,.6.2c.2.2.2.3.2.6ZM72.3,2.9v6h-1.1V2.9h1.1Z"></path><path class="cls-3" d="M75.7,9c-.5,0-.9-.2-1.2-.5-.3-.3-.5-.7-.5-1.3v-3.3h-1v-1h1v-1.8h1.1v1.8h1.5v1h-1.5v3c0,.4,0,.7.2.8.2.1.3.2.5.2s.2,0,.3,0c0,0,.2,0,.2,0l.4,1c-.3.1-.6.2-1,.2Z"></path><path class="cls-3" d="M82.7,2.9l-3.7,8.6h-1.2l1.4-3-2.5-5.6h1.2l1.8,4.3h0l1.7-4.3h1.2Z"></path></g><g><path class="cls-2" d="M69.7,3.8c0-.3-.2-.5-.4-.7,0,0,0,0-.1,0,0,0,0,0,0,0s0,0,0,0c-.3.2-.7.4-1.2.8,0,0,0,0-.1-.1.2-.3.6-.7,1-1h0s0,0,0,0c0,0,0,0,0-.1h0c-.2-.2-.5-.3-.8-.4-.3,0-.5-.1-.8-.2,0,0,0,0-.1,0,0,0,0,0,0,.1,0,.3-.1.8,0,1.4,0,0-.1,0-.2,0,0-.3-.2-.9-.2-1.4h0c0,0,0,0,0-.1,0,0,0,0-.1,0h0c0,0-.1,0-.2,0-.2,0-.4.2-.6.3-.2.1-.4.3-.6.5,0,0,0,0,0,.1,0,0,0,0,0,.1.2.3.6.6,1.1,1,0,0,0,.1,0,.2-.3-.1-.9-.4-1.2-.8h0c0,0,0,0,0,0,0,0,0,0,0,0h0c-.1.3-.2.6-.2.9,0,.3,0,.5,0,.8,0,0,0,0,0,.1,0,0,0,0,.1,0,.3,0,.8,0,1.4-.3,0,0,0,.1,0,.2-.2.1-.5.3-.8.4s-.4,0-.5.1h0c0,0,0,0-.1,0,0,0,0,0,0,.1h0c.1.3.3.5.5.7.2.2.4.4.6.5,0,0,0,0,.1,0h0s0,0,.1,0c.2-.3.5-.7.7-1.3,0,0,.1,0,.2,0,0,.3-.2.9-.5,1.4h0c0,0,0,0,0,.1,0,0,0,0,0,0h0c.3,0,.6,0,.9,0,.2,0,.4,0,.5-.1s.2,0,.3,0c0,0,0,0,0,0,0,0,0,0,0-.1,0-.3-.3-.8-.6-1.3,0,0,0,0,.1-.1.2.3.6.7.8,1.2h0c0,0,0,0,0,.1,0,0,0,0,0,0s0,0,0,0h0c.2-.2.4-.4.6-.7.1-.2.3-.5.3-.7,0,0,0,0,0-.1,0,0,0,0-.1,0-.3-.1-.8-.3-1.4-.4,0,0,0-.1,0-.2.3,0,.9,0,1.4.2h0s0,0,.1,0h0s0,0,0-.1h0c0-.3,0-.6-.2-.9ZM67.3,5.3c-.3.1-.7,0-.8-.4s0-.7.4-.8.7,0,.8.4,0,.7-.4.8Z"></path><path class="cls-3" d="M47.9,14.8v1.1c.6,0,1.2-.2,1.8-.4v-1.7c-.4.3-1,.7-1.8.9ZM47.9,17v.9c.6,0,1.2-.2,1.8-.4v-1.4c-.4.3-1,.7-1.8.9ZM55.5,14c-.2-.6-.5-1.1-1-1.5-.4-.4-.9-.7-1.5-1-.6-.2-1.3-.3-2-.3h-3.2v2.6c.6,0,1.2-.2,1.8-.4v-.6h1.3c.5,0,1,0,1.4.2.4.1.7.3,1,.6s.5.6.6.9c.1.4.2.8.2,1.2s0,.9-.2,1.2c-.1.4-.3.7-.6.9s-.6.5-1,.6c-.4.1-.8.2-1.4.2h-1.3v-.8c-.4.3-1,.7-1.8.9v1.6h3.2c.7,0,1.4-.1,2-.3.6-.2,1.1-.5,1.5-1,.4-.4.7-.9,1-1.5.2-.6.3-1.2.3-1.9s-.1-1.3-.3-1.9Z"></path><path class="cls-3" d="M61.1,19.7h-.1c-.2.3-.5.6-.8.8-.3.2-.7.3-1.2.3-.8,0-1.4-.2-1.8-.7-.4-.5-.6-1.2-.6-2v-3.9h1.7v3.7c0,.5.1.8.3,1,.2.2.5.3.9.3s.4,0,.6-.1c.2,0,.3-.2.5-.4.1-.2.2-.4.3-.6s0-.5,0-.7v-3.1h1.7v6.4h-1.6v-.8Z"></path><path class="cls-3" d="M69.7,18.9c-.3.5-.7,1-1.2,1.3-.5.3-1.1.5-1.9.5s-.9,0-1.4-.3c-.4-.2-.8-.4-1.1-.7-.3-.3-.5-.7-.7-1.1s-.3-.9-.3-1.4,0-1,.3-1.4c.2-.4.4-.8.7-1.1s.7-.5,1.1-.7c.4-.2.9-.3,1.4-.3.7,0,1.4.2,1.9.5.5.3.9.8,1.1,1.3l-1.6.7c-.1-.3-.3-.5-.6-.7-.2-.2-.5-.2-.9-.2s-.4,0-.6.1c-.2,0-.4.2-.5.4-.2.2-.3.3-.4.6,0,.2-.1.5-.1.8s0,.5.1.8c0,.2.2.4.4.6.2.2.3.3.5.4.2,0,.4.1.6.1.4,0,.7,0,.9-.2.2-.2.4-.4.6-.7l1.6.7Z"></path><path class="cls-3" d="M71,15.6h-1.1v-1.5h1.1v-2h1.7v2h1.6v1.5h-1.6v2.6c0,.2,0,.3,0,.4,0,.1,0,.2.2.3.1.1.3.2.5.2s.3,0,.4,0c0,0,.2,0,.2-.1l.5,1.5c-.2,0-.4.2-.6.2-.2,0-.5,0-.8,0s-.6,0-.9-.2c-.3-.1-.5-.2-.6-.4-.4-.4-.6-1-.6-1.7v-2.9Z"></path><path class="cls-3" d="M85.8,18.2c-.3.4-.7.7-1.1.9-.4.2-.9.3-1.4.3s-.8,0-1.2-.2c-.4-.2-.7-.4-1-.6-.2-.2-.4-.5-.5-.7-.3.4-.8.8-1.3,1.2.2.3.4.5.6.7.4.4,1,.8,1.5,1s1.2.4,1.9.4,1.5-.1,2.1-.4c.6-.3,1.2-.7,1.6-1.3l-1.3-1.2Z"></path><path class="cls-3" d="M86.8,12.8l-1.2,1.2c-.3-.3-.6-.6-1-.8-.3-.1-.6-.2-1-.3-.1,0-.2,0-.3,0-.4,0-.8,0-1.2.2-.4.2-.7.4-1,.6,0,0-.2.2-.3.3-.2.2-.3.4-.4.7-.2.4-.2.8-.2,1.3s0,.9.2,1.3c0,0,0,.2.1.3-.3.4-.8.8-1.3,1.2-.2-.3-.3-.5-.4-.8-.3-.6-.4-1.2-.4-1.9s.1-1.3.4-1.9c.2-.6.6-1.1,1-1.5,0,0,0,0,0,0,.4-.4,1-.8,1.5-1,0,0,0,0,.2,0,.6-.2,1.1-.3,1.8-.3s1.4.1,2,.4c.6.3,1.1.6,1.5,1.1Z"></path><path class="cls-3" d="M87.7,20.8v-9.3h1.7v9.3h-1.7Z"></path><path class="cls-3" d="M96.5,19.3c-.3.5-.7.9-1.2,1.3-.5.3-1.1.5-1.8.5s-.9,0-1.3-.3-.8-.4-1.1-.7c-.3-.3-.5-.7-.7-1.1s-.3-.9-.3-1.4,0-.9.2-1.3c.2-.4.4-.8.7-1.1s.6-.6,1-.7.8-.3,1.3-.3,1,0,1.4.3c.4.2.7.4,1,.7.3.3.5.7.6,1.1.1.4.2.9.2,1.3v.2c0,0,0,.1,0,.1,0,0,0,0,0,.1h-4.8c0,.3.1.5.2.7.1.2.2.3.4.5.2.1.3.2.5.3.2,0,.4,0,.6,0,.4,0,.7,0,1-.3.3-.2.5-.4.6-.7l1.4.7ZM94.9,16.8c0-.1,0-.2-.1-.4s-.2-.3-.3-.4c-.1-.1-.3-.2-.5-.3s-.4-.1-.7-.1-.7.1-1,.3c-.3.2-.5.5-.6.9h3.1Z"></path><path class="cls-3" d="M101.3,20.2h-.1c-.2.2-.4.5-.7.6-.3.2-.6.3-1.1.3s-.6,0-.9-.2c-.3-.1-.5-.3-.8-.4-.2-.2-.4-.4-.5-.7-.1-.3-.2-.6-.2-.9s0-.6.2-.9c.1-.3.3-.5.5-.7.2-.2.5-.3.8-.4.3,0,.7-.1,1-.1s.8,0,1,0c.3,0,.5.1.7.2v-.2c0-.3-.1-.6-.4-.8-.3-.2-.6-.3-1-.3-.6,0-1.1.2-1.5.7l-1.2-.8c.7-.9,1.6-1.3,2.8-1.3s1.7.2,2.3.7c.5.5.8,1.2.8,2.1v3.8h-1.7v-.7ZM101.3,18.3c-.2,0-.4-.2-.6-.2s-.4,0-.7,0c-.4,0-.7,0-.9.3-.2.2-.3.4-.3.7s.1.5.3.6c.2.2.5.2.7.2s.4,0,.6-.1c.2,0,.4-.2.5-.3.1-.1.2-.3.3-.5,0-.2.1-.4.1-.6Z"></path><path class="cls-3" d="M105.6,15.3h.1c.2-.3.5-.6.8-.8.3-.2.7-.3,1.2-.3s.8,0,1.1.2c.3.1.6.3.7.6.2.2.3.5.4.9s.1.7.1,1.1v3.9h-1.7v-3.7c0-.5-.1-.8-.3-1-.2-.2-.5-.3-.9-.3s-.4,0-.6.1c-.2.1-.3.2-.5.4s-.2.4-.3.6,0,.5,0,.7v3.1h-1.7v-6.4h1.6v.8Z"></path><path class="cls-3" d="M112,13.6c-.1,0-.3,0-.4,0s-.3-.1-.4-.2c0,0-.2-.2-.2-.3,0-.1,0-.3,0-.4s0-.3,0-.4c0-.1.1-.2.2-.3s.2-.2.4-.2c.1,0,.3,0,.4,0,.3,0,.6.1.8.3.2.2.3.5.3.8s-.1.6-.3.8c-.2.2-.5.3-.8.3ZM111.1,20.8v-6.4h1.7v6.4h-1.7Z"></path><path class="cls-3" d="M115.6,15.3h.1c.2-.3.5-.6.8-.8.3-.2.7-.3,1.2-.3s.8,0,1.1.2c.3.1.6.3.7.6.2.2.3.5.4.9s.1.7.1,1.1v3.9h-1.7v-3.7c0-.5-.1-.8-.3-1-.2-.2-.5-.3-.9-.3s-.4,0-.6.1c-.2.1-.3.2-.5.4s-.2.4-.3.6,0,.5,0,.7v3.1h-1.7v-6.4h1.6v.8Z"></path><path class="cls-3" d="M124,23.9c-.5,0-.9,0-1.2-.2-.4-.1-.7-.3-.9-.5-.3-.2-.5-.4-.7-.6-.2-.2-.3-.5-.4-.7l1.6-.7c.1.3.3.6.6.8.3.2.6.3.9.3.5,0,1-.2,1.3-.5.3-.3.5-.8.5-1.4v-.4h-.1c-.2.3-.5.5-.8.7-.3.2-.7.2-1.2.2s-.8,0-1.1-.2c-.4-.2-.7-.4-1-.7-.3-.3-.5-.6-.7-1s-.3-.9-.3-1.4,0-1,.3-1.4c.2-.4.4-.8.7-1s.6-.5,1-.7c.4-.2.7-.2,1.1-.2s.8,0,1.2.2c.3.2.6.4.8.7h.1v-.7h1.6v5.9c0,.5,0,1-.2,1.5-.2.4-.4.8-.7,1.1s-.6.5-1.1.7c-.4.2-.9.2-1.4.2ZM124.1,19.3c.2,0,.4,0,.6-.1.2,0,.4-.2.5-.3s.3-.3.4-.6c0-.2.1-.5.1-.7s0-.5-.1-.8c0-.2-.2-.4-.4-.6s-.3-.3-.5-.3-.4-.1-.6-.1-.4,0-.6.1-.4.2-.5.3-.3.3-.4.6c0,.2-.1.5-.1.7s0,.5.1.7c0,.2.2.4.4.6s.3.3.5.3c.2,0,.4.1.6.1Z"></path><path class="cls-1" d="M71.3,7.1c-12.2-6.7,5.7,1.9,10.3,4.6,0,0-.1,0-.2,0-.6.3-1.1.6-1.5,1,0,0,0,0,0,0-2.7-3.1-8.3-5.6-8.6-5.7Z"></path><path class="cls-3" d="M81.9,21c-11,6.4-55.3,3.2-55.3,3.2,33.6.5,47.8-2.1,52.6-5.3.6-.4,1-.8,1.3-1.2,1-1.2.9-2.4.3-3.6,0-.1.2-.2.3-.3.3-.3.6-.5,1-.6.4-.2.8-.2,1.2-.2s.2,0,.3,0c3.4,2.4,2.1,5.7-1.8,8Z"></path><g class="cls-4"><path class="cls-3" d="M50.1,13.4c-.7.7-2.6,2.1-5.2,1.4,0,0-2.1-.4-3.3.6,0-.2.3-.6,1-1,.5-.3,1.2-.4,1.8-.4s.2,0,.3,0c1.2,0,3.9.1,5.5-.6Z"></path><path class="cls-3" d="M50.1,13.4c-.1.1-.2.2-.4.4-.4.3-1,.7-1.8,1-.8.3-1.9.4-3.1,0,0,0-2.1-.4-3.3.6,0-.2.3-.6,1-1,.5-.3,1.2-.4,1.8-.4s.2,0,.3,0c.7,0,2,0,3.3,0,.6,0,1.2-.2,1.8-.4.1,0,.3-.1.4-.2Z"></path></g><g class="cls-4"><path class="cls-3" d="M50.1,15.6c-.1.1-.2.2-.4.4-.4.3-1,.7-1.8,1-.8.3-1.9.4-3.1,0,0,0-2.1-.4-3.3.6,0-.2.3-.6,1-1,.5-.3,1.2-.4,1.8-.4s.2,0,.3,0c.9,0,2.1,0,3.3,0,.6,0,1.2-.2,1.8-.4.1,0,.3-.1.4-.2Z"></path></g><g class="cls-4"><path class="cls-3" d="M50.1,17.5c-.1.1-.2.2-.4.4-.4.3-1,.7-1.8,1-.8.3-1.9.4-3.1,0,0,0-2.1-.4-3.3.6,0-.2.3-.6,1-1,.5-.3,1.2-.4,1.8-.4s.2,0,.3,0c.9,0,2.1,0,3.3,0,.6,0,1.2-.2,1.8-.4.1,0,.3-.1.4-.2Z"></path></g></g></svg> 