<?xml version="1.0" encoding="UTF-8"?> <svg xmlns="http://www.w3.org/2000/svg" xmlns:xlink="http://www.w3.org/1999/xlink" id="Layer_1" data-name="Layer 1" version="1.1" viewBox="0 0 154 25"><defs><style> .cls-1 { clip-rule: evenodd; } .cls-1, .cls-2, .cls-3 { fill: #fff; } .cls-1, .cls-3 { stroke-width: 0px; } .cls-2 { fill-rule: evenodd; } .cls-4 { clip-path: url(#clippath); } </style><clipPath id="clippath"><path class="cls-1" d="M66.6.7s0,0-.1-.1c0,0-.3-.1-.4-.2-.2,0-.4,0-.6-.1-.2,0-.3,0-.3,0,0,0,0,0,0,.1,0,0,.2.1.5.2.2,0,.4,0,.6.1.2,0,.4,0,.3,0M68.2,1.2c0,0-.1,0-.2-.1,0,0-.3-.1-.4-.2-.2,0-.3-.1-.5-.2-.2,0-.3,0-.2,0,0,0,.1,0,.2.1,0,0,.2.1.4.2.2,0,.3.1.5.2.2,0,.3,0,.2,0ZM69.5,1.8c0,0-.1,0-.2-.1,0,0-.2-.1-.4-.2-.1,0-.2-.1-.4-.2-.1,0-.2,0-.1,0,0,0,.1,0,.2.1,0,0,.3.2.4.2.1,0,.3.1.4.2.1,0,.2,0,.1,0ZM63.9.7c0,0,0,.2,0,.3,0,.1-.2.2-.5.2-.3,0-.5,0-.8,0-.3,0-.5,0-.5-.2,0,0,0-.2,0-.3,0,0,.3-.2.5-.2.3,0,.5,0,.7,0,.3,0,.5,0,.5.2ZM65.9.9c0,0,0,.2.1.2,0,.1-.1.2-.4.1-.3,0-.5,0-.8,0-.3,0-.5-.1-.5-.2,0,0,0-.2,0-.2,0,0,.2-.1.4,0,.2,0,.5,0,.7,0,.2,0,.5.1.5.2ZM67.7,1.3c0,0,.1.2.2.2,0,0,0,.1-.3,0-.2,0-.4-.1-.6-.2-.2,0-.5-.2-.5-.3,0,0,0-.2-.1-.2,0,0,.1,0,.3,0,.2,0,.4,0,.6.2.2,0,.4.2.5.3ZM69.3,1.9c0,0,.1.2.2.2,0,0,0,.1-.2,0-.2,0-.3-.1-.5-.2-.2,0-.4-.2-.5-.3,0,0-.1-.2-.2-.2,0,0,0,0,.2,0,.2,0,.3.1.5.2.2,0,.4.2.4.3ZM70.6,2.7c0,0,.1.2.2.2,0,0,0,.1,0,0-.1,0-.2-.1-.4-.2-.1,0-.3-.2-.4-.3,0,0-.1-.2-.2-.2,0,0,0,0,.1,0,.1,0,.2.1.4.2.1,0,.3.2.4.3ZM71.6,3.4c0,0,.1.1.2.2,0,0,0,.1,0,0,0,0-.2-.1-.3-.2,0,0-.2-.2-.3-.3,0,0-.1-.1-.2-.2,0,0,0,0,0,0,0,0,.2.1.3.2,0,0,.2.2.3.3ZM65.3,2c0-.1,0-.3,0-.4,0-.1-.3-.3-.6-.3-.3,0-.5,0-.8,0-.3,0-.5,0-.5.2,0,.1,0,.3,0,.4,0,.2.3.3.6.3.3,0,.6,0,.9,0,.3,0,.5,0,.5-.3ZM67.5,2.3c0-.1,0-.3-.2-.4,0-.1-.3-.3-.6-.3-.2,0-.5,0-.7-.1-.3,0-.4,0-.4.2,0,.1,0,.2,0,.4,0,.2.3.3.6.4.3,0,.5,0,.8.1.3,0,.4,0,.4-.2ZM71,3.6c0-.1-.1-.2-.2-.3,0-.1-.3-.3-.4-.3-.1,0-.3-.1-.4-.2-.2,0-.2,0-.2,0,0,.1.1.2.2.3,0,.1.3.3.4.4.1,0,.3.1.4.2.2,0,.2,0,.1-.1ZM72.1,4.3c0-.1-.1-.2-.2-.3,0-.1-.2-.3-.3-.3,0,0-.2-.1-.3-.2-.1,0-.2,0,0,0,0,.1.1.2.2.3,0,.1.2.3.3.4.1,0,.2.1.3.2.1,0,.1,0,0,0ZM73,5c0,0-.1-.2-.2-.3,0-.1-.2-.2-.3-.3,0,0-.1-.1-.2-.2,0,0,0,0,0,0,0,0,.1.2.2.3,0,.1.2.3.3.3,0,0,.1.1.2.2,0,0,0,0,0,0ZM64.1,23.1c0,.1,0,.3,0,.4,0,.1-.3.3-.6.3-.3,0-.6,0-.8,0-.3,0-.6-.1-.6-.3,0-.1,0-.3,0-.4,0-.2.2-.3.6-.3.3,0,.6,0,.9,0,.3,0,.6.1.6.3ZM68.5,22.4c0,.1-.1.3-.2.4,0,.1-.3.3-.5.3-.2,0-.4.1-.6.2-.2,0-.4,0-.4-.1,0-.1,0-.2.1-.4,0-.2.3-.3.6-.4.2,0,.5-.1.7-.2.3,0,.4,0,.3.2ZM64.9,24.3c0,0,0-.2,0-.2,0-.1-.2-.2-.5-.1-.3,0-.5,0-.8,0-.3,0-.5.1-.5.2,0,0,0,.2,0,.2,0,0,.2.1.5.1.2,0,.5,0,.7,0,.3,0,.5-.1.5-.2ZM66.8,23.9c0,0,0-.2.1-.2,0,0,0-.1-.3,0-.2,0-.4,0-.7.1-.3,0-.5.2-.5.2,0,0,0,.2,0,.2,0,0,.1.1.4,0,.2,0,.4,0,.6-.1.2,0,.4-.2.5-.2ZM68.6,23.4c0,0,.1-.2.2-.2,0,0,0-.1-.2,0-.2,0-.4.1-.5.2-.2,0-.4.2-.5.3,0,0-.1.2-.2.2,0,0,0,0,.3,0,.2,0,.3-.1.5-.2.2,0,.4-.2.4-.3ZM70,22.7c0,0,.1-.1.2-.2,0,0,0-.1-.1,0-.1,0-.3.1-.4.2-.2,0-.4.2-.4.3,0,0-.1.1-.2.2,0,0,0,0,.1,0,.1,0,.3-.1.4-.2.1,0,.3-.2.4-.3ZM71.2,22c0,0,.1-.1.2-.2,0,0,0-.1,0,0,0,0-.2.1-.3.2-.1,0-.3.2-.4.3,0,0-.1.1-.2.2,0,0,0,0,0,0,.1,0,.2-.1.3-.2.1,0,.3-.2.3-.3ZM63.9,24.7s0,0,0,.1c0,0-.2,0-.5,0-.2,0-.4,0-.6,0-.2,0-.4,0-.5,0,0,0,0,0,0-.1,0,0,.2,0,.5,0,.2,0,.5,0,.7,0,.3,0,.5,0,.5,0ZM65.7,24.5s0,0-.1.1c0,0-.2,0-.5.1-.2,0-.4,0-.6,0-.2,0-.4,0-.4,0,0,0,0,0,0-.1,0,0,.2-.1.5-.1.2,0,.4,0,.7,0,.2,0,.4,0,.4,0ZM67.4,24.1s0,0-.2.1c0,0-.2.1-.4.2-.2,0-.3,0-.5.1-.2,0-.3,0-.3,0,0,0,0,0,.1-.1,0,0,.3-.1.5-.2.2,0,.4,0,.6-.1.2,0,.3,0,.2,0ZM68.9,23.5c0,0-.1,0-.2.1,0,0-.3.1-.4.2-.1,0-.3.1-.4.2-.2,0-.3,0-.2,0,0,0,.1,0,.2-.1,0,0,.3-.2.4-.2.2,0,.3-.1.5-.2.2,0,.2,0,.2,0ZM61.3.4s0,0,0-.1c0,0,.2,0,.4-.1.2,0,.4,0,.6,0,.2,0,.4,0,.4,0,0,0,0,0,0,.1,0,0-.2.1-.5.1-.2,0-.5,0-.7,0-.2,0-.4,0-.4,0ZM59.5.7c0,0,0,0,.1-.1,0,0,.2-.1.4-.2.2,0,.4,0,.5-.1.2,0,.3,0,.3,0,0,0,0,0,0,.1,0,0-.2.1-.5.2-.2,0-.4,0-.6.1-.2,0-.3,0-.3,0ZM57.9,1.2c0,0,.1,0,.2-.1,0,0,.2-.1.4-.2.2,0,.3-.1.5-.2.2,0,.3,0,.2,0,0,0,0,0-.1.1,0,0-.3.1-.4.2-.2,0-.3.1-.5.2-.2,0-.3,0-.2,0ZM56.6,1.8c0,0,.1,0,.2-.1,0,0,.2-.1.4-.2.1,0,.2-.1.4-.2.1,0,.2,0,.1,0,0,0-.1,0-.2.1,0,0-.2.2-.4.2-.1,0-.3.1-.4.2-.1,0-.2,0-.1,0ZM60.2.9c0,0,0,.2-.1.2,0,.1.1.2.4.1.2,0,.5,0,.7,0,.3,0,.5-.1.5-.2,0,0,0-.2,0-.2,0,0-.2-.1-.4,0-.2,0-.5,0-.7,0-.3,0-.5.1-.5.2ZM58.3,1.3c0,0-.1.2-.2.2,0,.1,0,.1.3,0,.2,0,.4-.1.6-.2.2,0,.5-.2.5-.3,0,0,0-.2.1-.2,0,0-.1,0-.3,0-.2,0-.4.1-.6.2-.2,0-.4.2-.5.3ZM56.8,1.9c0,0-.1.2-.2.2,0,0,0,.1.2,0,.2,0,.3-.1.5-.2.2,0,.4-.2.5-.3,0,0,.1-.2.2-.2,0,0,0,0-.2,0-.2,0-.3.1-.5.2-.2,0-.4.2-.4.3ZM55.5,2.6c0,0-.1.2-.2.2,0,0,0,.1,0,0,.1,0,.2-.1.4-.2.1,0,.3-.2.4-.3,0,0,.1-.2.2-.2,0,0,0,0-.1,0-.1,0-.2.1-.4.2-.1,0-.3.2-.4.3ZM54.5,3.4c0,0-.1.1-.2.2,0,0,0,0,0,0,0,0,.2-.1.3-.2,0,0,.2-.2.3-.3,0,0,.1-.2.2-.2,0,0,0,0,0,0,0,0-.2.1-.3.2,0,0-.2.2-.3.3ZM60.8,2c0-.1,0-.3,0-.4,0-.1.3-.3.6-.3.3,0,.5,0,.8,0,.3,0,.5,0,.5.2,0,.1,0,.3,0,.4,0,.2-.3.3-.6.3-.3,0-.6,0-.9,0-.3,0-.5,0-.5-.3ZM58.6,2.3c0-.1.1-.3.2-.4,0-.1.3-.3.6-.3.2,0,.5,0,.7-.1.3,0,.5,0,.4.2,0,.1,0,.2,0,.4,0,.2-.3.3-.6.4-.2,0-.5,0-.8.1-.3,0-.4,0-.4-.2ZM56.7,2.9c0-.1.1-.2.2-.4,0-.1.3-.3.5-.3.2,0,.4-.1.6-.2.2,0,.4,0,.3.1,0,.1-.1.2-.2.4,0,.1-.3.3-.5.4-.2,0-.4.1-.6.2-.2,0-.3,0-.2-.1ZM55.1,3.6c0-.1.1-.2.2-.3,0-.1.3-.3.4-.3.1,0,.3-.1.4-.2.2,0,.2,0,.2,0,0,.1-.1.2-.2.3,0,.1-.3.3-.4.4-.2,0-.3.1-.5.2-.2,0-.2,0-.1-.1ZM53.9,4.3c0-.1.1-.2.2-.3,0-.1.2-.3.3-.3.1,0,.2-.1.3-.2.1,0,.2,0,0,0,0,.1-.1.2-.2.3,0,.1-.2.3-.4.4-.1,0-.2.1-.3.2-.1,0-.1,0,0,0ZM53.1,5c0,0,.1-.2.2-.3,0,0,.2-.2.2-.3,0,0,.1-.1.2-.2,0,0,0,0,0,0,0,0-.1.2-.2.3,0,.1-.2.3-.3.3,0,0-.1.1-.2.2,0,0,0,0,0,0ZM59.4,3.1c0,.2,0,.4-.1.6,0,.2.2.4.5.4.3,0,.6,0,.9,0,.3,0,.6-.2.7-.5,0-.2,0-.4,0-.6,0-.2-.2-.3-.5-.3-.3,0-.6,0-.9,0-.3,0-.6.2-.6.4ZM57.2,3.6c0,.2-.1.4-.2.6,0,.2.1.3.4.3.2,0,.5-.1.8-.1.3,0,.6-.3.6-.5,0-.2,0-.4.1-.6,0-.2-.1-.3-.4-.2-.2,0-.5.1-.7.2-.3,0-.5.3-.6.5ZM55.4,4.2c0,.2-.1.3-.2.5,0,.2,0,.3.2.2.2,0,.4-.1.6-.2.2,0,.5-.3.5-.5,0-.2.1-.3.2-.5,0-.2,0-.3-.3-.2-.2,0-.4.1-.6.2-.2,0-.4.3-.5.4ZM53.9,4.9c0,.1-.1.3-.2.4,0,.2,0,.3.1.2.1,0,.3-.1.4-.2.2,0,.3-.3.4-.5,0-.2.1-.3.2-.5,0-.2,0-.2-.1-.1-.1,0-.3.1-.4.2-.1,0-.3.3-.4.4ZM52.9,5.6c0,.1-.1.3-.2.4,0,.1,0,.2,0,.2,0,0,.2-.1.3-.2,0,0,.2-.3.3-.4,0-.1.1-.3.2-.4,0-.1,0-.2,0-.1,0,0-.2.1-.3.2,0,0-.2.2-.3.4ZM52.2,6.3c0,.1-.1.2-.2.3,0,.1,0,.2,0,.1,0,0,0-.1.2-.2,0,0,.2-.2.2-.4,0-.1.1-.2.2-.4,0-.1,0-.2,0-.1,0,0-.1.1-.2.2,0,0-.1.2-.2.3ZM55.5,6.4c0-.2.1-.4.2-.7,0-.2.3-.5.5-.5.2,0,.4-.1.7-.2.2,0,.4,0,.4.3,0,.2,0,.4-.1.7,0,.3-.3.5-.6.6-.2,0-.5,0-.7.1-.2,0-.4-.1-.3-.4ZM53.8,6.9c0-.2.1-.4.2-.6,0-.2.2-.4.4-.5.2,0,.3-.1.5-.2.2,0,.3,0,.2.3,0,.2-.1.4-.2.6,0,.2-.3.5-.4.5-.2,0-.3,0-.5.1-.2,0-.3,0-.2-.3ZM52.6,7.4c0-.2.1-.3.2-.5,0-.2.2-.4.3-.4.1,0,.2-.1.3-.2.1,0,.2,0,.1.2,0,.2-.1.4-.2.5,0,.2-.2.4-.3.5-.1,0-.2,0-.3.1-.1,0-.1,0,0-.2ZM51.8,7.9c0-.1,0-.3.1-.4,0-.2.1-.3.2-.4,0,0,.1-.1.2-.2,0,0,0,0,0,.2,0,.1,0,.3-.1.4,0,.2-.1.3-.2.4,0,0-.1,0-.2.1,0,0,0,0,0-.2ZM51.3,8.4c0-.1,0-.2.1-.4,0-.1.1-.3.1-.3,0,0,0,0,0-.1,0,0,0,0,0,.2,0,.1,0,.2-.1.4,0,.1-.1.3-.2.3,0,0,0,0,0,.1,0,0,0,0,0-.2ZM54.2,8.2c0,.2,0,.5-.1.8,0,.3.1.5.3.5.2,0,.4,0,.6,0,.2,0,.5-.3.5-.6,0-.3,0-.5.1-.8,0-.3-.1-.5-.4-.4-.2,0-.4,0-.6.1-.2,0-.4.3-.5.6ZM52.8,8.6c0,.2,0,.4-.1.7,0,.2,0,.4.2.4.1,0,.3,0,.4,0,.2,0,.3-.3.4-.5,0-.2,0-.5.1-.7,0-.2,0-.4-.2-.4-.1,0-.3,0-.4.1-.1,0-.3.3-.3.5ZM51.8,9c0,.2,0,.4-.1.5,0,.2,0,.4,0,.3,0,0,.2,0,.2,0,0,0,.2-.2.2-.5,0-.2,0-.4.1-.6,0-.2,0-.3-.1-.3,0,0-.2,0-.2.1,0,0-.2.2-.2.4ZM51.2,9.4c0,.1,0,.3,0,.4,0,.2,0,.3,0,.3,0,0,0,0,.1,0,0,0,.1-.2.2-.4,0-.2,0-.3,0-.5,0-.2,0-.3,0-.2,0,0,0,0-.1,0,0,0-.1.2-.1.4ZM50.9,9.8c0,.1,0,.2,0,.4,0,.1,0,.2,0,.2,0,0,0,0,0,0,0,0,0-.2,0-.3,0-.1,0-.3,0-.4,0-.1,0-.2,0-.2,0,0,0,0,0,0,0,0,0,.2,0,.3ZM53.1,11.6c0-.3,0-.5,0-.7,0-.3.2-.5.3-.5.2,0,.3,0,.5,0,.2,0,.3.2.3.5,0,.3,0,.5,0,.8,0,.3-.2.5-.4.5-.2,0-.3,0-.5,0-.2,0-.3-.2-.3-.5ZM51.9,11.7c0-.2,0-.4,0-.6,0-.2.1-.4.2-.4,0,0,.2,0,.3,0,.1,0,.2.2.2.4,0,.2,0,.4,0,.7,0,.3-.1.5-.2.5-.1,0-.2,0-.3,0-.1,0-.2-.2-.2-.4ZM51.1,11.7c0-.2,0-.3,0-.5,0-.2,0-.4.1-.4,0,0,.1,0,.2,0,0,0,.1.1,0,.3,0,.2,0,.4,0,.5,0,.2,0,.4-.1.4,0,0-.1,0-.2,0,0,0,0-.1,0-.3ZM50.7,11.8c0-.1,0-.3,0-.4,0-.1,0-.3,0-.3,0,0,0,0,0,0,0,0,0,.1,0,.3,0,.1,0,.3,0,.4,0,.2,0,.3,0,.3,0,0,0,0,0,0,0,0,0-.1,0-.3ZM50.6,11.9c0-.1,0-.2,0-.3,0-.1,0-.2,0-.2,0,0,0,0,0,0,0,0,0,0,0,.2,0,.1,0,.2,0,.4,0,.1,0,.2,0,.2,0,0,0,0,0,0,0,0,0,0,0-.2ZM53.9,13.5c0,.3,0,.6,0,.8,0,.3.2.6.4.6.2,0,.4,0,.6,0,.2,0,.4-.2.4-.5,0-.3,0-.6,0-.9,0-.3-.2-.6-.5-.6-.2,0-.4,0-.6,0-.2,0-.4.2-.4.5ZM52.4,13.4c0,.2,0,.5,0,.7,0,.3.2.5.3.5.1,0,.3,0,.4,0,.2,0,.3-.2.3-.5,0-.2,0-.5,0-.7,0-.3-.2-.5-.3-.5-.1,0-.3,0-.4,0-.1,0-.2.2-.2.5ZM51.4,13.3c0,.2,0,.4,0,.6,0,.2,0,.4.2.4,0,0,.2,0,.2,0,0,0,.2-.1.1-.4,0-.2,0-.4,0-.6,0-.2,0-.4-.2-.4,0,0-.2,0-.2,0,0,0-.1.2-.1.4ZM50.9,13.3c0,.2,0,.3,0,.5,0,.2,0,.3.1.3,0,0,0,0,.1,0,0,0,0-.1,0-.3,0-.2,0-.3,0-.5,0-.2,0-.4-.1-.4,0,0,0,0-.1,0,0,0,0,.1,0,.3ZM50.6,13.2c0,.1,0,.3,0,.4,0,.1,0,.3,0,.3,0,0,0,0,0,0,0,0,0,0,0-.2,0-.1,0-.3,0-.4,0-.2,0-.3,0-.3,0,0,0,0,0,0,0,0,0,.1,0,.2ZM53.4,16.6c0-.2,0-.5-.1-.7,0-.2,0-.4.2-.4.2,0,.3,0,.5,0,.2,0,.4.3.4.6,0,.2,0,.5.1.7,0,.3,0,.4-.3.4-.2,0-.3,0-.5-.1-.2,0-.3-.3-.4-.5ZM52.2,16.2c0-.2,0-.4-.1-.6,0-.2,0-.4.1-.3.1,0,.2,0,.3,0,.1,0,.3.2.3.5,0,.2,0,.4.1.6,0,.2,0,.4-.1.3-.1,0-.2,0-.3-.1-.1,0-.2-.2-.3-.4ZM51.4,15.8c0-.2,0-.3,0-.5,0-.2,0-.3,0-.3,0,0,.1,0,.2,0,0,0,.2.2.2.4,0,.2,0,.3,0,.5,0,.2,0,.3,0,.3,0,0-.1,0-.2-.1,0,0-.1-.2-.2-.4ZM51,15.4c0-.1,0-.3,0-.4,0-.1,0-.2,0-.2,0,0,0,0,0,0,0,0,0,.2.1.3,0,.1,0,.3,0,.4,0,.2,0,.2,0,.2,0,0,0,0,0,0,0,0,0-.2-.1-.3ZM54.6,18.4c0,.2.1.4.2.6,0,.2.3.5.5.5.2,0,.4.1.6.2.2,0,.4,0,.3-.3,0-.2-.1-.4-.2-.7,0-.3-.3-.5-.5-.6-.2,0-.4,0-.6-.2-.2,0-.3.1-.3.4ZM53.1,17.9c0,.2.1.4.2.6,0,.2.2.4.4.5.1,0,.3.1.4.2.2,0,.2,0,.2-.3,0-.2-.1-.4-.2-.6,0-.2-.2-.5-.4-.5-.1,0-.3-.1-.4-.2-.1,0-.2,0-.1.3ZM52.1,17.4c0,.2.1.3.2.5,0,.2.2.4.3.4,0,0,.2.1.3.2.1,0,.1,0,0-.2,0-.2-.1-.3-.2-.5,0-.2-.2-.4-.3-.5,0,0-.2,0-.2-.1,0,0-.1,0,0,.2ZM51.5,16.9c0,.1,0,.3.1.4,0,.1.1.3.2.4,0,0,0,.1.1.1,0,0,0,0,0-.2,0-.1,0-.3-.1-.4,0-.2-.1-.3-.2-.4,0,0,0,0-.1-.1,0,0,0,0,0,.2ZM51.2,16.4c0,.1,0,.2.1.3,0,.1,0,.3.1.3,0,0,0,0,0,.1,0,0,0,0,0-.1,0-.1,0-.2-.1-.4,0-.1,0-.3-.1-.3,0,0,0,0,0,0,0,0,0,0,0,.2ZM58.3,21.7c0-.2,0-.4-.2-.6,0-.2.1-.4.4-.3.3,0,.5,0,.8.1.3,0,.6.3.6.5,0,.2,0,.4,0,.6,0,.2-.2.3-.5.3-.3,0-.5,0-.8-.1-.3,0-.5-.2-.6-.4ZM56.3,21.2c0-.2-.1-.3-.2-.5,0-.2,0-.3.3-.2.2,0,.4.1.6.2.2,0,.5.3.6.5,0,.2,0,.3.2.5,0,.2,0,.3-.3.2-.2,0-.4-.1-.6-.2-.2,0-.4-.3-.5-.4ZM54.6,20.5c0-.2-.1-.3-.2-.5,0-.2,0-.3.2-.2.2,0,.3.1.5.2.2,0,.4.3.5.5,0,.2.1.3.2.5,0,.2,0,.2-.2.2-.2,0-.3-.1-.5-.2-.2,0-.3-.3-.4-.4ZM53.4,19.8c0-.1-.1-.3-.2-.4,0-.1,0-.2,0-.2,0,0,.2.1.3.2.1,0,.3.3.3.4,0,.1.1.3.2.4,0,.1,0,.2,0,.1-.1,0-.2-.1-.3-.2-.1,0-.3-.2-.3-.4ZM52.6,19.1c0-.1-.1-.2-.2-.4,0-.1,0-.2,0-.1,0,0,.1.1.2.2,0,0,.2.2.3.4,0,.1.1.2.2.4,0,.1,0,.2,0,.1,0,0-.1-.1-.2-.2,0,0-.2-.2-.2-.3ZM52,18.4c0-.1-.1-.2-.1-.3,0-.1,0-.2,0-.1,0,0,0,0,.1.1,0,0,.1.2.2.3,0,.1.1.2.2.3,0,.1,0,.1,0,0,0,0,0-.1-.1-.2,0,0-.1-.2-.2-.3ZM59.7,22.9c0,.1,0,.3.1.4,0,.1.3.3.6.3.3,0,.5,0,.8,0,.3,0,.5,0,.5-.2,0-.1,0-.3,0-.4,0-.2-.3-.3-.6-.3-.3,0-.6,0-.8,0-.3,0-.5,0-.5.2ZM57.6,22.4c0,.1.1.3.2.4,0,.1.3.3.5.3.2,0,.4.1.6.2.2,0,.4,0,.4-.1,0-.1,0-.2-.1-.4,0-.2-.3-.3-.6-.4-.2,0-.5-.1-.7-.2-.2,0-.4,0-.3.2ZM55.9,21.8c0,.1.1.2.2.4,0,.1.3.3.5.4.2,0,.3.1.5.2.2,0,.3,0,.2,0,0-.1-.1-.2-.2-.4,0-.1-.3-.3-.5-.4-.2,0-.4-.1-.5-.2-.2,0-.3,0-.2.1ZM54.5,21.1c0,.1.2.2.2.3,0,.1.3.3.4.4.1,0,.2.1.4.2.1,0,.2,0,.1,0,0-.1-.1-.2-.2-.3,0-.1-.3-.3-.4-.4-.1,0-.3-.1-.4-.2-.1,0-.2,0,0,0ZM53.5,20.4c0,.1.1.2.2.3,0,.1.2.2.3.3,0,0,.2.1.3.2.1,0,.1,0,0,0,0-.1-.1-.2-.2-.3,0-.1-.2-.3-.3-.4,0,0-.2-.1-.3-.2,0,0-.1,0,0,0ZM52.8,19.7c0,0,.1.2.2.3,0,0,.2.2.2.3,0,0,.1.1.2.2,0,0,0,0,0,0,0,0-.1-.2-.2-.3,0-.1-.2-.3-.2-.3,0,0-.1-.1-.2-.2,0,0,0,0,0,0ZM61.2,24.3c0,0,0-.2,0-.2,0-.1.2-.2.4-.1.3,0,.5,0,.8,0,.3,0,.5.1.5.2,0,0,0,.2,0,.2,0,0-.2.1-.5.1-.2,0-.5,0-.7,0-.3,0-.5-.1-.5-.2ZM59.2,23.9c0,0,0-.2-.1-.2,0,0,0-.1.3,0,.2,0,.4,0,.7.1.3,0,.5.2.5.2,0,0,0,.2,0,.2,0,0-.1.1-.4,0-.2,0-.4,0-.6-.1-.2,0-.4-.2-.5-.2ZM57.5,23.4c0,0-.1-.2-.2-.2,0,0,0-.1.2,0,.2,0,.4.1.5.2.2,0,.4.2.5.3,0,0,0,.2.2.2,0,0,0,0-.3,0-.2,0-.3-.1-.5-.2-.2,0-.4-.2-.5-.3ZM56.1,22.7c0,0-.1-.1-.2-.2,0,0,0-.1.1,0,.1,0,.3.1.4.2.2,0,.4.2.4.3,0,0,.1.2.2.2,0,0,0,0-.2,0-.1,0-.3-.1-.4-.2-.1,0-.3-.2-.4-.3ZM54.9,22c0,0-.1-.1-.2-.2,0,0,0,0,0,0,.1,0,.2.1.3.2.1,0,.3.2.4.3,0,0,.1.1.2.2,0,0,0,0,0,0-.1,0-.2-.1-.3-.2-.1,0-.2-.2-.3-.3ZM60.4,24.5s0,0,.1.1c0,0,.2,0,.5.1.2,0,.4,0,.6,0,.2,0,.4,0,.4,0,0,0,0,0,0-.1,0,0-.2-.1-.5-.1-.2,0-.4,0-.7,0-.2,0-.4,0-.4,0ZM58.7,24.1s.1,0,.2.1c0,0,.3.1.5.2.2,0,.3,0,.5.1.2,0,.3,0,.3,0,0,0,0,0-.1-.1,0,0-.3-.1-.5-.2-.2,0-.4,0-.6-.1-.2,0-.3,0-.3,0ZM57.2,23.5c0,0,.1,0,.2.1,0,0,.3.1.4.2.1,0,.3.1.4.2.2,0,.3,0,.2,0,0,0-.1,0-.2-.1,0,0-.3-.2-.4-.2-.2,0-.3-.1-.5-.2-.2,0-.2,0-.2,0ZM61.8,24.9c.2,0,.3,0,.5,0,0,0,0,0,.1,0,0,0,.1,0,.2,0,.2,0,.3,0,.3,0,0,0,0,0,0,0,0,0-.2,0-.4,0-.2,0-.4,0-.6,0-.2,0-.4,0-.4,0,0,0,0,0,0,0,0,0,.1,0,.3,0ZM60.1,24.6c.4,0,.7.2,1.1.2,0,0,0,0,0,0,0,0,0,0,0,0,0,0-.2,0-.4,0-.2,0-.4,0-.5-.1-.2,0-.3,0-.3,0,0,0,0,0,.1,0,0,0,0,0,0,0ZM57.7,23.8c0,0,.2,0,.3.1,0,0-.2,0-.2-.1t0,0ZM56,22.8s0,0,0,0h0c0,0,0,0,0,0,.1,0,.2.1.4.2.1,0,.3.2.4.2,0,0,.1,0,.2.1,0,0,0,0-.1,0q0,0-.2,0c-.2-.1-.4-.2-.5-.3h0q-.1,0-.2-.1h0ZM55.3,22.3c.1,0,.2.2.4.3t0,0c0,0-.2-.2-.3-.2,0,0,0,0,0,0ZM50.8,15c0,0,0,.1,0,.2h0c0,0,0,.1,0,.1,0,0,0,0,0,0,0,0,0,0,0-.2,0-.1,0-.2,0-.3,0-.1,0-.2,0-.3,0,0,0,0,0,0,0,0,0,0,0,.2q0,.1,0,.3h0ZM50.5,13c0,.3,0,.5,0,.8,0,0,0,0,0-.2,0-.1,0-.2,0-.3,0,0,0-.2,0-.2ZM50.8,10c0,.2,0,.4,0,.5,0,0,0-.1,0-.2,0,0,0-.2,0-.3,0,0,0,0,0,0ZM54,3.9c-.1.1-.2.2-.3.3,0,0,.2-.2.2-.3,0,0,0,0,0,0ZM60.4.3c-.4,0-.8.2-1.1.3h0q0,0-.1,0s0,0,.2,0c.2,0,.3,0,.5-.1.2,0,.4,0,.4-.1,0,0,0,0,.1,0,0,0,0,0,0,0ZM61.8,0c-.3,0-.5,0-.8.1,0,0-.1,0-.1,0,0,0,0,0-.1,0,0,0,.1,0,.3,0,.2,0,.4,0,.6,0,.2,0,.4,0,.4,0,0,0,0,0,0,0,0,0-.1,0-.3,0h0ZM65.2.2c-.3,0-.5,0-.8-.1-.2,0-.3,0-.3,0,0,0,0,0,0,0,0,0,.2,0,.4,0,.2,0,.4,0,.6,0,.2,0,.4,0,.3,0,0,0,0,0,0,0,0,0,0,0-.1,0h0ZM66.8.6c-.4-.1-.8-.2-1.1-.3,0,0,0,0,0,0,0,0,0,0,.1,0,0,0,.2,0,.4.1.2,0,.3,0,.5.1.2,0,.3,0,.2,0q0,0-.1,0ZM72.1,3.9s0,0,0,0c0,0,0,0,0,0ZM72.4,4.2c0-.1-.2-.2-.3-.3h0c0,.1.2.2.3.3ZM70.4,22.6c.1,0,.2-.2.4-.3h0c0,.1-.2.2-.3.3t0,0h0ZM69.4,23.3c.2-.1.4-.2.5-.3,0,0,0,0,.2-.1h0s0,0,0,0h0c0,0,0,0,0,0-.1,0-.2.1-.4.2-.1,0-.3.2-.4.2,0,0-.1,0-.2.1,0,0,0,0,.1,0,0,0,0,0,.2,0ZM68.1,23.9c0,0,.2,0,.3-.1h0s0,0,0,0c0,0-.2,0-.2.1h0ZM65,24.9c.4,0,.7-.1,1.1-.2,0,0,0,0,0,0,0,0,0,0,.1,0,0,0,0,0-.3,0-.2,0-.4,0-.5.1-.2,0-.4,0-.4,0,0,0,0,0,0,0,0,0,0,0,0,0ZM63.5,25c0,0,.1,0,.2,0,0,0,0,0,.1,0,.2,0,.3,0,.5,0h0c.1,0,.2,0,.3,0,0,0,0,0,0,0,0,0-.1,0-.4,0-.2,0-.4,0-.6,0-.2,0-.4,0-.4,0,0,0,0,0,0,0,0,0,.1,0,.3,0ZM63.7,0s0,0,0,0c0,0-.2,0-.4,0-.2,0-.4,0-.6,0-.2,0-.4,0-.4,0,0,0,0,0,0,0,0,0,.2,0,.4,0,0,0,.1,0,.2,0,0,0,.2,0,.2,0,0,0,.1,0,.2,0,.2,0,.4,0,.4,0ZM64.8.4s0,0,0-.1c0,0-.2,0-.5-.1-.2,0-.4,0-.6,0-.2,0-.4,0-.4,0,0,0,0,0,0,.1,0,0,.2.1.5.1.2,0,.4,0,.7,0,.3,0,.4,0,.4,0Z"></path></clipPath></defs><g><path class="cls-2" d="M66.6.7s0,0-.1-.1c0,0-.3-.1-.4-.2-.2,0-.4,0-.6-.1-.2,0-.3,0-.3,0,0,0,0,0,0,.1,0,0,.2.1.5.2.2,0,.4,0,.6.1.2,0,.4,0,.3,0M68.2,1.2c0,0-.1,0-.2-.1,0,0-.3-.1-.4-.2-.2,0-.3-.1-.5-.2-.2,0-.3,0-.2,0,0,0,.1,0,.2.1,0,0,.2.1.4.2.2,0,.3.1.5.2.2,0,.3,0,.2,0ZM69.5,1.8c0,0-.1,0-.2-.1,0,0-.2-.1-.4-.2-.1,0-.2-.1-.4-.2-.1,0-.2,0-.1,0,0,0,.1,0,.2.1,0,0,.3.2.4.2.1,0,.3.1.4.2.1,0,.2,0,.1,0ZM63.9.7c0,0,0,.2,0,.3,0,.1-.2.2-.5.2-.3,0-.5,0-.8,0-.3,0-.5,0-.5-.2,0,0,0-.2,0-.3,0,0,.3-.2.5-.2.3,0,.5,0,.7,0,.3,0,.5,0,.5.2ZM65.9.9c0,0,0,.2.1.2,0,.1-.1.2-.4.1-.3,0-.5,0-.8,0-.3,0-.5-.1-.5-.2,0,0,0-.2,0-.2,0,0,.2-.1.4,0,.2,0,.5,0,.7,0,.2,0,.5.1.5.2ZM67.7,1.3c0,0,.1.2.2.2,0,0,0,.1-.3,0-.2,0-.4-.1-.6-.2-.2,0-.5-.2-.5-.3,0,0,0-.2-.1-.2,0,0,.1,0,.3,0,.2,0,.4,0,.6.2.2,0,.4.2.5.3ZM69.3,1.9c0,0,.1.2.2.2,0,0,0,.1-.2,0-.2,0-.3-.1-.5-.2-.2,0-.4-.2-.5-.3,0,0-.1-.2-.2-.2,0,0,0,0,.2,0,.2,0,.3.1.5.2.2,0,.4.2.4.3ZM70.6,2.7c0,0,.1.2.2.2,0,0,0,.1,0,0-.1,0-.2-.1-.4-.2-.1,0-.3-.2-.4-.3,0,0-.1-.2-.2-.2,0,0,0,0,.1,0,.1,0,.2.1.4.2.1,0,.3.2.4.3ZM71.6,3.4c0,0,.1.1.2.2,0,0,0,.1,0,0,0,0-.2-.1-.3-.2,0,0-.2-.2-.3-.3,0,0-.1-.1-.2-.2,0,0,0,0,0,0,0,0,.2.1.3.2,0,0,.2.2.3.3ZM65.3,2c0-.1,0-.3,0-.4,0-.1-.3-.3-.6-.3-.3,0-.5,0-.8,0-.3,0-.5,0-.5.2,0,.1,0,.3,0,.4,0,.2.3.3.6.3.3,0,.6,0,.9,0,.3,0,.5,0,.5-.3ZM67.5,2.3c0-.1,0-.3-.2-.4,0-.1-.3-.3-.6-.3-.2,0-.5,0-.7-.1-.3,0-.4,0-.4.2,0,.1,0,.2,0,.4,0,.2.3.3.6.4.3,0,.5,0,.8.1.3,0,.4,0,.4-.2ZM71,3.6c0-.1-.1-.2-.2-.3,0-.1-.3-.3-.4-.3-.1,0-.3-.1-.4-.2-.2,0-.2,0-.2,0,0,.1.1.2.2.3,0,.1.3.3.4.4.1,0,.3.1.4.2.2,0,.2,0,.1-.1ZM72.1,4.3c0-.1-.1-.2-.2-.3,0-.1-.2-.3-.3-.3,0,0-.2-.1-.3-.2-.1,0-.2,0,0,0,0,.1.1.2.2.3,0,.1.2.3.3.4.1,0,.2.1.3.2.1,0,.1,0,0,0ZM73,5c0,0-.1-.2-.2-.3,0-.1-.2-.2-.3-.3,0,0-.1-.1-.2-.2,0,0,0,0,0,0,0,0,.1.2.2.3,0,.1.2.3.3.3,0,0,.1.1.2.2,0,0,0,0,0,0ZM64.1,23.1c0,.1,0,.3,0,.4,0,.1-.3.3-.6.3-.3,0-.6,0-.8,0-.3,0-.6-.1-.6-.3,0-.1,0-.3,0-.4,0-.2.2-.3.6-.3.3,0,.6,0,.9,0,.3,0,.6.1.6.3ZM68.5,22.4c0,.1-.1.3-.2.4,0,.1-.3.3-.5.3-.2,0-.4.1-.6.2-.2,0-.4,0-.4-.1,0-.1,0-.2.1-.4,0-.2.3-.3.6-.4.2,0,.5-.1.7-.2.3,0,.4,0,.3.2ZM64.9,24.3c0,0,0-.2,0-.2,0-.1-.2-.2-.5-.1-.3,0-.5,0-.8,0-.3,0-.5.1-.5.2,0,0,0,.2,0,.2,0,0,.2.1.5.1.2,0,.5,0,.7,0,.3,0,.5-.1.5-.2ZM66.8,23.9c0,0,0-.2.1-.2,0,0,0-.1-.3,0-.2,0-.4,0-.7.1-.3,0-.5.2-.5.2,0,0,0,.2,0,.2,0,0,.1.1.4,0,.2,0,.4,0,.6-.1.2,0,.4-.2.5-.2ZM68.6,23.4c0,0,.1-.2.2-.2,0,0,0-.1-.2,0-.2,0-.4.1-.5.2-.2,0-.4.2-.5.3,0,0-.1.2-.2.2,0,0,0,0,.3,0,.2,0,.3-.1.5-.2.2,0,.4-.2.4-.3ZM70,22.7c0,0,.1-.1.2-.2,0,0,0-.1-.1,0-.1,0-.3.1-.4.2-.2,0-.4.2-.4.3,0,0-.1.1-.2.2,0,0,0,0,.1,0,.1,0,.3-.1.4-.2.1,0,.3-.2.4-.3ZM71.2,22c0,0,.1-.1.2-.2,0,0,0-.1,0,0,0,0-.2.1-.3.2-.1,0-.3.2-.4.3,0,0-.1.1-.2.2,0,0,0,0,0,0,.1,0,.2-.1.3-.2.1,0,.3-.2.3-.3ZM63.9,24.7s0,0,0,.1c0,0-.2,0-.5,0-.2,0-.4,0-.6,0-.2,0-.4,0-.5,0,0,0,0,0,0-.1,0,0,.2,0,.5,0,.2,0,.5,0,.7,0,.3,0,.5,0,.5,0ZM65.7,24.5s0,0-.1.1c0,0-.2,0-.5.1-.2,0-.4,0-.6,0-.2,0-.4,0-.4,0,0,0,0,0,0-.1,0,0,.2-.1.5-.1.2,0,.4,0,.7,0,.2,0,.4,0,.4,0ZM67.4,24.1s0,0-.2.1c0,0-.2.1-.4.2-.2,0-.3,0-.5.1-.2,0-.3,0-.3,0,0,0,0,0,.1-.1,0,0,.3-.1.5-.2.2,0,.4,0,.6-.1.2,0,.3,0,.2,0ZM68.9,23.5c0,0-.1,0-.2.1,0,0-.3.1-.4.2-.1,0-.3.1-.4.2-.2,0-.3,0-.2,0,0,0,.1,0,.2-.1,0,0,.3-.2.4-.2.2,0,.3-.1.5-.2.2,0,.2,0,.2,0ZM61.3.4s0,0,0-.1c0,0,.2,0,.4-.1.2,0,.4,0,.6,0,.2,0,.4,0,.4,0,0,0,0,0,0,.1,0,0-.2.1-.5.1-.2,0-.5,0-.7,0-.2,0-.4,0-.4,0ZM59.5.7c0,0,0,0,.1-.1,0,0,.2-.1.4-.2.2,0,.4,0,.5-.1.2,0,.3,0,.3,0,0,0,0,0,0,.1,0,0-.2.1-.5.2-.2,0-.4,0-.6.1-.2,0-.3,0-.3,0ZM57.9,1.2c0,0,.1,0,.2-.1,0,0,.2-.1.4-.2.2,0,.3-.1.5-.2.2,0,.3,0,.2,0,0,0,0,0-.1.1,0,0-.3.1-.4.2-.2,0-.3.1-.5.2-.2,0-.3,0-.2,0ZM56.6,1.8c0,0,.1,0,.2-.1,0,0,.2-.1.4-.2.1,0,.2-.1.4-.2.1,0,.2,0,.1,0,0,0-.1,0-.2.1,0,0-.2.2-.4.2-.1,0-.3.1-.4.2-.1,0-.2,0-.1,0ZM60.2.9c0,0,0,.2-.1.2,0,.1.1.2.4.1.2,0,.5,0,.7,0,.3,0,.5-.1.5-.2,0,0,0-.2,0-.2,0,0-.2-.1-.4,0-.2,0-.5,0-.7,0-.3,0-.5.1-.5.2ZM58.3,1.3c0,0-.1.2-.2.2,0,.1,0,.1.3,0,.2,0,.4-.1.6-.2.2,0,.5-.2.5-.3,0,0,0-.2.1-.2,0,0-.1,0-.3,0-.2,0-.4.1-.6.2-.2,0-.4.2-.5.3ZM56.8,1.9c0,0-.1.2-.2.2,0,0,0,.1.2,0,.2,0,.3-.1.5-.2.2,0,.4-.2.5-.3,0,0,.1-.2.2-.2,0,0,0,0-.2,0-.2,0-.3.1-.5.2-.2,0-.4.2-.4.3ZM55.5,2.6c0,0-.1.2-.2.2,0,0,0,.1,0,0,.1,0,.2-.1.4-.2.1,0,.3-.2.4-.3,0,0,.1-.2.2-.2,0,0,0,0-.1,0-.1,0-.2.1-.4.2-.1,0-.3.2-.4.3ZM54.5,3.4c0,0-.1.1-.2.2,0,0,0,0,0,0,0,0,.2-.1.3-.2,0,0,.2-.2.3-.3,0,0,.1-.2.2-.2,0,0,0,0,0,0,0,0-.2.1-.3.2,0,0-.2.2-.3.3ZM60.8,2c0-.1,0-.3,0-.4,0-.1.3-.3.6-.3.3,0,.5,0,.8,0,.3,0,.5,0,.5.2,0,.1,0,.3,0,.4,0,.2-.3.3-.6.3-.3,0-.6,0-.9,0-.3,0-.5,0-.5-.3ZM58.6,2.3c0-.1.1-.3.2-.4,0-.1.3-.3.6-.3.2,0,.5,0,.7-.1.3,0,.5,0,.4.2,0,.1,0,.2,0,.4,0,.2-.3.3-.6.4-.2,0-.5,0-.8.1-.3,0-.4,0-.4-.2ZM56.7,2.9c0-.1.1-.2.2-.4,0-.1.3-.3.5-.3.2,0,.4-.1.6-.2.2,0,.4,0,.3.1,0,.1-.1.2-.2.4,0,.1-.3.3-.5.4-.2,0-.4.1-.6.2-.2,0-.3,0-.2-.1ZM55.1,3.6c0-.1.1-.2.2-.3,0-.1.3-.3.4-.3.1,0,.3-.1.4-.2.2,0,.2,0,.2,0,0,.1-.1.2-.2.3,0,.1-.3.3-.4.4-.2,0-.3.1-.5.2-.2,0-.2,0-.1-.1ZM53.9,4.3c0-.1.1-.2.2-.3,0-.1.2-.3.3-.3.1,0,.2-.1.3-.2.1,0,.2,0,0,0,0,.1-.1.2-.2.3,0,.1-.2.3-.4.4-.1,0-.2.1-.3.2-.1,0-.1,0,0,0ZM53.1,5c0,0,.1-.2.2-.3,0,0,.2-.2.2-.3,0,0,.1-.1.2-.2,0,0,0,0,0,0,0,0-.1.2-.2.3,0,.1-.2.3-.3.3,0,0-.1.1-.2.2,0,0,0,0,0,0ZM59.4,3.1c0,.2,0,.4-.1.6,0,.2.2.4.5.4.3,0,.6,0,.9,0,.3,0,.6-.2.7-.5,0-.2,0-.4,0-.6,0-.2-.2-.3-.5-.3-.3,0-.6,0-.9,0-.3,0-.6.2-.6.4ZM57.2,3.6c0,.2-.1.4-.2.6,0,.2.1.3.4.3.2,0,.5-.1.8-.1.3,0,.6-.3.6-.5,0-.2,0-.4.1-.6,0-.2-.1-.3-.4-.2-.2,0-.5.1-.7.2-.3,0-.5.3-.6.5ZM55.4,4.2c0,.2-.1.3-.2.5,0,.2,0,.3.2.2.2,0,.4-.1.6-.2.2,0,.5-.3.5-.5,0-.2.1-.3.2-.5,0-.2,0-.3-.3-.2-.2,0-.4.1-.6.2-.2,0-.4.3-.5.4ZM53.9,4.9c0,.1-.1.3-.2.4,0,.2,0,.3.1.2.1,0,.3-.1.4-.2.2,0,.3-.3.4-.5,0-.2.1-.3.2-.5,0-.2,0-.2-.1-.1-.1,0-.3.1-.4.2-.1,0-.3.3-.4.4ZM52.9,5.6c0,.1-.1.3-.2.4,0,.1,0,.2,0,.2,0,0,.2-.1.3-.2,0,0,.2-.3.3-.4,0-.1.1-.3.2-.4,0-.1,0-.2,0-.1,0,0-.2.1-.3.2,0,0-.2.2-.3.4ZM52.2,6.3c0,.1-.1.2-.2.3,0,.1,0,.2,0,.1,0,0,0-.1.2-.2,0,0,.2-.2.2-.4,0-.1.1-.2.2-.4,0-.1,0-.2,0-.1,0,0-.1.1-.2.2,0,0-.1.2-.2.3ZM55.5,6.4c0-.2.1-.4.2-.7,0-.2.3-.5.5-.5.2,0,.4-.1.7-.2.2,0,.4,0,.4.3,0,.2,0,.4-.1.7,0,.3-.3.5-.6.6-.2,0-.5,0-.7.1-.2,0-.4-.1-.3-.4ZM53.8,6.9c0-.2.1-.4.2-.6,0-.2.2-.4.4-.5.2,0,.3-.1.5-.2.2,0,.3,0,.2.3,0,.2-.1.4-.2.6,0,.2-.3.5-.4.5-.2,0-.3,0-.5.1-.2,0-.3,0-.2-.3ZM52.6,7.4c0-.2.1-.3.2-.5,0-.2.2-.4.3-.4.1,0,.2-.1.3-.2.1,0,.2,0,.1.2,0,.2-.1.4-.2.5,0,.2-.2.4-.3.5-.1,0-.2,0-.3.1-.1,0-.1,0,0-.2ZM51.8,7.9c0-.1,0-.3.1-.4,0-.2.1-.3.2-.4,0,0,.1-.1.2-.2,0,0,0,0,0,.2,0,.1,0,.3-.1.4,0,.2-.1.3-.2.4,0,0-.1,0-.2.1,0,0,0,0,0-.2ZM51.3,8.4c0-.1,0-.2.1-.4,0-.1.1-.3.1-.3,0,0,0,0,0-.1,0,0,0,0,0,.2,0,.1,0,.2-.1.4,0,.1-.1.3-.2.3,0,0,0,0,0,.1,0,0,0,0,0-.2ZM54.2,8.2c0,.2,0,.5-.1.8,0,.3.1.5.3.5.2,0,.4,0,.6,0,.2,0,.5-.3.5-.6,0-.3,0-.5.1-.8,0-.3-.1-.5-.4-.4-.2,0-.4,0-.6.1-.2,0-.4.3-.5.6ZM52.8,8.6c0,.2,0,.4-.1.7,0,.2,0,.4.2.4.1,0,.3,0,.4,0,.2,0,.3-.3.4-.5,0-.2,0-.5.1-.7,0-.2,0-.4-.2-.4-.1,0-.3,0-.4.1-.1,0-.3.3-.3.5ZM51.8,9c0,.2,0,.4-.1.5,0,.2,0,.4,0,.3,0,0,.2,0,.2,0,0,0,.2-.2.2-.5,0-.2,0-.4.1-.6,0-.2,0-.3-.1-.3,0,0-.2,0-.2.1,0,0-.2.2-.2.4ZM51.2,9.4c0,.1,0,.3,0,.4,0,.2,0,.3,0,.3,0,0,0,0,.1,0,0,0,.1-.2.2-.4,0-.2,0-.3,0-.5,0-.2,0-.3,0-.2,0,0,0,0-.1,0,0,0-.1.2-.1.4ZM50.9,9.8c0,.1,0,.2,0,.4,0,.1,0,.2,0,.2,0,0,0,0,0,0,0,0,0-.2,0-.3,0-.1,0-.3,0-.4,0-.1,0-.2,0-.2,0,0,0,0,0,0,0,0,0,.2,0,.3ZM53.1,11.6c0-.3,0-.5,0-.7,0-.3.2-.5.3-.5.2,0,.3,0,.5,0,.2,0,.3.2.3.5,0,.3,0,.5,0,.8,0,.3-.2.5-.4.5-.2,0-.3,0-.5,0-.2,0-.3-.2-.3-.5ZM51.9,11.7c0-.2,0-.4,0-.6,0-.2.1-.4.2-.4,0,0,.2,0,.3,0,.1,0,.2.2.2.4,0,.2,0,.4,0,.7,0,.3-.1.5-.2.5-.1,0-.2,0-.3,0-.1,0-.2-.2-.2-.4ZM51.1,11.7c0-.2,0-.3,0-.5,0-.2,0-.4.1-.4,0,0,.1,0,.2,0,0,0,.1.1,0,.3,0,.2,0,.4,0,.5,0,.2,0,.4-.1.4,0,0-.1,0-.2,0,0,0,0-.1,0-.3ZM50.7,11.8c0-.1,0-.3,0-.4,0-.1,0-.3,0-.3,0,0,0,0,0,0,0,0,0,.1,0,.3,0,.1,0,.3,0,.4,0,.2,0,.3,0,.3,0,0,0,0,0,0,0,0,0-.1,0-.3ZM50.6,11.9c0-.1,0-.2,0-.3,0-.1,0-.2,0-.2,0,0,0,0,0,0,0,0,0,0,0,.2,0,.1,0,.2,0,.4,0,.1,0,.2,0,.2,0,0,0,0,0,0,0,0,0,0,0-.2ZM53.9,13.5c0,.3,0,.6,0,.8,0,.3.2.6.4.6.2,0,.4,0,.6,0,.2,0,.4-.2.4-.5,0-.3,0-.6,0-.9,0-.3-.2-.6-.5-.6-.2,0-.4,0-.6,0-.2,0-.4.2-.4.5ZM52.4,13.4c0,.2,0,.5,0,.7,0,.3.2.5.3.5.1,0,.3,0,.4,0,.2,0,.3-.2.3-.5,0-.2,0-.5,0-.7,0-.3-.2-.5-.3-.5-.1,0-.3,0-.4,0-.1,0-.2.2-.2.5ZM51.4,13.3c0,.2,0,.4,0,.6,0,.2,0,.4.2.4,0,0,.2,0,.2,0,0,0,.2-.1.1-.4,0-.2,0-.4,0-.6,0-.2,0-.4-.2-.4,0,0-.2,0-.2,0,0,0-.1.2-.1.4ZM50.9,13.3c0,.2,0,.3,0,.5,0,.2,0,.3.1.3,0,0,0,0,.1,0,0,0,0-.1,0-.3,0-.2,0-.3,0-.5,0-.2,0-.4-.1-.4,0,0,0,0-.1,0,0,0,0,.1,0,.3ZM50.6,13.2c0,.1,0,.3,0,.4,0,.1,0,.3,0,.3,0,0,0,0,0,0,0,0,0,0,0-.2,0-.1,0-.3,0-.4,0-.2,0-.3,0-.3,0,0,0,0,0,0,0,0,0,.1,0,.2ZM53.4,16.6c0-.2,0-.5-.1-.7,0-.2,0-.4.2-.4.2,0,.3,0,.5,0,.2,0,.4.3.4.6,0,.2,0,.5.1.7,0,.3,0,.4-.3.4-.2,0-.3,0-.5-.1-.2,0-.3-.3-.4-.5ZM52.2,16.2c0-.2,0-.4-.1-.6,0-.2,0-.4.1-.3.1,0,.2,0,.3,0,.1,0,.3.2.3.5,0,.2,0,.4.1.6,0,.2,0,.4-.1.3-.1,0-.2,0-.3-.1-.1,0-.2-.2-.3-.4ZM51.4,15.8c0-.2,0-.3,0-.5,0-.2,0-.3,0-.3,0,0,.1,0,.2,0,0,0,.2.2.2.4,0,.2,0,.3,0,.5,0,.2,0,.3,0,.3,0,0-.1,0-.2-.1,0,0-.1-.2-.2-.4ZM51,15.4c0-.1,0-.3,0-.4,0-.1,0-.2,0-.2,0,0,0,0,0,0,0,0,0,.2.1.3,0,.1,0,.3,0,.4,0,.2,0,.2,0,.2,0,0,0,0,0,0,0,0,0-.2-.1-.3ZM54.6,18.4c0,.2.1.4.2.6,0,.2.3.5.5.5.2,0,.4.1.6.2.2,0,.4,0,.3-.3,0-.2-.1-.4-.2-.7,0-.3-.3-.5-.5-.6-.2,0-.4,0-.6-.2-.2,0-.3.1-.3.4ZM53.1,17.9c0,.2.1.4.2.6,0,.2.2.4.4.5.1,0,.3.1.4.2.2,0,.2,0,.2-.3,0-.2-.1-.4-.2-.6,0-.2-.2-.5-.4-.5-.1,0-.3-.1-.4-.2-.1,0-.2,0-.1.3ZM52.1,17.4c0,.2.1.3.2.5,0,.2.2.4.3.4,0,0,.2.1.3.2.1,0,.1,0,0-.2,0-.2-.1-.3-.2-.5,0-.2-.2-.4-.3-.5,0,0-.2,0-.2-.1,0,0-.1,0,0,.2ZM51.5,16.9c0,.1,0,.3.1.4,0,.1.1.3.2.4,0,0,0,.1.1.1,0,0,0,0,0-.2,0-.1,0-.3-.1-.4,0-.2-.1-.3-.2-.4,0,0,0,0-.1-.1,0,0,0,0,0,.2ZM51.2,16.4c0,.1,0,.2.1.3,0,.1,0,.3.1.3,0,0,0,0,0,.1,0,0,0,0,0-.1,0-.1,0-.2-.1-.4,0-.1,0-.3-.1-.3,0,0,0,0,0,0,0,0,0,0,0,.2ZM58.3,21.7c0-.2,0-.4-.2-.6,0-.2.1-.4.4-.3.3,0,.5,0,.8.1.3,0,.6.3.6.5,0,.2,0,.4,0,.6,0,.2-.2.3-.5.3-.3,0-.5,0-.8-.1-.3,0-.5-.2-.6-.4ZM56.3,21.2c0-.2-.1-.3-.2-.5,0-.2,0-.3.3-.2.2,0,.4.1.6.2.2,0,.5.3.6.5,0,.2,0,.3.2.5,0,.2,0,.3-.3.2-.2,0-.4-.1-.6-.2-.2,0-.4-.3-.5-.4ZM54.6,20.5c0-.2-.1-.3-.2-.5,0-.2,0-.3.2-.2.2,0,.3.1.5.2.2,0,.4.3.5.5,0,.2.1.3.2.5,0,.2,0,.2-.2.2-.2,0-.3-.1-.5-.2-.2,0-.3-.3-.4-.4ZM53.4,19.8c0-.1-.1-.3-.2-.4,0-.1,0-.2,0-.2,0,0,.2.1.3.2.1,0,.3.3.3.4,0,.1.1.3.2.4,0,.1,0,.2,0,.1-.1,0-.2-.1-.3-.2-.1,0-.3-.2-.3-.4ZM52.6,19.1c0-.1-.1-.2-.2-.4,0-.1,0-.2,0-.1,0,0,.1.1.2.2,0,0,.2.2.3.4,0,.1.1.2.2.4,0,.1,0,.2,0,.1,0,0-.1-.1-.2-.2,0,0-.2-.2-.2-.3ZM52,18.4c0-.1-.1-.2-.1-.3,0-.1,0-.2,0-.1,0,0,0,0,.1.1,0,0,.1.2.2.3,0,.1.1.2.2.3,0,.1,0,.1,0,0,0,0,0-.1-.1-.2,0,0-.1-.2-.2-.3ZM59.7,22.9c0,.1,0,.3.1.4,0,.1.3.3.6.3.3,0,.5,0,.8,0,.3,0,.5,0,.5-.2,0-.1,0-.3,0-.4,0-.2-.3-.3-.6-.3-.3,0-.6,0-.8,0-.3,0-.5,0-.5.2ZM57.6,22.4c0,.1.1.3.2.4,0,.1.3.3.5.3.2,0,.4.1.6.2.2,0,.4,0,.4-.1,0-.1,0-.2-.1-.4,0-.2-.3-.3-.6-.4-.2,0-.5-.1-.7-.2-.2,0-.4,0-.3.2ZM55.9,21.8c0,.1.1.2.2.4,0,.1.3.3.5.4.2,0,.3.1.5.2.2,0,.3,0,.2,0,0-.1-.1-.2-.2-.4,0-.1-.3-.3-.5-.4-.2,0-.4-.1-.5-.2-.2,0-.3,0-.2.1ZM54.5,21.1c0,.1.2.2.2.3,0,.1.3.3.4.4.1,0,.2.1.4.2.1,0,.2,0,.1,0,0-.1-.1-.2-.2-.3,0-.1-.3-.3-.4-.4-.1,0-.3-.1-.4-.2-.1,0-.2,0,0,0ZM53.5,20.4c0,.1.1.2.2.3,0,.1.2.2.3.3,0,0,.2.1.3.2.1,0,.1,0,0,0,0-.1-.1-.2-.2-.3,0-.1-.2-.3-.3-.4,0,0-.2-.1-.3-.2,0,0-.1,0,0,0ZM52.8,19.7c0,0,.1.2.2.3,0,0,.2.2.2.3,0,0,.1.1.2.2,0,0,0,0,0,0,0,0-.1-.2-.2-.3,0-.1-.2-.3-.2-.3,0,0-.1-.1-.2-.2,0,0,0,0,0,0ZM61.2,24.3c0,0,0-.2,0-.2,0-.1.2-.2.4-.1.3,0,.5,0,.8,0,.3,0,.5.1.5.2,0,0,0,.2,0,.2,0,0-.2.1-.5.1-.2,0-.5,0-.7,0-.3,0-.5-.1-.5-.2ZM59.2,23.9c0,0,0-.2-.1-.2,0,0,0-.1.3,0,.2,0,.4,0,.7.1.3,0,.5.2.5.2,0,0,0,.2,0,.2,0,0-.1.1-.4,0-.2,0-.4,0-.6-.1-.2,0-.4-.2-.5-.2ZM57.5,23.4c0,0-.1-.2-.2-.2,0,0,0-.1.2,0,.2,0,.4.1.5.2.2,0,.4.2.5.3,0,0,0,.2.2.2,0,0,0,0-.3,0-.2,0-.3-.1-.5-.2-.2,0-.4-.2-.5-.3ZM56.1,22.7c0,0-.1-.1-.2-.2,0,0,0-.1.1,0,.1,0,.3.1.4.2.2,0,.4.2.4.3,0,0,.1.2.2.2,0,0,0,0-.2,0-.1,0-.3-.1-.4-.2-.1,0-.3-.2-.4-.3ZM54.9,22c0,0-.1-.1-.2-.2,0,0,0,0,0,0,.1,0,.2.1.3.2.1,0,.3.2.4.3,0,0,.1.1.2.2,0,0,0,0,0,0-.1,0-.2-.1-.3-.2-.1,0-.2-.2-.3-.3ZM60.4,24.5s0,0,.1.1c0,0,.2,0,.5.1.2,0,.4,0,.6,0,.2,0,.4,0,.4,0,0,0,0,0,0-.1,0,0-.2-.1-.5-.1-.2,0-.4,0-.7,0-.2,0-.4,0-.4,0ZM58.7,24.1s.1,0,.2.1c0,0,.3.1.5.2.2,0,.3,0,.5.1.2,0,.3,0,.3,0,0,0,0,0-.1-.1,0,0-.3-.1-.5-.2-.2,0-.4,0-.6-.1-.2,0-.3,0-.3,0ZM57.2,23.5c0,0,.1,0,.2.1,0,0,.3.1.4.2.1,0,.3.1.4.2.2,0,.3,0,.2,0,0,0-.1,0-.2-.1,0,0-.3-.2-.4-.2-.2,0-.3-.1-.5-.2-.2,0-.2,0-.2,0ZM61.8,24.9c.2,0,.3,0,.5,0,0,0,0,0,.1,0,0,0,.1,0,.2,0,.2,0,.3,0,.3,0,0,0,0,0,0,0,0,0-.2,0-.4,0-.2,0-.4,0-.6,0-.2,0-.4,0-.4,0,0,0,0,0,0,0,0,0,.1,0,.3,0ZM60.1,24.6c.4,0,.7.2,1.1.2,0,0,0,0,0,0,0,0,0,0,0,0,0,0-.2,0-.4,0-.2,0-.4,0-.5-.1-.2,0-.3,0-.3,0,0,0,0,0,.1,0,0,0,0,0,0,0ZM57.7,23.8c0,0,.2,0,.3.1,0,0-.2,0-.2-.1t0,0ZM56,22.8s0,0,0,0h0c0,0,0,0,0,0,.1,0,.2.1.4.2.1,0,.3.2.4.2,0,0,.1,0,.2.1,0,0,0,0-.1,0q0,0-.2,0c-.2-.1-.4-.2-.5-.3h0q-.1,0-.2-.1h0ZM55.3,22.3c.1,0,.2.2.4.3t0,0c0,0-.2-.2-.3-.2,0,0,0,0,0,0ZM50.8,15c0,0,0,.1,0,.2h0c0,0,0,.1,0,.1,0,0,0,0,0,0,0,0,0,0,0-.2,0-.1,0-.2,0-.3,0-.1,0-.2,0-.3,0,0,0,0,0,0,0,0,0,0,0,.2q0,.1,0,.3h0ZM50.5,13c0,.3,0,.5,0,.8,0,0,0,0,0-.2,0-.1,0-.2,0-.3,0,0,0-.2,0-.2ZM50.8,10c0,.2,0,.4,0,.5,0,0,0-.1,0-.2,0,0,0-.2,0-.3,0,0,0,0,0,0ZM54,3.9c-.1.1-.2.2-.3.3,0,0,.2-.2.2-.3,0,0,0,0,0,0ZM60.4.3c-.4,0-.8.2-1.1.3h0q0,0-.1,0s0,0,.2,0c.2,0,.3,0,.5-.1.2,0,.4,0,.4-.1,0,0,0,0,.1,0,0,0,0,0,0,0ZM61.8,0c-.3,0-.5,0-.8.1,0,0-.1,0-.1,0,0,0,0,0-.1,0,0,0,.1,0,.3,0,.2,0,.4,0,.6,0,.2,0,.4,0,.4,0,0,0,0,0,0,0,0,0-.1,0-.3,0h0ZM65.2.2c-.3,0-.5,0-.8-.1-.2,0-.3,0-.3,0,0,0,0,0,0,0,0,0,.2,0,.4,0,.2,0,.4,0,.6,0,.2,0,.4,0,.3,0,0,0,0,0,0,0,0,0,0,0-.1,0h0ZM66.8.6c-.4-.1-.8-.2-1.1-.3,0,0,0,0,0,0,0,0,0,0,.1,0,0,0,.2,0,.4.1.2,0,.3,0,.5.1.2,0,.3,0,.2,0q0,0-.1,0ZM72.1,3.9s0,0,0,0c0,0,0,0,0,0ZM72.4,4.2c0-.1-.2-.2-.3-.3h0c0,.1.2.2.3.3ZM70.4,22.6c.1,0,.2-.2.4-.3h0c0,.1-.2.2-.3.3t0,0h0ZM69.4,23.3c.2-.1.4-.2.5-.3,0,0,0,0,.2-.1h0s0,0,0,0h0c0,0,0,0,0,0-.1,0-.2.1-.4.2-.1,0-.3.2-.4.2,0,0-.1,0-.2.1,0,0,0,0,.1,0,0,0,0,0,.2,0ZM68.1,23.9c0,0,.2,0,.3-.1h0s0,0,0,0c0,0-.2,0-.2.1h0ZM65,24.9c.4,0,.7-.1,1.1-.2,0,0,0,0,0,0,0,0,0,0,.1,0,0,0,0,0-.3,0-.2,0-.4,0-.5.1-.2,0-.4,0-.4,0,0,0,0,0,0,0,0,0,0,0,0,0ZM63.5,25c0,0,.1,0,.2,0,0,0,0,0,.1,0,.2,0,.3,0,.5,0h0c.1,0,.2,0,.3,0,0,0,0,0,0,0,0,0-.1,0-.4,0-.2,0-.4,0-.6,0-.2,0-.4,0-.4,0,0,0,0,0,0,0,0,0,.1,0,.3,0ZM63.7,0s0,0,0,0c0,0-.2,0-.4,0-.2,0-.4,0-.6,0-.2,0-.4,0-.4,0,0,0,0,0,0,0,0,0,.2,0,.4,0,0,0,.1,0,.2,0,0,0,.2,0,.2,0,0,0,.1,0,.2,0,.2,0,.4,0,.4,0ZM64.8.4s0,0,0-.1c0,0-.2,0-.5-.1-.2,0-.4,0-.6,0-.2,0-.4,0-.4,0,0,0,0,0,0,.1,0,0,.2.1.5.1.2,0,.4,0,.7,0,.3,0,.4,0,.4,0Z"></path><g class="cls-4"><rect class="cls-3" x="50.5" y="0" width="22.5" height="25"></rect></g></g><g><polygon class="cls-3" points="80.9 13.8 82.3 13.8 82.3 11.3 80.9 10.1 80.9 13.8"></polygon><polygon class="cls-3" points="80.9 7.2 80.9 7.2 80.9 7.2 80.9 7.2"></polygon><polygon class="cls-3" points="82.3 8.4 80.9 7.2 80.9 9 82.3 10.2 84.7 12.5 86.1 13.8 86.1 13.8 86.1 11.9 84.7 10.6 82.3 8.4"></polygon><polygon class="cls-3" points="84.7 9.5 86.1 10.7 86.1 7.2 84.7 7.2 84.7 9.5"></polygon><polygon class="cls-3" points="97.2 8.6 97.7 7.2 93.7 7.2 93.7 7.2 93.7 7.2 93.7 13.8 93.7 13.8 95.1 13.8 95.1 13.8 97.2 13.8 97.7 12.4 95.1 12.4 95.1 11.2 96.4 11.2 97 9.9 95.1 9.9 95.1 8.6 97.2 8.6"></polygon><polygon class="cls-3" points="60.9 7.2 57.9 13.8 59.5 13.8 61.7 8.9 60.9 7.2"></polygon><polygon class="cls-3" points="62.1 9.8 60.9 12.8 62.1 12.8 62.4 13.8 63.9 13.8 62.1 9.8"></polygon><polygon class="cls-3" points="76.8 7.2 73.8 13.8 75.4 13.8 77.6 8.9 76.8 7.2"></polygon><polygon class="cls-3" points="78 9.8 76.8 12.8 78 12.8 78.4 13.8 79.9 13.8 78 9.8"></polygon><polygon class="cls-3" points="73.4 12.1 71.2 7.2 69.6 7.2 72.6 13.7 73.4 12.1"></polygon><path class="cls-3" d="M66.6,7.1s0,0,0,0h0s-.4,0-.4,0h0s-1.1,0-1.1,0v6.6h1.1s.6,0,.6,0h0s0,0,0,0h0c1.7,0,3-1.5,3-3.3s-1.4-3.3-3-3.3ZM66.6,12.4c0,0-.1,0-.2,0v-3.8c0,0,.1,0,.2,0,1,0,1.8.9,1.8,1.9s-.8,1.9-1.8,1.9Z"></path><path class="cls-3" d="M103.5,10.5c0-1.8-1.3-3.3-3-3.3s0,0,0,0h0s-.4,0-.4,0h0s-1.1,0-1.1,0v6.5h1.1s.5,0,.5,0c0,0,0,0,0,0s0,0,0,0h0c1.6,0,2.9-1.5,2.9-3.3ZM100.4,12.4c0,0-.1,0-.2,0v-3.8c0,0,.1,0,.2,0,1,0,1.8.9,1.8,1.9s-.8,1.9-1.8,1.9Z"></path><path class="cls-3" d="M90.6,12.5c-1.5,0-1.9-1-2-1.9,0-.9.5-2,2-2s1,.1,1.4.5l.6-1.1c-.6-.4-1.2-.7-1.9-.7-2.3,0-3.3,1.7-3.3,3.3,0,1.7,1,3.2,3.3,3.2s1.4-.2,2-.6l-.6-1.2c-.4.3-.9.5-1.4.5Z"></path><polygon class="cls-3" points="75.7 7.1 74.2 7.2 73 9.6 73.8 11.3 75.7 7.1"></polygon><rect class="cls-3" x="58.1" y="15.6" width=".6" height="2.6"></rect><polygon class="cls-3" points="61.5 17.2 60.2 15.6 59.8 15.6 59.8 18.2 60.3 18.2 60.3 16.6 61.6 18.2 62.1 18.2 62.1 15.6 61.5 15.6 61.5 17.2"></polygon><path class="cls-3" d="M64.7,16.8c-.1,0-.3,0-.5-.1-.2,0-.3,0-.4-.1,0,0-.1-.1-.1-.2s0-.2.1-.2c0,0,.2,0,.4,0,.2,0,.5,0,.7.2l.2-.5c-.1,0-.3-.1-.4-.2-.2,0-.3,0-.5,0-.2,0-.4,0-.6.1-.2,0-.3.2-.4.3s-.1.3-.1.4,0,.3.1.4c0,.1.2.2.3.2.1,0,.3,0,.5.1.1,0,.2,0,.3,0,0,0,.1,0,.2,0s0,0,0,.2,0,.2-.1.2c0,0-.2,0-.4,0s-.3,0-.5,0c-.2,0-.3-.1-.4-.2l-.2.5c.1,0,.3.2.5.2.2,0,.4,0,.6,0s.4,0,.6-.1c.2,0,.3-.2.4-.3,0-.1.1-.3.1-.4s0-.3-.1-.4c0-.1-.2-.2-.3-.2Z"></path><path class="cls-3" d="M67.7,17c0,.2,0,.4-.1.5,0,.1-.2.2-.4.2-.4,0-.6-.2-.6-.7v-1.4h-.6v1.4c0,.4.1.7.3.9.2.2.5.3.9.3s.7-.1.9-.3c.2-.2.3-.5.3-.9v-1.4h-.6v1.4Z"></path><path class="cls-3" d="M71.4,17c0-.1.1-.3.1-.5s0-.4-.1-.5c0-.1-.2-.2-.4-.3-.2,0-.4-.1-.6-.1h-1.1v2.6h.6v-.7h.6l.5.7h.6l-.6-.8c.2,0,.3-.2.4-.3ZM70.8,16.9c0,0-.2.1-.4.1h-.5v-.9h.5c.2,0,.3,0,.4.1,0,0,.1.2.1.3s0,.3-.1.3Z"></path><path class="cls-3" d="M73.3,15.6l-1.2,2.6h.6l.2-.6h1.2l.2.6h.6l-1.2-2.6h-.6ZM73.1,17.2l.4-1,.4,1h-.8Z"></path><polygon class="cls-3" points="77.5 17.2 76.2 15.6 75.7 15.6 75.7 18.2 76.3 18.2 76.3 16.6 77.6 18.2 78.1 18.2 78.1 15.6 77.5 15.6 77.5 17.2"></polygon><path class="cls-3" d="M80,16.2c.1,0,.3-.1.4-.1.3,0,.5.1.7.3l.4-.4c-.1-.1-.3-.3-.5-.3-.2,0-.4-.1-.6-.1s-.5,0-.7.2c-.2.1-.4.3-.5.5-.1.2-.2.4-.2.7s0,.5.2.7c.1.2.3.4.5.5.2.1.5.2.7.2s.4,0,.6-.1c.2,0,.3-.2.5-.3l-.4-.4c-.2.2-.4.3-.7.3s-.3,0-.4-.1c-.1,0-.2-.2-.3-.3s-.1-.3-.1-.4,0-.3.1-.4.2-.2.3-.3Z"></path><polygon class="cls-3" points="82.9 17.1 84.1 17.1 84.1 16.6 82.9 16.6 82.9 16.1 84.2 16.1 84.2 15.6 82.3 15.6 82.3 18.2 84.3 18.2 84.3 17.7 82.9 17.7 82.9 17.1"></polygon><path class="cls-3" d="M88.6,15.7c-.2-.1-.5-.2-.7-.2s-.5,0-.7.2c-.2.1-.4.3-.5.5-.1.2-.2.4-.2.7s0,.5.2.7c.1.2.3.4.5.5.2.1.5.2.7.2s.5,0,.7-.2c.2-.1.4-.3.5-.5.1-.2.2-.4.2-.7s0-.5-.2-.7c-.1-.2-.3-.4-.5-.5ZM88.6,17.3c0,.1-.2.2-.3.3-.1,0-.3.1-.4.1s-.3,0-.4-.1c-.1,0-.2-.2-.3-.3s-.1-.3-.1-.4,0-.3.1-.4.2-.2.3-.3c.1,0,.3-.1.4-.1s.3,0,.4.1c.1,0,.2.2.3.3s.1.3.1.4,0,.3-.1.4Z"></path><polygon class="cls-3" points="92 17.2 90.7 15.6 90.2 15.6 90.2 18.2 90.8 18.2 90.8 16.6 92.1 18.2 92.6 18.2 92.6 15.6 92 15.6 92 17.2"></polygon><polygon class="cls-3" points="94.2 15.6 93.6 15.6 93.6 18.2 95.5 18.2 95.5 17.7 94.2 17.7 94.2 15.6"></polygon><rect class="cls-3" x="96.3" y="15.6" width=".6" height="2.6"></rect><polygon class="cls-3" points="99.7 17.2 98.4 15.6 97.9 15.6 97.9 18.2 98.5 18.2 98.5 16.6 99.8 18.2 100.3 18.2 100.3 15.6 99.7 15.6 99.7 17.2"></polygon><polygon class="cls-3" points="101.9 17.1 103.1 17.1 103.1 16.6 101.9 16.6 101.9 16.1 103.3 16.1 103.3 15.6 101.3 15.6 101.3 18.2 103.3 18.2 103.3 17.7 101.9 17.7 101.9 17.1"></polygon></g></svg> 