<?xml version="1.0" encoding="UTF-8"?> <svg xmlns="http://www.w3.org/2000/svg" xmlns:xlink="http://www.w3.org/1999/xlink" id="Layer_1" data-name="Layer 1" version="1.1" viewBox="0 0 154 25"><defs><style> .cls-1 { clip-rule: evenodd; } .cls-1, .cls-2, .cls-3 { fill: #fff; } .cls-1, .cls-3 { stroke-width: 0px; } .cls-2 { fill-rule: evenodd; } .cls-4 { clip-path: url(#clippath); } </style><clipPath id="clippath"><path class="cls-1" d="M81.2-48.4s0,0-.1-.1c0,0-.3-.1-.4-.2-.2,0-.4,0-.6-.1-.2,0-.3,0-.3,0,0,0,0,0,0,.1,0,0,.2.1.5.2.2,0,.4,0,.6.1.2,0,.4,0,.3,0M82.8-47.9c0,0-.1,0-.2-.1,0,0-.3-.1-.4-.2-.2,0-.3-.1-.5-.2-.2,0-.3,0-.2,0,0,0,.1,0,.2.1,0,0,.2.1.4.2.2,0,.3.1.5.2.2,0,.3,0,.2,0ZM84.2-47.2c0,0-.1,0-.2-.1,0,0-.2-.1-.4-.2-.1,0-.2-.1-.4-.2-.1,0-.2,0-.1,0,0,0,.1,0,.2.1,0,0,.3.2.4.2.1,0,.3.1.4.2.1,0,.2,0,.1,0ZM78.6-48.4c0,0,0,.2,0,.3,0,.1-.2.2-.5.2-.3,0-.5,0-.8,0-.3,0-.5,0-.5-.2,0,0,0-.2,0-.3,0,0,.3-.2.5-.2.3,0,.5,0,.7,0,.3,0,.5,0,.5.2ZM80.6-48.2c0,0,0,.2.1.2,0,.1-.1.2-.4.1-.3,0-.5,0-.8,0-.3,0-.5-.1-.5-.2,0,0,0-.2,0-.2,0,0,.2-.1.4,0,.2,0,.5,0,.7,0,.2,0,.5.1.5.2ZM82.4-47.8c0,0,.1.2.2.2,0,0,0,.1-.3,0-.2,0-.4-.1-.6-.2-.2,0-.5-.2-.5-.3,0,0,0-.2-.1-.2,0,0,.1,0,.3,0,.2,0,.4,0,.6.2.2,0,.4.2.5.3ZM84-47.1c0,0,.1.2.2.2,0,0,0,.1-.2,0-.2,0-.3-.1-.5-.2-.2,0-.4-.2-.5-.3,0,0-.1-.2-.2-.2,0,0,0,0,.2,0,.2,0,.3.1.5.2.2,0,.4.2.4.3ZM85.3-46.4c0,0,.1.2.2.2,0,0,0,.1,0,0-.1,0-.2-.1-.4-.2-.1,0-.3-.2-.4-.3,0,0-.1-.2-.2-.2,0,0,0,0,.1,0,.1,0,.2.1.4.2.1,0,.3.2.4.3ZM86.3-45.7c0,0,.1.1.2.2,0,0,0,.1,0,0,0,0-.2-.1-.3-.2,0,0-.2-.2-.3-.3,0,0-.1-.1-.2-.2,0,0,0,0,0,0,0,0,.2.1.3.2,0,0,.2.2.3.3ZM79.9-47.1c0-.1,0-.3,0-.4,0-.1-.3-.3-.6-.3-.3,0-.5,0-.8,0-.3,0-.5,0-.5.2,0,.1,0,.3,0,.4,0,.2.3.3.6.3.3,0,.6,0,.9,0,.3,0,.5,0,.5-.3ZM82.1-46.7c0-.1,0-.3-.2-.4,0-.1-.3-.3-.6-.3-.2,0-.5,0-.7-.1-.3,0-.4,0-.4.2,0,.1,0,.2,0,.4,0,.2.3.3.6.4.3,0,.5,0,.8.1.3,0,.4,0,.4-.2ZM85.6-45.5c0-.1-.1-.2-.2-.3,0-.1-.3-.3-.4-.3-.1,0-.3-.1-.4-.2-.2,0-.2,0-.2,0,0,.1.1.2.2.3,0,.1.3.3.4.4.1,0,.3.1.4.2.2,0,.2,0,.1-.1ZM86.8-44.8c0-.1-.1-.2-.2-.3,0-.1-.2-.3-.3-.3,0,0-.2-.1-.3-.2-.1,0-.2,0,0,0,0,.1.1.2.2.3,0,.1.2.3.3.4.1,0,.2.1.3.2.1,0,.1,0,0,0ZM87.7-44.1c0,0-.1-.2-.2-.3,0-.1-.2-.2-.3-.3,0,0-.1-.1-.2-.2,0,0,0,0,0,0,0,0,.1.2.2.3,0,.1.2.3.3.3,0,0,.1.1.2.2,0,0,0,0,0,0ZM78.7-26c0,.1,0,.3,0,.4,0,.1-.3.3-.6.3-.3,0-.6,0-.8,0-.3,0-.6-.1-.6-.3,0-.1,0-.3,0-.4,0-.2.2-.3.6-.3.3,0,.6,0,.9,0,.3,0,.6.1.6.3ZM83.1-26.7c0,.1-.1.3-.2.4,0,.1-.3.3-.5.3-.2,0-.4.1-.6.2-.2,0-.4,0-.4-.1,0-.1,0-.2.1-.4,0-.2.3-.3.6-.4.2,0,.5-.1.7-.2.3,0,.4,0,.3.2ZM79.6-24.8c0,0,0-.2,0-.2,0-.1-.2-.2-.5-.1-.3,0-.5,0-.8,0-.3,0-.5.1-.5.2,0,0,0,.2,0,.2,0,0,.2.1.5.1.2,0,.5,0,.7,0,.3,0,.5-.1.5-.2ZM81.5-25.2c0,0,0-.2.1-.2,0,0,0-.1-.3,0-.2,0-.4,0-.7.1-.3,0-.5.2-.5.2,0,0,0,.2,0,.2,0,0,.1.1.4,0,.2,0,.4,0,.6-.1.2,0,.4-.2.5-.2ZM83.2-25.7c0,0,.1-.2.2-.2,0,0,0-.1-.2,0-.2,0-.4.1-.5.2-.2,0-.4.2-.5.3,0,0-.1.2-.2.2,0,0,0,0,.3,0,.2,0,.3-.1.5-.2.2,0,.4-.2.4-.3ZM84.7-26.4c0,0,.1-.1.2-.2,0,0,0-.1-.1,0-.1,0-.3.1-.4.2-.2,0-.4.2-.4.3,0,0-.1.1-.2.2,0,0,0,0,.1,0,.1,0,.3-.1.4-.2.1,0,.3-.2.4-.3ZM85.8-27.1c0,0,.1-.1.2-.2,0,0,0-.1,0,0,0,0-.2.1-.3.2-.1,0-.3.2-.4.3,0,0-.1.1-.2.2,0,0,0,0,0,0,.1,0,.2-.1.3-.2.1,0,.3-.2.3-.3ZM78.5-24.4s0,0,0,.1c0,0-.2,0-.5,0-.2,0-.4,0-.6,0-.2,0-.4,0-.5,0,0,0,0,0,0-.1,0,0,.2,0,.5,0,.2,0,.5,0,.7,0,.3,0,.5,0,.5,0ZM80.4-24.6s0,0-.1.1c0,0-.2,0-.5.1-.2,0-.4,0-.6,0-.2,0-.4,0-.4,0,0,0,0,0,0-.1,0,0,.2-.1.5-.1.2,0,.4,0,.7,0,.2,0,.4,0,.4,0ZM82-25s0,0-.2.1c0,0-.2.1-.4.2-.2,0-.3,0-.5.1-.2,0-.3,0-.3,0,0,0,0,0,.1-.1,0,0,.3-.1.5-.2.2,0,.4,0,.6-.1.2,0,.3,0,.2,0ZM83.5-25.6c0,0-.1,0-.2.1,0,0-.3.1-.4.2-.1,0-.3.1-.4.2-.2,0-.3,0-.2,0,0,0,.1,0,.2-.1,0,0,.3-.2.4-.2.2,0,.3-.1.5-.2.2,0,.2,0,.2,0ZM76-48.7s0,0,0-.1c0,0,.2,0,.4-.1.2,0,.4,0,.6,0,.2,0,.4,0,.4,0,0,0,0,0,0,.1,0,0-.2.1-.5.1-.2,0-.5,0-.7,0-.2,0-.4,0-.4,0ZM74.2-48.4c0,0,0,0,.1-.1,0,0,.2-.1.4-.2.2,0,.4,0,.5-.1.2,0,.3,0,.3,0,0,0,0,0,0,.1,0,0-.2.1-.5.2-.2,0-.4,0-.6.1-.2,0-.3,0-.3,0ZM72.6-47.9c0,0,.1,0,.2-.1,0,0,.2-.1.4-.2.2,0,.3-.1.5-.2.2,0,.3,0,.2,0,0,0,0,0-.1.1,0,0-.3.1-.4.2-.2,0-.3.1-.5.2-.2,0-.3,0-.2,0ZM71.2-47.3c0,0,.1,0,.2-.1,0,0,.2-.1.4-.2.1,0,.2-.1.4-.2.1,0,.2,0,.1,0,0,0-.1,0-.2.1,0,0-.2.2-.4.2-.1,0-.3.1-.4.2-.1,0-.2,0-.1,0ZM74.8-48.2c0,0,0,.2-.1.2,0,.1.1.2.4.1.2,0,.5,0,.7,0,.3,0,.5-.1.5-.2,0,0,0-.2,0-.2,0,0-.2-.1-.4,0-.2,0-.5,0-.7,0-.3,0-.5.1-.5.2ZM73-47.8c0,0-.1.2-.2.2,0,.1,0,.1.3,0,.2,0,.4-.1.6-.2.2,0,.5-.2.5-.3,0,0,0-.2.1-.2,0,0-.1,0-.3,0-.2,0-.4.1-.6.2-.2,0-.4.2-.5.3ZM71.4-47.2c0,0-.1.2-.2.2,0,0,0,.1.2,0,.2,0,.3-.1.5-.2.2,0,.4-.2.5-.3,0,0,.1-.2.2-.2,0,0,0,0-.2,0-.2,0-.3.1-.5.2-.2,0-.4.2-.4.3ZM70.1-46.4c0,0-.1.2-.2.2,0,0,0,.1,0,0,.1,0,.2-.1.4-.2.1,0,.3-.2.4-.3,0,0,.1-.2.2-.2,0,0,0,0-.1,0-.1,0-.2.1-.4.2-.1,0-.3.2-.4.3ZM69.1-45.7c0,0-.1.1-.2.2,0,0,0,0,0,0,0,0,.2-.1.3-.2,0,0,.2-.2.3-.3,0,0,.1-.2.2-.2,0,0,0,0,0,0,0,0-.2.1-.3.2,0,0-.2.2-.3.3ZM75.5-47.1c0-.1,0-.3,0-.4,0-.1.3-.3.6-.3.3,0,.5,0,.8,0,.3,0,.5,0,.5.2,0,.1,0,.3,0,.4,0,.2-.3.3-.6.3-.3,0-.6,0-.9,0-.3,0-.5,0-.5-.3ZM73.3-46.8c0-.1.1-.3.2-.4,0-.1.3-.3.6-.3.2,0,.5,0,.7-.1.3,0,.5,0,.4.2,0,.1,0,.2,0,.4,0,.2-.3.3-.6.4-.2,0-.5,0-.8.1-.3,0-.4,0-.4-.2ZM71.4-46.2c0-.1.1-.2.2-.4,0-.1.3-.3.5-.3.2,0,.4-.1.6-.2.2,0,.4,0,.3.1,0,.1-.1.2-.2.4,0,.1-.3.3-.5.4-.2,0-.4.1-.6.2-.2,0-.3,0-.2-.1ZM69.8-45.5c0-.1.1-.2.2-.3,0-.1.3-.3.4-.3.1,0,.3-.1.4-.2.2,0,.2,0,.2,0,0,.1-.1.2-.2.3,0,.1-.3.3-.4.4-.2,0-.3.1-.5.2-.2,0-.2,0-.1-.1ZM68.6-44.8c0-.1.1-.2.2-.3,0-.1.2-.3.3-.3.1,0,.2-.1.3-.2.1,0,.2,0,0,0,0,.1-.1.2-.2.3,0,.1-.2.3-.4.4-.1,0-.2.1-.3.2-.1,0-.1,0,0,0ZM67.8-44.1c0,0,.1-.2.2-.3,0,0,.2-.2.2-.3,0,0,.1-.1.2-.2,0,0,0,0,0,0,0,0-.1.2-.2.3,0,.1-.2.3-.3.3,0,0-.1.1-.2.2,0,0,0,0,0,0ZM74.1-46c0,.2,0,.4-.1.6,0,.2.2.4.5.4.3,0,.6,0,.9,0,.3,0,.6-.2.7-.5,0-.2,0-.4,0-.6,0-.2-.2-.3-.5-.3-.3,0-.6,0-.9,0-.3,0-.6.2-.6.4ZM71.9-45.5c0,.2-.1.4-.2.6,0,.2.1.3.4.3.2,0,.5-.1.8-.1.3,0,.6-.3.6-.5,0-.2,0-.4.1-.6,0-.2-.1-.3-.4-.2-.2,0-.5.1-.7.2-.3,0-.5.3-.6.5ZM70-44.9c0,.2-.1.3-.2.5,0,.2,0,.3.2.2.2,0,.4-.1.6-.2.2,0,.5-.3.5-.5,0-.2.1-.3.2-.5,0-.2,0-.3-.3-.2-.2,0-.4.1-.6.2-.2,0-.4.3-.5.4ZM68.6-44.2c0,.1-.1.3-.2.4,0,.2,0,.3.1.2.1,0,.3-.1.4-.2.2,0,.3-.3.4-.5,0-.2.1-.3.2-.5,0-.2,0-.2-.1-.1-.1,0-.3.1-.4.2-.1,0-.3.3-.4.4ZM67.6-43.5c0,.1-.1.3-.2.4,0,.1,0,.2,0,.2,0,0,.2-.1.3-.2,0,0,.2-.3.3-.4,0-.1.1-.3.2-.4,0-.1,0-.2,0-.1,0,0-.2.1-.3.2,0,0-.2.2-.3.4ZM66.9-42.8c0,.1-.1.2-.2.3,0,.1,0,.2,0,.1,0,0,0-.1.2-.2,0,0,.2-.2.2-.4,0-.1.1-.2.2-.4,0-.1,0-.2,0-.1,0,0-.1.1-.2.2,0,0-.1.2-.2.3ZM70.2-42.7c0-.2.1-.4.2-.7,0-.2.3-.5.5-.5.2,0,.4-.1.7-.2.2,0,.4,0,.4.3,0,.2,0,.4-.1.7,0,.3-.3.5-.6.6-.2,0-.5,0-.7.1-.2,0-.4-.1-.3-.4ZM68.4-42.2c0-.2.1-.4.2-.6,0-.2.2-.4.4-.5.2,0,.3-.1.5-.2.2,0,.3,0,.2.3,0,.2-.1.4-.2.6,0,.2-.3.5-.4.5-.2,0-.3,0-.5.1-.2,0-.3,0-.2-.3ZM67.2-41.7c0-.2.1-.3.2-.5,0-.2.2-.4.3-.4.1,0,.2-.1.3-.2.1,0,.2,0,.1.2,0,.2-.1.4-.2.5,0,.2-.2.4-.3.5-.1,0-.2,0-.3.1-.1,0-.1,0,0-.2ZM66.4-41.2c0-.1,0-.3.1-.4,0-.2.1-.3.2-.4,0,0,.1-.1.2-.2,0,0,0,0,0,.2,0,.1,0,.3-.1.4,0,.2-.1.3-.2.4,0,0-.1,0-.2.1,0,0,0,0,0-.2ZM66-40.7c0-.1,0-.2.1-.4,0-.1.1-.3.1-.3,0,0,0,0,0-.1,0,0,0,0,0,.2,0,.1,0,.2-.1.4,0,.1-.1.3-.2.3,0,0,0,0,0,.1,0,0,0,0,0-.2ZM68.9-40.9c0,.2,0,.5-.1.8,0,.3.1.5.3.5.2,0,.4,0,.6,0,.2,0,.5-.3.5-.6,0-.3,0-.5.1-.8,0-.3-.1-.5-.4-.4-.2,0-.4,0-.6.1-.2,0-.4.3-.5.6ZM67.4-40.5c0,.2,0,.4-.1.7,0,.2,0,.4.2.4.1,0,.3,0,.4,0,.2,0,.3-.3.4-.5,0-.2,0-.5.1-.7,0-.2,0-.4-.2-.4-.1,0-.3,0-.4.1-.1,0-.3.3-.3.5ZM66.4-40c0,.2,0,.4-.1.5,0,.2,0,.4,0,.3,0,0,.2,0,.2,0,0,0,.2-.2.2-.5,0-.2,0-.4.1-.6,0-.2,0-.3-.1-.3,0,0-.2,0-.2.1,0,0-.2.2-.2.4ZM65.8-39.6c0,.1,0,.3,0,.4,0,.2,0,.3,0,.3,0,0,0,0,.1,0,0,0,.1-.2.2-.4,0-.2,0-.3,0-.5,0-.2,0-.3,0-.2,0,0,0,0-.1,0,0,0-.1.2-.1.4ZM65.5-39.3c0,.1,0,.2,0,.4,0,.1,0,.2,0,.2,0,0,0,0,0,0,0,0,0-.2,0-.3,0-.1,0-.3,0-.4,0-.1,0-.2,0-.2,0,0,0,0,0,0,0,0,0,.2,0,.3ZM67.8-37.5c0-.3,0-.5,0-.7,0-.3.2-.5.3-.5.2,0,.3,0,.5,0,.2,0,.3.2.3.5,0,.3,0,.5,0,.8,0,.3-.2.5-.4.5-.2,0-.3,0-.5,0-.2,0-.3-.2-.3-.5ZM66.5-37.4c0-.2,0-.4,0-.6,0-.2.1-.4.2-.4,0,0,.2,0,.3,0,.1,0,.2.2.2.4,0,.2,0,.4,0,.7,0,.3-.1.5-.2.5-.1,0-.2,0-.3,0-.1,0-.2-.2-.2-.4ZM65.8-37.4c0-.2,0-.3,0-.5,0-.2,0-.4.1-.4,0,0,.1,0,.2,0,0,0,.1.1,0,.3,0,.2,0,.4,0,.5,0,.2,0,.4-.1.4,0,0-.1,0-.2,0,0,0,0-.1,0-.3ZM65.4-37.3c0-.1,0-.3,0-.4,0-.1,0-.3,0-.3,0,0,0,0,0,0,0,0,0,.1,0,.3,0,.1,0,.3,0,.4,0,.2,0,.3,0,.3,0,0,0,0,0,0,0,0,0-.1,0-.3ZM65.2-37.2c0-.1,0-.2,0-.3,0-.1,0-.2,0-.2,0,0,0,0,0,0,0,0,0,0,0,.2,0,.1,0,.2,0,.4,0,.1,0,.2,0,.2,0,0,0,0,0,0,0,0,0,0,0-.2ZM68.6-35.6c0,.3,0,.6,0,.8,0,.3.2.6.4.6.2,0,.4,0,.6,0,.2,0,.4-.2.4-.5,0-.3,0-.6,0-.9,0-.3-.2-.6-.5-.6-.2,0-.4,0-.6,0-.2,0-.4.2-.4.5ZM67.1-35.7c0,.2,0,.5,0,.7,0,.3.2.5.3.5.1,0,.3,0,.4,0,.2,0,.3-.2.3-.5,0-.2,0-.5,0-.7,0-.3-.2-.5-.3-.5-.1,0-.3,0-.4,0-.1,0-.2.2-.2.5ZM66.1-35.7c0,.2,0,.4,0,.6,0,.2,0,.4.2.4,0,0,.2,0,.2,0,0,0,.2-.1.1-.4,0-.2,0-.4,0-.6,0-.2,0-.4-.2-.4,0,0-.2,0-.2,0,0,0-.1.2-.1.4ZM65.5-35.8c0,.2,0,.3,0,.5,0,.2,0,.3.1.3,0,0,0,0,.1,0,0,0,0-.1,0-.3,0-.2,0-.3,0-.5,0-.2,0-.4-.1-.4,0,0,0,0-.1,0,0,0,0,.1,0,.3ZM65.3-35.9c0,.1,0,.3,0,.4,0,.1,0,.3,0,.3,0,0,0,0,0,0,0,0,0,0,0-.2,0-.1,0-.3,0-.4,0-.2,0-.3,0-.3,0,0,0,0,0,0,0,0,0,.1,0,.2ZM68.1-32.4c0-.2,0-.5-.1-.7,0-.2,0-.4.2-.4.2,0,.3,0,.5,0,.2,0,.4.3.4.6,0,.2,0,.5.1.7,0,.3,0,.4-.3.4-.2,0-.3,0-.5-.1-.2,0-.3-.3-.4-.5ZM66.9-32.9c0-.2,0-.4-.1-.6,0-.2,0-.4.1-.3.1,0,.2,0,.3,0,.1,0,.3.2.3.5,0,.2,0,.4.1.6,0,.2,0,.4-.1.3-.1,0-.2,0-.3-.1-.1,0-.2-.2-.3-.4ZM66.1-33.3c0-.2,0-.3,0-.5,0-.2,0-.3,0-.3,0,0,.1,0,.2,0,0,0,.2.2.2.4,0,.2,0,.3,0,.5,0,.2,0,.3,0,.3,0,0-.1,0-.2-.1,0,0-.1-.2-.2-.4ZM65.6-33.7c0-.1,0-.3,0-.4,0-.1,0-.2,0-.2,0,0,0,0,0,0,0,0,0,.2.1.3,0,.1,0,.3,0,.4,0,.2,0,.2,0,.2,0,0,0,0,0,0,0,0,0-.2-.1-.3ZM69.2-30.6c0,.2.1.4.2.6,0,.2.3.5.5.5.2,0,.4.1.6.2.2,0,.4,0,.3-.3,0-.2-.1-.4-.2-.7,0-.3-.3-.5-.5-.6-.2,0-.4,0-.6-.2-.2,0-.3.1-.3.4ZM67.8-31.2c0,.2.1.4.2.6,0,.2.2.4.4.5.1,0,.3.1.4.2.2,0,.2,0,.2-.3,0-.2-.1-.4-.2-.6,0-.2-.2-.5-.4-.5-.1,0-.3-.1-.4-.2-.1,0-.2,0-.1.3ZM66.8-31.7c0,.2.1.3.2.5,0,.2.2.4.3.4,0,0,.2.1.3.2.1,0,.1,0,0-.2,0-.2-.1-.3-.2-.5,0-.2-.2-.4-.3-.5,0,0-.2,0-.2-.1,0,0-.1,0,0,.2ZM66.2-32.2c0,.1,0,.3.1.4,0,.1.1.3.2.4,0,0,0,.1.1.1,0,0,0,0,0-.2,0-.1,0-.3-.1-.4,0-.2-.1-.3-.2-.4,0,0,0,0-.1-.1,0,0,0,0,0,.2ZM65.8-32.7c0,.1,0,.2.1.3,0,.1,0,.3.1.3,0,0,0,0,0,.1,0,0,0,0,0-.1,0-.1,0-.2-.1-.4,0-.1,0-.3-.1-.3,0,0,0,0,0,0,0,0,0,0,0,.2ZM73-27.4c0-.2,0-.4-.2-.6,0-.2.1-.4.4-.3.3,0,.5,0,.8.1.3,0,.6.3.6.5,0,.2,0,.4,0,.6,0,.2-.2.3-.5.3-.3,0-.5,0-.8-.1-.3,0-.5-.2-.6-.4ZM70.9-27.9c0-.2-.1-.3-.2-.5,0-.2,0-.3.3-.2.2,0,.4.1.6.2.2,0,.5.3.6.5,0,.2,0,.3.2.5,0,.2,0,.3-.3.2-.2,0-.4-.1-.6-.2-.2,0-.4-.3-.5-.4ZM69.3-28.6c0-.2-.1-.3-.2-.5,0-.2,0-.3.2-.2.2,0,.3.1.5.2.2,0,.4.3.5.5,0,.2.1.3.2.5,0,.2,0,.2-.2.2-.2,0-.3-.1-.5-.2-.2,0-.3-.3-.4-.4ZM68.1-29.3c0-.1-.1-.3-.2-.4,0-.1,0-.2,0-.2,0,0,.2.1.3.2.1,0,.3.3.3.4,0,.1.1.3.2.4,0,.1,0,.2,0,.1-.1,0-.2-.1-.3-.2-.1,0-.3-.2-.3-.4ZM67.2-30c0-.1-.1-.2-.2-.4,0-.1,0-.2,0-.1,0,0,.1.1.2.2,0,0,.2.2.3.4,0,.1.1.2.2.4,0,.1,0,.2,0,.1,0,0-.1-.1-.2-.2,0,0-.2-.2-.2-.3ZM66.7-30.7c0-.1-.1-.2-.1-.3,0-.1,0-.2,0-.1,0,0,0,0,.1.1,0,0,.1.2.2.3,0,.1.1.2.2.3,0,.1,0,.1,0,0,0,0,0-.1-.1-.2,0,0-.1-.2-.2-.3ZM74.4-26.2c0,.1,0,.3.1.4,0,.1.3.3.6.3.3,0,.5,0,.8,0,.3,0,.5,0,.5-.2,0-.1,0-.3,0-.4,0-.2-.3-.3-.6-.3-.3,0-.6,0-.8,0-.3,0-.5,0-.5.2ZM72.3-26.6c0,.1.1.3.2.4,0,.1.3.3.5.3.2,0,.4.1.6.2.2,0,.4,0,.4-.1,0-.1,0-.2-.1-.4,0-.2-.3-.3-.6-.4-.2,0-.5-.1-.7-.2-.2,0-.4,0-.3.2ZM70.5-27.3c0,.1.1.2.2.4,0,.1.3.3.5.4.2,0,.3.1.5.2.2,0,.3,0,.2,0,0-.1-.1-.2-.2-.4,0-.1-.3-.3-.5-.4-.2,0-.4-.1-.5-.2-.2,0-.3,0-.2.1ZM69.2-28c0,.1.2.2.2.3,0,.1.3.3.4.4.1,0,.2.1.4.2.1,0,.2,0,.1,0,0-.1-.1-.2-.2-.3,0-.1-.3-.3-.4-.4-.1,0-.3-.1-.4-.2-.1,0-.2,0,0,0ZM68.2-28.7c0,.1.1.2.2.3,0,.1.2.2.3.3,0,0,.2.1.3.2.1,0,.1,0,0,0,0-.1-.1-.2-.2-.3,0-.1-.2-.3-.3-.4,0,0-.2-.1-.3-.2,0,0-.1,0,0,0ZM67.5-29.4c0,0,.1.2.2.3,0,0,.2.2.2.3,0,0,.1.1.2.2,0,0,0,0,0,0,0,0-.1-.2-.2-.3,0-.1-.2-.3-.2-.3,0,0-.1-.1-.2-.2,0,0,0,0,0,0ZM75.8-24.8c0,0,0-.2,0-.2,0-.1.2-.2.4-.1.3,0,.5,0,.8,0,.3,0,.5.1.5.2,0,0,0,.2,0,.2,0,0-.2.1-.5.1-.2,0-.5,0-.7,0-.3,0-.5-.1-.5-.2ZM73.9-25.2c0,0,0-.2-.1-.2,0,0,0-.1.3,0,.2,0,.4,0,.7.1.3,0,.5.2.5.2,0,0,0,.2,0,.2,0,0-.1.1-.4,0-.2,0-.4,0-.6-.1-.2,0-.4-.2-.5-.2ZM72.2-25.7c0,0-.1-.2-.2-.2,0,0,0-.1.2,0,.2,0,.4.1.5.2.2,0,.4.2.5.3,0,0,0,.2.2.2,0,0,0,0-.3,0-.2,0-.3-.1-.5-.2-.2,0-.4-.2-.5-.3ZM70.7-26.4c0,0-.1-.1-.2-.2,0,0,0-.1.1,0,.1,0,.3.1.4.2.2,0,.4.2.4.3,0,0,.1.2.2.2,0,0,0,0-.2,0-.1,0-.3-.1-.4-.2-.1,0-.3-.2-.4-.3ZM69.6-27.1c0,0-.1-.1-.2-.2,0,0,0,0,0,0,.1,0,.2.1.3.2.1,0,.3.2.4.3,0,0,.1.1.2.2,0,0,0,0,0,0-.1,0-.2-.1-.3-.2-.1,0-.2-.2-.3-.3ZM75.1-24.6s0,0,.1.1c0,0,.2,0,.5.1.2,0,.4,0,.6,0,.2,0,.4,0,.4,0,0,0,0,0,0-.1,0,0-.2-.1-.5-.1-.2,0-.4,0-.7,0-.2,0-.4,0-.4,0ZM73.4-25s.1,0,.2.1c0,0,.3.1.5.2.2,0,.3,0,.5.1.2,0,.3,0,.3,0,0,0,0,0-.1-.1,0,0-.3-.1-.5-.2-.2,0-.4,0-.6-.1-.2,0-.3,0-.3,0ZM71.9-25.6c0,0,.1,0,.2.1,0,0,.3.1.4.2.1,0,.3.1.4.2.2,0,.3,0,.2,0,0,0-.1,0-.2-.1,0,0-.3-.2-.4-.2-.2,0-.3-.1-.5-.2-.2,0-.2,0-.2,0ZM76.5-24.1c.2,0,.3,0,.5,0,0,0,0,0,.1,0,0,0,.1,0,.2,0,.2,0,.3,0,.3,0,0,0,0,0,0,0,0,0-.2,0-.4,0-.2,0-.4,0-.6,0-.2,0-.4,0-.4,0,0,0,0,0,0,0,0,0,.1,0,.3,0ZM74.7-24.4c.4,0,.7.2,1.1.2,0,0,0,0,0,0,0,0,0,0,0,0,0,0-.2,0-.4,0-.2,0-.4,0-.5-.1-.2,0-.3,0-.3,0,0,0,0,0,.1,0,0,0,0,0,0,0ZM72.4-25.3c0,0,.2,0,.3.1,0,0-.2,0-.2-.1t0,0ZM70.6-26.3s0,0,0,0h0c0,0,0,0,0,0,.1,0,.2.1.4.2.1,0,.3.2.4.2,0,0,.1,0,.2.1,0,0,0,0-.1,0q0,0-.2,0c-.2-.1-.4-.2-.5-.3h0q-.1,0-.2-.1h0ZM69.9-26.8c.1,0,.2.2.4.3t0,0c0,0-.2-.2-.3-.2,0,0,0,0,0,0ZM65.5-34.1c0,0,0,.1,0,.2h0c0,0,0,.1,0,.1,0,0,0,0,0,0,0,0,0,0,0-.2,0-.1,0-.2,0-.3,0-.1,0-.2,0-.3,0,0,0,0,0,0,0,0,0,0,0,.2q0,.1,0,.3h0ZM65.2-36.1c0,.3,0,.5,0,.8,0,0,0,0,0-.2,0-.1,0-.2,0-.3,0,0,0-.2,0-.2ZM65.5-39.1c0,.2,0,.4,0,.5,0,0,0-.1,0-.2,0,0,0-.2,0-.3,0,0,0,0,0,0ZM68.7-45.2c-.1.1-.2.2-.3.3,0,0,.2-.2.2-.3,0,0,0,0,0,0ZM75.1-48.8c-.4,0-.8.2-1.1.3h0q0,0-.1,0s0,0,.2,0c.2,0,.3,0,.5-.1.2,0,.4,0,.4-.1,0,0,0,0,.1,0,0,0,0,0,0,0ZM76.4-49c-.3,0-.5,0-.8.1,0,0-.1,0-.1,0,0,0,0,0-.1,0,0,0,.1,0,.3,0,.2,0,.4,0,.6,0,.2,0,.4,0,.4,0,0,0,0,0,0,0,0,0-.1,0-.3,0h0ZM79.8-48.9c-.3,0-.5,0-.8-.1-.2,0-.3,0-.3,0,0,0,0,0,0,0,0,0,.2,0,.4,0,.2,0,.4,0,.6,0,.2,0,.4,0,.3,0,0,0,0,0,0,0,0,0,0,0-.1,0h0ZM81.5-48.5c-.4-.1-.8-.2-1.1-.3,0,0,0,0,0,0,0,0,0,0,.1,0,0,0,.2,0,.4.1.2,0,.3,0,.5.1.2,0,.3,0,.2,0q0,0-.1,0ZM86.8-45.2s0,0,0,0c0,0,0,0,0,0ZM87.1-44.9c0-.1-.2-.2-.3-.3h0c0,.1.2.2.3.3ZM85.1-26.5c.1,0,.2-.2.4-.3h0c0,.1-.2.2-.3.3t0,0h0ZM84-25.8c.2-.1.4-.2.5-.3,0,0,0,0,.2-.1h0s0,0,0,0h0c0,0,0,0,0,0-.1,0-.2.1-.4.2-.1,0-.3.2-.4.2,0,0-.1,0-.2.1,0,0,0,0,.1,0,0,0,0,0,.2,0ZM82.8-25.2c0,0,.2,0,.3-.1h0s0,0,0,0c0,0-.2,0-.2.1h0ZM79.6-24.2c.4,0,.7-.1,1.1-.2,0,0,0,0,0,0,0,0,0,0,.1,0,0,0,0,0-.3,0-.2,0-.4,0-.5.1-.2,0-.4,0-.4,0,0,0,0,0,0,0,0,0,0,0,0,0ZM78.1-24.1c0,0,.1,0,.2,0,0,0,0,0,.1,0,.2,0,.3,0,.5,0h0c.1,0,.2,0,.3,0,0,0,0,0,0,0,0,0-.1,0-.4,0-.2,0-.4,0-.6,0-.2,0-.4,0-.4,0,0,0,0,0,0,0,0,0,.1,0,.3,0ZM78.4-49.1s0,0,0,0c0,0-.2,0-.4,0-.2,0-.4,0-.6,0-.2,0-.4,0-.4,0,0,0,0,0,0,0,0,0,.2,0,.4,0,0,0,.1,0,.2,0,0,0,.2,0,.2,0,0,0,.1,0,.2,0,.2,0,.4,0,.4,0ZM79.5-48.7s0,0,0-.1c0,0-.2,0-.5-.1-.2,0-.4,0-.6,0-.2,0-.4,0-.4,0,0,0,0,0,0,.1,0,0,.2.1.5.1.2,0,.4,0,.7,0,.3,0,.4,0,.4,0Z"></path></clipPath></defs><g><g><path class="cls-2" d="M81.2-48.4s0,0-.1-.1c0,0-.3-.1-.4-.2-.2,0-.4,0-.6-.1-.2,0-.3,0-.3,0,0,0,0,0,0,.1,0,0,.2.1.5.2.2,0,.4,0,.6.1.2,0,.4,0,.3,0M82.8-47.9c0,0-.1,0-.2-.1,0,0-.3-.1-.4-.2-.2,0-.3-.1-.5-.2-.2,0-.3,0-.2,0,0,0,.1,0,.2.1,0,0,.2.1.4.2.2,0,.3.1.5.2.2,0,.3,0,.2,0ZM84.2-47.2c0,0-.1,0-.2-.1,0,0-.2-.1-.4-.2-.1,0-.2-.1-.4-.2-.1,0-.2,0-.1,0,0,0,.1,0,.2.1,0,0,.3.2.4.2.1,0,.3.1.4.2.1,0,.2,0,.1,0ZM78.6-48.4c0,0,0,.2,0,.3,0,.1-.2.2-.5.2-.3,0-.5,0-.8,0-.3,0-.5,0-.5-.2,0,0,0-.2,0-.3,0,0,.3-.2.5-.2.3,0,.5,0,.7,0,.3,0,.5,0,.5.2ZM80.6-48.2c0,0,0,.2.1.2,0,.1-.1.2-.4.1-.3,0-.5,0-.8,0-.3,0-.5-.1-.5-.2,0,0,0-.2,0-.2,0,0,.2-.1.4,0,.2,0,.5,0,.7,0,.2,0,.5.1.5.2ZM82.4-47.8c0,0,.1.2.2.2,0,0,0,.1-.3,0-.2,0-.4-.1-.6-.2-.2,0-.5-.2-.5-.3,0,0,0-.2-.1-.2,0,0,.1,0,.3,0,.2,0,.4,0,.6.2.2,0,.4.2.5.3ZM84-47.1c0,0,.1.2.2.2,0,0,0,.1-.2,0-.2,0-.3-.1-.5-.2-.2,0-.4-.2-.5-.3,0,0-.1-.2-.2-.2,0,0,0,0,.2,0,.2,0,.3.1.5.2.2,0,.4.2.4.3ZM85.3-46.4c0,0,.1.2.2.2,0,0,0,.1,0,0-.1,0-.2-.1-.4-.2-.1,0-.3-.2-.4-.3,0,0-.1-.2-.2-.2,0,0,0,0,.1,0,.1,0,.2.1.4.2.1,0,.3.2.4.3ZM86.3-45.7c0,0,.1.1.2.2,0,0,0,.1,0,0,0,0-.2-.1-.3-.2,0,0-.2-.2-.3-.3,0,0-.1-.1-.2-.2,0,0,0,0,0,0,0,0,.2.1.3.2,0,0,.2.2.3.3ZM79.9-47.1c0-.1,0-.3,0-.4,0-.1-.3-.3-.6-.3-.3,0-.5,0-.8,0-.3,0-.5,0-.5.2,0,.1,0,.3,0,.4,0,.2.3.3.6.3.3,0,.6,0,.9,0,.3,0,.5,0,.5-.3ZM82.1-46.7c0-.1,0-.3-.2-.4,0-.1-.3-.3-.6-.3-.2,0-.5,0-.7-.1-.3,0-.4,0-.4.2,0,.1,0,.2,0,.4,0,.2.3.3.6.4.3,0,.5,0,.8.1.3,0,.4,0,.4-.2ZM85.6-45.5c0-.1-.1-.2-.2-.3,0-.1-.3-.3-.4-.3-.1,0-.3-.1-.4-.2-.2,0-.2,0-.2,0,0,.1.1.2.2.3,0,.1.3.3.4.4.1,0,.3.1.4.2.2,0,.2,0,.1-.1ZM86.8-44.8c0-.1-.1-.2-.2-.3,0-.1-.2-.3-.3-.3,0,0-.2-.1-.3-.2-.1,0-.2,0,0,0,0,.1.1.2.2.3,0,.1.2.3.3.4.1,0,.2.1.3.2.1,0,.1,0,0,0ZM87.7-44.1c0,0-.1-.2-.2-.3,0-.1-.2-.2-.3-.3,0,0-.1-.1-.2-.2,0,0,0,0,0,0,0,0,.1.2.2.3,0,.1.2.3.3.3,0,0,.1.1.2.2,0,0,0,0,0,0ZM78.7-26c0,.1,0,.3,0,.4,0,.1-.3.3-.6.3-.3,0-.6,0-.8,0-.3,0-.6-.1-.6-.3,0-.1,0-.3,0-.4,0-.2.2-.3.6-.3.3,0,.6,0,.9,0,.3,0,.6.1.6.3ZM83.1-26.7c0,.1-.1.3-.2.4,0,.1-.3.3-.5.3-.2,0-.4.1-.6.2-.2,0-.4,0-.4-.1,0-.1,0-.2.1-.4,0-.2.3-.3.6-.4.2,0,.5-.1.7-.2.3,0,.4,0,.3.2ZM79.6-24.8c0,0,0-.2,0-.2,0-.1-.2-.2-.5-.1-.3,0-.5,0-.8,0-.3,0-.5.1-.5.2,0,0,0,.2,0,.2,0,0,.2.1.5.1.2,0,.5,0,.7,0,.3,0,.5-.1.5-.2ZM81.5-25.2c0,0,0-.2.1-.2,0,0,0-.1-.3,0-.2,0-.4,0-.7.1-.3,0-.5.2-.5.2,0,0,0,.2,0,.2,0,0,.1.1.4,0,.2,0,.4,0,.6-.1.2,0,.4-.2.5-.2ZM83.2-25.7c0,0,.1-.2.2-.2,0,0,0-.1-.2,0-.2,0-.4.1-.5.2-.2,0-.4.2-.5.3,0,0-.1.2-.2.2,0,0,0,0,.3,0,.2,0,.3-.1.5-.2.2,0,.4-.2.4-.3ZM84.7-26.4c0,0,.1-.1.2-.2,0,0,0-.1-.1,0-.1,0-.3.1-.4.2-.2,0-.4.2-.4.3,0,0-.1.1-.2.2,0,0,0,0,.1,0,.1,0,.3-.1.4-.2.1,0,.3-.2.4-.3ZM85.8-27.1c0,0,.1-.1.2-.2,0,0,0-.1,0,0,0,0-.2.1-.3.2-.1,0-.3.2-.4.3,0,0-.1.1-.2.2,0,0,0,0,0,0,.1,0,.2-.1.3-.2.1,0,.3-.2.3-.3ZM78.5-24.4s0,0,0,.1c0,0-.2,0-.5,0-.2,0-.4,0-.6,0-.2,0-.4,0-.5,0,0,0,0,0,0-.1,0,0,.2,0,.5,0,.2,0,.5,0,.7,0,.3,0,.5,0,.5,0ZM80.4-24.6s0,0-.1.1c0,0-.2,0-.5.1-.2,0-.4,0-.6,0-.2,0-.4,0-.4,0,0,0,0,0,0-.1,0,0,.2-.1.5-.1.2,0,.4,0,.7,0,.2,0,.4,0,.4,0ZM82-25s0,0-.2.1c0,0-.2.1-.4.2-.2,0-.3,0-.5.1-.2,0-.3,0-.3,0,0,0,0,0,.1-.1,0,0,.3-.1.5-.2.2,0,.4,0,.6-.1.2,0,.3,0,.2,0ZM83.5-25.6c0,0-.1,0-.2.1,0,0-.3.1-.4.2-.1,0-.3.1-.4.2-.2,0-.3,0-.2,0,0,0,.1,0,.2-.1,0,0,.3-.2.4-.2.2,0,.3-.1.5-.2.2,0,.2,0,.2,0ZM76-48.7s0,0,0-.1c0,0,.2,0,.4-.1.2,0,.4,0,.6,0,.2,0,.4,0,.4,0,0,0,0,0,0,.1,0,0-.2.1-.5.1-.2,0-.5,0-.7,0-.2,0-.4,0-.4,0ZM74.2-48.4c0,0,0,0,.1-.1,0,0,.2-.1.4-.2.2,0,.4,0,.5-.1.2,0,.3,0,.3,0,0,0,0,0,0,.1,0,0-.2.1-.5.2-.2,0-.4,0-.6.1-.2,0-.3,0-.3,0ZM72.6-47.9c0,0,.1,0,.2-.1,0,0,.2-.1.4-.2.2,0,.3-.1.5-.2.2,0,.3,0,.2,0,0,0,0,0-.1.1,0,0-.3.1-.4.2-.2,0-.3.1-.5.2-.2,0-.3,0-.2,0ZM71.2-47.3c0,0,.1,0,.2-.1,0,0,.2-.1.4-.2.1,0,.2-.1.4-.2.1,0,.2,0,.1,0,0,0-.1,0-.2.1,0,0-.2.2-.4.2-.1,0-.3.1-.4.2-.1,0-.2,0-.1,0ZM74.8-48.2c0,0,0,.2-.1.2,0,.1.1.2.4.1.2,0,.5,0,.7,0,.3,0,.5-.1.5-.2,0,0,0-.2,0-.2,0,0-.2-.1-.4,0-.2,0-.5,0-.7,0-.3,0-.5.1-.5.2ZM73-47.8c0,0-.1.2-.2.2,0,.1,0,.1.3,0,.2,0,.4-.1.6-.2.2,0,.5-.2.5-.3,0,0,0-.2.1-.2,0,0-.1,0-.3,0-.2,0-.4.1-.6.2-.2,0-.4.2-.5.3ZM71.4-47.2c0,0-.1.2-.2.2,0,0,0,.1.2,0,.2,0,.3-.1.5-.2.2,0,.4-.2.5-.3,0,0,.1-.2.2-.2,0,0,0,0-.2,0-.2,0-.3.1-.5.2-.2,0-.4.2-.4.3ZM70.1-46.4c0,0-.1.2-.2.2,0,0,0,.1,0,0,.1,0,.2-.1.4-.2.1,0,.3-.2.4-.3,0,0,.1-.2.2-.2,0,0,0,0-.1,0-.1,0-.2.1-.4.2-.1,0-.3.2-.4.3ZM69.1-45.7c0,0-.1.1-.2.2,0,0,0,0,0,0,0,0,.2-.1.3-.2,0,0,.2-.2.3-.3,0,0,.1-.2.2-.2,0,0,0,0,0,0,0,0-.2.1-.3.2,0,0-.2.2-.3.3ZM75.5-47.1c0-.1,0-.3,0-.4,0-.1.3-.3.6-.3.3,0,.5,0,.8,0,.3,0,.5,0,.5.2,0,.1,0,.3,0,.4,0,.2-.3.3-.6.3-.3,0-.6,0-.9,0-.3,0-.5,0-.5-.3ZM73.3-46.8c0-.1.1-.3.2-.4,0-.1.3-.3.6-.3.2,0,.5,0,.7-.1.3,0,.5,0,.4.2,0,.1,0,.2,0,.4,0,.2-.3.3-.6.4-.2,0-.5,0-.8.1-.3,0-.4,0-.4-.2ZM71.4-46.2c0-.1.1-.2.2-.4,0-.1.3-.3.5-.3.2,0,.4-.1.6-.2.2,0,.4,0,.3.1,0,.1-.1.2-.2.4,0,.1-.3.3-.5.4-.2,0-.4.1-.6.2-.2,0-.3,0-.2-.1ZM69.8-45.5c0-.1.1-.2.2-.3,0-.1.3-.3.4-.3.1,0,.3-.1.4-.2.2,0,.2,0,.2,0,0,.1-.1.2-.2.3,0,.1-.3.3-.4.4-.2,0-.3.1-.5.2-.2,0-.2,0-.1-.1ZM68.6-44.8c0-.1.1-.2.2-.3,0-.1.2-.3.3-.3.1,0,.2-.1.3-.2.1,0,.2,0,0,0,0,.1-.1.2-.2.3,0,.1-.2.3-.4.4-.1,0-.2.1-.3.2-.1,0-.1,0,0,0ZM67.8-44.1c0,0,.1-.2.2-.3,0,0,.2-.2.2-.3,0,0,.1-.1.2-.2,0,0,0,0,0,0,0,0-.1.2-.2.3,0,.1-.2.3-.3.3,0,0-.1.1-.2.2,0,0,0,0,0,0ZM74.1-46c0,.2,0,.4-.1.6,0,.2.2.4.5.4.3,0,.6,0,.9,0,.3,0,.6-.2.7-.5,0-.2,0-.4,0-.6,0-.2-.2-.3-.5-.3-.3,0-.6,0-.9,0-.3,0-.6.2-.6.4ZM71.9-45.5c0,.2-.1.4-.2.6,0,.2.1.3.4.3.2,0,.5-.1.8-.1.3,0,.6-.3.6-.5,0-.2,0-.4.1-.6,0-.2-.1-.3-.4-.2-.2,0-.5.1-.7.2-.3,0-.5.3-.6.5ZM70-44.9c0,.2-.1.3-.2.5,0,.2,0,.3.2.2.2,0,.4-.1.6-.2.2,0,.5-.3.5-.5,0-.2.1-.3.2-.5,0-.2,0-.3-.3-.2-.2,0-.4.1-.6.2-.2,0-.4.3-.5.4ZM68.6-44.2c0,.1-.1.3-.2.4,0,.2,0,.3.1.2.1,0,.3-.1.4-.2.2,0,.3-.3.4-.5,0-.2.1-.3.2-.5,0-.2,0-.2-.1-.1-.1,0-.3.1-.4.2-.1,0-.3.3-.4.4ZM67.6-43.5c0,.1-.1.3-.2.4,0,.1,0,.2,0,.2,0,0,.2-.1.3-.2,0,0,.2-.3.3-.4,0-.1.1-.3.2-.4,0-.1,0-.2,0-.1,0,0-.2.1-.3.2,0,0-.2.2-.3.4ZM66.9-42.8c0,.1-.1.2-.2.3,0,.1,0,.2,0,.1,0,0,0-.1.2-.2,0,0,.2-.2.2-.4,0-.1.1-.2.2-.4,0-.1,0-.2,0-.1,0,0-.1.1-.2.2,0,0-.1.2-.2.3ZM70.2-42.7c0-.2.1-.4.2-.7,0-.2.3-.5.5-.5.2,0,.4-.1.7-.2.2,0,.4,0,.4.3,0,.2,0,.4-.1.7,0,.3-.3.5-.6.6-.2,0-.5,0-.7.1-.2,0-.4-.1-.3-.4ZM68.4-42.2c0-.2.1-.4.2-.6,0-.2.2-.4.4-.5.2,0,.3-.1.5-.2.2,0,.3,0,.2.3,0,.2-.1.4-.2.6,0,.2-.3.5-.4.5-.2,0-.3,0-.5.1-.2,0-.3,0-.2-.3ZM67.2-41.7c0-.2.1-.3.2-.5,0-.2.2-.4.3-.4.1,0,.2-.1.3-.2.1,0,.2,0,.1.2,0,.2-.1.4-.2.5,0,.2-.2.4-.3.5-.1,0-.2,0-.3.1-.1,0-.1,0,0-.2ZM66.4-41.2c0-.1,0-.3.1-.4,0-.2.1-.3.2-.4,0,0,.1-.1.2-.2,0,0,0,0,0,.2,0,.1,0,.3-.1.4,0,.2-.1.3-.2.4,0,0-.1,0-.2.1,0,0,0,0,0-.2ZM66-40.7c0-.1,0-.2.1-.4,0-.1.1-.3.1-.3,0,0,0,0,0-.1,0,0,0,0,0,.2,0,.1,0,.2-.1.4,0,.1-.1.3-.2.3,0,0,0,0,0,.1,0,0,0,0,0-.2ZM68.9-40.9c0,.2,0,.5-.1.8,0,.3.1.5.3.5.2,0,.4,0,.6,0,.2,0,.5-.3.5-.6,0-.3,0-.5.1-.8,0-.3-.1-.5-.4-.4-.2,0-.4,0-.6.1-.2,0-.4.3-.5.6ZM67.4-40.5c0,.2,0,.4-.1.7,0,.2,0,.4.2.4.1,0,.3,0,.4,0,.2,0,.3-.3.4-.5,0-.2,0-.5.1-.7,0-.2,0-.4-.2-.4-.1,0-.3,0-.4.1-.1,0-.3.3-.3.5ZM66.4-40c0,.2,0,.4-.1.5,0,.2,0,.4,0,.3,0,0,.2,0,.2,0,0,0,.2-.2.2-.5,0-.2,0-.4.1-.6,0-.2,0-.3-.1-.3,0,0-.2,0-.2.1,0,0-.2.2-.2.4ZM65.8-39.6c0,.1,0,.3,0,.4,0,.2,0,.3,0,.3,0,0,0,0,.1,0,0,0,.1-.2.2-.4,0-.2,0-.3,0-.5,0-.2,0-.3,0-.2,0,0,0,0-.1,0,0,0-.1.2-.1.4ZM65.5-39.3c0,.1,0,.2,0,.4,0,.1,0,.2,0,.2,0,0,0,0,0,0,0,0,0-.2,0-.3,0-.1,0-.3,0-.4,0-.1,0-.2,0-.2,0,0,0,0,0,0,0,0,0,.2,0,.3ZM67.8-37.5c0-.3,0-.5,0-.7,0-.3.2-.5.3-.5.2,0,.3,0,.5,0,.2,0,.3.2.3.5,0,.3,0,.5,0,.8,0,.3-.2.5-.4.5-.2,0-.3,0-.5,0-.2,0-.3-.2-.3-.5ZM66.5-37.4c0-.2,0-.4,0-.6,0-.2.1-.4.2-.4,0,0,.2,0,.3,0,.1,0,.2.2.2.4,0,.2,0,.4,0,.7,0,.3-.1.5-.2.5-.1,0-.2,0-.3,0-.1,0-.2-.2-.2-.4ZM65.8-37.4c0-.2,0-.3,0-.5,0-.2,0-.4.1-.4,0,0,.1,0,.2,0,0,0,.1.1,0,.3,0,.2,0,.4,0,.5,0,.2,0,.4-.1.4,0,0-.1,0-.2,0,0,0,0-.1,0-.3ZM65.4-37.3c0-.1,0-.3,0-.4,0-.1,0-.3,0-.3,0,0,0,0,0,0,0,0,0,.1,0,.3,0,.1,0,.3,0,.4,0,.2,0,.3,0,.3,0,0,0,0,0,0,0,0,0-.1,0-.3ZM65.2-37.2c0-.1,0-.2,0-.3,0-.1,0-.2,0-.2,0,0,0,0,0,0,0,0,0,0,0,.2,0,.1,0,.2,0,.4,0,.1,0,.2,0,.2,0,0,0,0,0,0,0,0,0,0,0-.2ZM68.6-35.6c0,.3,0,.6,0,.8,0,.3.2.6.4.6.2,0,.4,0,.6,0,.2,0,.4-.2.4-.5,0-.3,0-.6,0-.9,0-.3-.2-.6-.5-.6-.2,0-.4,0-.6,0-.2,0-.4.2-.4.5ZM67.1-35.7c0,.2,0,.5,0,.7,0,.3.2.5.3.5.1,0,.3,0,.4,0,.2,0,.3-.2.3-.5,0-.2,0-.5,0-.7,0-.3-.2-.5-.3-.5-.1,0-.3,0-.4,0-.1,0-.2.2-.2.5ZM66.1-35.7c0,.2,0,.4,0,.6,0,.2,0,.4.2.4,0,0,.2,0,.2,0,0,0,.2-.1.1-.4,0-.2,0-.4,0-.6,0-.2,0-.4-.2-.4,0,0-.2,0-.2,0,0,0-.1.2-.1.4ZM65.5-35.8c0,.2,0,.3,0,.5,0,.2,0,.3.1.3,0,0,0,0,.1,0,0,0,0-.1,0-.3,0-.2,0-.3,0-.5,0-.2,0-.4-.1-.4,0,0,0,0-.1,0,0,0,0,.1,0,.3ZM65.3-35.9c0,.1,0,.3,0,.4,0,.1,0,.3,0,.3,0,0,0,0,0,0,0,0,0,0,0-.2,0-.1,0-.3,0-.4,0-.2,0-.3,0-.3,0,0,0,0,0,0,0,0,0,.1,0,.2ZM68.1-32.4c0-.2,0-.5-.1-.7,0-.2,0-.4.2-.4.2,0,.3,0,.5,0,.2,0,.4.3.4.6,0,.2,0,.5.1.7,0,.3,0,.4-.3.4-.2,0-.3,0-.5-.1-.2,0-.3-.3-.4-.5ZM66.9-32.9c0-.2,0-.4-.1-.6,0-.2,0-.4.1-.3.1,0,.2,0,.3,0,.1,0,.3.2.3.5,0,.2,0,.4.1.6,0,.2,0,.4-.1.3-.1,0-.2,0-.3-.1-.1,0-.2-.2-.3-.4ZM66.1-33.3c0-.2,0-.3,0-.5,0-.2,0-.3,0-.3,0,0,.1,0,.2,0,0,0,.2.2.2.4,0,.2,0,.3,0,.5,0,.2,0,.3,0,.3,0,0-.1,0-.2-.1,0,0-.1-.2-.2-.4ZM65.6-33.7c0-.1,0-.3,0-.4,0-.1,0-.2,0-.2,0,0,0,0,0,0,0,0,0,.2.1.3,0,.1,0,.3,0,.4,0,.2,0,.2,0,.2,0,0,0,0,0,0,0,0,0-.2-.1-.3ZM69.2-30.6c0,.2.1.4.2.6,0,.2.3.5.5.5.2,0,.4.1.6.2.2,0,.4,0,.3-.3,0-.2-.1-.4-.2-.7,0-.3-.3-.5-.5-.6-.2,0-.4,0-.6-.2-.2,0-.3.1-.3.4ZM67.8-31.2c0,.2.1.4.2.6,0,.2.2.4.4.5.1,0,.3.1.4.2.2,0,.2,0,.2-.3,0-.2-.1-.4-.2-.6,0-.2-.2-.5-.4-.5-.1,0-.3-.1-.4-.2-.1,0-.2,0-.1.3ZM66.8-31.7c0,.2.1.3.2.5,0,.2.2.4.3.4,0,0,.2.1.3.2.1,0,.1,0,0-.2,0-.2-.1-.3-.2-.5,0-.2-.2-.4-.3-.5,0,0-.2,0-.2-.1,0,0-.1,0,0,.2ZM66.2-32.2c0,.1,0,.3.1.4,0,.1.1.3.2.4,0,0,0,.1.1.1,0,0,0,0,0-.2,0-.1,0-.3-.1-.4,0-.2-.1-.3-.2-.4,0,0,0,0-.1-.1,0,0,0,0,0,.2ZM65.8-32.7c0,.1,0,.2.1.3,0,.1,0,.3.1.3,0,0,0,0,0,.1,0,0,0,0,0-.1,0-.1,0-.2-.1-.4,0-.1,0-.3-.1-.3,0,0,0,0,0,0,0,0,0,0,0,.2ZM73-27.4c0-.2,0-.4-.2-.6,0-.2.1-.4.4-.3.3,0,.5,0,.8.1.3,0,.6.3.6.5,0,.2,0,.4,0,.6,0,.2-.2.3-.5.3-.3,0-.5,0-.8-.1-.3,0-.5-.2-.6-.4ZM70.9-27.9c0-.2-.1-.3-.2-.5,0-.2,0-.3.3-.2.2,0,.4.1.6.2.2,0,.5.3.6.5,0,.2,0,.3.2.5,0,.2,0,.3-.3.2-.2,0-.4-.1-.6-.2-.2,0-.4-.3-.5-.4ZM69.3-28.6c0-.2-.1-.3-.2-.5,0-.2,0-.3.2-.2.2,0,.3.1.5.2.2,0,.4.3.5.5,0,.2.1.3.2.5,0,.2,0,.2-.2.2-.2,0-.3-.1-.5-.2-.2,0-.3-.3-.4-.4ZM68.1-29.3c0-.1-.1-.3-.2-.4,0-.1,0-.2,0-.2,0,0,.2.1.3.2.1,0,.3.3.3.4,0,.1.1.3.2.4,0,.1,0,.2,0,.1-.1,0-.2-.1-.3-.2-.1,0-.3-.2-.3-.4ZM67.2-30c0-.1-.1-.2-.2-.4,0-.1,0-.2,0-.1,0,0,.1.1.2.2,0,0,.2.2.3.4,0,.1.1.2.2.4,0,.1,0,.2,0,.1,0,0-.1-.1-.2-.2,0,0-.2-.2-.2-.3ZM66.7-30.7c0-.1-.1-.2-.1-.3,0-.1,0-.2,0-.1,0,0,0,0,.1.1,0,0,.1.2.2.3,0,.1.1.2.2.3,0,.1,0,.1,0,0,0,0,0-.1-.1-.2,0,0-.1-.2-.2-.3ZM74.4-26.2c0,.1,0,.3.1.4,0,.1.3.3.6.3.3,0,.5,0,.8,0,.3,0,.5,0,.5-.2,0-.1,0-.3,0-.4,0-.2-.3-.3-.6-.3-.3,0-.6,0-.8,0-.3,0-.5,0-.5.2ZM72.3-26.6c0,.1.1.3.2.4,0,.1.3.3.5.3.2,0,.4.1.6.2.2,0,.4,0,.4-.1,0-.1,0-.2-.1-.4,0-.2-.3-.3-.6-.4-.2,0-.5-.1-.7-.2-.2,0-.4,0-.3.2ZM70.5-27.3c0,.1.1.2.2.4,0,.1.3.3.5.4.2,0,.3.1.5.2.2,0,.3,0,.2,0,0-.1-.1-.2-.2-.4,0-.1-.3-.3-.5-.4-.2,0-.4-.1-.5-.2-.2,0-.3,0-.2.1ZM69.2-28c0,.1.2.2.2.3,0,.1.3.3.4.4.1,0,.2.1.4.2.1,0,.2,0,.1,0,0-.1-.1-.2-.2-.3,0-.1-.3-.3-.4-.4-.1,0-.3-.1-.4-.2-.1,0-.2,0,0,0ZM68.2-28.7c0,.1.1.2.2.3,0,.1.2.2.3.3,0,0,.2.1.3.2.1,0,.1,0,0,0,0-.1-.1-.2-.2-.3,0-.1-.2-.3-.3-.4,0,0-.2-.1-.3-.2,0,0-.1,0,0,0ZM67.5-29.4c0,0,.1.2.2.3,0,0,.2.2.2.3,0,0,.1.1.2.2,0,0,0,0,0,0,0,0-.1-.2-.2-.3,0-.1-.2-.3-.2-.3,0,0-.1-.1-.2-.2,0,0,0,0,0,0ZM75.8-24.8c0,0,0-.2,0-.2,0-.1.2-.2.4-.1.3,0,.5,0,.8,0,.3,0,.5.1.5.2,0,0,0,.2,0,.2,0,0-.2.1-.5.1-.2,0-.5,0-.7,0-.3,0-.5-.1-.5-.2ZM73.9-25.2c0,0,0-.2-.1-.2,0,0,0-.1.3,0,.2,0,.4,0,.7.1.3,0,.5.2.5.2,0,0,0,.2,0,.2,0,0-.1.1-.4,0-.2,0-.4,0-.6-.1-.2,0-.4-.2-.5-.2ZM72.2-25.7c0,0-.1-.2-.2-.2,0,0,0-.1.2,0,.2,0,.4.1.5.2.2,0,.4.2.5.3,0,0,0,.2.2.2,0,0,0,0-.3,0-.2,0-.3-.1-.5-.2-.2,0-.4-.2-.5-.3ZM70.7-26.4c0,0-.1-.1-.2-.2,0,0,0-.1.1,0,.1,0,.3.1.4.2.2,0,.4.2.4.3,0,0,.1.2.2.2,0,0,0,0-.2,0-.1,0-.3-.1-.4-.2-.1,0-.3-.2-.4-.3ZM69.6-27.1c0,0-.1-.1-.2-.2,0,0,0,0,0,0,.1,0,.2.1.3.2.1,0,.3.2.4.3,0,0,.1.1.2.2,0,0,0,0,0,0-.1,0-.2-.1-.3-.2-.1,0-.2-.2-.3-.3ZM75.1-24.6s0,0,.1.1c0,0,.2,0,.5.1.2,0,.4,0,.6,0,.2,0,.4,0,.4,0,0,0,0,0,0-.1,0,0-.2-.1-.5-.1-.2,0-.4,0-.7,0-.2,0-.4,0-.4,0ZM73.4-25s.1,0,.2.1c0,0,.3.1.5.2.2,0,.3,0,.5.1.2,0,.3,0,.3,0,0,0,0,0-.1-.1,0,0-.3-.1-.5-.2-.2,0-.4,0-.6-.1-.2,0-.3,0-.3,0ZM71.9-25.6c0,0,.1,0,.2.1,0,0,.3.1.4.2.1,0,.3.1.4.2.2,0,.3,0,.2,0,0,0-.1,0-.2-.1,0,0-.3-.2-.4-.2-.2,0-.3-.1-.5-.2-.2,0-.2,0-.2,0ZM76.5-24.1c.2,0,.3,0,.5,0,0,0,0,0,.1,0,0,0,.1,0,.2,0,.2,0,.3,0,.3,0,0,0,0,0,0,0,0,0-.2,0-.4,0-.2,0-.4,0-.6,0-.2,0-.4,0-.4,0,0,0,0,0,0,0,0,0,.1,0,.3,0ZM74.7-24.4c.4,0,.7.2,1.1.2,0,0,0,0,0,0,0,0,0,0,0,0,0,0-.2,0-.4,0-.2,0-.4,0-.5-.1-.2,0-.3,0-.3,0,0,0,0,0,.1,0,0,0,0,0,0,0ZM72.4-25.3c0,0,.2,0,.3.1,0,0-.2,0-.2-.1t0,0ZM70.6-26.3s0,0,0,0h0c0,0,0,0,0,0,.1,0,.2.1.4.2.1,0,.3.2.4.2,0,0,.1,0,.2.1,0,0,0,0-.1,0q0,0-.2,0c-.2-.1-.4-.2-.5-.3h0q-.1,0-.2-.1h0ZM69.9-26.8c.1,0,.2.2.4.3t0,0c0,0-.2-.2-.3-.2,0,0,0,0,0,0ZM65.5-34.1c0,0,0,.1,0,.2h0c0,0,0,.1,0,.1,0,0,0,0,0,0,0,0,0,0,0-.2,0-.1,0-.2,0-.3,0-.1,0-.2,0-.3,0,0,0,0,0,0,0,0,0,0,0,.2q0,.1,0,.3h0ZM65.2-36.1c0,.3,0,.5,0,.8,0,0,0,0,0-.2,0-.1,0-.2,0-.3,0,0,0-.2,0-.2ZM65.5-39.1c0,.2,0,.4,0,.5,0,0,0-.1,0-.2,0,0,0-.2,0-.3,0,0,0,0,0,0ZM68.7-45.2c-.1.1-.2.2-.3.3,0,0,.2-.2.2-.3,0,0,0,0,0,0ZM75.1-48.8c-.4,0-.8.2-1.1.3h0q0,0-.1,0s0,0,.2,0c.2,0,.3,0,.5-.1.2,0,.4,0,.4-.1,0,0,0,0,.1,0,0,0,0,0,0,0ZM76.4-49c-.3,0-.5,0-.8.1,0,0-.1,0-.1,0,0,0,0,0-.1,0,0,0,.1,0,.3,0,.2,0,.4,0,.6,0,.2,0,.4,0,.4,0,0,0,0,0,0,0,0,0-.1,0-.3,0h0ZM79.8-48.9c-.3,0-.5,0-.8-.1-.2,0-.3,0-.3,0,0,0,0,0,0,0,0,0,.2,0,.4,0,.2,0,.4,0,.6,0,.2,0,.4,0,.3,0,0,0,0,0,0,0,0,0,0,0-.1,0h0ZM81.5-48.5c-.4-.1-.8-.2-1.1-.3,0,0,0,0,0,0,0,0,0,0,.1,0,0,0,.2,0,.4.1.2,0,.3,0,.5.1.2,0,.3,0,.2,0q0,0-.1,0ZM86.8-45.2s0,0,0,0c0,0,0,0,0,0ZM87.1-44.9c0-.1-.2-.2-.3-.3h0c0,.1.2.2.3.3ZM85.1-26.5c.1,0,.2-.2.4-.3h0c0,.1-.2.2-.3.3t0,0h0ZM84-25.8c.2-.1.4-.2.5-.3,0,0,0,0,.2-.1h0s0,0,0,0h0c0,0,0,0,0,0-.1,0-.2.1-.4.2-.1,0-.3.2-.4.2,0,0-.1,0-.2.1,0,0,0,0,.1,0,0,0,0,0,.2,0ZM82.8-25.2c0,0,.2,0,.3-.1h0s0,0,0,0c0,0-.2,0-.2.1h0ZM79.6-24.2c.4,0,.7-.1,1.1-.2,0,0,0,0,0,0,0,0,0,0,.1,0,0,0,0,0-.3,0-.2,0-.4,0-.5.1-.2,0-.4,0-.4,0,0,0,0,0,0,0,0,0,0,0,0,0ZM78.1-24.1c0,0,.1,0,.2,0,0,0,0,0,.1,0,.2,0,.3,0,.5,0h0c.1,0,.2,0,.3,0,0,0,0,0,0,0,0,0-.1,0-.4,0-.2,0-.4,0-.6,0-.2,0-.4,0-.4,0,0,0,0,0,0,0,0,0,.1,0,.3,0ZM78.4-49.1s0,0,0,0c0,0-.2,0-.4,0-.2,0-.4,0-.6,0-.2,0-.4,0-.4,0,0,0,0,0,0,0,0,0,.2,0,.4,0,0,0,.1,0,.2,0,0,0,.2,0,.2,0,0,0,.1,0,.2,0,.2,0,.4,0,.4,0ZM79.5-48.7s0,0,0-.1c0,0-.2,0-.5-.1-.2,0-.4,0-.6,0-.2,0-.4,0-.4,0,0,0,0,0,0,.1,0,0,.2.1.5.1.2,0,.4,0,.7,0,.3,0,.4,0,.4,0Z"></path><g class="cls-4"><rect class="cls-3" x="65.2" y="-49.1" width="22.5" height="25"></rect></g></g><g><polygon class="cls-3" points="95.5 -35.3 96.9 -35.3 96.9 -37.8 95.5 -39 95.5 -35.3"></polygon><polygon class="cls-3" points="95.5 -41.9 95.5 -41.9 95.5 -41.9 95.5 -41.9"></polygon><polygon class="cls-3" points="96.9 -40.7 95.5 -41.9 95.5 -40.1 96.9 -38.8 99.4 -36.6 100.8 -35.3 100.8 -35.3 100.8 -37.2 99.4 -38.4 96.9 -40.7"></polygon><polygon class="cls-3" points="99.4 -39.6 100.8 -38.4 100.8 -41.9 99.4 -41.9 99.4 -39.6"></polygon><polygon class="cls-3" points="111.8 -40.5 112.4 -41.9 108.4 -41.9 108.4 -41.8 108.4 -41.8 108.4 -35.3 108.4 -35.3 109.8 -35.3 109.8 -35.3 111.8 -35.3 112.4 -36.7 109.8 -36.7 109.8 -37.8 111.1 -37.8 111.6 -39.2 109.8 -39.2 109.8 -40.5 111.8 -40.5"></polygon><polygon class="cls-3" points="75.5 -41.9 72.6 -35.3 74.2 -35.3 76.3 -40.2 75.5 -41.9"></polygon><polygon class="cls-3" points="76.8 -39.3 75.5 -36.3 76.7 -36.3 77.1 -35.3 78.6 -35.3 76.8 -39.3"></polygon><polygon class="cls-3" points="91.4 -41.9 88.5 -35.3 90.1 -35.3 92.3 -40.2 91.4 -41.9"></polygon><polygon class="cls-3" points="92.7 -39.3 91.4 -36.3 92.6 -36.3 93 -35.3 94.5 -35.3 92.7 -39.3"></polygon><polygon class="cls-3" points="88.1 -37 85.9 -41.9 84.3 -41.9 87.3 -35.3 88.1 -37"></polygon><path class="cls-3" d="M81.3-41.9s0,0,0,0h0s-.4,0-.4,0h0s-1.1,0-1.1,0v6.6h1.1s.6,0,.6,0h0s0,0,0,0h0c1.7,0,3-1.5,3-3.3s-1.4-3.3-3-3.3ZM81.3-36.7c0,0-.1,0-.2,0v-3.8c0,0,.1,0,.2,0,1,0,1.8.9,1.8,1.9s-.8,1.9-1.8,1.9Z"></path><path class="cls-3" d="M118.1-38.6c0-1.8-1.3-3.3-3-3.3s0,0,0,0h0s-.4,0-.4,0h0s-1.1,0-1.1,0v6.5h1.1s.5,0,.5,0c0,0,0,0,0,0s0,0,0,0h0c1.6,0,2.9-1.5,2.9-3.3ZM115.1-36.7c0,0-.1,0-.2,0v-3.8c0,0,.1,0,.2,0,1,0,1.8.9,1.8,1.9s-.8,1.9-1.8,1.9Z"></path><path class="cls-3" d="M105.3-36.6c-1.5,0-1.9-1-2-1.9,0-.9.5-2,2-2s1,.1,1.4.5l.6-1.1c-.6-.4-1.2-.7-1.9-.7-2.3,0-3.3,1.7-3.3,3.3,0,1.7,1,3.2,3.3,3.2s1.4-.2,2-.6l-.6-1.2c-.4.3-.9.5-1.4.5Z"></path><polygon class="cls-3" points="90.4 -41.9 88.9 -41.9 87.7 -39.5 88.4 -37.8 90.4 -41.9"></polygon><rect class="cls-3" x="72.8" y="-33.5" width=".6" height="2.6"></rect><polygon class="cls-3" points="76.2 -31.9 74.9 -33.5 74.4 -33.5 74.4 -30.9 75 -30.9 75 -32.5 76.3 -30.9 76.8 -30.9 76.8 -33.5 76.2 -33.5 76.2 -31.9"></polygon><path class="cls-3" d="M79.3-32.3c-.1,0-.3,0-.5-.1-.2,0-.3,0-.4-.1,0,0-.1-.1-.1-.2s0-.2.1-.2c0,0,.2,0,.4,0,.2,0,.5,0,.7.2l.2-.5c-.1,0-.3-.1-.4-.2-.2,0-.3,0-.5,0-.2,0-.4,0-.6.1-.2,0-.3.2-.4.3s-.1.3-.1.4,0,.3.1.4c0,.1.2.2.3.2.1,0,.3,0,.5.1.1,0,.2,0,.3,0,0,0,.1,0,.2,0s0,0,0,.2,0,.2-.1.2c0,0-.2,0-.4,0s-.3,0-.5,0c-.2,0-.3-.1-.4-.2l-.2.5c.1,0,.3.2.5.2.2,0,.4,0,.6,0s.4,0,.6-.1c.2,0,.3-.2.4-.3,0-.1.1-.3.1-.4s0-.3-.1-.4c0-.1-.2-.2-.3-.2Z"></path><path class="cls-3" d="M82.3-32.1c0,.2,0,.4-.1.5,0,.1-.2.2-.4.2-.4,0-.6-.2-.6-.7v-1.4h-.6v1.4c0,.4.1.7.3.9.2.2.5.3.9.3s.7-.1.9-.3c.2-.2.3-.5.3-.9v-1.4h-.6v1.4Z"></path><path class="cls-3" d="M86.1-32.1c0-.1.1-.3.1-.5s0-.4-.1-.5c0-.1-.2-.2-.4-.3-.2,0-.4-.1-.6-.1h-1.1v2.6h.6v-.7h.6l.5.7h.6l-.6-.8c.2,0,.3-.2.4-.3ZM85.5-32.2c0,0-.2.1-.4.1h-.5v-.9h.5c.2,0,.3,0,.4.1,0,0,.1.2.1.3s0,.3-.1.3Z"></path><path class="cls-3" d="M87.9-33.5l-1.2,2.6h.6l.2-.6h1.2l.2.6h.6l-1.2-2.6h-.6ZM87.8-31.9l.4-1,.4,1h-.8Z"></path><polygon class="cls-3" points="92.1 -31.9 90.9 -33.5 90.4 -33.5 90.4 -30.9 91 -30.9 91 -32.5 92.2 -30.9 92.7 -30.9 92.7 -33.5 92.1 -33.5 92.1 -31.9"></polygon><path class="cls-3" d="M94.6-32.9c.1,0,.3-.1.4-.1.3,0,.5.1.7.3l.4-.4c-.1-.1-.3-.3-.5-.3-.2,0-.4-.1-.6-.1s-.5,0-.7.2c-.2.1-.4.3-.5.5-.1.2-.2.4-.2.7s0,.5.2.7c.1.2.3.4.5.5.2.1.5.2.7.2s.4,0,.6-.1c.2,0,.3-.2.5-.3l-.4-.4c-.2.2-.4.3-.7.3s-.3,0-.4-.1c-.1,0-.2-.2-.3-.3s-.1-.3-.1-.4,0-.3.1-.4.2-.2.3-.3Z"></path><polygon class="cls-3" points="97.5 -32 98.7 -32 98.7 -32.5 97.5 -32.5 97.5 -33 98.9 -33 98.9 -33.5 96.9 -33.5 96.9 -30.9 98.9 -30.9 98.9 -31.4 97.5 -31.4 97.5 -32"></polygon><path class="cls-3" d="M103.3-33.4c-.2-.1-.5-.2-.7-.2s-.5,0-.7.2c-.2.1-.4.3-.5.5-.1.2-.2.4-.2.7s0,.5.2.7c.1.2.3.4.5.5.2.1.5.2.7.2s.5,0,.7-.2c.2-.1.4-.3.5-.5.1-.2.2-.4.2-.7s0-.5-.2-.7c-.1-.2-.3-.4-.5-.5ZM103.3-31.8c0,.1-.2.2-.3.3-.1,0-.3.1-.4.1s-.3,0-.4-.1c-.1,0-.2-.2-.3-.3s-.1-.3-.1-.4,0-.3.1-.4.2-.2.3-.3c.1,0,.3-.1.4-.1s.3,0,.4.1c.1,0,.2.2.3.3s.1.3.1.4,0,.3-.1.4Z"></path><polygon class="cls-3" points="106.6 -31.9 105.4 -33.5 104.9 -33.5 104.9 -30.9 105.5 -30.9 105.5 -32.5 106.7 -30.9 107.2 -30.9 107.2 -33.5 106.6 -33.5 106.6 -31.9"></polygon><polygon class="cls-3" points="108.9 -33.5 108.3 -33.5 108.3 -30.9 110.2 -30.9 110.2 -31.4 108.9 -31.4 108.9 -33.5"></polygon><rect class="cls-3" x="110.9" y="-33.5" width=".6" height="2.6"></rect><polygon class="cls-3" points="114.4 -31.9 113.1 -33.5 112.6 -33.5 112.6 -30.9 113.2 -30.9 113.2 -32.5 114.5 -30.9 115 -30.9 115 -33.5 114.4 -33.5 114.4 -31.9"></polygon><polygon class="cls-3" points="116.6 -32 117.8 -32 117.8 -32.5 116.6 -32.5 116.6 -33 118 -33 118 -33.5 116 -33.5 116 -30.9 118 -30.9 118 -31.4 116.6 -31.4 116.6 -32"></polygon></g></g><g><rect class="cls-3" x="53" y="1.8" width="3.8" height="15.7"></rect><rect class="cls-3" x="107.4" y="1.9" width="3.2" height="15.7"></rect><rect class="cls-3" x="97.9" y="8.4" width="3.2" height="2.9"></rect><g><rect class="cls-3" x="93.4" y="1.9" width="3.2" height="15.7"></rect><rect class="cls-3" x="97.6" y="1.9" width="6.4" height="2.9"></rect><rect class="cls-3" x="97.6" y="14.8" width="6.4" height="2.9"></rect></g><rect class="cls-3" x="111.4" y="14.8" width="6.4" height="2.9"></rect><path class="cls-3" d="M61.1,2.5c-.3-.2-.5-.4-.8-.6h0c2.8-2.6,7.1-2.6,9.6,0,.1.1.3.3.4.4,0,.1.2.2.3.4-.6,0-1.2.2-1.8.3-1.1.2-2.2.5-3.3.6-1.6.2-3-.2-4.3-1.1Z"></path><path class="cls-3" d="M66.1,6c-.6.1-1.2.1-1.7.1l-1.7-1.8h0c.7.2,1.5.4,2.2.3,1.3-.1,2.5-.5,3.7-.8.8-.2,1.5-.4,2.3-.6.1.1.2.3.2.5,0,0,0,.1,0,.2,0,.2.1.3.2.5,0,0,0,0-.1,0-1.7.7-3.3,1.4-5.1,1.6Z"></path><path class="cls-3" d="M69.5,8.4c.7-.2,1.3-.5,2-.8-.3,1.3-1,2.6-2.1,3.7l-1.2-1.2h0l-1.3-1.3c.9,0,1.8,0,2.6-.4Z"></path><path class="cls-3" d="M67.1,8.4c-.1,0-.3,0-.4.1l-.7-.8-.3-.3c1.4-.1,2.8-.6,4.1-1.2.6-.3,1.2-.6,1.8-.9,0,.4,0,.8,0,1.1-.3.1-.5.3-.8.4-1.2.6-2.4,1.2-3.7,1.5Z"></path><path class="cls-3" d="M89.5,17.5h-5.2l-7.9-11.6c1.2-.2,2.3-.2,3.5.2.7.2,1.4.5,2,.8-.6-.7-1.2-1.2-2.1-1.5-1.3-.6-2.7-.6-4.1-.3l-.6-.9c.9-.2,1.7-.2,2.6,0-.6-.3-1.2-.5-1.9-.6-.4,0-.8,0-1.1,0l-.4-.7-.7-1.1h5.3l10.6,15.7Z"></path><polygon class="cls-3" points="78.5 11 74.2 17.5 82.8 17.5 78.5 11"></polygon><polygon class="cls-3" points="84.7 8.3 80.4 1.8 89 1.8 84.7 8.3"></polygon><polygon class="cls-3" points="44.4 1.6 36.2 17.5 41.6 17.5 47.2 7.2 44.4 1.6"></polygon><polygon class="cls-3" points="52 17.4 47.7 8.5 43.1 17.4 52 17.4"></polygon><path class="cls-3" d="M36.8,19.5h1.7c1.1,0,1.7.5,1.7,1.3v2.9c0,.8-.7,1.3-1.7,1.3h-1.7v-5.5ZM38.5,24.1c.4,0,.7-.2.7-.5v-2.9c0-.3-.3-.5-.7-.5h-.6v3.9h.6Z"></path><path class="cls-3" d="M43.6,23.7v-4.3h1.1v4.3c0,.3.3.5.6.5s.6-.2.6-.5v-4.3h1.1v4.3c0,.8-.7,1.3-1.7,1.3s-1.7-.5-1.7-1.3Z"></path><path class="cls-3" d="M50.4,23.7v-3c0-.8.7-1.3,1.7-1.3s1.7.5,1.7,1.3v.6h-1.1v-.6c0-.3-.3-.5-.6-.5s-.6.2-.6.5v3c0,.3.3.5.6.5s.6-.2.6-.5v-.8h1.1v.8c0,.8-.7,1.3-1.7,1.3s-1.7-.5-1.7-1.3Z"></path><path class="cls-3" d="M56.9,19.5h3.5v.8h-1.2v4.7h-1.1v-4.7h-1.2v-.8Z"></path><path class="cls-3" d="M67.8,23.7v-3c0-.8.7-1.3,1.7-1.3s1.7.5,1.7,1.3v.6h-1.1v-.6c0-.3-.3-.5-.6-.5s-.6.2-.6.5v3c0,.3.3.5.6.5s.6-.2.6-.5v-.8h1.1v.8c0,.8-.7,1.3-1.7,1.3s-1.7-.5-1.7-1.3Z"></path><path class="cls-3" d="M74.6,19.5h1.1v4.7h2v.8h-3.1v-5.5Z"></path><path class="cls-3" d="M80.9,19.5h3.1v.8h-2v1.5h1.6v.8h-1.6v1.6h2v.8h-3.1v-5.5Z"></path><path class="cls-3" d="M89.5,23.7h-1.2l-.2,1.2h-1.1l1.2-5.5h1.5l1.2,5.5h-1.1l-.2-1.2ZM89.4,22.9l-.4-2.3-.4,2.3h.9Z"></path><path class="cls-3" d="M94,19.5h1.2l1.4,3.7v-3.7h1.1v5.5h-1.2l-1.5-3.5v3.5h-1.1v-5.5Z"></path><path class="cls-3" d="M101.3,19.5h3.1v.8h-2v1.5h1.6v.8h-1.6v1.6h2v.8h-3.1v-5.5Z"></path><path class="cls-3" d="M110.1,24.9l-.8-2.3h-.6v2.3h-1.1v-5.5h1.7c1.1,0,1.7.5,1.7,1.3v.6c0,.5-.3.9-.8,1.1l.9,2.4h-1.2ZM108.7,21.9h.6c.4,0,.7-.2.7-.5v-.6c0-.3-.3-.5-.7-.5h-.6v1.6Z"></path><path class="cls-3" d="M114.2,23.7v-.2h1.1c0,0,0,.1,0,.1,0,.4.3.6.7.6s.7-.2.7-.5-.2-.6-1-1.2c-1.1-.8-1.4-1.2-1.4-1.8s.6-1.3,1.7-1.3,1.7.5,1.7,1.3h0c0,.1-1.1.2-1.1.2v-.2c0-.4-.2-.6-.6-.6s-.6.2-.6.5.2.6,1,1.2c1.1.8,1.4,1.2,1.4,1.8s-.7,1.3-1.8,1.3-1.8-.6-1.8-1.3Z"></path><g><path class="cls-3" d="M58.4,1.3c.1.2.2.5.4.7v1c-.2-.6-.3-1.1-.4-1.7Z"></path><path class="cls-3" d="M75.2,4.2c-.2,0-.5.1-.7.2-1,.3-2,.6-3,1.1,0-.4-.1-.7-.3-1.1,1.1-.4,2.3-.7,3.5-.8l.4.6Z"></path><path class="cls-3" d="M66.7,8.5l.3.3c-.3,0-.7,0-1.1-.1.2,0,.4,0,.6-.1,0,0,.1,0,.2,0Z"></path><path class="cls-3" d="M76.4,5.9c-.8.1-1.6.4-2.5.7-.8.3-1.6.7-2.5,1,0-.4.1-.8.1-1.1,1.2-.6,2.5-1.1,3.8-1.4.1,0,.3,0,.4,0l.6.9Z"></path><path class="cls-3" d="M62.2,3.9l.3.3c-1.1-.5-2-1.3-2.4-2.5,0,0,.1,0,.2.1l.9.9.4.4.6.6Z"></path><path class="cls-3" d="M74.4,2.9s0,0,0,0c-.4,0-.7,0-1.1,0-.9,0-1.7.1-2.5.3,0,0,0,0,0-.1,0-.1-.1-.2-.2-.3,1.1-.1,2.3-.1,3.4,0,.1,0,.3,0,.4,0Z"></path></g><path class="cls-3" d="M59.3,3.1c-.2-.3-.4-.7-.6-1.1h0c0,0,1.2,1.2,1.2,1.2l.4.4.6.6.3.3,1.2,1.2c-1.2-.4-2.2-1.3-3-2.7Z"></path><path class="cls-3" d="M73.5,17.8h-5.2l-2.1-2.1-4-4v6.1h-3.5V3c0,.1,0,.2.1.3.9,2.3,2.5,3.7,5,4.1l3,3.2,2.3,2.5,3.7,3.9.7.7Z"></path></g></svg> 