<?xml version="1.0" encoding="UTF-8"?> <svg xmlns="http://www.w3.org/2000/svg" id="Layer_1" data-name="Layer 1" version="1.1" viewBox="0 0 150 25"><defs><style> .cls-1 { fill: #fff; stroke-width: 0px; } </style></defs><path class="cls-1" d="M41.8,20.9c.2,0,.3,0,.5.2.2,0,.4.2.4.4h1.8c-.1-.4-.3-.8-.5-1.1-.2-.4-.5-.5-.9-.8-.4-.3-.8-.3-1.3-.3s-1,.2-1.4.4c-.4.2-.7.6-.9,1-.3.4-.3.9-.3,1.4s0,1,.3,1.4c.2.4.5.7.9,1,.4.3.9.4,1.4.4s.9,0,1.3-.3c.4-.2.7-.5.9-.8.3-.3.5-.7.5-1.1h-1.8c-.1.2-.3.2-.4.4s-.2.2-.5.2-.5-.1-.7-.3c-.3-.2-.3-.5-.3-.9s0-.7.3-.9.4-.3.7-.3Z"></path><polygon class="cls-1" points="46.8 19.4 45.2 19.4 45.2 24.9 48.5 24.9 48.5 23.6 46.8 23.6 46.8 19.4"></polygon><polygon class="cls-1" points="49 25 52.7 25 52.7 23.6 50.8 23.6 50.8 22.8 52.5 22.8 52.5 21.5 50.8 21.5 50.8 20.9 52.7 20.9 52.7 19.5 49 19.5 49 25"></polygon><path class="cls-1" d="M55,19.4l-2,5.5h1.8l.3-.8h1.8l.3.8h1.8l-2-5.5h-2ZM55.5,22.8l.5-1.5.5,1.5h-1Z"></path><polygon class="cls-1" points="62.8 22.2 61 19.4 59.3 19.4 59.3 24.9 61 24.9 61 22.1 62.8 24.9 64.5 24.9 64.5 19.4 62.8 19.4 62.8 22.2"></polygon><path class="cls-1" d="M72,22.2v-.2h-1.8c-.1.1-.2.3-.2.4l-1.1-1.1c-.3-.2-.3-.4-.3-.6v-.2h.3v.2h1.7c0-.3-.2-.6-.2-.8-.1-.3-.3-.4-.6-.6-.3-.2-.6-.2-1-.2s0,0,0,0c0,0,0,0,0,0-.4,0-.7,0-1,.2-.2.2-.6.4-.6.6-.2.3-.2.5-.2.8s.2.6.4.9c-.3.2-.5.4-.7.7-.2.3-.2.5-.2.9s0,.6.3.9.4.4.8.6c.4.2.6.2,1.2.2s0,0,0,0c0,0,0,0,0,0,.6,0,1.1,0,1.6-.4l.4.4h1.7l-1.3-1.3c.3-.4.5-.9.8-1.4ZM68.5,23.4c-.2,0-.2-.2-.2-.3v-.2c0,0,0-.1.1-.2l.8.8h-.2c-.2,0-.3,0-.5,0Z"></path><path class="cls-1" d="M77,20.9c.2,0,.3,0,.5.2.2,0,.4.2.4.4h1.8c-.1-.4-.3-.8-.5-1.1-.2-.4-.5-.5-.9-.8s-.8-.3-1.3-.3-1,.2-1.4.4c-.4.2-.7.6-.9,1-.3.4-.3.9-.3,1.4s.1,1,.3,1.4c.2.4.5.7.9,1,.4.3.9.4,1.4.4s.9,0,1.3-.3.7-.5.9-.8c.3-.3.5-.7.5-1.1h-1.8c0,.2-.3.2-.4.4-.1.2-.2.2-.5.2s-.5-.1-.7-.3c-.3-.2-.3-.5-.3-.9s0-.7.3-.9.4-.3.7-.3Z"></path><path class="cls-1" d="M81.8,19.4l-2,5.5h1.8l.3-.8h1.8l.3.8h1.8l-2-5.5h-2ZM82.5,22.8l.5-1.3.4,1.3h-.9Z"></path><path class="cls-1" d="M90.8,21.1c0-.3,0-.6-.2-.9-.1-.2-.4-.4-.7-.6s-.7-.2-1.1-.2h-2.6v5.5h1.7v-2l1,2h0c0,0,1.9,0,1.9,0l-1.2-2.1c.4,0,.7-.3.9-.6.3-.3.3-.7.3-1ZM89,21.7c0,.1-.2.1-.4.1h-.7v-.9h.7c.2,0,.4,0,.4,0v.3c0,.2.1.3,0,.4Z"></path><polygon class="cls-1" points="91.3 25 95 25 95 23.6 93.2 23.6 93.2 22.8 94.8 22.8 94.8 21.5 93.2 21.5 93.2 20.9 95 20.9 95 19.5 91.3 19.5 91.3 25"></polygon><path class="cls-1" d="M105.3,5.5c3,.5,4.7,2.5,5.4,4.6-.6-4.8-5-7-9.1-5.9-2,.5-3.7,1.9-4.3,3.9-.6,1.9-.2,3.7.5,4.5.7.8,2.1,1.2,3,.9.9-.3,1.2-1,1.2-1.6s-.4-.7-.8-.6c.3,0,.4.2.4.5,0,.5-.6.8-1.1.8-1.1,0-1.5-1.4-1.2-2.6.9-2.7,4-2.6,5.5-1.7,1.9,1,3,3.5,2.1,6-1.3,3.8-5.1,5.6-9,5.4-.7,0-1.5-.2-2-.3.6.4,2.1,1.1,3.4,1.3,3,.6,7.4,0,9.7-3.9h0c2.2-4.1,1.1-9.9-3.7-11.3Z"></path><path class="cls-1" d="M105.8,2.5c.2,0,.3.2.5.3,0-.1,0-.2-.5-.3Z"></path><path class="cls-1" d="M106.3,2.9s0,0-.1,0c0,0,0,0,.1,0Z"></path><path class="cls-1" d="M111,11.2c-.2,0-.3.1-.3.3s.1.3.3.3.3-.1.3-.3-.1-.3-.3-.3Z"></path><path class="cls-1" d="M107.3,3.8c.1,0,.3-.1.3-.3s-.2-.3-.3-.3-.3.2-.3.3.2.3.3.3Z"></path><path class="cls-1" d="M43.2,15.4h5.1l1,2.4h3.6l-5.4-12.2h-3.4l-5.4,12.2h3.5l1-2.4ZM45.8,8.9l1.6,3.9h-3.2l1.6-3.9Z"></path><path class="cls-1" d="M53.5,5.4h0c0,0,0,0,0,0,0,0,0,0,0,0Z"></path><rect class="cls-1" x="53.8" y="8.3" width="3.3" height="9.4"></rect><path class="cls-1" d="M55.5,7.2c1.2,0,2-.8,2-1.8s-.8-1.7-2-1.7-2,.8-2,1.8c0,1,.8,1.8,2,1.8Z"></path><path class="cls-1" d="M62.5,8.3h-3.2v9.4h3.3v-4.3c0-1.6,1-2.3,2.3-2.3h.7v-3c-1.3,0-2.4.4-3.1,1.3v-1.1Z"></path><path class="cls-1" d="M65.5,8.1h0s0,0,.1,0h-.1Z"></path><path class="cls-1" d="M83.7,6.6c0-4.1-3.1-6.6-7.9-6.6h-8.1v17.7h5v-4.6h3.1c4.9,0,7.9-2.5,7.9-6.5ZM72.8,9.2v-5.2h2.8c2.1,0,3.1,1,3.1,2.6s-1,2.6-3.1,2.6h-2.8Z"></path><path class="cls-1" d="M89.8,11.5c0-2,.9-3,2.4-3.3-.2.7-.3,1.5-.2,2.3.2,2.6,1.5,5,4.3,6.1-2.4-.6-3.9-2.1-4.6-3.8.9,4.4,5,6.6,8.9,5.6h-.1c2-.5,3.7-1.9,4.3-3.9.6-1.9.3-3.6-.5-4.5-.9-1-2.1-1.2-3-.9-.9.3-1.2,1-1.2,1.6s.4.7.8.6c-.3,0-.4-.2-.4-.5,0-.5.6-.8,1.1-.8,1.1,0,1.5,1.3,1.1,2.5-.8,2.5-3.9,2.5-5.4,1.7-1.8-.9-2.8-3.3-2.2-5.9.9-3.8,4.3-5.9,8.1-5.9s2.1,0,2.5.1c-.7-.4-1.8-.8-3-1-1.7-.3-3.8,0-5.6.8-1.1.5-2.1,1.2-2.9,2.1v-.6h0c-2-.1-3.6.6-4.6,1.8v-1.6h-4.6v13.8h4.8v-6.3Z"></path></svg> 