<?xml version="1.0" encoding="UTF-8"?> <svg xmlns="http://www.w3.org/2000/svg" id="Layer_1" data-name="Layer 1" version="1.1" viewBox="0 0 154 25"><defs><style> .cls-1 { fill: #fff; stroke-width: 0px; } </style></defs><g><path class="cls-1" d="M54.3,12.1h-2.2v-2.2h-4.5v2.2h-2.2v-6.7c0-.6.1-1.2.4-1.7.2-.5.6-1,1-1.4.4-.4.9-.7,1.4-1,.5-.2,1.1-.4,1.7-.4s1.2.1,1.7.4c.5.2,1,.6,1.4,1s.7.9,1,1.4c.2.5.4,1.1.4,1.7v6.7ZM52,7.6v-2.2c0-.3,0-.6-.2-.9-.1-.3-.3-.5-.5-.7s-.4-.4-.7-.5-.6-.2-.9-.2-.6,0-.9.2-.5.3-.7.5-.4.4-.5.7c-.1.3-.2.6-.2.9v2.2h4.5Z"></path><path class="cls-1" d="M58.2,12.1h-2.2V.4h2.2v11.7Z"></path><rect class="cls-1" x="59.8" y=".4" width="2.2" height="11.7"></rect><path class="cls-1" d="M59.8,13.1h2.2v6.3c0,.6-.1,1.2-.4,1.7-.2.5-.6,1-1,1.4-.4.4-.9.7-1.4,1-.5.2-1.1.4-1.7.4s-.7,0-1.1-.1c0,0,0,0,0,0v-2.4c.2,0,.3.2.5.2.2,0,.4,0,.6,0,.3,0,.6,0,.9-.2.3-.1.5-.3.7-.5.2-.2.4-.4.5-.7.1-.3.2-.6.2-.9v-6.3Z"></path><path class="cls-1" d="M78.8,10.9c-.5.4-1.1.8-1.8,1-.6.2-1.3.4-2,.4s-1,0-1.5-.2-1-.3-1.4-.6-.8-.6-1.2-.9c-.4-.4-.7-.7-.9-1.2-.3-.4-.4-.9-.6-1.4-.1-.5-.2-1-.2-1.5s0-1,.2-1.5c.1-.5.3-1,.6-1.4.3-.4.6-.8.9-1.2.4-.4.7-.7,1.2-.9.4-.3.9-.4,1.4-.6.5-.1,1-.2,1.5-.2s1.4.1,2,.4c.6.2,1.2.6,1.8,1l-1.2,2c-.3-.4-.7-.6-1.2-.8-.4-.2-.9-.3-1.4-.3s-1,0-1.4.3c-.4.2-.8.4-1.1.8-.3.3-.6.7-.8,1.1-.2.4-.3.9-.3,1.4s0,1,.3,1.4c.2.4.4.8.8,1.1.3.3.7.6,1.1.8.4.2.9.3,1.4.3s1,0,1.4-.3c.4-.2.8-.5,1.2-.8l1.2,2Z"></path><path class="cls-1" d="M82.3,1.4c0,.2,0,.4-.1.6,0,.2-.2.3-.3.4-.1.1-.3.2-.5.3-.2,0-.4.1-.6.1s-.4,0-.6-.1-.3-.2-.5-.3c-.1-.1-.2-.3-.3-.4,0-.2-.1-.4-.1-.6s0-.4.1-.6c0-.2.2-.3.3-.5.1-.1.3-.2.5-.3C80.5,0,80.7,0,80.9,0s.4,0,.6.1c.2,0,.3.2.5.3.1.1.2.3.3.5,0,.2.1.4.1.6ZM82,12.1h-2.2V3.7h2.2v8.4Z"></path><path class="cls-1" d="M87.8,12.1c-.5,0-1,0-1.5-.3s-.9-.5-1.2-.8c-.3-.3-.6-.7-.8-1.2-.2-.5-.3-.9-.3-1.5v-2.5h-1v-2.1h1V.4h2.1v3.3h3.2v2.1h-3.2v2.5c0,.2,0,.4.1.6s.2.4.3.5c.1.1.3.3.5.3.2,0,.4.1.6.1h1.6v2.1h-1.6Z"></path><path class="cls-1" d="M92.6,15.3v-2.2h1.2c.2,0,.4,0,.6,0,.2,0,.4-.2.5-.3.2-.1.3-.3.4-.4.1-.2.2-.3.3-.5-.2,0-.5.2-.7.3-.2,0-.5.1-.7.1-.5,0-1,0-1.5-.3s-.9-.4-1.2-.8c-.3-.3-.6-.7-.8-1.2-.2-.5-.3-1-.3-1.6V3.7h2.1v4.6c0,.3,0,.6.1.8,0,.2.2.4.3.6.1.1.3.3.5.3.2,0,.4.1.6.1s.4,0,.6-.2.4-.2.5-.4c.1-.2.3-.4.3-.6,0-.2.1-.4.1-.7V3.7h2.2v7.3c0,.6-.1,1.1-.3,1.7-.2.5-.5,1-.9,1.4-.4.4-.8.7-1.4.9s-1.1.3-1.7.3h-1.1Z"></path><g><path class="cls-1" d="M72.3,24.8h-.5l-.8-1.2c-.2.2-.4.4-.6.5-.2.2-.5.3-.7.4s-.5.2-.8.3c-.3,0-.5.1-.8.1-.6,0-1.1,0-1.7-.3-.5-.2-1-.5-1.4-.9-.4-.4-.7-.8-.9-1.4-.2-.5-.3-1.2-.3-1.9s.1-1.3.3-1.8c.2-.5.5-1,.9-1.4.4-.4.8-.7,1.4-.9.5-.2,1.1-.3,1.7-.3s.5,0,.8.1c.3,0,.5.2.8.3.3.1.5.3.7.4.2.2.4.3.6.5l.8-1h.5v8.4ZM70.2,20.6c0-.3,0-.6-.2-.8-.1-.3-.3-.5-.5-.7-.2-.2-.4-.4-.7-.5-.3-.1-.5-.2-.8-.2s-.6,0-.8.1c-.3,0-.5.2-.7.4-.2.2-.3.4-.4.7-.1.3-.2.6-.2,1s0,.7.2,1c.1.3.3.5.4.7.2.2.4.3.7.4.3,0,.5.1.8.1s.6,0,.8-.2c.3-.1.5-.3.7-.5.2-.2.3-.5.5-.7.1-.3.2-.6.2-.8Z"></path><path class="cls-1" d="M76.1,24.8h-2.1v-8.4h.5l.7.8c.3-.3.7-.6,1.2-.7.4-.2.9-.3,1.4-.3s1,0,1.4.3c.5.2.9.5,1.2.8.3.3.6.7.8,1.2.2.5.3.9.3,1.5v4.8h-2.1v-4.8c0-.2,0-.4-.1-.6,0-.2-.2-.4-.3-.5-.1-.1-.3-.3-.5-.3-.2,0-.4-.1-.6-.1s-.4,0-.6.1c-.2,0-.4.2-.5.3-.1.1-.3.3-.3.5,0,.2-.1.4-.1.6v4.8Z"></path><path class="cls-1" d="M85.4,14.5c0,.2,0,.4-.1.5,0,.2-.2.3-.3.4-.1.1-.3.2-.4.3-.2,0-.3.1-.5.1s-.4,0-.5-.1c-.2,0-.3-.2-.4-.3-.1-.1-.2-.3-.3-.4,0-.2-.1-.3-.1-.5s0-.3.1-.5c0-.2.2-.3.3-.4.1-.1.3-.2.4-.3.2,0,.3-.1.5-.1s.4,0,.5.1c.2,0,.3.2.4.3.1.1.2.3.3.4,0,.2.1.3.1.5ZM85.1,24.8h-2.2v-8.4h2.2v8.4Z"></path><path class="cls-1" d="M90.9,24.8c-.5,0-1,0-1.5-.3-.5-.2-.9-.5-1.2-.8-.3-.3-.6-.7-.8-1.2-.2-.5-.3-.9-.3-1.5v-2.5h-1v-2.1h1v-3.3h2.1v3.3h3.2v2.1h-3.2v2.5c0,.2,0,.4.1.6,0,.2.2.4.3.5.1.1.3.3.5.3.2,0,.4.1.6.1h1.6v2.1h-1.6Z"></path><path class="cls-1" d="M101.9,20.6c0,.6-.1,1.2-.3,1.7-.2.5-.5,1-.9,1.4-.4.4-.8.7-1.4.9-.5.2-1.1.3-1.7.3s-1.1-.1-1.7-.3c-.5-.2-1-.5-1.4-.9-.4-.4-.7-.9-.9-1.4-.2-.5-.3-1.1-.3-1.7s.1-1.2.3-1.8c.2-.5.5-1,.9-1.4.4-.4.8-.7,1.4-.9.5-.2,1.1-.3,1.7-.3s1.2.1,1.7.3c.5.2,1,.5,1.4.9.4.4.7.9.9,1.4.2.5.3,1.2.3,1.8ZM99.7,20.6c0-.3,0-.7-.2-.9-.1-.3-.3-.5-.5-.7-.2-.2-.4-.4-.7-.5-.3-.1-.5-.2-.8-.2s-.6,0-.8.2c-.3.1-.5.3-.7.5-.2.2-.3.4-.4.7s-.2.6-.2.9,0,.6.2.9c.1.3.3.5.4.7.2.2.4.4.7.5.3.1.5.2.8.2s.6,0,.8-.2c.3-.1.5-.3.7-.5.2-.2.3-.4.5-.7.1-.3.2-.6.2-.9Z"></path><path class="cls-1" d="M105.2,24.8h-2.1v-8.4h.5l.7,1c.3-.3.7-.6,1.2-.7.4-.2.9-.3,1.4-.3h1.9v2.1h-1.9c-.2,0-.4,0-.6.1-.2,0-.4.2-.5.3-.1.1-.3.3-.3.5,0,.2-.1.4-.1.6v4.6Z"></path></g><g><path class="cls-1" d="M54.5,20.3v4.6c-1.3,0-2.5,0-3.8,0-.4,0-.7-.3-.7-.8.3,0,.5,0,.7,0-1.3-.5-.9-1.7-.9-2.6,0-.3,0-.6.1-1,.2,0,.4.1.8.2-.4-.4-.8-.7-.3-1.2,1.2.7,2.7.6,4.1.7Z"></path><path class="cls-1" d="M56.5,23.8s0,0-.1.1c-.1.2-.3.3-.5.6v-3.7c.2.2.3.2.4.3,0,0,.1.1.2.2v2.4s0,0,0,0Z"></path><path class="cls-1" d="M54.8,24.9v-4.5c.5,0,.7.2.7.7,0,1,0,2,0,3.1,0,.5-.1.7-.7.7Z"></path></g></g><path class="cls-1" d="M101.4,14.5c.3,0,.6-.1.9-.3-.2-.2-.5-.3-.9-.3,0-.2,0-.4-.1-.6,0-.1,0-.2-.2-.3,0,0-.1.2-.2.3,0,.2-.1.4-.1.6-.2,0-.4,0-.6.1-.1,0-.2,0-.3.2,0,0,.2.1.3.2.2,0,.4.1.6.1,0,.3.1.6.3.9.2-.2.3-.5.3-.9Z"></path><path class="cls-1" d="M102.3,12.6c.2,0,.3,0,.4-.2-.1,0-.3-.1-.4-.2,0,0,0-.2,0-.3,0,0,0,0,0-.1,0,0,0,0,0,.1,0,0,0,.2,0,.3,0,0-.2,0-.3,0,0,0,0,0-.1,0,0,0,0,0,.1,0,0,0,.2,0,.3,0,0,.2,0,.3.2.4,0-.1.1-.3.2-.4Z"></path></svg> 