<?xml version="1.0" encoding="UTF-8"?> <svg xmlns="http://www.w3.org/2000/svg" xmlns:xlink="http://www.w3.org/1999/xlink" id="Layer_1" data-name="Layer 1" version="1.1" viewBox="0 0 154 25"><defs><style> .cls-1 { fill: url(#linear-gradient); } .cls-1, .cls-2, .cls-3, .cls-4, .cls-5, .cls-6, .cls-7, .cls-8 { stroke-width: 0px; } .cls-2 { fill: #60c778; } .cls-3 { fill: #fbed7b; } .cls-4 { fill: url(#linear-gradient-2); } .cls-5 { fill: url(#linear-gradient-3); } .cls-6 { fill: #95ed88; } .cls-7 { fill: #fff; } .cls-8 { fill: url(#linear-gradient-4); } </style><linearGradient id="linear-gradient" x1="1165.7" y1="1499.6" x2="2109.6" y2="1499.6" gradientUnits="userSpaceOnUse"><stop offset="0" stop-color="#a4f291"></stop><stop offset="1" stop-color="#60c778"></stop></linearGradient><linearGradient id="linear-gradient-2" x1="1180.7" y1="1498.6" x2="2132.7" y2="1498.6" gradientUnits="userSpaceOnUse"><stop offset=".2" stop-color="#77bf75"></stop><stop offset="1" stop-color="#aeeb8f"></stop></linearGradient><linearGradient id="linear-gradient-3" x1="684.8" y1="1622.9" x2="687.1" y2="1353.5" gradientUnits="userSpaceOnUse"><stop offset="0" stop-color="#60c778"></stop><stop offset="1" stop-color="#a4f291"></stop></linearGradient><linearGradient id="linear-gradient-4" x1="840.9" y1="1653.5" x2="843.3" y2="1370.8" xlink:href="#linear-gradient-3"></linearGradient></defs><g><g><g><g><path class="cls-1" d="M1269.5,1363h-55.5l-10.3,25.5h-37.9l58-131.4h36.6l58.2,131.4h-38.7l-10.3-25.5ZM1258.6,1335.6l-16.9-42-16.9,42h33.8Z"></path><path class="cls-1" d="M1341.3,1375.2c-10.8-10.6-16.2-25.7-16.2-45.2v-72.8h37.2v71.7c0,21,8.3,31.5,25,31.5s24.8-10.5,24.8-31.5v-71.7h36.6v72.8c0,19.5-5.4,34.6-16.2,45.2-10.8,10.6-26,16-45.5,16s-34.7-5.3-45.5-16Z"></path><path class="cls-1" d="M1488.9,1387.2c-10-2.6-18.1-6.1-24.4-10.5l12.2-27.4c5.9,3.9,12.7,7,20.5,9.4,7.8,2.4,15.4,3.6,22.9,3.6,14.3,0,21.4-3.6,21.4-10.7s-2-6.5-6.1-8.4c-4.1-1.8-10.6-3.7-19.6-5.7-9.9-2.1-18.1-4.4-24.8-6.8-6.6-2.4-12.3-6.3-17.1-11.7-4.8-5.4-7.1-12.6-7.1-21.8s2.2-15.2,6.6-21.7c4.4-6.4,10.9-11.5,19.6-15.3,8.7-3.8,19.4-5.6,32-5.6s17.1,1,25.5,2.9c8.4,1.9,15.8,4.8,22.1,8.5l-11.4,27.6c-12.5-6.8-24.6-10.1-36.4-10.1s-12.8,1.1-16.1,3.3c-3.4,2.2-5.1,5-5.1,8.5s2,6.1,6,7.9c4,1.8,10.4,3.6,19.3,5.4,10,2.1,18.3,4.4,24.9,6.8,6.6,2.4,12.3,6.3,17.1,11.6,4.8,5.3,7.2,12.5,7.2,21.7s-2.2,15-6.6,21.4c-4.4,6.4-10.9,11.5-19.7,15.3-8.8,3.8-19.4,5.7-31.9,5.7s-21-1.3-31-3.9Z"></path><path class="cls-1" d="M1209.9,1735.9c-10.9-5.8-19.5-13.9-25.8-24.3-6.3-10.4-9.4-22.1-9.4-35.3s3.1-24.9,9.4-35.3c6.3-10.4,14.9-18.5,25.8-24.3,10.9-5.8,23.3-8.7,37.1-8.7s22.8,2.1,32.5,6.4c9.6,4.3,17.6,10.4,24,18.4l-23.6,21.4c-8.5-10.3-18.8-15.4-31-15.4s-13.5,1.6-19,4.7c-5.6,3.1-9.9,7.5-12.9,13.2-3.1,5.7-4.6,12.2-4.6,19.6s1.5,13.9,4.6,19.6c3.1,5.7,7.4,10.1,12.9,13.2,5.6,3.1,11.9,4.7,19,4.7,12.1,0,22.5-5.1,31-15.4l23.6,21.4c-6.4,8-14.4,14.1-24,18.4-9.6,4.3-20.5,6.4-32.5,6.4s-26.1-2.9-37.1-8.7Z"></path><path class="cls-1" d="M1346,1735.8c-11.1-5.9-19.8-14-26.1-24.4-6.3-10.4-9.5-22.1-9.5-35.1s3.2-24.7,9.5-35.1c6.3-10.4,15-18.5,26.1-24.4,11.1-5.9,23.6-8.8,37.4-8.8s26.4,2.9,37.4,8.8c11.1,5.9,19.8,14,26.1,24.4,6.3,10.4,9.5,22.1,9.5,35.1s-3.2,24.7-9.5,35.1c-6.3,10.4-15,18.5-26.1,24.4-11.1,5.9-23.6,8.8-37.4,8.8s-26.4-2.9-37.4-8.8ZM1401.4,1709.2c5.4-3.1,9.6-7.5,12.8-13.2,3.1-5.7,4.7-12.2,4.7-19.6s-1.6-13.9-4.7-19.6c-3.1-5.7-7.4-10.1-12.8-13.2-5.4-3.1-11.4-4.7-18-4.7s-12.6,1.6-18,4.7c-5.4,3.1-9.6,7.5-12.8,13.2-3.1,5.7-4.7,12.2-4.7,19.6s1.6,13.9,4.7,19.6c3.1,5.7,7.4,10.1,12.8,13.2,5.4,3.1,11.4,4.7,18,4.7s12.6-1.6,18-4.7Z"></path><path class="cls-1" d="M1600.9,1610.6v131.4h-30.6l-58-70v70h-36.4v-131.4h30.6l58,70v-70h36.4Z"></path><path class="cls-1" d="M1642.4,1740.7c-10-2.6-18.1-6.1-24.4-10.5l12.2-27.4c5.9,3.9,12.7,7,20.5,9.4,7.8,2.4,15.4,3.6,22.9,3.6,14.3,0,21.4-3.6,21.4-10.7s-2-6.5-6.1-8.4c-4.1-1.8-10.6-3.7-19.6-5.7-9.9-2.1-18.1-4.4-24.8-6.8-6.6-2.4-12.3-6.3-17.1-11.7-4.8-5.4-7.1-12.6-7.1-21.8s2.2-15.2,6.6-21.7c4.4-6.4,10.9-11.5,19.6-15.3,8.7-3.8,19.4-5.6,32-5.6s17.1,1,25.5,2.9c8.4,1.9,15.8,4.8,22.1,8.5l-11.4,27.6c-12.5-6.8-24.6-10.1-36.4-10.1s-12.8,1.1-16.1,3.3c-3.4,2.2-5.1,5-5.1,8.5s2,6.1,6,7.9c4,1.8,10.4,3.6,19.3,5.4,10,2.1,18.3,4.4,24.9,6.9,6.6,2.4,12.3,6.3,17.1,11.6,4.8,5.3,7.2,12.5,7.2,21.7s-2.2,15-6.6,21.4c-4.4,6.4-10.9,11.5-19.7,15.3-8.8,3.8-19.4,5.7-31.9,5.7s-21-1.3-31-3.9Z"></path><path class="cls-1" d="M1763.7,1728.7c-10.8-10.6-16.2-25.7-16.2-45.2v-72.8h37.2v71.7c0,21,8.3,31.5,25,31.5s24.8-10.5,24.8-31.5v-71.7h36.6v72.8c0,19.5-5.4,34.6-16.2,45.2-10.8,10.6-26,16-45.5,16s-34.7-5.3-45.5-16Z"></path><path class="cls-1" d="M1896.1,1610.6h37.2v101.9h62.7v29.5h-99.8v-131.4Z"></path><path class="cls-1" d="M2026.3,1640.1h-40.3v-29.5h117.7v29.5h-40.2v101.9h-37.2v-101.9Z"></path><path class="cls-1" d="M2199,1716.5h-55.5l-10.3,25.5h-37.9l58-131.4h36.6l58.2,131.4h-38.7l-10.3-25.5ZM2188.1,1689.1l-16.9-42-16.9,42h33.8Z"></path><path class="cls-1" d="M2383.5,1610.6v131.4h-30.6l-58-70v70h-36.4v-131.4h30.6l58,70v-70h36.4Z"></path><path class="cls-1" d="M2437.7,1640.1h-40.3v-29.5h117.7v29.5h-40.2v101.9h-37.2v-101.9Z"></path></g><g><path class="cls-7" d="M1269.5,1363h-55.5l-10.3,25.5h-37.9l58-131.4h36.6l58.2,131.4h-38.7l-10.3-25.5ZM1258.6,1335.6l-16.9-42-16.9,42h33.8Z"></path><path class="cls-7" d="M1341.3,1375.2c-10.8-10.6-16.2-25.7-16.2-45.2v-72.8h37.2v71.7c0,21,8.3,31.5,25,31.5s24.8-10.5,24.8-31.5v-71.7h36.6v72.8c0,19.5-5.4,34.6-16.2,45.2-10.8,10.6-26,16-45.5,16s-34.7-5.3-45.5-16Z"></path><path class="cls-7" d="M1488.9,1387.2c-10-2.6-18.1-6.1-24.4-10.5l12.2-27.4c5.9,3.9,12.7,7,20.5,9.4,7.8,2.4,15.4,3.6,22.9,3.6,14.3,0,21.4-3.6,21.4-10.7s-2-6.5-6.1-8.4c-4.1-1.8-10.6-3.7-19.6-5.7-9.9-2.1-18.1-4.4-24.8-6.8-6.6-2.4-12.3-6.3-17.1-11.7-4.8-5.4-7.1-12.6-7.1-21.8s2.2-15.2,6.6-21.7c4.4-6.4,10.9-11.5,19.6-15.3,8.7-3.8,19.4-5.6,32-5.6s17.1,1,25.5,2.9c8.4,1.9,15.8,4.8,22.1,8.5l-11.4,27.6c-12.5-6.8-24.6-10.1-36.4-10.1s-12.8,1.1-16.1,3.3c-3.4,2.2-5.1,5-5.1,8.5s2,6.1,6,7.9c4,1.8,10.4,3.6,19.3,5.4,10,2.1,18.3,4.4,24.9,6.8,6.6,2.4,12.3,6.3,17.1,11.6,4.8,5.3,7.2,12.5,7.2,21.7s-2.2,15-6.6,21.4c-4.4,6.4-10.9,11.5-19.7,15.3-8.8,3.8-19.4,5.7-31.9,5.7s-21-1.3-31-3.9Z"></path><path class="cls-7" d="M1209.9,1735.9c-10.9-5.8-19.5-13.9-25.8-24.3-6.3-10.4-9.4-22.1-9.4-35.3s3.1-24.9,9.4-35.3c6.3-10.4,14.9-18.5,25.8-24.3,10.9-5.8,23.3-8.7,37.1-8.7s22.8,2.1,32.5,6.4c9.6,4.3,17.6,10.4,24,18.4l-23.6,21.4c-8.5-10.3-18.8-15.4-31-15.4s-13.5,1.6-19,4.7c-5.6,3.1-9.9,7.5-12.9,13.2-3.1,5.7-4.6,12.2-4.6,19.6s1.5,13.9,4.6,19.6c3.1,5.7,7.4,10.1,12.9,13.2,5.6,3.1,11.9,4.7,19,4.7,12.1,0,22.5-5.1,31-15.4l23.6,21.4c-6.4,8-14.4,14.1-24,18.4-9.6,4.3-20.5,6.4-32.5,6.4s-26.1-2.9-37.1-8.7Z"></path><path class="cls-7" d="M1346,1735.8c-11.1-5.9-19.8-14-26.1-24.4-6.3-10.4-9.5-22.1-9.5-35.1s3.2-24.7,9.5-35.1c6.3-10.4,15-18.5,26.1-24.4,11.1-5.9,23.6-8.8,37.4-8.8s26.4,2.9,37.4,8.8c11.1,5.9,19.8,14,26.1,24.4,6.3,10.4,9.5,22.1,9.5,35.1s-3.2,24.7-9.5,35.1c-6.3,10.4-15,18.5-26.1,24.4-11.1,5.9-23.6,8.8-37.4,8.8s-26.4-2.9-37.4-8.8ZM1401.4,1709.2c5.4-3.1,9.6-7.5,12.8-13.2,3.1-5.7,4.7-12.2,4.7-19.6s-1.6-13.9-4.7-19.6c-3.1-5.7-7.4-10.1-12.8-13.2-5.4-3.1-11.4-4.7-18-4.7s-12.6,1.6-18,4.7c-5.4,3.1-9.6,7.5-12.8,13.2-3.1,5.7-4.7,12.2-4.7,19.6s1.6,13.9,4.7,19.6c3.1,5.7,7.4,10.1,12.8,13.2,5.4,3.1,11.4,4.7,18,4.7s12.6-1.6,18-4.7Z"></path><path class="cls-7" d="M1600.9,1610.6v131.4h-30.6l-58-70v70h-36.4v-131.4h30.6l58,70v-70h36.4Z"></path><path class="cls-7" d="M1642.4,1740.7c-10-2.6-18.1-6.1-24.4-10.5l12.2-27.4c5.9,3.9,12.7,7,20.5,9.4,7.8,2.4,15.4,3.6,22.9,3.6,14.3,0,21.4-3.6,21.4-10.7s-2-6.5-6.1-8.4c-4.1-1.8-10.6-3.7-19.6-5.7-9.9-2.1-18.1-4.4-24.8-6.8-6.6-2.4-12.3-6.3-17.1-11.7-4.8-5.4-7.1-12.6-7.1-21.8s2.2-15.2,6.6-21.7c4.4-6.4,10.9-11.5,19.6-15.3,8.7-3.8,19.4-5.6,32-5.6s17.1,1,25.5,2.9c8.4,1.9,15.8,4.8,22.1,8.5l-11.4,27.6c-12.5-6.8-24.6-10.1-36.4-10.1s-12.8,1.1-16.1,3.3c-3.4,2.2-5.1,5-5.1,8.5s2,6.1,6,7.9c4,1.8,10.4,3.6,19.3,5.4,10,2.1,18.3,4.4,24.9,6.9,6.6,2.4,12.3,6.3,17.1,11.6,4.8,5.3,7.2,12.5,7.2,21.7s-2.2,15-6.6,21.4c-4.4,6.4-10.9,11.5-19.7,15.3-8.8,3.8-19.4,5.7-31.9,5.7s-21-1.3-31-3.9Z"></path><path class="cls-7" d="M1763.7,1728.7c-10.8-10.6-16.2-25.7-16.2-45.2v-72.8h37.2v71.7c0,21,8.3,31.5,25,31.5s24.8-10.5,24.8-31.5v-71.7h36.6v72.8c0,19.5-5.4,34.6-16.2,45.2-10.8,10.6-26,16-45.5,16s-34.7-5.3-45.5-16Z"></path><path class="cls-7" d="M1896.1,1610.6h37.2v101.9h62.7v29.5h-99.8v-131.4Z"></path><path class="cls-7" d="M2026.3,1640.1h-40.3v-29.5h117.7v29.5h-40.2v101.9h-37.2v-101.9Z"></path><path class="cls-7" d="M2199,1716.5h-55.5l-10.3,25.5h-37.9l58-131.4h36.6l58.2,131.4h-38.7l-10.3-25.5ZM2188.1,1689.1l-16.9-42-16.9,42h33.8Z"></path><path class="cls-7" d="M2383.5,1610.6v131.4h-30.6l-58-70v70h-36.4v-131.4h30.6l58,70v-70h36.4Z"></path><path class="cls-7" d="M2437.7,1640.1h-40.3v-29.5h117.7v29.5h-40.2v101.9h-37.2v-101.9Z"></path></g></g><path class="cls-7" d="M1070.7,1550h0s0,0,0,0c0,0,0,0,0,0Z"></path><g><path class="cls-4" d="M1286.2,1535.5v28.7h-105.5v-131.4h103v28.7h-66.2v22.1h58.4v27.8h-58.4v24h68.7Z"></path><path class="cls-4" d="M1431.8,1432.9v131.4h-30.6l-58-70v70h-36.4v-131.4h30.6l58,70v-70h36.4Z"></path><path class="cls-4" d="M1546.1,1495.8h32.8v54.4c-7.5,5.4-16.1,9.5-25.9,12.4-9.8,2.9-19.5,4.3-29.3,4.3s-26.1-2.9-37.2-8.7c-11-5.8-19.6-13.9-25.9-24.3-6.3-10.4-9.4-22.1-9.4-35.3s3.1-24.9,9.4-35.3c6.3-10.4,14.9-18.5,26.1-24.3,11.1-5.8,23.7-8.7,37.7-8.7s23.3,2.1,33,6.2c9.8,4.1,17.9,10.1,24.4,17.8l-23.6,21.4c-8.9-9.8-19.5-14.6-31.9-14.6s-20.3,3.4-27.2,10.2c-6.9,6.8-10.3,15.9-10.3,27.3s1.6,13.7,4.7,19.4c3.1,5.7,7.5,10.1,13.1,13.3,5.6,3.2,12.1,4.8,19.3,4.8s13.8-1.4,20.1-4.3v-36Z"></path><path class="cls-4" d="M1708.1,1535.5v28.7h-105.5v-131.4h103v28.7h-66.2v22.1h58.4v27.8h-58.4v24h68.7Z"></path><path class="cls-4" d="M1786.1,1529.3h-20.3v34.9h-37.2v-131.4h60.1c11.9,0,22.2,2,31,5.9,8.8,3.9,15.5,9.6,20.3,16.9,4.8,7.3,7.1,15.9,7.1,25.8s-2.2,17.8-6.7,24.9c-4.4,7.1-10.8,12.6-19,16.6l28.3,41.3h-39.8l-23.8-34.9ZM1803.8,1467.2c-3.9-3.4-9.6-5.1-17.3-5.1h-20.6v38.5h20.6c7.6,0,13.4-1.7,17.3-5,3.9-3.3,5.8-8,5.8-14.2s-1.9-10.9-5.8-14.3Z"></path><path class="cls-4" d="M1955.6,1495.8h32.8v54.4c-7.5,5.4-16.1,9.5-25.9,12.4-9.8,2.9-19.5,4.3-29.3,4.3s-26.2-2.9-37.2-8.7c-11-5.8-19.6-13.9-25.9-24.3-6.3-10.4-9.4-22.1-9.4-35.3s3.1-24.9,9.4-35.3c6.3-10.4,14.9-18.5,26.1-24.3,11.1-5.8,23.7-8.7,37.7-8.7s23.3,2.1,33,6.2c9.8,4.1,17.9,10.1,24.4,17.8l-23.6,21.4c-8.9-9.8-19.5-14.6-31.9-14.6s-20.3,3.4-27.2,10.2c-6.9,6.8-10.3,15.9-10.3,27.3s1.6,13.7,4.7,19.4c3.1,5.7,7.5,10.1,13.1,13.3,5.6,3.2,12.1,4.8,19.3,4.8s13.8-1.4,20.1-4.3v-36Z"></path><path class="cls-4" d="M2082.4,1517.1v47.1h-37.2v-47.7l-50.1-83.7h39.2l31.2,52.2,31.2-52.2h36l-50.3,84.3Z"></path></g><g><path class="cls-5" d="M712.9,1512.1h23.4l-41.3,110.8c-17.3-12.9-31.9-29.4-42.4-48.2-12.7-22.7-19.5-48.6-19.5-74.8s12.5-70.2,35.1-97.6c18.9-22.8,44-39.6,71.9-48.5l-46.9,130c-2.3,6.4-1.4,13.6,2.6,19.2,3.9,5.6,10.4,9,17.2,9Z"></path><path class="cls-8" d="M939.1,1500c0,40.9-15.9,79.3-44.8,108.2-28.9,28.9-67.4,44.8-108.2,44.8s-28.4-2-42-5.8l126.9-174.7c4.8-6.7,5.5-15.4,1.8-22.7-3.7-7.3-11.2-11.9-19.4-11.9h-26.1l41.2-66.9c20,12.8,36.9,30.2,49.1,50.7,14.1,23.6,21.5,50.7,21.5,78.3Z"></path><path class="cls-7" d="M865.5,1358.9l21.7-35.2c4.3-7.1-.7-16.1-9-16.1h-104.4c-4.6,0-8.7,2.9-10.2,7.2l-9.6,26.5-52.6,145.7c-2.9,7.9,3,16.3,11.5,16.3h30.9c2.6,0,4.3,2.5,3.4,4.9l-47.9,128.5-15.1,40.5c-4.6,12.2,11.9,21.1,19.6,10.5l26.1-35.9,134.1-184.5c6.2-8.6.1-20.6-10.5-20.6h-37.5c-1.9,0-3.1-2.1-2.1-3.7l51.8-84.1ZM805.2,1446.8s0,0,0,0c0,.2,0,.4.1.6.2.6.4,1.2.7,1.8.4.8.8,1.5,1.4,2.1.2.2.4.5.7.7.3.3.6.6,1,.8.4.3.7.5,1.1.7.4.2.9.4,1.4.6.3.1.6.2.9.3.6.1,1.3.2,2,.2h39.5c.1,0,.2,0,.3,0,0,0,.1,0,.2,0,3.6.3,5.7,4.3,3.7,7.4,0,.1-.2.2-.2.3l-135.6,186.6-24.2,33.3-.5.7c-2.4,3.3-7.6.5-6.2-3.3l.3-.8,14.2-38,49.1-131.7s0,0,0,0c.1-.3.2-.6.3-.9.2-.6.3-1.1.3-1.7.5-5.3-3.4-10.2-8.9-10.8-.3,0-.7,0-1,0h-32.5c-3.3,0-5.6-3.3-4.5-6.3v-.3c.1,0,53.9-149.1,53.9-149.1l8-22.2c0,0,0-.2.1-.2h0c0,0,0-.2.1-.2h0c0-.2.2-.3.3-.4.1-.1.2-.3.4-.4.1-.1.3-.2.4-.3.6-.4,1.2-.6,2-.6h103.3c2.6,0,4.2,2.9,2.8,5.1l-.3.5-21.1,34.4-52.2,84.9c0,.1-.2.3-.2.4-.3.5-.5,1-.7,1.4t0,0c-.2.5-.3.9-.4,1.4,0,0,0,.2,0,.2-.2,1.1-.2,2.1,0,3.1Z"></path><path class="cls-3" d="M805.1,1443.6c-.2,1.1-.2,2.1,0,3.1,0,0,0,0,0,0,0,.2,0,.4.1.6.2.6.4,1.2.7,1.8.4.8.8,1.5,1.4,2.1.2.2.4.5.7.7.3.3.6.6,1,.8.4.3.7.5,1.1.7.4.2.9.4,1.4.6.3.1.6.2.9.3.6.1,1.3.2,2,.2h39.5c.1,0,.2,0,.3,0,0,0,.1,0,.2,0,3.5.4,5.5,4.4,3.7,7.4,0,.1-.2.2-.2.3l-135.6,186.6-24.2,33.3-.5.7c-2.4,3.3-7.6.5-6.2-3.3l.3-.8,14.2-38,49.1-131.7s0,0,0,0c.1-.3.2-.6.3-.9.2-.6.3-1.1.3-1.7.5-5.3-3.4-10.3-8.9-10.8-.3,0-.7,0-1,0h-32.1c-3.5,0-5.9-3.4-4.7-6.7l53.8-149.1,8-22.1c0,0,0-.2.1-.3h0c0,0,0-.2.1-.2h0c0-.2.2-.3.3-.4.1-.1.2-.3.4-.4.1-.1.3-.2.4-.3.6-.4,1.2-.6,2-.6h102.8c2.8,0,4.6,3.1,3.1,5.5l-21.1,34.4-52.2,84.9h0c0,.1-.1.3-.2.4-.3.5-.5,1-.7,1.4t0,0c-.2.5-.3.9-.4,1.4,0,0,0,.2,0,.2Z"></path><g><path class="cls-6" d="M1081.4,1499.9c0,11.3-.6,22.4-1.9,33.4-.5,4.7-4.6,8.2-9.2,8.2s-1.2,0-1.9-.2c-4.7-1-7.9-5.4-7.4-10.2,1.2-10.2,1.8-20.7,1.8-31.2,0-107-61.7-200-151.4-245-36.9-18.5-78.5-29-122.6-29s-85.7,10.4-122.6,29c-62,31.1-110.6,85.1-134.7,150.8l25.5-11.9c5-2.3,10.9-.2,13.3,4.8,2.3,5,.2,10.9-4.8,13.3l-41,19.1c-3.1,1.5-6.7,1.9-10,1.2-3.5-.7-6.6-2.6-8.8-5.4,0,0,0,0,0-.1-.5-.7-1-1.4-1.4-2.2l-18-34.5c-2.5-4.9-1-11.1,3.8-13.8,4.9-2.7,11.1-.9,13.7,4.1l10.2,19.6c24.3-66.7,72.3-122.1,133.6-156.1,41.9-23.2,90.1-36.5,141.3-36.5s97.9,12.8,139.4,35.4c91.2,49.6,153.2,146.3,153.2,257.1Z"></path><path class="cls-2" d="M490.7,1500.1c0-11.3.6-22.4,1.9-33.4.5-4.7,4.6-8.1,9.2-8.1s1.2,0,1.9.2c4.7,1,7.9,5.4,7.4,10.2-1.2,10.2-1.8,20.7-1.8,31.2,0,151.1,122.9,274,274,274s218.8-75,257.3-179.8l-25.5,11.9c-5,2.3-10.9.2-13.3-4.8-2.3-5-.2-10.9,4.8-13.3l41-19.1c3.1-1.5,6.6-1.9,10-1.2,3.5.7,6.6,2.6,8.8,5.4,0,0,0,0,0,0,.5.7,1,1.4,1.4,2.2l18,34.5c2.5,4.9,1,11.1-3.8,13.8-4.9,2.7-11.1.9-13.7-4.1l-10.2-19.6c-40.9,112.3-148.7,192.6-275,192.6s-292.5-131.2-292.5-292.5Z"></path></g></g></g><g><path class="cls-4" d="M1286.2,1535.5v28.7h-105.5v-131.4h103v28.7h-66.2v22.1h58.4v27.8h-58.4v24h68.7Z"></path><path class="cls-4" d="M1431.8,1432.9v131.4h-30.6l-58-70v70h-36.4v-131.4h30.6l58,70v-70h36.4Z"></path><path class="cls-4" d="M1546.1,1495.8h32.8v54.4c-7.5,5.4-16.1,9.5-25.9,12.4-9.8,2.9-19.5,4.3-29.3,4.3s-26.1-2.9-37.2-8.7c-11-5.8-19.6-13.9-25.9-24.3-6.3-10.4-9.4-22.1-9.4-35.3s3.1-24.9,9.4-35.3c6.3-10.4,14.9-18.5,26.1-24.3,11.1-5.8,23.7-8.7,37.7-8.7s23.3,2.1,33,6.2c9.8,4.1,17.9,10.1,24.4,17.8l-23.6,21.4c-8.9-9.8-19.5-14.6-31.9-14.6s-20.3,3.4-27.2,10.2c-6.9,6.8-10.3,15.9-10.3,27.3s1.6,13.7,4.7,19.4c3.1,5.7,7.5,10.1,13.1,13.3,5.6,3.2,12.1,4.8,19.3,4.8s13.8-1.4,20.1-4.3v-36Z"></path><path class="cls-4" d="M1708.1,1535.5v28.7h-105.5v-131.4h103v28.7h-66.2v22.1h58.4v27.8h-58.4v24h68.7Z"></path><path class="cls-4" d="M1786.1,1529.3h-20.3v34.9h-37.2v-131.4h60.1c11.9,0,22.2,2,31,5.9,8.8,3.9,15.5,9.6,20.3,16.9,4.8,7.3,7.1,15.9,7.1,25.8s-2.2,17.8-6.7,24.9c-4.4,7.1-10.8,12.6-19,16.6l28.3,41.3h-39.8l-23.8-34.9ZM1803.8,1467.2c-3.9-3.4-9.6-5.1-17.3-5.1h-20.6v38.5h20.6c7.6,0,13.4-1.7,17.3-5,3.9-3.3,5.8-8,5.8-14.2s-1.9-10.9-5.8-14.3Z"></path><path class="cls-4" d="M1955.6,1495.8h32.8v54.4c-7.5,5.4-16.1,9.5-25.9,12.4-9.8,2.9-19.5,4.3-29.3,4.3s-26.2-2.9-37.2-8.7c-11-5.8-19.6-13.9-25.9-24.3-6.3-10.4-9.4-22.1-9.4-35.3s3.1-24.9,9.4-35.3c6.3-10.4,14.9-18.5,26.1-24.3,11.1-5.8,23.7-8.7,37.7-8.7s23.3,2.1,33,6.2c9.8,4.1,17.9,10.1,24.4,17.8l-23.6,21.4c-8.9-9.8-19.5-14.6-31.9-14.6s-20.3,3.4-27.2,10.2c-6.9,6.8-10.3,15.9-10.3,27.3s1.6,13.7,4.7,19.4c3.1,5.7,7.5,10.1,13.1,13.3,5.6,3.2,12.1,4.8,19.3,4.8s13.8-1.4,20.1-4.3v-36Z"></path><path class="cls-4" d="M2082.4,1517.1v47.1h-37.2v-47.7l-50.1-83.7h39.2l31.2,52.2,31.2-52.2h36l-50.3,84.3Z"></path></g></g><g><g><g><g><path class="cls-7" d="M67.2,6.6h-2.4l-.4,1.1h-1.6l2.5-5.6h1.6l2.5,5.6h-1.7l-.4-1.1ZM66.7,5.5l-.7-1.8-.7,1.8h1.4Z"></path><path class="cls-7" d="M70.2,7.2c-.5-.5-.7-1.1-.7-1.9v-3.1h1.6v3.1c0,.9.4,1.3,1.1,1.3s1.1-.4,1.1-1.3v-3.1h1.6v3.1c0,.8-.2,1.5-.7,1.9-.5.5-1.1.7-1.9.7s-1.5-.2-1.9-.7Z"></path><path class="cls-7" d="M76.5,7.7c-.4-.1-.8-.3-1-.4l.5-1.2c.3.2.5.3.9.4.3.1.7.2,1,.2.6,0,.9-.2.9-.5s0-.3-.3-.4c-.2,0-.5-.2-.8-.2-.4,0-.8-.2-1.1-.3-.3-.1-.5-.3-.7-.5-.2-.2-.3-.5-.3-.9s0-.7.3-.9c.2-.3.5-.5.8-.7.4-.2.8-.2,1.4-.2s.7,0,1.1.1c.4,0,.7.2.9.4l-.5,1.2c-.5-.3-1.1-.4-1.6-.4s-.5,0-.7.1c-.1,0-.2.2-.2.4s0,.3.3.3c.2,0,.4.2.8.2.4,0,.8.2,1.1.3.3.1.5.3.7.5.2.2.3.5.3.9s0,.6-.3.9c-.2.3-.5.5-.8.7-.4.2-.8.2-1.4.2s-.9,0-1.3-.2Z"></path><path class="cls-7" d="M64.6,22.6c-.5-.2-.8-.6-1.1-1-.3-.4-.4-.9-.4-1.5s.1-1.1.4-1.5c.3-.4.6-.8,1.1-1,.5-.2,1-.4,1.6-.4s1,0,1.4.3c.4.2.8.4,1,.8l-1,.9c-.4-.4-.8-.7-1.3-.7s-.6,0-.8.2c-.2.1-.4.3-.6.6-.1.2-.2.5-.2.8s0,.6.2.8c.1.2.3.4.6.6.2.1.5.2.8.2.5,0,1-.2,1.3-.7l1,.9c-.3.3-.6.6-1,.8-.4.2-.9.3-1.4.3s-1.1-.1-1.6-.4Z"></path><path class="cls-7" d="M70.4,22.6c-.5-.3-.8-.6-1.1-1-.3-.4-.4-.9-.4-1.5s.1-1.1.4-1.5c.3-.4.6-.8,1.1-1,.5-.3,1-.4,1.6-.4s1.1.1,1.6.4c.5.3.8.6,1.1,1,.3.4.4.9.4,1.5s-.1,1.1-.4,1.5c-.3.4-.6.8-1.1,1-.5.3-1,.4-1.6.4s-1.1-.1-1.6-.4ZM72.8,21.4c.2-.1.4-.3.5-.6.1-.2.2-.5.2-.8s0-.6-.2-.8c-.1-.2-.3-.4-.5-.6-.2-.1-.5-.2-.8-.2s-.5,0-.8.2c-.2.1-.4.3-.5.6-.1.2-.2.5-.2.8s0,.6.2.8c.1.2.3.4.5.6.2.1.5.2.8.2s.5,0,.8-.2Z"></path><path class="cls-7" d="M81.3,17.2v5.6h-1.3l-2.5-3v3h-1.6v-5.6h1.3l2.5,3v-3h1.6Z"></path><path class="cls-7" d="M83.1,22.8c-.4-.1-.8-.3-1-.4l.5-1.2c.3.2.5.3.9.4.3.1.7.2,1,.2.6,0,.9-.2.9-.5s0-.3-.3-.4c-.2,0-.5-.2-.8-.2-.4,0-.8-.2-1.1-.3-.3-.1-.5-.3-.7-.5-.2-.2-.3-.5-.3-.9s0-.7.3-.9c.2-.3.5-.5.8-.7.4-.2.8-.2,1.4-.2s.7,0,1.1.1c.4,0,.7.2.9.4l-.5,1.2c-.5-.3-1.1-.4-1.6-.4s-.5,0-.7.1c-.1,0-.2.2-.2.4s0,.3.3.3c.2,0,.4.2.8.2.4,0,.8.2,1.1.3.3.1.5.3.7.5.2.2.3.5.3.9s0,.6-.3.9c-.2.3-.5.5-.8.7-.4.2-.8.2-1.4.2s-.9,0-1.3-.2Z"></path><path class="cls-7" d="M88.3,22.3c-.5-.5-.7-1.1-.7-1.9v-3.1h1.6v3.1c0,.9.4,1.3,1.1,1.3s1.1-.4,1.1-1.3v-3.1h1.6v3.1c0,.8-.2,1.5-.7,1.9-.5.5-1.1.7-1.9.7s-1.5-.2-1.9-.7Z"></path><path class="cls-7" d="M93.9,17.2h1.6v4.4h2.7v1.3h-4.3v-5.6Z"></path><path class="cls-7" d="M99.5,18.5h-1.7v-1.3h5v1.3h-1.7v4.4h-1.6v-4.4Z"></path><path class="cls-7" d="M106.9,21.7h-2.4l-.4,1.1h-1.6l2.5-5.6h1.6l2.5,5.6h-1.7l-.4-1.1ZM106.4,20.6l-.7-1.8-.7,1.8h1.4Z"></path><path class="cls-7" d="M114.7,17.2v5.6h-1.3l-2.5-3v3h-1.6v-5.6h1.3l2.5,3v-3h1.6Z"></path><path class="cls-7" d="M117.1,18.5h-1.7v-1.3h5v1.3h-1.7v4.4h-1.6v-4.4Z"></path></g><g><path class="cls-7" d="M67.2,6.6h-2.4l-.4,1.1h-1.6l2.5-5.6h1.6l2.5,5.6h-1.7l-.4-1.1ZM66.7,5.5l-.7-1.8-.7,1.8h1.4Z"></path><path class="cls-7" d="M70.2,7.2c-.5-.5-.7-1.1-.7-1.9v-3.1h1.6v3.1c0,.9.4,1.3,1.1,1.3s1.1-.4,1.1-1.3v-3.1h1.6v3.1c0,.8-.2,1.5-.7,1.9-.5.5-1.1.7-1.9.7s-1.5-.2-1.9-.7Z"></path><path class="cls-7" d="M76.5,7.7c-.4-.1-.8-.3-1-.4l.5-1.2c.3.2.5.3.9.4.3.1.7.2,1,.2.6,0,.9-.2.9-.5s0-.3-.3-.4c-.2,0-.5-.2-.8-.2-.4,0-.8-.2-1.1-.3-.3-.1-.5-.3-.7-.5-.2-.2-.3-.5-.3-.9s0-.7.3-.9c.2-.3.5-.5.8-.7.4-.2.8-.2,1.4-.2s.7,0,1.1.1c.4,0,.7.2.9.4l-.5,1.2c-.5-.3-1.1-.4-1.6-.4s-.5,0-.7.1c-.1,0-.2.2-.2.4s0,.3.3.3c.2,0,.4.2.8.2.4,0,.8.2,1.1.3.3.1.5.3.7.5.2.2.3.5.3.9s0,.6-.3.9c-.2.3-.5.5-.8.7-.4.2-.8.2-1.4.2s-.9,0-1.3-.2Z"></path><path class="cls-7" d="M64.6,22.6c-.5-.2-.8-.6-1.1-1-.3-.4-.4-.9-.4-1.5s.1-1.1.4-1.5c.3-.4.6-.8,1.1-1,.5-.2,1-.4,1.6-.4s1,0,1.4.3c.4.2.8.4,1,.8l-1,.9c-.4-.4-.8-.7-1.3-.7s-.6,0-.8.2c-.2.1-.4.3-.6.6-.1.2-.2.5-.2.8s0,.6.2.8c.1.2.3.4.6.6.2.1.5.2.8.2.5,0,1-.2,1.3-.7l1,.9c-.3.3-.6.6-1,.8-.4.2-.9.3-1.4.3s-1.1-.1-1.6-.4Z"></path><path class="cls-7" d="M70.4,22.6c-.5-.3-.8-.6-1.1-1-.3-.4-.4-.9-.4-1.5s.1-1.1.4-1.5c.3-.4.6-.8,1.1-1,.5-.3,1-.4,1.6-.4s1.1.1,1.6.4c.5.3.8.6,1.1,1,.3.4.4.9.4,1.5s-.1,1.1-.4,1.5c-.3.4-.6.8-1.1,1-.5.3-1,.4-1.6.4s-1.1-.1-1.6-.4ZM72.8,21.4c.2-.1.4-.3.5-.6.1-.2.2-.5.2-.8s0-.6-.2-.8c-.1-.2-.3-.4-.5-.6-.2-.1-.5-.2-.8-.2s-.5,0-.8.2c-.2.1-.4.3-.5.6-.1.2-.2.5-.2.8s0,.6.2.8c.1.2.3.4.5.6.2.1.5.2.8.2s.5,0,.8-.2Z"></path><path class="cls-7" d="M81.3,17.2v5.6h-1.3l-2.5-3v3h-1.6v-5.6h1.3l2.5,3v-3h1.6Z"></path><path class="cls-7" d="M83.1,22.8c-.4-.1-.8-.3-1-.4l.5-1.2c.3.2.5.3.9.4.3.1.7.2,1,.2.6,0,.9-.2.9-.5s0-.3-.3-.4c-.2,0-.5-.2-.8-.2-.4,0-.8-.2-1.1-.3-.3-.1-.5-.3-.7-.5-.2-.2-.3-.5-.3-.9s0-.7.3-.9c.2-.3.5-.5.8-.7.4-.2.8-.2,1.4-.2s.7,0,1.1.1c.4,0,.7.2.9.4l-.5,1.2c-.5-.3-1.1-.4-1.6-.4s-.5,0-.7.1c-.1,0-.2.2-.2.4s0,.3.3.3c.2,0,.4.2.8.2.4,0,.8.2,1.1.3.3.1.5.3.7.5.2.2.3.5.3.9s0,.6-.3.9c-.2.3-.5.5-.8.7-.4.2-.8.2-1.4.2s-.9,0-1.3-.2Z"></path><path class="cls-7" d="M88.3,22.3c-.5-.5-.7-1.1-.7-1.9v-3.1h1.6v3.1c0,.9.4,1.3,1.1,1.3s1.1-.4,1.1-1.3v-3.1h1.6v3.1c0,.8-.2,1.5-.7,1.9-.5.5-1.1.7-1.9.7s-1.5-.2-1.9-.7Z"></path><path class="cls-7" d="M93.9,17.2h1.6v4.4h2.7v1.3h-4.3v-5.6Z"></path><path class="cls-7" d="M99.5,18.5h-1.7v-1.3h5v1.3h-1.7v4.4h-1.6v-4.4Z"></path><path class="cls-7" d="M106.9,21.7h-2.4l-.4,1.1h-1.6l2.5-5.6h1.6l2.5,5.6h-1.7l-.4-1.1ZM106.4,20.6l-.7-1.8-.7,1.8h1.4Z"></path><path class="cls-7" d="M114.7,17.2v5.6h-1.3l-2.5-3v3h-1.6v-5.6h1.3l2.5,3v-3h1.6Z"></path><path class="cls-7" d="M117.1,18.5h-1.7v-1.3h5v1.3h-1.7v4.4h-1.6v-4.4Z"></path></g></g><polygon class="cls-7" points="58.7 14.6 58.7 14.6 58.7 14.6 58.7 14.6"></polygon><g><path class="cls-7" d="M67.9,14v1.2h-4.5v-5.6h4.4v1.2h-2.8v.9h2.5v1.2h-2.5v1h2.9Z"></path><path class="cls-7" d="M74.1,9.6v5.6h-1.3l-2.5-3v3h-1.6v-5.6h1.3l2.5,3v-3h1.6Z"></path><path class="cls-7" d="M79,12.3h1.4v2.3c-.3.2-.7.4-1.1.5-.4.1-.8.2-1.3.2s-1.1-.1-1.6-.4c-.5-.2-.8-.6-1.1-1-.3-.4-.4-.9-.4-1.5s.1-1.1.4-1.5c.3-.4.6-.8,1.1-1,.5-.2,1-.4,1.6-.4s1,0,1.4.3c.4.2.8.4,1,.8l-1,.9c-.4-.4-.8-.6-1.4-.6s-.9.1-1.2.4c-.3.3-.4.7-.4,1.2s0,.6.2.8c.1.2.3.4.6.6.2.1.5.2.8.2s.6,0,.9-.2v-1.5Z"></path><path class="cls-7" d="M85.9,14v1.2h-4.5v-5.6h4.4v1.2h-2.8v.9h2.5v1.2h-2.5v1h2.9Z"></path><path class="cls-7" d="M89.2,13.8h-.9v1.5h-1.6v-5.6h2.6c.5,0,.9,0,1.3.3.4.2.7.4.9.7.2.3.3.7.3,1.1s0,.8-.3,1.1c-.2.3-.5.5-.8.7l1.2,1.8h-1.7l-1-1.5ZM90,11.1c-.2-.1-.4-.2-.7-.2h-.9v1.6h.9c.3,0,.6,0,.7-.2.2-.1.2-.3.2-.6s0-.5-.2-.6Z"></path><path class="cls-7" d="M96.5,12.3h1.4v2.3c-.3.2-.7.4-1.1.5-.4.1-.8.2-1.3.2s-1.1-.1-1.6-.4c-.5-.2-.8-.6-1.1-1-.3-.4-.4-.9-.4-1.5s.1-1.1.4-1.5c.3-.4.6-.8,1.1-1,.5-.2,1-.4,1.6-.4s1,0,1.4.3c.4.2.8.4,1,.8l-1,.9c-.4-.4-.8-.6-1.4-.6s-.9.1-1.2.4c-.3.3-.4.7-.4,1.2s0,.6.2.8c.1.2.3.4.6.6.2.1.5.2.8.2s.6,0,.9-.2v-1.5Z"></path><path class="cls-7" d="M101.9,13.2v2h-1.6v-2l-2.1-3.6h1.7l1.3,2.2,1.3-2.2h1.5l-2.1,3.6Z"></path></g><g><path class="cls-7" d="M43.4,13h1l-1.8,4.7c-.7-.5-1.4-1.3-1.8-2.1-.5-1-.8-2.1-.8-3.2s.5-3,1.5-4.2c.8-1,1.9-1.7,3.1-2.1l-2,5.6c0,.3,0,.6.1.8.2.2.4.4.7.4Z"></path><path class="cls-7" d="M53,12.5c0,1.7-.7,3.4-1.9,4.6-1.2,1.2-2.9,1.9-4.6,1.9s-1.2,0-1.8-.2l5.4-7.5c.2-.3.2-.7,0-1-.2-.3-.5-.5-.8-.5h-1.1l1.8-2.9c.9.5,1.6,1.3,2.1,2.2.6,1,.9,2.2.9,3.3Z"></path><path class="cls-7" d="M49.9,6.5l.9-1.5c.2-.3,0-.7-.4-.7h-4.5c-.2,0-.4.1-.4.3l-.4,1.1-2.2,6.2c-.1.3.1.7.5.7h1.3c.1,0,.2.1.1.2l-2,5.5-.6,1.7c-.2.5.5.9.8.4l1.1-1.5,5.7-7.9c.3-.4,0-.9-.4-.9h-1.6c0,0-.1,0,0-.2l2.2-3.6ZM47.3,10.2s0,0,0,0c0,0,0,0,0,0,0,0,0,0,0,0,0,0,0,0,0,0,0,0,0,0,0,0,0,0,0,0,0,0,0,0,0,0,0,0,0,0,0,0,0,0,0,0,0,0,0,0,0,0,0,0,0,0h1.7s0,0,0,0c0,0,0,0,0,0,.2,0,.2.2.2.3,0,0,0,0,0,0l-5.8,8-1,1.4h0c-.1.2-.3,0-.3-.1h0s.6-1.7.6-1.7l2.1-5.6s0,0,0,0c0,0,0,0,0,0,0,0,0,0,0,0,0-.2-.1-.4-.4-.5,0,0,0,0,0,0h-1.4c-.1,0-.2-.1-.2-.3h0s2.3-6.4,2.3-6.4l.3-.9s0,0,0,0h0s0,0,0,0h0s0,0,0,0c0,0,0,0,0,0,0,0,0,0,0,0,0,0,0,0,0,0h4.4c.1,0,.2.1.1.2h0s-.9,1.5-.9,1.5l-2.2,3.6s0,0,0,0c0,0,0,0,0,0t0,0s0,0,0,0c0,0,0,0,0,0,0,0,0,0,0,.1Z"></path><path class="cls-7" d="M47.3,10.1s0,0,0,.1c0,0,0,0,0,0,0,0,0,0,0,0,0,0,0,0,0,0,0,0,0,0,0,0,0,0,0,0,0,0,0,0,0,0,0,0,0,0,0,0,0,0,0,0,0,0,0,0,0,0,0,0,0,0,0,0,0,0,0,0h1.7s0,0,0,0c0,0,0,0,0,0,.2,0,.2.2.2.3,0,0,0,0,0,0l-5.8,8-1,1.4h0c-.1.2-.3,0-.3-.1h0s.6-1.7.6-1.7l2.1-5.6s0,0,0,0c0,0,0,0,0,0,0,0,0,0,0,0,0-.2-.1-.4-.4-.5,0,0,0,0,0,0h-1.4c-.1,0-.3-.1-.2-.3l2.3-6.4.3-.9s0,0,0,0h0s0,0,0,0h0s0,0,0,0c0,0,0,0,0,0,0,0,0,0,0,0,0,0,0,0,0,0h4.4c.1,0,.2.1.1.2l-.9,1.5-2.2,3.6h0s0,0,0,0c0,0,0,0,0,0t0,0s0,0,0,0c0,0,0,0,0,0Z"></path><g><path class="cls-7" d="M59.1,12.5c0,.5,0,1,0,1.4,0,.2-.2.3-.4.3s0,0,0,0c-.2,0-.3-.2-.3-.4,0-.4,0-.9,0-1.3,0-4.6-2.6-8.5-6.5-10.5-1.6-.8-3.4-1.2-5.2-1.2s-3.7.4-5.2,1.2c-2.6,1.3-4.7,3.6-5.8,6.4l1.1-.5c.2,0,.5,0,.6.2.1.2,0,.5-.2.6l-1.8.8c-.1,0-.3,0-.4,0-.1,0-.3-.1-.4-.2,0,0,0,0,0,0,0,0,0,0,0,0l-.8-1.5c-.1-.2,0-.5.2-.6.2-.1.5,0,.6.2l.4.8c1-2.8,3.1-5.2,5.7-6.7,1.8-1,3.8-1.6,6-1.6s4.2.5,6,1.5c3.9,2.1,6.5,6.2,6.5,11Z"></path><path class="cls-7" d="M33.9,12.5c0-.5,0-1,0-1.4,0-.2.2-.3.4-.3s0,0,0,0c.2,0,.3.2.3.4,0,.4,0,.9,0,1.3,0,6.5,5.3,11.7,11.7,11.7s9.3-3.2,11-7.7l-1.1.5c-.2,0-.5,0-.6-.2,0-.2,0-.5.2-.6l1.8-.8c.1,0,.3,0,.4,0,.1,0,.3.1.4.2,0,0,0,0,0,0,0,0,0,0,0,0l.8,1.5c.1.2,0,.5-.2.6-.2.1-.5,0-.6-.2l-.4-.8c-1.7,4.8-6.4,8.2-11.7,8.2s-12.5-5.6-12.5-12.5Z"></path></g></g></g><g><path class="cls-7" d="M67.9,14v1.2h-4.5v-5.6h4.4v1.2h-2.8v.9h2.5v1.2h-2.5v1h2.9Z"></path><path class="cls-7" d="M74.1,9.6v5.6h-1.3l-2.5-3v3h-1.6v-5.6h1.3l2.5,3v-3h1.6Z"></path><path class="cls-7" d="M79,12.3h1.4v2.3c-.3.2-.7.4-1.1.5-.4.1-.8.2-1.3.2s-1.1-.1-1.6-.4c-.5-.2-.8-.6-1.1-1-.3-.4-.4-.9-.4-1.5s.1-1.1.4-1.5c.3-.4.6-.8,1.1-1,.5-.2,1-.4,1.6-.4s1,0,1.4.3c.4.2.8.4,1,.8l-1,.9c-.4-.4-.8-.6-1.4-.6s-.9.1-1.2.4c-.3.3-.4.7-.4,1.2s0,.6.2.8c.1.2.3.4.6.6.2.1.5.2.8.2s.6,0,.9-.2v-1.5Z"></path><path class="cls-7" d="M85.9,14v1.2h-4.5v-5.6h4.4v1.2h-2.8v.9h2.5v1.2h-2.5v1h2.9Z"></path><path class="cls-7" d="M89.2,13.8h-.9v1.5h-1.6v-5.6h2.6c.5,0,.9,0,1.3.3.4.2.7.4.9.7.2.3.3.7.3,1.1s0,.8-.3,1.1c-.2.3-.5.5-.8.7l1.2,1.8h-1.7l-1-1.5ZM90,11.1c-.2-.1-.4-.2-.7-.2h-.9v1.6h.9c.3,0,.6,0,.7-.2.2-.1.2-.3.2-.6s0-.5-.2-.6Z"></path><path class="cls-7" d="M96.5,12.3h1.4v2.3c-.3.2-.7.4-1.1.5-.4.1-.8.2-1.3.2s-1.1-.1-1.6-.4c-.5-.2-.8-.6-1.1-1-.3-.4-.4-.9-.4-1.5s.1-1.1.4-1.5c.3-.4.6-.8,1.1-1,.5-.2,1-.4,1.6-.4s1,0,1.4.3c.4.2.8.4,1,.8l-1,.9c-.4-.4-.8-.6-1.4-.6s-.9.1-1.2.4c-.3.3-.4.7-.4,1.2s0,.6.2.8c.1.2.3.4.6.6.2.1.5.2.8.2s.6,0,.9-.2v-1.5Z"></path><path class="cls-7" d="M101.9,13.2v2h-1.6v-2l-2.1-3.6h1.7l1.3,2.2,1.3-2.2h1.5l-2.1,3.6Z"></path></g></g></svg> 