<?xml version="1.0" encoding="UTF-8"?> <svg xmlns="http://www.w3.org/2000/svg" xmlns:xlink="http://www.w3.org/1999/xlink" id="Layer_1" data-name="Layer 1" version="1.1" viewBox="0 0 195.4 25"><defs><style> .cls-1 { fill: url(#linear-gradient); } .cls-1, .cls-2, .cls-3, .cls-4, .cls-5, .cls-6, .cls-7, .cls-8 { stroke-width: 0px; } .cls-2 { fill: #60c778; } .cls-3 { fill: #fbed7b; } .cls-4 { fill: url(#linear-gradient-2); } .cls-5 { fill: url(#linear-gradient-3); } .cls-6 { fill: #95ed88; } .cls-7 { fill: #fff; } .cls-8 { fill: url(#linear-gradient-4); } </style><linearGradient id="linear-gradient" x1="1182" y1="1499.6" x2="2125.9" y2="1499.6" gradientUnits="userSpaceOnUse"><stop offset="0" stop-color="#a4f291"></stop><stop offset="1" stop-color="#60c778"></stop></linearGradient><linearGradient id="linear-gradient-2" x1="1197" y1="1498.6" x2="2149" y2="1498.6" gradientUnits="userSpaceOnUse"><stop offset=".2" stop-color="#77bf75"></stop><stop offset="1" stop-color="#aeeb8f"></stop></linearGradient><linearGradient id="linear-gradient-3" x1="701.1" y1="1622.9" x2="703.4" y2="1353.5" gradientUnits="userSpaceOnUse"><stop offset="0" stop-color="#60c778"></stop><stop offset="1" stop-color="#a4f291"></stop></linearGradient><linearGradient id="linear-gradient-4" x1="857.2" y1="1653.5" x2="859.6" y2="1370.8" xlink:href="#linear-gradient-3"></linearGradient></defs><g><g><g><g><path class="cls-1" d="M1285.8,1363h-55.5l-10.3,25.5h-37.9l58-131.4h36.6l58.2,131.4h-38.7l-10.3-25.5ZM1274.9,1335.6l-16.9-42-16.9,42h33.8Z"></path><path class="cls-1" d="M1357.5,1375.2c-10.8-10.6-16.2-25.7-16.2-45.2v-72.8h37.2v71.7c0,21,8.3,31.5,25,31.5s24.8-10.5,24.8-31.5v-71.7h36.6v72.8c0,19.5-5.4,34.6-16.2,45.2-10.8,10.6-26,16-45.5,16s-34.7-5.3-45.5-16Z"></path><path class="cls-1" d="M1505.1,1387.2c-10-2.6-18.1-6.1-24.4-10.5l12.2-27.4c5.9,3.9,12.7,7,20.5,9.4,7.8,2.4,15.4,3.6,22.9,3.6,14.3,0,21.4-3.6,21.4-10.7s-2-6.5-6.1-8.4c-4.1-1.8-10.6-3.7-19.6-5.7-9.9-2.1-18.1-4.4-24.8-6.8-6.6-2.4-12.3-6.3-17.1-11.7-4.8-5.4-7.1-12.6-7.1-21.8s2.2-15.2,6.6-21.7c4.4-6.4,10.9-11.5,19.6-15.3,8.7-3.8,19.4-5.6,32-5.6s17.1,1,25.5,2.9c8.4,1.9,15.8,4.8,22.1,8.5l-11.4,27.6c-12.5-6.8-24.6-10.1-36.4-10.1s-12.8,1.1-16.1,3.3c-3.4,2.2-5.1,5-5.1,8.5s2,6.1,6,7.9c4,1.8,10.4,3.6,19.3,5.4,10,2.1,18.3,4.4,24.9,6.8,6.6,2.4,12.3,6.3,17.1,11.6,4.8,5.3,7.2,12.5,7.2,21.7s-2.2,15-6.6,21.4c-4.4,6.4-10.9,11.5-19.7,15.3-8.8,3.8-19.4,5.7-31.9,5.7s-21-1.3-31-3.9Z"></path><path class="cls-1" d="M1226.2,1735.9c-10.9-5.8-19.5-13.9-25.8-24.3-6.3-10.4-9.4-22.1-9.4-35.3s3.1-24.9,9.4-35.3c6.3-10.4,14.9-18.5,25.8-24.3,10.9-5.8,23.3-8.7,37.1-8.7s22.8,2.1,32.5,6.4c9.6,4.3,17.6,10.4,24,18.4l-23.6,21.4c-8.5-10.3-18.8-15.4-31-15.4s-13.5,1.6-19,4.7c-5.6,3.1-9.9,7.5-12.9,13.2-3.1,5.7-4.6,12.2-4.6,19.6s1.5,13.9,4.6,19.6c3.1,5.7,7.4,10.1,12.9,13.2,5.6,3.1,11.9,4.7,19,4.7,12.1,0,22.5-5.1,31-15.4l23.6,21.4c-6.4,8-14.4,14.1-24,18.4-9.6,4.3-20.5,6.4-32.5,6.4s-26.1-2.9-37.1-8.7Z"></path><path class="cls-1" d="M1362.2,1735.8c-11.1-5.9-19.8-14-26.1-24.4-6.3-10.4-9.5-22.1-9.5-35.1s3.2-24.7,9.5-35.1c6.3-10.4,15-18.5,26.1-24.4,11.1-5.9,23.6-8.8,37.4-8.8s26.4,2.9,37.4,8.8c11.1,5.9,19.8,14,26.1,24.4,6.3,10.4,9.5,22.1,9.5,35.1s-3.2,24.7-9.5,35.1c-6.3,10.4-15,18.5-26.1,24.4-11.1,5.9-23.6,8.8-37.4,8.8s-26.4-2.9-37.4-8.8ZM1417.7,1709.2c5.4-3.1,9.6-7.5,12.8-13.2,3.1-5.7,4.7-12.2,4.7-19.6s-1.6-13.9-4.7-19.6c-3.1-5.7-7.4-10.1-12.8-13.2-5.4-3.1-11.4-4.7-18-4.7s-12.6,1.6-18,4.7c-5.4,3.1-9.6,7.5-12.8,13.2-3.1,5.7-4.7,12.2-4.7,19.6s1.6,13.9,4.7,19.6c3.1,5.7,7.4,10.1,12.8,13.2,5.4,3.1,11.4,4.7,18,4.7s12.6-1.6,18-4.7Z"></path><path class="cls-1" d="M1617.2,1610.6v131.4h-30.6l-58-70v70h-36.4v-131.4h30.6l58,70v-70h36.4Z"></path><path class="cls-1" d="M1658.6,1740.7c-10-2.6-18.1-6.1-24.4-10.5l12.2-27.4c5.9,3.9,12.7,7,20.5,9.4,7.8,2.4,15.4,3.6,22.9,3.6,14.3,0,21.4-3.6,21.4-10.7s-2-6.5-6.1-8.4c-4.1-1.8-10.6-3.7-19.6-5.7-9.9-2.1-18.1-4.4-24.8-6.8-6.6-2.4-12.3-6.3-17.1-11.7-4.8-5.4-7.1-12.6-7.1-21.8s2.2-15.2,6.6-21.7c4.4-6.4,10.9-11.5,19.6-15.3,8.7-3.8,19.4-5.6,32-5.6s17.1,1,25.5,2.9c8.4,1.9,15.8,4.8,22.1,8.5l-11.4,27.6c-12.5-6.8-24.6-10.1-36.4-10.1s-12.8,1.1-16.1,3.3c-3.4,2.2-5.1,5-5.1,8.5s2,6.1,6,7.9c4,1.8,10.4,3.6,19.3,5.4,10,2.1,18.3,4.4,24.9,6.9,6.6,2.4,12.3,6.3,17.1,11.6,4.8,5.3,7.2,12.5,7.2,21.7s-2.2,15-6.6,21.4c-4.4,6.4-10.9,11.5-19.7,15.3-8.8,3.8-19.4,5.7-31.9,5.7s-21-1.3-31-3.9Z"></path><path class="cls-1" d="M1780,1728.7c-10.8-10.6-16.2-25.7-16.2-45.2v-72.8h37.2v71.7c0,21,8.3,31.5,25,31.5s24.8-10.5,24.8-31.5v-71.7h36.6v72.8c0,19.5-5.4,34.6-16.2,45.2-10.8,10.6-26,16-45.5,16s-34.7-5.3-45.5-16Z"></path><path class="cls-1" d="M1912.3,1610.6h37.2v101.9h62.7v29.5h-99.8v-131.4Z"></path><path class="cls-1" d="M2042.6,1640.1h-40.3v-29.5h117.7v29.5h-40.2v101.9h-37.2v-101.9Z"></path><path class="cls-1" d="M2215.2,1716.5h-55.5l-10.3,25.5h-37.9l58-131.4h36.6l58.2,131.4h-38.7l-10.3-25.5ZM2204.3,1689.1l-16.9-42-16.9,42h33.8Z"></path><path class="cls-1" d="M2399.7,1610.6v131.4h-30.6l-58-70v70h-36.4v-131.4h30.6l58,70v-70h36.4Z"></path><path class="cls-1" d="M2453.9,1640.1h-40.3v-29.5h117.7v29.5h-40.2v101.9h-37.2v-101.9Z"></path></g><g><path class="cls-7" d="M1285.8,1363h-55.5l-10.3,25.5h-37.9l58-131.4h36.6l58.2,131.4h-38.7l-10.3-25.5ZM1274.9,1335.6l-16.9-42-16.9,42h33.8Z"></path><path class="cls-7" d="M1357.5,1375.2c-10.8-10.6-16.2-25.7-16.2-45.2v-72.8h37.2v71.7c0,21,8.3,31.5,25,31.5s24.8-10.5,24.8-31.5v-71.7h36.6v72.8c0,19.5-5.4,34.6-16.2,45.2-10.8,10.6-26,16-45.5,16s-34.7-5.3-45.5-16Z"></path><path class="cls-7" d="M1505.1,1387.2c-10-2.6-18.1-6.1-24.4-10.5l12.2-27.4c5.9,3.9,12.7,7,20.5,9.4,7.8,2.4,15.4,3.6,22.9,3.6,14.3,0,21.4-3.6,21.4-10.7s-2-6.5-6.1-8.4c-4.1-1.8-10.6-3.7-19.6-5.7-9.9-2.1-18.1-4.4-24.8-6.8-6.6-2.4-12.3-6.3-17.1-11.7-4.8-5.4-7.1-12.6-7.1-21.8s2.2-15.2,6.6-21.7c4.4-6.4,10.9-11.5,19.6-15.3,8.7-3.8,19.4-5.6,32-5.6s17.1,1,25.5,2.9c8.4,1.9,15.8,4.8,22.1,8.5l-11.4,27.6c-12.5-6.8-24.6-10.1-36.4-10.1s-12.8,1.1-16.1,3.3c-3.4,2.2-5.1,5-5.1,8.5s2,6.1,6,7.9c4,1.8,10.4,3.6,19.3,5.4,10,2.1,18.3,4.4,24.9,6.8,6.6,2.4,12.3,6.3,17.1,11.6,4.8,5.3,7.2,12.5,7.2,21.7s-2.2,15-6.6,21.4c-4.4,6.4-10.9,11.5-19.7,15.3-8.8,3.8-19.4,5.7-31.9,5.7s-21-1.3-31-3.9Z"></path><path class="cls-7" d="M1226.2,1735.9c-10.9-5.8-19.5-13.9-25.8-24.3-6.3-10.4-9.4-22.1-9.4-35.3s3.1-24.9,9.4-35.3c6.3-10.4,14.9-18.5,25.8-24.3,10.9-5.8,23.3-8.7,37.1-8.7s22.8,2.1,32.5,6.4c9.6,4.3,17.6,10.4,24,18.4l-23.6,21.4c-8.5-10.3-18.8-15.4-31-15.4s-13.5,1.6-19,4.7c-5.6,3.1-9.9,7.5-12.9,13.2-3.1,5.7-4.6,12.2-4.6,19.6s1.5,13.9,4.6,19.6c3.1,5.7,7.4,10.1,12.9,13.2,5.6,3.1,11.9,4.7,19,4.7,12.1,0,22.5-5.1,31-15.4l23.6,21.4c-6.4,8-14.4,14.1-24,18.4-9.6,4.3-20.5,6.4-32.5,6.4s-26.1-2.9-37.1-8.7Z"></path><path class="cls-7" d="M1362.2,1735.8c-11.1-5.9-19.8-14-26.1-24.4-6.3-10.4-9.5-22.1-9.5-35.1s3.2-24.7,9.5-35.1c6.3-10.4,15-18.5,26.1-24.4,11.1-5.9,23.6-8.8,37.4-8.8s26.4,2.9,37.4,8.8c11.1,5.9,19.8,14,26.1,24.4,6.3,10.4,9.5,22.1,9.5,35.1s-3.2,24.7-9.5,35.1c-6.3,10.4-15,18.5-26.1,24.4-11.1,5.9-23.6,8.8-37.4,8.8s-26.4-2.9-37.4-8.8ZM1417.7,1709.2c5.4-3.1,9.6-7.5,12.8-13.2,3.1-5.7,4.7-12.2,4.7-19.6s-1.6-13.9-4.7-19.6c-3.1-5.7-7.4-10.1-12.8-13.2-5.4-3.1-11.4-4.7-18-4.7s-12.6,1.6-18,4.7c-5.4,3.1-9.6,7.5-12.8,13.2-3.1,5.7-4.7,12.2-4.7,19.6s1.6,13.9,4.7,19.6c3.1,5.7,7.4,10.1,12.8,13.2,5.4,3.1,11.4,4.7,18,4.7s12.6-1.6,18-4.7Z"></path><path class="cls-7" d="M1617.2,1610.6v131.4h-30.6l-58-70v70h-36.4v-131.4h30.6l58,70v-70h36.4Z"></path><path class="cls-7" d="M1658.6,1740.7c-10-2.6-18.1-6.1-24.4-10.5l12.2-27.4c5.9,3.9,12.7,7,20.5,9.4,7.8,2.4,15.4,3.6,22.9,3.6,14.3,0,21.4-3.6,21.4-10.7s-2-6.5-6.1-8.4c-4.1-1.8-10.6-3.7-19.6-5.7-9.9-2.1-18.1-4.4-24.8-6.8-6.6-2.4-12.3-6.3-17.1-11.7-4.8-5.4-7.1-12.6-7.1-21.8s2.2-15.2,6.6-21.7c4.4-6.4,10.9-11.5,19.6-15.3,8.7-3.8,19.4-5.6,32-5.6s17.1,1,25.5,2.9c8.4,1.9,15.8,4.8,22.1,8.5l-11.4,27.6c-12.5-6.8-24.6-10.1-36.4-10.1s-12.8,1.1-16.1,3.3c-3.4,2.2-5.1,5-5.1,8.5s2,6.1,6,7.9c4,1.8,10.4,3.6,19.3,5.4,10,2.1,18.3,4.4,24.9,6.9,6.6,2.4,12.3,6.3,17.1,11.6,4.8,5.3,7.2,12.5,7.2,21.7s-2.2,15-6.6,21.4c-4.4,6.4-10.9,11.5-19.7,15.3-8.8,3.8-19.4,5.7-31.9,5.7s-21-1.3-31-3.9Z"></path><path class="cls-7" d="M1780,1728.7c-10.8-10.6-16.2-25.7-16.2-45.2v-72.8h37.2v71.7c0,21,8.3,31.5,25,31.5s24.8-10.5,24.8-31.5v-71.7h36.6v72.8c0,19.5-5.4,34.6-16.2,45.2-10.8,10.6-26,16-45.5,16s-34.7-5.3-45.5-16Z"></path><path class="cls-7" d="M1912.3,1610.6h37.2v101.9h62.7v29.5h-99.8v-131.4Z"></path><path class="cls-7" d="M2042.6,1640.1h-40.3v-29.5h117.7v29.5h-40.2v101.9h-37.2v-101.9Z"></path><path class="cls-7" d="M2215.2,1716.5h-55.5l-10.3,25.5h-37.9l58-131.4h36.6l58.2,131.4h-38.7l-10.3-25.5ZM2204.3,1689.1l-16.9-42-16.9,42h33.8Z"></path><path class="cls-7" d="M2399.7,1610.6v131.4h-30.6l-58-70v70h-36.4v-131.4h30.6l58,70v-70h36.4Z"></path><path class="cls-7" d="M2453.9,1640.1h-40.3v-29.5h117.7v29.5h-40.2v101.9h-37.2v-101.9Z"></path></g></g><path class="cls-7" d="M1087,1550h0s0,0,0,0c0,0,0,0,0,0Z"></path><g><path class="cls-4" d="M1302.4,1535.5v28.7h-105.5v-131.4h103v28.7h-66.2v22.1h58.4v27.8h-58.4v24h68.7Z"></path><path class="cls-4" d="M1448.1,1432.9v131.4h-30.6l-58-70v70h-36.4v-131.4h30.6l58,70v-70h36.4Z"></path><path class="cls-4" d="M1562.4,1495.8h32.8v54.4c-7.5,5.4-16.1,9.5-25.9,12.4-9.8,2.9-19.5,4.3-29.3,4.3s-26.1-2.9-37.2-8.7c-11-5.8-19.6-13.9-25.9-24.3-6.3-10.4-9.4-22.1-9.4-35.3s3.1-24.9,9.4-35.3c6.3-10.4,14.9-18.5,26.1-24.3,11.1-5.8,23.7-8.7,37.7-8.7s23.3,2.1,33,6.2c9.8,4.1,17.9,10.1,24.4,17.8l-23.6,21.4c-8.9-9.8-19.5-14.6-31.9-14.6s-20.3,3.4-27.2,10.2c-6.9,6.8-10.3,15.9-10.3,27.3s1.6,13.7,4.7,19.4c3.1,5.7,7.5,10.1,13.1,13.3,5.6,3.2,12.1,4.8,19.3,4.8s13.8-1.4,20.1-4.3v-36Z"></path><path class="cls-4" d="M1724.3,1535.5v28.7h-105.5v-131.4h103v28.7h-66.2v22.1h58.4v27.8h-58.4v24h68.7Z"></path><path class="cls-4" d="M1802.4,1529.3h-20.3v34.9h-37.2v-131.4h60.1c11.9,0,22.2,2,31,5.9,8.8,3.9,15.5,9.6,20.3,16.9,4.8,7.3,7.1,15.9,7.1,25.8s-2.2,17.8-6.7,24.9c-4.4,7.1-10.8,12.6-19,16.6l28.3,41.3h-39.8l-23.8-34.9ZM1820,1467.2c-3.9-3.4-9.6-5.1-17.3-5.1h-20.6v38.5h20.6c7.6,0,13.4-1.7,17.3-5,3.9-3.3,5.8-8,5.8-14.2s-1.9-10.9-5.8-14.3Z"></path><path class="cls-4" d="M1971.8,1495.8h32.8v54.4c-7.5,5.4-16.1,9.5-25.9,12.4-9.8,2.9-19.5,4.3-29.3,4.3s-26.2-2.9-37.2-8.7c-11-5.8-19.6-13.9-25.9-24.3-6.3-10.4-9.4-22.1-9.4-35.3s3.1-24.9,9.4-35.3c6.3-10.4,14.9-18.5,26.1-24.3,11.1-5.8,23.7-8.7,37.7-8.7s23.3,2.1,33,6.2c9.8,4.1,17.9,10.1,24.4,17.8l-23.6,21.4c-8.9-9.8-19.5-14.6-31.9-14.6s-20.3,3.4-27.2,10.2c-6.9,6.8-10.3,15.9-10.3,27.3s1.6,13.7,4.7,19.4c3.1,5.7,7.5,10.1,13.1,13.3,5.6,3.2,12.1,4.8,19.3,4.8s13.8-1.4,20.1-4.3v-36Z"></path><path class="cls-4" d="M2098.7,1517.1v47.1h-37.2v-47.7l-50.1-83.7h39.2l31.2,52.2,31.2-52.2h36l-50.3,84.3Z"></path></g><g><path class="cls-5" d="M729.1,1512.1h23.4l-41.3,110.8c-17.3-12.9-31.9-29.4-42.4-48.2-12.7-22.7-19.5-48.6-19.5-74.8s12.5-70.2,35.1-97.6c18.9-22.8,44-39.6,71.9-48.5l-46.9,130c-2.3,6.4-1.4,13.6,2.6,19.2,3.9,5.6,10.4,9,17.2,9Z"></path><path class="cls-8" d="M955.4,1500c0,40.9-15.9,79.3-44.8,108.2-28.9,28.9-67.4,44.8-108.2,44.8s-28.4-2-42-5.8l126.9-174.7c4.8-6.7,5.5-15.4,1.8-22.7-3.7-7.3-11.2-11.9-19.4-11.9h-26.1l41.2-66.9c20,12.8,36.9,30.2,49.1,50.7,14.1,23.6,21.5,50.7,21.5,78.3Z"></path><path class="cls-7" d="M881.8,1358.9l21.7-35.2c4.3-7.1-.7-16.1-9-16.1h-104.4c-4.6,0-8.7,2.9-10.2,7.2l-9.6,26.5-52.6,145.7c-2.9,7.9,3,16.3,11.5,16.3h30.9c2.6,0,4.3,2.5,3.4,4.9l-47.9,128.5-15.1,40.5c-4.6,12.2,11.9,21.1,19.6,10.5l26.1-35.9,134.1-184.5c6.2-8.6.1-20.6-10.5-20.6h-37.5c-1.9,0-3.1-2.1-2.1-3.7l51.8-84.1ZM821.4,1446.8s0,0,0,0c0,.2,0,.4.1.6.2.6.4,1.2.7,1.8.4.8.8,1.5,1.4,2.1.2.2.4.5.7.7.3.3.6.6,1,.8.4.3.7.5,1.1.7.4.2.9.4,1.4.6.3.1.6.2.9.3.6.1,1.3.2,2,.2h39.5c.1,0,.2,0,.3,0,0,0,.1,0,.2,0,3.6.3,5.7,4.3,3.7,7.4,0,.1-.2.2-.2.3l-135.6,186.6-24.2,33.3-.5.7c-2.4,3.3-7.6.5-6.2-3.3l.3-.8,14.2-38,49.1-131.7s0,0,0,0c.1-.3.2-.6.3-.9.2-.6.3-1.1.3-1.7.5-5.3-3.4-10.2-8.9-10.8-.3,0-.7,0-1,0h-32.5c-3.3,0-5.6-3.3-4.5-6.3v-.3c.1,0,53.9-149.1,53.9-149.1l8-22.2c0,0,0-.2.1-.2h0c0,0,0-.2.1-.2h0c0-.2.2-.3.3-.4.1-.1.2-.3.4-.4.1-.1.3-.2.4-.3.6-.4,1.2-.6,2-.6h103.3c2.6,0,4.2,2.9,2.8,5.1l-.3.5-21.1,34.4-52.2,84.9c0,.1-.2.3-.2.4-.3.5-.5,1-.7,1.4t0,0c-.2.5-.3.9-.4,1.4,0,0,0,.2,0,.2-.2,1.1-.2,2.1,0,3.1Z"></path><path class="cls-3" d="M821.4,1443.6c-.2,1.1-.2,2.1,0,3.1,0,0,0,0,0,0,0,.2,0,.4.1.6.2.6.4,1.2.7,1.8.4.8.8,1.5,1.4,2.1.2.2.4.5.7.7.3.3.6.6,1,.8.4.3.7.5,1.1.7.4.2.9.4,1.4.6.3.1.6.2.9.3.6.1,1.3.2,2,.2h39.5c.1,0,.2,0,.3,0,0,0,.1,0,.2,0,3.5.4,5.5,4.4,3.7,7.4,0,.1-.2.2-.2.3l-135.6,186.6-24.2,33.3-.5.7c-2.4,3.3-7.6.5-6.2-3.3l.3-.8,14.2-38,49.1-131.7s0,0,0,0c.1-.3.2-.6.3-.9.2-.6.3-1.1.3-1.7.5-5.3-3.4-10.3-8.9-10.8-.3,0-.7,0-1,0h-32.1c-3.5,0-5.9-3.4-4.7-6.7l53.8-149.1,8-22.1c0,0,0-.2.1-.3h0c0,0,0-.2.1-.2h0c0-.2.2-.3.3-.4.1-.1.2-.3.4-.4.1-.1.3-.2.4-.3.6-.4,1.2-.6,2-.6h102.8c2.8,0,4.6,3.1,3.1,5.5l-21.1,34.4-52.2,84.9h0c0,.1-.1.3-.2.4-.3.5-.5,1-.7,1.4t0,0c-.2.5-.3.9-.4,1.4,0,0,0,.2,0,.2Z"></path><g><path class="cls-6" d="M1097.7,1499.9c0,11.3-.6,22.4-1.9,33.4-.5,4.7-4.6,8.2-9.2,8.2s-1.2,0-1.9-.2c-4.7-1-7.9-5.4-7.4-10.2,1.2-10.2,1.8-20.7,1.8-31.2,0-107-61.7-200-151.4-245-36.9-18.5-78.5-29-122.6-29s-85.7,10.4-122.6,29c-62,31.1-110.6,85.1-134.7,150.8l25.5-11.9c5-2.3,10.9-.2,13.3,4.8,2.3,5,.2,10.9-4.8,13.3l-41,19.1c-3.1,1.5-6.7,1.9-10,1.2-3.5-.7-6.6-2.6-8.8-5.4,0,0,0,0,0-.1-.5-.7-1-1.4-1.4-2.2l-18-34.5c-2.5-4.9-1-11.1,3.8-13.8,4.9-2.7,11.1-.9,13.7,4.1l10.2,19.6c24.3-66.7,72.3-122.1,133.6-156.1,41.9-23.2,90.1-36.5,141.3-36.5s97.9,12.8,139.4,35.4c91.2,49.6,153.2,146.3,153.2,257.1Z"></path><path class="cls-2" d="M507,1500.1c0-11.3.6-22.4,1.9-33.4.5-4.7,4.6-8.1,9.2-8.1s1.2,0,1.9.2c4.7,1,7.9,5.4,7.4,10.2-1.2,10.2-1.8,20.7-1.8,31.2,0,151.1,122.9,274,274,274s218.8-75,257.3-179.8l-25.5,11.9c-5,2.3-10.9.2-13.3-4.8-2.3-5-.2-10.9,4.8-13.3l41-19.1c3.1-1.5,6.6-1.9,10-1.2,3.5.7,6.6,2.6,8.8,5.4,0,0,0,0,0,0,.5.7,1,1.4,1.4,2.2l18,34.5c2.5,4.9,1,11.1-3.8,13.8-4.9,2.7-11.1.9-13.7-4.1l-10.2-19.6c-40.9,112.3-148.7,192.6-275,192.6s-292.5-131.2-292.5-292.5Z"></path></g></g></g><g><path class="cls-4" d="M1302.4,1535.5v28.7h-105.5v-131.4h103v28.7h-66.2v22.1h58.4v27.8h-58.4v24h68.7Z"></path><path class="cls-4" d="M1448.1,1432.9v131.4h-30.6l-58-70v70h-36.4v-131.4h30.6l58,70v-70h36.4Z"></path><path class="cls-4" d="M1562.4,1495.8h32.8v54.4c-7.5,5.4-16.1,9.5-25.9,12.4-9.8,2.9-19.5,4.3-29.3,4.3s-26.1-2.9-37.2-8.7c-11-5.8-19.6-13.9-25.9-24.3-6.3-10.4-9.4-22.1-9.4-35.3s3.1-24.9,9.4-35.3c6.3-10.4,14.9-18.5,26.1-24.3,11.1-5.8,23.7-8.7,37.7-8.7s23.3,2.1,33,6.2c9.8,4.1,17.9,10.1,24.4,17.8l-23.6,21.4c-8.9-9.8-19.5-14.6-31.9-14.6s-20.3,3.4-27.2,10.2c-6.9,6.8-10.3,15.9-10.3,27.3s1.6,13.7,4.7,19.4c3.1,5.7,7.5,10.1,13.1,13.3,5.6,3.2,12.1,4.8,19.3,4.8s13.8-1.4,20.1-4.3v-36Z"></path><path class="cls-4" d="M1724.3,1535.5v28.7h-105.5v-131.4h103v28.7h-66.2v22.1h58.4v27.8h-58.4v24h68.7Z"></path><path class="cls-4" d="M1802.4,1529.3h-20.3v34.9h-37.2v-131.4h60.1c11.9,0,22.2,2,31,5.9,8.8,3.9,15.5,9.6,20.3,16.9,4.8,7.3,7.1,15.9,7.1,25.8s-2.2,17.8-6.7,24.9c-4.4,7.1-10.8,12.6-19,16.6l28.3,41.3h-39.8l-23.8-34.9ZM1820,1467.2c-3.9-3.4-9.6-5.1-17.3-5.1h-20.6v38.5h20.6c7.6,0,13.4-1.7,17.3-5,3.9-3.3,5.8-8,5.8-14.2s-1.9-10.9-5.8-14.3Z"></path><path class="cls-4" d="M1971.8,1495.8h32.8v54.4c-7.5,5.4-16.1,9.5-25.9,12.4-9.8,2.9-19.5,4.3-29.3,4.3s-26.2-2.9-37.2-8.7c-11-5.8-19.6-13.9-25.9-24.3-6.3-10.4-9.4-22.1-9.4-35.3s3.1-24.9,9.4-35.3c6.3-10.4,14.9-18.5,26.1-24.3,11.1-5.8,23.7-8.7,37.7-8.7s23.3,2.1,33,6.2c9.8,4.1,17.9,10.1,24.4,17.8l-23.6,21.4c-8.9-9.8-19.5-14.6-31.9-14.6s-20.3,3.4-27.2,10.2c-6.9,6.8-10.3,15.9-10.3,27.3s1.6,13.7,4.7,19.4c3.1,5.7,7.5,10.1,13.1,13.3,5.6,3.2,12.1,4.8,19.3,4.8s13.8-1.4,20.1-4.3v-36Z"></path><path class="cls-4" d="M2098.7,1517.1v47.1h-37.2v-47.7l-50.1-83.7h39.2l31.2,52.2,31.2-52.2h36l-50.3,84.3Z"></path></g></g><g><g><path class="cls-7" d="M49.6,16.5h-4.6l-.8,2.4h-3.6l5.1-12.7h3.2l5.2,12.7h-3.6l-.8-2.4ZM45.8,14.1h3l-1.5-4.4-1.5,4.4Z"></path><path class="cls-7" d="M65.8,6.2v8.3c0,.9-.2,1.8-.7,2.4-.4.7-1.1,1.2-1.9,1.6-.8.4-1.8.5-2.9.5-1.7,0-3-.4-4-1.2-1-.8-1.5-1.9-1.5-3.3V6.2h3.4v8.4c0,1.4.7,2.1,2.1,2.1s1.2-.2,1.6-.5c.4-.3.5-.9.5-1.7V6.2h3.4Z"></path><path class="cls-7" d="M75.2,15.5c0-.4-.2-.8-.5-1-.3-.2-1-.5-1.8-.8-.9-.3-1.6-.5-2.2-.8-1.8-.8-2.7-1.9-2.7-3.3s.2-1.3.7-1.9c.5-.5,1.1-1,1.9-1.3.8-.3,1.8-.4,2.8-.4s1.9.2,2.7.5c.8.3,1.4.8,1.9,1.4.4.6.7,1.3.7,2.1h-3.4c0-.5-.2-.9-.5-1.2-.3-.3-.8-.4-1.4-.4s-1.1.1-1.4.4c-.3.2-.5.5-.5.9s.2.6.6.9c.4.3,1.1.5,2,.8,1,.3,1.8.6,2.4.9,1.5.8,2.3,1.9,2.3,3.3s-.5,2-1.4,2.6c-.9.6-2.2.9-3.8.9s-2.2-.2-3.1-.6c-.9-.4-1.6-.9-2.1-1.5-.5-.6-.7-1.4-.7-2.2h3.4c0,.7.2,1.2.6,1.5.4.3,1,.5,1.9.5s1-.1,1.3-.3c.3-.2.5-.5.5-.9Z"></path><path class="cls-7" d="M91.2,8.5h-4.2v10.3h-3.4v-10.3h-4.1v-2.4h11.7v2.4Z"></path><path class="cls-7" d="M99.4,16.5h-4.6l-.8,2.4h-3.6l5.1-12.7h3.2l5.2,12.7h-3.6l-.8-2.4ZM95.6,14.1h3l-1.5-4.4-1.5,4.4Z"></path><path class="cls-7" d="M110.1,14.4h-1.8v4.5h-3.4V6.2h5.5c1.7,0,3,.3,3.9,1,.9.7,1.4,1.6,1.4,2.8s-.2,1.6-.6,2.2c-.4.6-1,1.1-1.8,1.4l2.9,5.1h0c0,.1-3.6.1-3.6.1l-2.5-4.5ZM108.3,12h2.1c.6,0,1.1-.2,1.4-.5.3-.3.5-.7.5-1.3s-.2-1-.5-1.3c-.3-.3-.8-.5-1.4-.5h-2.1v3.5Z"></path><path class="cls-7" d="M131.1,12.8h-6.5v5.2h7.5v.9h-8.7V6.2h8.7v.9h-7.5v4.8h6.5v.9Z"></path><path class="cls-7" d="M144.9,18.8h-1.2l-8-10.9v10.9h-1.2V6.2h1.2l8,10.9V6.2h1.2v12.7Z"></path><path class="cls-7" d="M156.2,12.8h-6.5v5.2h7.5v.9h-8.7V6.2h8.7v.9h-7.5v4.8h6.5v.9Z"></path><path class="cls-7" d="M164.9,13.6h-4.1v5.3h-1.2V6.2h4.5c1.5,0,2.7.3,3.5,1,.8.7,1.3,1.6,1.3,2.7s-.3,1.5-.8,2.1c-.5.6-1.2,1-2.1,1.3l3.5,5.4h0c0,.1-1.3.1-1.3.1l-3.4-5.3ZM160.9,12.6h3.6c1,0,1.8-.3,2.4-.8.6-.5.9-1.2.9-2s-.3-1.6-.9-2.1c-.6-.5-1.5-.7-2.6-.7h-3.3v5.6Z"></path><path class="cls-7" d="M182.3,17.3c-.4.5-1.1.9-1.9,1.2s-1.9.4-2.9.4-2.1-.2-2.9-.7c-.9-.5-1.5-1.1-2-2-.5-.9-.7-1.9-.7-3v-1.6c0-1.8.5-3.1,1.5-4.2,1-1,2.3-1.5,3.9-1.5s2.6.3,3.5,1c.9.7,1.4,1.6,1.6,2.7h-1.2c-.2-.9-.6-1.6-1.3-2.1-.7-.5-1.5-.7-2.6-.7s-2.3.4-3.1,1.3c-.8.8-1.1,2-1.1,3.6v1.5c0,1,.2,1.8.5,2.6.4.7.9,1.3,1.6,1.7.7.4,1.5.6,2.3.6s1.9-.1,2.6-.4c.5-.2.8-.4,1.1-.7v-3.3h-3.8v-.9h4.9v4.5Z"></path><path class="cls-7" d="M189.7,13.1l4.3-6.9h1.4l-5.1,7.9v4.8h-1.2v-4.8l-5-7.9h1.4l4.2,6.9Z"></path></g><g><g><path class="cls-7" d="M26.6,18.9H6.9c-.5,0-.9.4-.9.9v2.3c0,.5.4.9.9.9h20v-.3H6.9c-.3,0-.6-.3-.6-.6v-2.3c0-.3.3-.6.6-.6h19.7c.5,0,.9-.4.9-.9v-2.3c0-.5-.4-.9-.9-.9h-14.8c-.3,0-.6-.3-.6-.6v-2.3c0-.3.3-.6.6-.6h8.9s.8,0,.8,0c.5,0,.9-.4.9-.9v-2.3c0-.5-.4-.9-.9-.9h-6.6c-.3,0-.6-.3-.6-.6v-2.3c0-.3.3-.6.6-.6h8.7c.5,0,.9-.4.9-.9V.9C24.4.4,24,0,23.5,0h-6.1v.3h6.1c.3,0,.6.3.6.6v2.3c0,.3-.3.6-.6.6h-8.7c-.5,0-.9.4-.9.9v2.3c0,.5.4.9.9.9h6.6c.3,0,.6.3.6.6v2.3c0,.3-.3.6-.6.6h-9.7c-.5,0-.9.4-.9.9v2.3c0,.5.4.9.9.9h14.8c.3,0,.6.3.6.6v2.3c0,.3-.3.6-.6.6Z"></path><path class="cls-7" d="M34.8,19.1c-2.4,0-3.7-.6-5.6,1.7-1.6,1.9-2,1.9-3.2,1.9v.3s0,0,0,0c1,0,1.9.3,2.8.8.6.4,1.5.9,2.2,1,1.7.4,6.7,0,6.9-7.2h0s-.6,1.4-3,1.5ZM27.7,22.9c7.4-.3,9.5-3.9,10-5-2.1,5.7-10,5-10,5Z"></path></g><polygon class="cls-7" points="0 23 11.2 0 13.8 0 2.5 23 0 23"></polygon></g></g></svg> 